<svg width="232" height="31" viewBox="0 0 232 31" fill="none" xmlns="http://www.w3.org/2000/svg">
<path d="M6.56734 22.64C5.46068 22.64 4.46734 22.4067 3.58734 21.94C2.70734 21.4733 2.02068 20.8267 1.52734 20C1.03401 19.16 0.787344 18.2133 0.787344 17.16C0.787344 16.1067 1.03401 15.1667 1.52734 14.34C2.02068 13.5133 2.70068 12.8667 3.56734 12.4C4.44734 11.9333 5.44734 11.7 6.56734 11.7C7.62068 11.7 8.54068 11.9133 9.32734 12.34C10.1273 12.7667 10.7273 13.38 11.1273 14.18L9.20734 15.3C8.90068 14.8067 8.51401 14.44 8.04734 14.2C7.59401 13.9467 7.09401 13.82 6.54734 13.82C5.61401 13.82 4.84068 14.1267 4.22734 14.74C3.61401 15.34 3.30734 16.1467 3.30734 17.16C3.30734 18.1733 3.60734 18.9867 4.20734 19.6C4.82068 20.2 5.60068 20.5 6.54734 20.5C7.09401 20.5 7.59401 20.38 8.04734 20.14C8.51401 19.8867 8.90068 19.5133 9.20734 19.02L11.1273 20.14C10.714 20.94 10.1073 21.56 9.30734 22C8.52068 22.4267 7.60734 22.64 6.56734 22.64ZM18.4758 12.08H27.6958V14.08H18.4758V12.08ZM18.4758 16.92H27.6958V18.92H18.4758V16.92Z" fill="#2F2F2F"/>
<path d="M44.0051 1.56317L90.851 1.43685L90.8407 -0.563124L43.9948 -0.436809L44.0051 1.56317ZM94.8715 5.42601L94.9743 25.4259L96.9743 25.4205L96.8715 5.42062L94.8715 5.42601ZM90.9949 29.4367L44.149 29.563L44.1593 31.563L91.0052 31.4366L90.9949 29.4367ZM40.1285 25.5738L40.0257 5.5739L38.0257 5.57929L38.1285 25.5792L40.1285 25.5738ZM44.149 29.563C41.9399 29.5689 40.1398 27.7829 40.1285 25.5738L38.1285 25.5792C38.1455 28.8929 40.8456 31.5719 44.1593 31.563L44.149 29.563ZM94.9743 25.4259C94.9857 27.635 93.204 29.4307 90.9949 29.4367L91.0052 31.4366C94.3189 31.4277 96.9913 28.7342 96.9743 25.4205L94.9743 25.4259ZM90.851 1.43685C93.0601 1.43089 94.8602 3.2169 94.8715 5.42601L96.8715 5.42062C96.8545 2.10695 94.1544 -0.572059 90.8407 -0.563124L90.851 1.43685ZM43.9948 -0.436809C40.6811 -0.427874 38.0087 2.26563 38.0257 5.57929L40.0257 5.5739C40.0143 3.36479 41.796 1.56912 44.0051 1.56317L43.9948 -0.436809Z" fill="#2F2F2F"/>
<path d="M140.984 11.2767C142.557 11.2767 143.757 11.6567 144.584 12.4167C145.424 13.1633 145.844 14.2967 145.844 15.8167V22.0767H143.484V20.7767C143.177 21.2433 142.737 21.6033 142.164 21.8567C141.604 22.0967 140.924 22.2167 140.124 22.2167C139.324 22.2167 138.624 22.0833 138.024 21.8167C137.424 21.5367 136.957 21.1567 136.624 20.6767C136.304 20.1833 136.144 19.63 136.144 19.0167C136.144 18.0567 136.497 17.29 137.204 16.7167C137.924 16.13 139.05 15.8367 140.584 15.8367H143.344V15.6767C143.344 14.93 143.117 14.3567 142.664 13.9567C142.224 13.5567 141.564 13.3567 140.684 13.3567C140.084 13.3567 139.49 13.45 138.904 13.6367C138.33 13.8233 137.844 14.0833 137.444 14.4167L136.464 12.5967C137.024 12.17 137.697 11.8433 138.484 11.6167C139.27 11.39 140.104 11.2767 140.984 11.2767ZM140.644 20.3967C141.27 20.3967 141.824 20.2567 142.304 19.9767C142.797 19.6833 143.144 19.27 143.344 18.7367V17.4967H140.764C139.324 17.4967 138.604 17.97 138.604 18.9167C138.604 19.37 138.784 19.73 139.144 19.9967C139.504 20.2633 140.004 20.3967 140.644 20.3967ZM154.239 11.6567H163.459V13.6567H154.239V11.6567ZM154.239 16.4967H163.459V18.4967H154.239V16.4967Z" fill="#2F2F2F"/>
<path d="M180.005 1.13983L226.851 1.01351L226.841 -0.986463L179.995 -0.860148L180.005 1.13983ZM230.872 5.00267L230.974 25.0026L232.974 24.9972L232.872 4.99728L230.872 5.00267ZM226.995 29.0133L180.149 29.1396L180.159 31.1396L227.005 31.0133L226.995 29.0133ZM176.128 25.1505L176.026 5.15056L174.026 5.15595L174.128 25.1559L176.128 25.1505ZM180.149 29.1396C177.94 29.1456 176.14 27.3596 176.128 25.1505L174.128 25.1559C174.146 28.4695 176.846 31.1486 180.159 31.1396L180.149 29.1396ZM230.974 25.0026C230.986 27.2117 229.204 29.0074 226.995 29.0133L227.005 31.0133C230.319 31.0044 232.991 28.3109 232.974 24.9972L230.974 25.0026ZM226.851 1.01351C229.06 1.00755 230.86 2.79356 230.872 5.00267L232.872 4.99728C232.854 1.68361 230.154 -0.995398 226.841 -0.986463L226.851 1.01351ZM179.995 -0.860148C176.681 -0.851213 174.009 1.84229 174.026 5.15595L176.026 5.15056C176.014 2.94145 177.796 1.14578 180.005 1.13983L179.995 -0.860148Z" fill="#2F2F2F"/>
<path d="M72.0929 15.376C72.7529 15.676 73.2569 16.084 73.6049 16.6C73.9649 17.104 74.1449 17.698 74.1449 18.382C74.1449 19.15 73.9289 19.822 73.4969 20.398C73.0769 20.974 72.4769 21.418 71.6969 21.73C70.9169 22.03 70.0109 22.18 68.9789 22.18C67.9469 22.18 67.0409 22.03 66.2609 21.73C65.4929 21.418 64.8989 20.974 64.4789 20.398C64.0589 19.822 63.8489 19.15 63.8489 18.382C63.8489 17.698 64.0229 17.104 64.3709 16.6C64.7189 16.084 65.2169 15.676 65.8649 15.376C65.3609 15.1 64.9709 14.74 64.6949 14.296C64.4309 13.84 64.2989 13.318 64.2989 12.73C64.2989 12.022 64.4909 11.404 64.8749 10.876C65.2709 10.348 65.8229 9.94 66.5309 9.652C67.2389 9.364 68.0549 9.22 68.9789 9.22C69.9149 9.22 70.7369 9.364 71.4449 9.652C72.1529 9.94 72.7049 10.348 73.1009 10.876C73.4969 11.404 73.6949 12.022 73.6949 12.73C73.6949 13.318 73.5569 13.834 73.2809 14.278C73.0049 14.722 72.6089 15.088 72.0929 15.376ZM68.9789 11.056C68.2469 11.056 67.6649 11.212 67.2329 11.524C66.8129 11.836 66.6029 12.274 66.6029 12.838C66.6029 13.378 66.8129 13.81 67.2329 14.134C67.6649 14.446 68.2469 14.602 68.9789 14.602C69.7229 14.602 70.3109 14.446 70.7429 14.134C71.1749 13.81 71.3909 13.378 71.3909 12.838C71.3909 12.274 71.1689 11.836 70.7249 11.524C70.2929 11.212 69.7109 11.056 68.9789 11.056ZM68.9789 20.344C69.8429 20.344 70.5269 20.164 71.0309 19.804C71.5349 19.444 71.7869 18.946 71.7869 18.31C71.7869 17.686 71.5349 17.194 71.0309 16.834C70.5269 16.474 69.8429 16.294 68.9789 16.294C68.1149 16.294 67.4369 16.474 66.9449 16.834C66.4529 17.194 66.2069 17.686 66.2069 18.31C66.2069 18.946 66.4529 19.444 66.9449 19.804C67.4369 20.164 68.1149 20.344 68.9789 20.344Z" fill="#2F2F2F"/>
<path d="M203.23 19.5967V21.5767H193.943V20.0107L198.947 15.2587C199.511 14.7187 199.889 14.2507 200.081 13.8547C200.285 13.4467 200.387 13.0447 200.387 12.6487C200.387 12.0607 200.189 11.6107 199.793 11.2987C199.397 10.9867 198.815 10.8307 198.047 10.8307C196.763 10.8307 195.779 11.2687 195.095 12.1447L193.457 10.8847C193.949 10.2247 194.609 9.71466 195.437 9.35466C196.277 8.98266 197.213 8.79666 198.245 8.79666C199.613 8.79666 200.705 9.12066 201.521 9.76866C202.337 10.4167 202.745 11.2987 202.745 12.4147C202.745 13.0987 202.601 13.7407 202.312 14.3407C202.025 14.9407 201.473 15.6247 200.657 16.3927L197.291 19.5967H203.23ZM214.032 8.97666V10.5427L209.136 21.5767H206.634L211.368 10.9567H206.418V13.0987H204.24V8.97666H214.032Z" fill="#2F2F2F"/>
</svg>
