<svg width="91" height="50" viewBox="0 0 91 50" fill="none" xmlns="http://www.w3.org/2000/svg">
<path d="M12.54 19.14C11.4333 19.14 10.44 18.9067 9.56 18.44C8.68 17.9733 7.99333 17.3267 7.5 16.5C7.00667 15.66 6.76 14.7133 6.76 13.66C6.76 12.6067 7.00667 11.6667 7.5 10.84C7.99333 10.0133 8.67333 9.36667 9.54 8.9C10.42 8.43333 11.42 8.2 12.54 8.2C13.5933 8.2 14.5133 8.41333 15.3 8.84C16.1 9.26667 16.7 9.88 17.1 10.68L15.18 11.8C14.8733 11.3067 14.4867 10.94 14.02 10.7C13.5667 10.4467 13.0667 10.32 12.52 10.32C11.5867 10.32 10.8133 10.6267 10.2 11.24C9.58667 11.84 9.28 12.6467 9.28 13.66C9.28 14.6733 9.58 15.4867 10.18 16.1C10.7933 16.7 11.5733 17 12.52 17C13.0667 17 13.5667 16.88 14.02 16.64C14.4867 16.3867 14.8733 16.0133 15.18 15.52L17.1 16.64C16.6867 17.44 16.08 18.06 15.28 18.5C14.4933 18.9267 13.58 19.14 12.54 19.14Z" fill="#2F2F2F"/>
<line x1="0.5" y1="23.5" x2="26.5" y2="23.5" stroke="#2F2F2F" stroke-linecap="round"/>
<path d="M14.24 36.36C15.16 36.36 15.9867 36.54 16.72 36.9C17.4533 37.2467 18.0267 37.7467 18.44 38.4C18.8533 39.0533 19.06 39.8067 19.06 40.66C19.06 41.5667 18.8333 42.3667 18.38 43.06C17.9267 43.74 17.3133 44.2667 16.54 44.64C15.7667 45.0133 14.9 45.2 13.94 45.2C12.02 45.2 10.5267 44.6 9.46 43.4C8.40667 42.2 7.88 40.48 7.88 38.24C7.88 36.6667 8.16667 35.3267 8.74 34.22C9.31333 33.1 10.1133 32.2533 11.14 31.68C12.18 31.0933 13.38 30.8 14.74 30.8C15.46 30.8 16.1333 30.88 16.76 31.04C17.4 31.1867 17.9533 31.4067 18.42 31.7L17.46 33.66C16.7667 33.2067 15.88 32.98 14.8 32.98C13.4533 32.98 12.4 33.3933 11.64 34.22C10.88 35.0467 10.5 36.24 10.5 37.8V37.82C10.9133 37.34 11.44 36.98 12.08 36.74C12.72 36.4867 13.44 36.36 14.24 36.36ZM13.8 43.16C14.6133 43.16 15.2733 42.9467 15.78 42.52C16.2867 42.08 16.54 41.5 16.54 40.78C16.54 40.0467 16.2867 39.4667 15.78 39.04C15.2733 38.6133 14.5933 38.4 13.74 38.4C12.9 38.4 12.2133 38.6267 11.68 39.08C11.16 39.5333 10.9 40.1067 10.9 40.8C10.9 41.48 11.1533 42.0467 11.66 42.5C12.18 42.94 12.8933 43.16 13.8 43.16Z" fill="#2F2F2F"/>
<path d="M34.32 27.08H40.92V29.576H34.32V27.08Z" fill="#2F2F2F"/>
<path d="M54.2473 18V32H51.6473V20.18H48.6873V18H54.2473ZM62.9719 21.58H72.1919V23.58H62.9719V21.58ZM62.9719 26.42H72.1919V28.42H62.9719V26.42ZM85.8361 23.78C87.1294 23.94 88.1161 24.38 88.7961 25.1C89.4761 25.82 89.8161 26.72 89.8161 27.8C89.8161 28.6133 89.6094 29.3533 89.1961 30.02C88.7828 30.6867 88.1561 31.22 87.3161 31.62C86.4894 32.0067 85.4761 32.2 84.2761 32.2C83.2761 32.2 82.3094 32.06 81.3761 31.78C80.4561 31.4867 79.6694 31.0867 79.0161 30.58L80.1361 28.56C80.6428 28.9867 81.2561 29.3267 81.9761 29.58C82.7094 29.82 83.4628 29.94 84.2361 29.94C85.1561 29.94 85.8761 29.7533 86.3961 29.38C86.9294 28.9933 87.1961 28.4733 87.1961 27.82C87.1961 27.1667 86.9428 26.66 86.4361 26.3C85.9428 25.9267 85.1828 25.74 84.1561 25.74H82.8761V23.96L86.0561 20.18H79.6961V18H89.2361V19.74L85.8361 23.78Z" fill="#2F2F2F"/>
</svg>
