<svg width="110" height="50" viewBox="0 0 110 50" fill="none" xmlns="http://www.w3.org/2000/svg">
<path d="M11.72 8.2C13.2933 8.2 14.4933 8.58 15.32 9.34C16.16 10.0867 16.58 11.22 16.58 12.74V19H14.22V17.7C13.9133 18.1667 13.4733 18.5267 12.9 18.78C12.34 19.02 11.66 19.14 10.86 19.14C10.06 19.14 9.36 19.0067 8.76 18.74C8.16 18.46 7.69333 18.08 7.36 17.6C7.04 17.1067 6.88 16.5533 6.88 15.94C6.88 14.98 7.23333 14.2133 7.94 13.64C8.66 13.0533 9.78667 12.76 11.32 12.76H14.08V12.6C14.08 11.8533 13.8533 11.28 13.4 10.88C12.96 10.48 12.3 10.28 11.42 10.28C10.82 10.28 10.2267 10.3733 9.64 10.56C9.06667 10.7467 8.58 11.0067 8.18 11.34L7.2 9.52C7.76 9.09333 8.43333 8.76667 9.22 8.54C10.0067 8.31333 10.84 8.2 11.72 8.2ZM11.38 17.32C12.0067 17.32 12.56 17.18 13.04 16.9C13.5333 16.6067 13.88 16.1933 14.08 15.66V14.42H11.5C10.06 14.42 9.34 14.8933 9.34 15.84C9.34 16.2933 9.52 16.6533 9.88 16.92C10.24 17.1867 10.74 17.32 11.38 17.32Z" fill="#2F2F2F"/>
<line x1="0.5" y1="23.5" x2="26.5" y2="23.5" stroke="#2F2F2F" stroke-linecap="round"/>
<path d="M13.84 36.78C15.1333 36.94 16.12 37.38 16.8 38.1C17.48 38.82 17.82 39.72 17.82 40.8C17.82 41.6133 17.6133 42.3533 17.2 43.02C16.7867 43.6867 16.16 44.22 15.32 44.62C14.4933 45.0067 13.48 45.2 12.28 45.2C11.28 45.2 10.3133 45.06 9.38 44.78C8.46 44.4867 7.67333 44.0867 7.02 43.58L8.14 41.56C8.64667 41.9867 9.26 42.3267 9.98 42.58C10.7133 42.82 11.4667 42.94 12.24 42.94C13.16 42.94 13.88 42.7533 14.4 42.38C14.9333 41.9933 15.2 41.4733 15.2 40.82C15.2 40.1667 14.9467 39.66 14.44 39.3C13.9467 38.9267 13.1867 38.74 12.16 38.74H10.88V36.96L14.06 33.18H7.7V31H17.24V32.74L13.84 36.78Z" fill="#2F2F2F"/>
<path d="M45.624 27.8H41.376V32H38.808V27.8H34.56V25.4H38.808V21.2H41.376V25.4H45.624V27.8Z" fill="#2F2F2F"/>
<path d="M66.8873 28.82H64.4073V32H61.8873V28.82H54.2073V27.02L61.1073 18H63.8873L57.3873 26.62H61.9673V23.8H64.4073V26.62H66.8873V28.82ZM73.9289 21.58H83.1489V23.58H73.9289V21.58ZM73.9289 26.42H83.1489V28.42H73.9289V26.42ZM95.6731 18V32H93.0731V20.18H90.1131V18H95.6731ZM104.41 23.78C105.704 23.94 106.69 24.38 107.37 25.1C108.05 25.82 108.39 26.72 108.39 27.8C108.39 28.6133 108.184 29.3533 107.77 30.02C107.357 30.6867 106.73 31.22 105.89 31.62C105.064 32.0067 104.05 32.2 102.85 32.2C101.85 32.2 100.884 32.06 99.9503 31.78C99.0303 31.4867 98.2436 31.0867 97.5903 30.58L98.7103 28.56C99.217 28.9867 99.8303 29.3267 100.55 29.58C101.284 29.82 102.037 29.94 102.81 29.94C103.73 29.94 104.45 29.7533 104.97 29.38C105.504 28.9933 105.77 28.4733 105.77 27.82C105.77 27.1667 105.517 26.66 105.01 26.3C104.517 25.9267 103.757 25.74 102.73 25.74H101.45V23.96L104.63 20.18H98.2703V18H107.81V19.74L104.41 23.78Z" fill="#2F2F2F"/>
</svg>
