<svg width="41" height="16" viewBox="0 0 41 16" fill="none" xmlns="http://www.w3.org/2000/svg">
<path d="M6.44 15.12C5.36 15.12 4.39333 14.8867 3.54 14.42C2.7 13.9533 2.04 13.3133 1.56 12.5C1.08 11.6733 0.84 10.74 0.84 9.7C0.84 8.66 1.08 7.73333 1.56 6.92C2.04 6.09333 2.7 5.45333 3.54 5C4.39333 4.53333 5.36 4.3 6.44 4.3C7.4 4.3 8.25333 4.49333 9 4.88C9.76 5.26667 10.3467 5.82667 10.76 6.56L9.3 7.5C8.96667 6.99333 8.55333 6.61333 8.06 6.36C7.56667 6.10667 7.02 5.98 6.42 5.98C5.72667 5.98 5.1 6.13333 4.54 6.44C3.99333 6.74667 3.56 7.18667 3.24 7.76C2.93333 8.32 2.78 8.96667 2.78 9.7C2.78 10.4467 2.93333 11.1067 3.24 11.68C3.56 12.24 3.99333 12.6733 4.54 12.98C5.1 13.2867 5.72667 13.44 6.42 13.44C7.02 13.44 7.56667 13.3133 8.06 13.06C8.55333 12.8067 8.96667 12.4267 9.3 11.92L10.76 12.84C10.3467 13.5733 9.76 14.14 9 14.54C8.25333 14.9267 7.4 15.12 6.44 15.12ZM26.5058 4.3C27.8391 4.3 28.8924 4.68667 29.6658 5.46C30.4524 6.23333 30.8458 7.38 30.8458 8.9V15H28.9258V9.12C28.9258 8.09333 28.6858 7.32 28.2058 6.8C27.7391 6.28 27.0658 6.02 26.1858 6.02C25.2124 6.02 24.4391 6.32667 23.8658 6.94C23.2924 7.54 23.0058 8.40667 23.0058 9.54V15H21.0858V9.12C21.0858 8.09333 20.8458 7.32 20.3658 6.8C19.8991 6.28 19.2258 6.02 18.3458 6.02C17.3724 6.02 16.5991 6.32667 16.0258 6.94C15.4524 7.54 15.1658 8.40667 15.1658 9.54V15H13.2458V4.4H15.0858V5.98C15.4724 5.43333 15.9791 5.02 16.6058 4.74C17.2324 4.44667 17.9458 4.3 18.7458 4.3C19.5724 4.3 20.3058 4.46667 20.9458 4.8C21.5858 5.13333 22.0791 5.62 22.4258 6.26C22.8258 5.64667 23.3791 5.16667 24.0858 4.82C24.8058 4.47333 25.6124 4.3 26.5058 4.3ZM37.4186 3.6C38.3119 3.66667 38.9919 3.92 39.4586 4.36C39.9386 4.78667 40.1786 5.33333 40.1786 6C40.1786 6.73333 39.8653 7.34667 39.2386 7.84C38.6119 8.32 37.7253 8.56 36.5786 8.56C35.8586 8.56 35.1786 8.46667 34.5386 8.28C33.9119 8.09333 33.4319 7.84667 33.0986 7.54L33.6586 6.48C33.9919 6.74667 34.4119 6.96 34.9186 7.12C35.4386 7.28 35.9919 7.36 36.5786 7.36C37.2986 7.36 37.8453 7.24 38.2186 7C38.5919 6.76 38.7786 6.42667 38.7786 6C38.7786 5.57333 38.5986 5.24667 38.2386 5.02C37.8919 4.78 37.3653 4.66 36.6586 4.66H35.7186V3.72L37.9586 1.32H33.3586V0.159999H39.7786V1.06L37.4186 3.6Z" fill="#2F2F2F"/>
</svg>
