<svg width="389" height="30" viewBox="0 0 389 30" fill="none" xmlns="http://www.w3.org/2000/svg">
<path d="M128.44 22.12C127.36 22.12 126.393 21.8867 125.54 21.42C124.7 20.9533 124.04 20.3133 123.56 19.5C123.08 18.6733 122.84 17.74 122.84 16.7C122.84 15.66 123.08 14.7333 123.56 13.92C124.04 13.0933 124.7 12.4533 125.54 12C126.393 11.5333 127.36 11.3 128.44 11.3C129.4 11.3 130.253 11.4933 131 11.88C131.76 12.2667 132.347 12.8267 132.76 13.56L131.3 14.5C130.967 13.9933 130.553 13.6133 130.06 13.36C129.567 13.1067 129.02 12.98 128.42 12.98C127.727 12.98 127.1 13.1333 126.54 13.44C125.993 13.7467 125.56 14.1867 125.24 14.76C124.933 15.32 124.78 15.9667 124.78 16.7C124.78 17.4467 124.933 18.1067 125.24 18.68C125.56 19.24 125.993 19.6733 126.54 19.98C127.1 20.2867 127.727 20.44 128.42 20.44C129.02 20.44 129.567 20.3133 130.06 20.06C130.553 19.8067 130.967 19.4267 131.3 18.92L132.76 19.84C132.347 20.5733 131.76 21.14 131 21.54C130.253 21.9267 129.4 22.12 128.44 22.12ZM148.506 11.3C149.839 11.3 150.892 11.6867 151.666 12.46C152.452 13.2333 152.846 14.38 152.846 15.9V22H150.926V16.12C150.926 15.0933 150.686 14.32 150.206 13.8C149.739 13.28 149.066 13.02 148.186 13.02C147.212 13.02 146.439 13.3267 145.866 13.94C145.292 14.54 145.006 15.4067 145.006 16.54V22H143.086V16.12C143.086 15.0933 142.846 14.32 142.366 13.8C141.899 13.28 141.226 13.02 140.346 13.02C139.372 13.02 138.599 13.3267 138.026 13.94C137.452 14.54 137.166 15.4067 137.166 16.54V22H135.246V11.4H137.086V12.98C137.472 12.4333 137.979 12.02 138.606 11.74C139.232 11.4467 139.946 11.3 140.746 11.3C141.572 11.3 142.306 11.4667 142.946 11.8C143.586 12.1333 144.079 12.62 144.426 13.26C144.826 12.6467 145.379 12.1667 146.086 11.82C146.806 11.4733 147.612 11.3 148.506 11.3ZM159.419 10.6C160.312 10.6667 160.992 10.92 161.459 11.36C161.939 11.7867 162.179 12.3333 162.179 13C162.179 13.7333 161.865 14.3467 161.239 14.84C160.612 15.32 159.725 15.56 158.579 15.56C157.859 15.56 157.179 15.4667 156.539 15.28C155.912 15.0933 155.432 14.8467 155.099 14.54L155.659 13.48C155.992 13.7467 156.412 13.96 156.919 14.12C157.439 14.28 157.992 14.36 158.579 14.36C159.299 14.36 159.845 14.24 160.219 14C160.592 13.76 160.779 13.4267 160.779 13C160.779 12.5733 160.599 12.2467 160.239 12.02C159.892 11.78 159.365 11.66 158.659 11.66H157.719V10.72L159.959 8.32H155.359V7.16H161.779V8.06L159.419 10.6Z" fill="#2F2F2F"/>
<path d="M47 1H107V-1H47V1ZM111 5V25H113V5H111ZM107 29H47V31H107V29ZM43 25V5H41V25H43ZM47 29C44.7909 29 43 27.2091 43 25H41C41 28.3137 43.6863 31 47 31V29ZM111 25C111 27.2091 109.209 29 107 29V31C110.314 31 113 28.3137 113 25H111ZM107 1C109.209 1 111 2.79086 111 5H113C113 1.68629 110.314 -1 107 -1V1ZM47 -1C43.6863 -1 41 1.68629 41 5H43C43 2.79086 44.7909 1 47 1V-1Z" fill="#2F2F2F"/>
<path d="M15.26 8L9.12 22H7.14L0.98 8H3.14L8.18 19.5L13.26 8H15.26ZM21.9494 11.84H30.9094V13.42H21.9494V11.84ZM21.9494 16.58H30.9094V18.16H21.9494V16.58Z" fill="#2F2F2F"/>
<path d="M353.44 22.12C352.36 22.12 351.393 21.8867 350.54 21.42C349.7 20.9533 349.04 20.3133 348.56 19.5C348.08 18.6733 347.84 17.74 347.84 16.7C347.84 15.66 348.08 14.7333 348.56 13.92C349.04 13.0933 349.7 12.4533 350.54 12C351.393 11.5333 352.36 11.3 353.44 11.3C354.4 11.3 355.253 11.4933 356 11.88C356.76 12.2667 357.347 12.8267 357.76 13.56L356.3 14.5C355.967 13.9933 355.553 13.6133 355.06 13.36C354.567 13.1067 354.02 12.98 353.42 12.98C352.727 12.98 352.1 13.1333 351.54 13.44C350.993 13.7467 350.56 14.1867 350.24 14.76C349.933 15.32 349.78 15.9667 349.78 16.7C349.78 17.4467 349.933 18.1067 350.24 18.68C350.56 19.24 350.993 19.6733 351.54 19.98C352.1 20.2867 352.727 20.44 353.42 20.44C354.02 20.44 354.567 20.3133 355.06 20.06C355.553 19.8067 355.967 19.4267 356.3 18.92L357.76 19.84C357.347 20.5733 356.76 21.14 356 21.54C355.253 21.9267 354.4 22.12 353.44 22.12ZM373.506 11.3C374.839 11.3 375.892 11.6867 376.666 12.46C377.452 13.2333 377.846 14.38 377.846 15.9V22H375.926V16.12C375.926 15.0933 375.686 14.32 375.206 13.8C374.739 13.28 374.066 13.02 373.186 13.02C372.212 13.02 371.439 13.3267 370.866 13.94C370.292 14.54 370.006 15.4067 370.006 16.54V22H368.086V16.12C368.086 15.0933 367.846 14.32 367.366 13.8C366.899 13.28 366.226 13.02 365.346 13.02C364.372 13.02 363.599 13.3267 363.026 13.94C362.452 14.54 362.166 15.4067 362.166 16.54V22H360.246V11.4H362.086V12.98C362.472 12.4333 362.979 12.02 363.606 11.74C364.232 11.4467 364.946 11.3 365.746 11.3C366.572 11.3 367.306 11.4667 367.946 11.8C368.586 12.1333 369.079 12.62 369.426 13.26C369.826 12.6467 370.379 12.1667 371.086 11.82C371.806 11.4733 372.612 11.3 373.506 11.3ZM387.159 14.3V15.46H380.479V14.56L384.179 11.32C384.645 10.9067 384.959 10.5733 385.119 10.32C385.292 10.0533 385.379 9.78667 385.379 9.52C385.379 9.14667 385.212 8.84667 384.879 8.62C384.545 8.38 384.045 8.26 383.379 8.26C382.885 8.26 382.445 8.34 382.059 8.5C381.672 8.64667 381.352 8.86667 381.099 9.16L380.119 8.4C380.825 7.50667 381.945 7.06 383.479 7.06C384.532 7.06 385.345 7.28 385.919 7.72C386.492 8.16 386.779 8.72667 386.779 9.42C386.779 9.84667 386.672 10.2467 386.459 10.62C386.245 10.9933 385.839 11.4467 385.239 11.98L382.599 14.3H387.159Z" fill="#2F2F2F"/>
<path d="M271 1H331V-1H271V1ZM335 5V25H337V5H335ZM331 29H271V31H331V29ZM267 25V5H265V25H267ZM271 29C268.791 29 267 27.2091 267 25H265C265 28.3137 267.686 31 271 31V29ZM335 25C335 27.2091 333.209 29 331 29V31C334.314 31 337 28.3137 337 25H335ZM331 1C333.209 1 335 2.79086 335 5H337C337 1.68629 334.314 -1 331 -1V1ZM271 -1C267.686 -1 265 1.68629 265 5H267C267 2.79086 268.791 1 271 1V-1Z" fill="#2F2F2F"/>
<path d="M236.02 18.5H228.58L227.04 22H224.98L231.32 8H233.3L239.66 22H237.56L236.02 18.5ZM235.32 16.9L232.3 10.04L229.28 16.9H235.32ZM246.36 11.84H255.32V13.42H246.36V11.84ZM246.36 16.58H255.32V18.16H246.36V16.58Z" fill="#2F2F2F"/>
<path d="M70.2378 8.4V21H67.8978V10.362H65.2338V8.4H70.2378ZM77.3453 5.844H79.3613L73.4213 22.8H71.4053L77.3453 5.844ZM87.132 14.376C87.792 14.676 88.296 15.084 88.644 15.6C89.004 16.104 89.184 16.698 89.184 17.382C89.184 18.15 88.968 18.822 88.536 19.398C88.116 19.974 87.516 20.418 86.736 20.73C85.956 21.03 85.05 21.18 84.018 21.18C82.986 21.18 82.08 21.03 81.3 20.73C80.532 20.418 79.938 19.974 79.518 19.398C79.098 18.822 78.888 18.15 78.888 17.382C78.888 16.698 79.062 16.104 79.41 15.6C79.758 15.084 80.256 14.676 80.904 14.376C80.4 14.1 80.01 13.74 79.734 13.296C79.47 12.84 79.338 12.318 79.338 11.73C79.338 11.022 79.53 10.404 79.914 9.876C80.31 9.348 80.862 8.94 81.57 8.652C82.278 8.364 83.094 8.22 84.018 8.22C84.954 8.22 85.776 8.364 86.484 8.652C87.192 8.94 87.744 9.348 88.14 9.876C88.536 10.404 88.734 11.022 88.734 11.73C88.734 12.318 88.596 12.834 88.32 13.278C88.044 13.722 87.648 14.088 87.132 14.376ZM84.018 10.056C83.286 10.056 82.704 10.212 82.272 10.524C81.852 10.836 81.642 11.274 81.642 11.838C81.642 12.378 81.852 12.81 82.272 13.134C82.704 13.446 83.286 13.602 84.018 13.602C84.762 13.602 85.35 13.446 85.782 13.134C86.214 12.81 86.43 12.378 86.43 11.838C86.43 11.274 86.208 10.836 85.764 10.524C85.332 10.212 84.75 10.056 84.018 10.056ZM84.018 19.344C84.882 19.344 85.566 19.164 86.07 18.804C86.574 18.444 86.826 17.946 86.826 17.31C86.826 16.686 86.574 16.194 86.07 15.834C85.566 15.474 84.882 15.294 84.018 15.294C83.154 15.294 82.476 15.474 81.984 15.834C81.492 16.194 81.246 16.686 81.246 17.31C81.246 17.946 81.492 18.444 81.984 18.804C82.476 19.164 83.154 19.344 84.018 19.344Z" fill="#2F2F2F"/>
<path d="M295.926 13.224C296.754 13.224 297.498 13.386 298.158 13.71C298.818 14.022 299.334 14.472 299.706 15.06C300.078 15.648 300.264 16.326 300.264 17.094C300.264 17.91 300.06 18.63 299.652 19.254C299.244 19.866 298.692 20.34 297.996 20.676C297.3 21.012 296.52 21.18 295.656 21.18C293.928 21.18 292.584 20.64 291.624 19.56C290.676 18.48 290.202 16.932 290.202 14.916C290.202 13.5 290.46 12.294 290.976 11.298C291.492 10.29 292.212 9.528 293.136 9.012C294.072 8.484 295.152 8.22 296.376 8.22C297.024 8.22 297.63 8.292 298.194 8.436C298.77 8.568 299.268 8.766 299.688 9.03L298.824 10.794C298.2 10.386 297.402 10.182 296.43 10.182C295.218 10.182 294.27 10.554 293.586 11.298C292.902 12.042 292.56 13.116 292.56 14.52V14.538C292.932 14.106 293.406 13.782 293.982 13.566C294.558 13.338 295.206 13.224 295.926 13.224ZM295.53 19.344C296.262 19.344 296.856 19.152 297.312 18.768C297.768 18.372 297.996 17.85 297.996 17.202C297.996 16.542 297.768 16.02 297.312 15.636C296.856 15.252 296.244 15.06 295.476 15.06C294.72 15.06 294.102 15.264 293.622 15.672C293.154 16.08 292.92 16.596 292.92 17.22C292.92 17.832 293.148 18.342 293.604 18.75C294.072 19.146 294.714 19.344 295.53 19.344ZM306.271 5.844H308.287L302.347 22.8H300.331L306.271 5.844ZM318.397 18.138H316.165V21H313.897V18.138H306.985V16.518L313.195 8.4H315.697L309.847 16.158H313.969V13.62H316.165V16.158H318.397V18.138Z" fill="#2F2F2F"/>
</svg>
