<svg width="277" height="187" viewBox="0 0 277 187" fill="none" xmlns="http://www.w3.org/2000/svg">
<path d="M198 156.258L0 28.7692L99 0L198 28.7692V156.258Z" fill="#FF9064"/>
<path d="M99 187L198 156.258V28.7695L99 57.5388V187Z" fill="#FF7843"/>
<path d="M99 187L0 156.258V28.7695L99 57.5388V187Z" fill="#E84E2D"/>
<path d="M7.14453 30.8245L98.9987 57.5388L197.999 28.7695V30.9889L99.5197 59.1005L98.9987 168.999L98.1799 58.8539L7.14453 30.8245Z" fill="#FFAE92"/>
<path d="M228.148 75.4V88H225.808V77.362H223.144V75.4H228.148Z" fill="#2F2F2F"/>
<line x1="213.5" y1="93.5" x2="239.5" y2="93.5" stroke="#2F2F2F" stroke-linecap="round"/>
<path d="M230.918 110.02V112H221.63V110.434L226.634 105.682C227.198 105.142 227.576 104.674 227.768 104.278C227.972 103.87 228.074 103.468 228.074 103.072C228.074 102.484 227.876 102.034 227.48 101.722C227.084 101.41 226.502 101.254 225.734 101.254C224.45 101.254 223.466 101.692 222.782 102.568L221.144 101.308C221.636 100.648 222.296 100.138 223.124 99.778C223.964 99.406 224.9 99.22 225.932 99.22C227.3 99.22 228.392 99.544 229.208 100.192C230.024 100.84 230.432 101.722 230.432 102.838C230.432 103.522 230.288 104.164 230 104.764C229.712 105.364 229.16 106.048 228.344 106.816L224.978 110.02H230.918Z" fill="#2F2F2F"/>
<path d="M253.062 100.108C252.09 100.108 251.22 99.898 250.452 99.478C249.696 99.058 249.102 98.482 248.67 97.75C248.238 97.006 248.022 96.166 248.022 95.23C248.022 94.294 248.238 93.46 248.67 92.728C249.102 91.984 249.696 91.408 250.452 91C251.22 90.58 252.09 90.37 253.062 90.37C253.926 90.37 254.694 90.544 255.366 90.892C256.05 91.24 256.578 91.744 256.95 92.404L255.636 93.25C255.336 92.794 254.964 92.452 254.52 92.224C254.076 91.996 253.584 91.882 253.044 91.882C252.42 91.882 251.856 92.02 251.352 92.296C250.86 92.572 250.47 92.968 250.182 93.484C249.906 93.988 249.768 94.57 249.768 95.23C249.768 95.902 249.906 96.496 250.182 97.012C250.47 97.516 250.86 97.906 251.352 98.182C251.856 98.458 252.42 98.596 253.044 98.596C253.584 98.596 254.076 98.482 254.52 98.254C254.964 98.026 255.336 97.684 255.636 97.228L256.95 98.056C256.578 98.716 256.05 99.226 255.366 99.586C254.694 99.934 253.926 100.108 253.062 100.108ZM271.121 90.37C272.321 90.37 273.269 90.718 273.965 91.414C274.673 92.11 275.027 93.142 275.027 94.51V100H273.299V94.708C273.299 93.784 273.083 93.088 272.651 92.62C272.231 92.152 271.625 91.918 270.833 91.918C269.957 91.918 269.261 92.194 268.745 92.746C268.229 93.286 267.971 94.066 267.971 95.086V100H266.243V94.708C266.243 93.784 266.027 93.088 265.595 92.62C265.175 92.152 264.569 91.918 263.777 91.918C262.901 91.918 262.205 92.194 261.689 92.746C261.173 93.286 260.915 94.066 260.915 95.086V100H259.187V90.46H260.843V91.882C261.191 91.39 261.647 91.018 262.211 90.766C262.775 90.502 263.417 90.37 264.137 90.37C264.881 90.37 265.541 90.52 266.117 90.82C266.693 91.12 267.137 91.558 267.449 92.134C267.809 91.582 268.307 91.15 268.943 90.838C269.591 90.526 270.317 90.37 271.121 90.37Z" fill="#2F2F2F"/>
</svg>
