<svg width="609" height="109" viewBox="0 0 609 109" fill="none" xmlns="http://www.w3.org/2000/svg">
<path d="M148 7H232V5H148V7ZM236 11V31H238V11H236ZM232 35H148V37H232V35ZM144 31V11H142V31H144ZM148 35C145.791 35 144 33.2091 144 31H142C142 34.3137 144.686 37 148 37V35ZM236 31C236 33.2091 234.209 35 232 35V37C235.314 37 238 34.3137 238 31H236ZM232 7C234.209 7 236 8.79086 236 11H238C238 7.68629 235.314 5 232 5V7ZM148 5C144.686 5 142 7.68629 142 11H144C144 8.79086 145.791 7 148 7V5Z" fill="#2F2F2F"/>
<path d="M6.73883 23.88C8.11216 24.0133 9.15883 24.44 9.87883 25.16C10.5988 25.8667 10.9588 26.7733 10.9588 27.88C10.9588 28.68 10.7588 29.4067 10.3588 30.06C9.95883 30.7 9.35883 31.2133 8.55883 31.6C7.77216 31.9733 6.80549 32.16 5.65883 32.16C4.65883 32.16 3.69883 32.0133 2.77883 31.72C1.85883 31.4133 1.10549 30.9933 0.518827 30.46L1.43883 28.88C1.91883 29.3333 2.53216 29.7 3.27883 29.98C4.02549 30.2467 4.81883 30.38 5.65883 30.38C6.69883 30.38 7.50549 30.16 8.07883 29.72C8.66549 29.28 8.95883 28.6733 8.95883 27.9C8.95883 27.1267 8.67216 26.5267 8.09883 26.1C7.52549 25.6733 6.65883 25.46 5.49883 25.46H4.37883V24.06L7.89883 19.74H1.15883V18H10.3988V19.36L6.73883 23.88ZM15.8441 32.12C15.4708 32.12 15.1508 31.9933 14.8841 31.74C14.6175 31.4733 14.4841 31.14 14.4841 30.74C14.4841 30.3533 14.6175 30.0333 14.8841 29.78C15.1508 29.5133 15.4708 29.38 15.8441 29.38C16.2175 29.38 16.5308 29.5067 16.7841 29.76C17.0375 30.0133 17.1641 30.34 17.1641 30.74C17.1641 31.14 17.0308 31.4733 16.7641 31.74C16.5108 31.9933 16.2041 32.12 15.8441 32.12ZM30.7907 30.26V32H20.7307V30.64L26.4307 25.14C27.124 24.4733 27.5907 23.9 27.8307 23.42C28.0707 22.9267 28.1907 22.4333 28.1907 21.94C28.1907 21.2067 27.9307 20.64 27.4107 20.24C26.904 19.8267 26.1707 19.62 25.2107 19.62C23.664 19.62 22.4707 20.1267 21.6307 21.14L20.2707 19.96C20.8174 19.2933 21.5307 18.7733 22.4107 18.4C23.304 18.0267 24.2974 17.84 25.3907 17.84C26.8574 17.84 28.024 18.1933 28.8907 18.9C29.7574 19.5933 30.1907 20.54 30.1907 21.74C30.1907 22.4867 30.0307 23.1933 29.7107 23.86C29.3907 24.5267 28.784 25.2867 27.8907 26.14L23.6107 30.26H30.7907ZM54.9891 22.7H49.5291V28.07H47.0091V22.7H41.5491V20.33H47.0091V14.93H49.5291V20.33H54.9891V22.7Z" fill="#2F2F2F"/>
<path d="M124.01 16.76H137.45V19.13H124.01V16.76ZM124.01 23.87H137.45V26.24H124.01V23.87Z" fill="#2F2F2F"/>
<path d="M109.785 11.904H107.391V15H105.645V11.904H98.643V10.644L105.087 2.4H107.031L100.857 10.356H105.699V7.62H107.391V10.356H109.785V11.904Z" fill="#2F2F2F"/>
<path d="M62.2303 20.52H70.3003V23.01H62.2303V20.52ZM80.8747 21.88C82.248 22.0133 83.2947 22.44 84.0147 23.16C84.7347 23.8667 85.0947 24.7733 85.0947 25.88C85.0947 26.68 84.8947 27.4067 84.4947 28.06C84.0947 28.7 83.4947 29.2133 82.6947 29.6C81.908 29.9733 80.9414 30.16 79.7947 30.16C78.7947 30.16 77.8347 30.0133 76.9147 29.72C75.9947 29.4133 75.2414 28.9933 74.6547 28.46L75.5747 26.88C76.0547 27.3333 76.668 27.7 77.4147 27.98C78.1614 28.2467 78.9547 28.38 79.7947 28.38C80.8347 28.38 81.6414 28.16 82.2147 27.72C82.8014 27.28 83.0947 26.6733 83.0947 25.9C83.0947 25.1267 82.808 24.5267 82.2347 24.1C81.6614 23.6733 80.7947 23.46 79.6347 23.46H78.5147V22.06L82.0347 17.74H75.2947V16H84.5347V17.36L80.8747 21.88Z" fill="#2F2F2F"/>
<path d="M103.128 31.422C104.928 31.422 106.248 31.764 107.088 32.448C107.94 33.12 108.366 34.044 108.366 35.22C108.366 35.964 108.186 36.636 107.826 37.236C107.478 37.824 106.944 38.292 106.224 38.64C105.516 38.976 104.64 39.144 103.596 39.144C102.708 39.144 101.85 39.012 101.022 38.748C100.194 38.472 99.5101 38.094 98.9701 37.614L99.7981 36.192C100.23 36.6 100.782 36.93 101.454 37.182C102.126 37.422 102.834 37.542 103.578 37.542C104.526 37.542 105.258 37.344 105.774 36.948C106.302 36.54 106.566 35.988 106.566 35.292C106.566 34.536 106.278 33.966 105.702 33.582C105.126 33.186 104.142 32.988 102.75 32.988H99.8881L100.554 26.4H107.664V27.966H102.066L101.724 31.422H103.128Z" fill="#2F2F2F"/>
<line x1="91" y1="20.5" x2="115" y2="20.5" stroke="#3C3C3C"/>
<path d="M150 77H234V75H150V77ZM238 81V101H240V81H238ZM234 105H150V107H234V105ZM146 101V81H144V101H146ZM150 105C147.791 105 146 103.209 146 101H144C144 104.314 146.686 107 150 107V105ZM238 101C238 103.209 236.209 105 234 105V107C237.314 107 240 104.314 240 101H238ZM234 77C236.209 77 238 78.7909 238 81H240C240 77.6863 237.314 75 234 75V77ZM150 75C146.686 75 144 77.6863 144 81H146C146 78.7909 147.791 77 150 77V75Z" fill="#2F2F2F"/>
<path d="M2.11789 89.52H10.1879V92.01H2.11789V89.52ZM19.7423 85V99H17.7623V86.74H14.6023V85H19.7423ZM25.8246 99.12C25.4513 99.12 25.1313 98.9933 24.8646 98.74C24.5979 98.4733 24.4646 98.14 24.4646 97.74C24.4646 97.3533 24.5979 97.0333 24.8646 96.78C25.1313 96.5133 25.4513 96.38 25.8246 96.38C26.1979 96.38 26.5113 96.5067 26.7646 96.76C27.0179 97.0133 27.1446 97.34 27.1446 97.74C27.1446 98.14 27.0113 98.4733 26.7446 98.74C26.4913 98.9933 26.1846 99.12 25.8246 99.12ZM40.682 85V86.36L35.022 99H32.902L38.442 86.74H32.042V89.24H30.122V85H40.682ZM64.9891 89.7H59.5291V95.07H57.0091V89.7H51.5491V87.33H57.0091V81.93H59.5291V87.33H64.9891V89.7Z" fill="#2F2F2F"/>
<path d="M126.01 83.76H139.45V86.13H126.01V83.76ZM126.01 90.87H139.45V93.24H126.01V90.87Z" fill="#2F2F2F"/>
<path d="M109.785 78.904H107.391V82H105.645V78.904H98.643V77.644L105.087 69.4H107.031L100.857 77.356H105.699V74.62H107.391V77.356H109.785V78.904Z" fill="#2F2F2F"/>
<path d="M85.7611 91.56H83.1011V95H81.1611V91.56H73.3811V90.16L80.5411 81H82.7011L75.8411 89.84H81.2211V86.8H83.1011V89.84H85.7611V91.56Z" fill="#2F2F2F"/>
<path d="M105.191 98.35C106.019 98.35 106.757 98.506 107.405 98.818C108.065 99.13 108.581 99.58 108.953 100.168C109.325 100.744 109.511 101.41 109.511 102.166C109.511 102.958 109.313 103.654 108.917 104.254C108.533 104.854 107.999 105.322 107.315 105.658C106.643 105.982 105.887 106.144 105.047 106.144C103.355 106.144 102.047 105.598 101.123 104.506C100.211 103.414 99.7546 101.866 99.7546 99.862C99.7546 98.458 100.001 97.264 100.493 96.28C100.997 95.284 101.693 94.534 102.581 94.03C103.481 93.514 104.525 93.256 105.713 93.256C106.325 93.256 106.901 93.322 107.441 93.454C107.981 93.574 108.449 93.754 108.845 93.994L108.161 95.398C107.561 95.002 106.757 94.804 105.749 94.804C104.441 94.804 103.415 95.212 102.671 96.028C101.927 96.832 101.555 98.008 101.555 99.556C101.555 99.748 101.561 99.898 101.573 100.006C101.933 99.466 102.425 99.058 103.049 98.782C103.685 98.494 104.399 98.35 105.191 98.35ZM104.975 104.686C105.803 104.686 106.475 104.464 106.991 104.02C107.507 103.576 107.765 102.982 107.765 102.238C107.765 101.494 107.501 100.906 106.973 100.474C106.457 100.03 105.761 99.808 104.885 99.808C104.321 99.808 103.817 99.916 103.373 100.132C102.941 100.348 102.599 100.642 102.347 101.014C102.107 101.386 101.987 101.8 101.987 102.256C101.987 102.7 102.101 103.108 102.329 103.48C102.569 103.84 102.911 104.134 103.355 104.362C103.811 104.578 104.351 104.686 104.975 104.686Z" fill="#2F2F2F"/>
<line x1="93" y1="87.5" x2="117" y2="87.5" stroke="#3C3C3C"/>
<path d="M520 7H604V5H520V7ZM608 11V31H610V11H608ZM604 35H520V37H604V35ZM516 31V11H514V31H516ZM520 35C517.791 35 516 33.2091 516 31H514C514 34.3137 516.686 37 520 37V35ZM608 31C608 33.2091 606.209 35 604 35V37C607.314 37 610 34.3137 610 31H608ZM604 7C606.209 7 608 8.79086 608 11H610C610 7.68629 607.314 5 604 5V7ZM520 5C516.686 5 514 7.68629 514 11H516C516 8.79086 517.791 7 520 7V5Z" fill="#2F2F2F"/>
<path d="M390.71 22.52H398.78V25.01H390.71V22.52ZM407.994 23.58C409.994 23.58 411.461 23.96 412.394 24.72C413.341 25.4667 413.814 26.4933 413.814 27.8C413.814 28.6267 413.614 29.3733 413.214 30.04C412.828 30.6933 412.234 31.2133 411.434 31.6C410.648 31.9733 409.674 32.16 408.514 32.16C407.528 32.16 406.574 32.0133 405.654 31.72C404.734 31.4133 403.974 30.9933 403.374 30.46L404.294 28.88C404.774 29.3333 405.388 29.7 406.134 29.98C406.881 30.2467 407.668 30.38 408.494 30.38C409.548 30.38 410.361 30.16 410.934 29.72C411.521 29.2667 411.814 28.6533 411.814 27.88C411.814 27.04 411.494 26.4067 410.854 25.98C410.214 25.54 409.121 25.32 407.574 25.32H404.394L405.134 18H413.034V19.74H406.814L406.434 23.58H407.994ZM418.499 32.12C418.125 32.12 417.805 31.9933 417.539 31.74C417.272 31.4733 417.139 31.14 417.139 30.74C417.139 30.3533 417.272 30.0333 417.539 29.78C417.805 29.5133 418.125 29.38 418.499 29.38C418.872 29.38 419.185 29.5067 419.439 29.76C419.692 30.0133 419.819 30.34 419.819 30.74C419.819 31.14 419.685 31.4733 419.419 31.74C419.165 31.9933 418.859 32.12 418.499 32.12ZM435.414 28.56H432.754V32H430.814V28.56H423.034V27.16L430.194 18H432.354L425.494 26.84H430.874V23.8H432.754V26.84H435.414V28.56ZM459.874 22.7H454.414V28.07H451.894V22.7H446.434V20.33H451.894V14.93H454.414V20.33H459.874V22.7Z" fill="#2F2F2F"/>
<path d="M493.01 16.76H506.45V19.13H493.01V16.76ZM493.01 23.87H506.45V26.24H493.01V23.87Z" fill="#2F2F2F"/>
<path d="M481.384 13.434V15H472.33V13.776L477.46 8.826C478.084 8.226 478.504 7.71 478.72 7.278C478.936 6.834 479.044 6.39 479.044 5.946C479.044 5.286 478.81 4.776 478.342 4.416C477.886 4.044 477.226 3.858 476.362 3.858C474.97 3.858 473.896 4.314 473.14 5.226L471.916 4.164C472.408 3.564 473.05 3.096 473.842 2.76C474.646 2.424 475.54 2.256 476.524 2.256C477.844 2.256 478.894 2.574 479.674 3.21C480.454 3.834 480.844 4.686 480.844 5.766C480.844 6.438 480.7 7.074 480.412 7.674C480.124 8.274 479.578 8.958 478.774 9.726L474.922 13.434H481.384Z" fill="#2F2F2F"/>
<path d="M477.128 31.422C478.928 31.422 480.248 31.764 481.088 32.448C481.94 33.12 482.366 34.044 482.366 35.22C482.366 35.964 482.186 36.636 481.826 37.236C481.478 37.824 480.944 38.292 480.224 38.64C479.516 38.976 478.64 39.144 477.596 39.144C476.708 39.144 475.85 39.012 475.022 38.748C474.194 38.472 473.51 38.094 472.97 37.614L473.798 36.192C474.23 36.6 474.782 36.93 475.454 37.182C476.126 37.422 476.834 37.542 477.578 37.542C478.526 37.542 479.258 37.344 479.774 36.948C480.302 36.54 480.566 35.988 480.566 35.292C480.566 34.536 480.278 33.966 479.702 33.582C479.126 33.186 478.142 32.988 476.75 32.988H473.888L474.554 26.4H481.664V27.966H476.066L475.724 31.422H477.128Z" fill="#2F2F2F"/>
<line x1="465" y1="20.5" x2="489" y2="20.5" stroke="#3C3C3C"/>
<path d="M520 74H604V72H520V74ZM608 78V98H610V78H608ZM604 102H520V104H604V102ZM516 98V78H514V98H516ZM520 102C517.791 102 516 100.209 516 98H514C514 101.314 516.686 104 520 104V102ZM608 98C608 100.209 606.209 102 604 102V104C607.314 104 610 101.314 610 98H608ZM604 74C606.209 74 608 75.7909 608 78H610C610 74.6863 607.314 72 604 72V74ZM520 72C516.686 72 514 74.6863 514 78H516C516 75.7909 517.791 74 520 74V72Z" fill="#2F2F2F"/>
<path d="M497.01 83.76H510.45V86.13H497.01V83.76ZM497.01 90.87H510.45V93.24H497.01V90.87Z" fill="#2F2F2F"/>
<path d="M474.841 69.256C476.533 69.256 477.835 69.802 478.747 70.894C479.671 71.986 480.133 73.534 480.133 75.538C480.133 76.942 479.881 78.142 479.377 79.138C478.885 80.122 478.189 80.872 477.289 81.388C476.401 81.892 475.363 82.144 474.175 82.144C473.563 82.144 472.987 82.084 472.447 81.964C471.907 81.832 471.439 81.646 471.043 81.406L471.727 80.002C472.339 80.398 473.149 80.596 474.157 80.596C475.465 80.596 476.485 80.194 477.217 79.39C477.961 78.574 478.333 77.392 478.333 75.844V75.394C477.973 75.934 477.475 76.348 476.839 76.636C476.203 76.912 475.489 77.05 474.697 77.05C473.869 77.05 473.125 76.894 472.465 76.582C471.817 76.27 471.307 75.826 470.935 75.25C470.575 74.662 470.395 73.99 470.395 73.234C470.395 72.442 470.587 71.746 470.971 71.146C471.367 70.546 471.901 70.084 472.573 69.76C473.245 69.424 474.001 69.256 474.841 69.256ZM475.003 75.592C475.567 75.592 476.071 75.484 476.515 75.268C476.959 75.052 477.301 74.758 477.541 74.386C477.793 74.014 477.919 73.6 477.919 73.144C477.919 72.7 477.799 72.298 477.559 71.938C477.331 71.566 476.989 71.272 476.533 71.056C476.089 70.828 475.549 70.714 474.913 70.714C474.085 70.714 473.413 70.936 472.897 71.38C472.393 71.824 472.141 72.418 472.141 73.162C472.141 73.906 472.399 74.5 472.915 74.944C473.431 75.376 474.127 75.592 475.003 75.592Z" fill="#2F2F2F"/>
<path d="M469.572 93.4V106H467.79V94.966H464.946V93.4H469.572ZM479.006 106.144C478.01 106.144 477.122 105.892 476.342 105.388C475.574 104.872 474.968 104.128 474.524 103.156C474.08 102.184 473.858 101.032 473.858 99.7C473.858 98.368 474.08 97.216 474.524 96.244C474.968 95.272 475.574 94.534 476.342 94.03C477.122 93.514 478.01 93.256 479.006 93.256C479.99 93.256 480.866 93.514 481.634 94.03C482.414 94.534 483.026 95.272 483.47 96.244C483.914 97.216 484.136 98.368 484.136 99.7C484.136 101.032 483.914 102.184 483.47 103.156C483.026 104.128 482.414 104.872 481.634 105.388C480.866 105.892 479.99 106.144 479.006 106.144ZM479.006 104.542C480.014 104.542 480.818 104.128 481.418 103.3C482.03 102.472 482.336 101.272 482.336 99.7C482.336 98.128 482.03 96.928 481.418 96.1C480.818 95.272 480.014 94.858 479.006 94.858C477.986 94.858 477.17 95.272 476.558 96.1C475.958 96.928 475.658 98.128 475.658 99.7C475.658 101.272 475.958 102.472 476.558 103.3C477.17 104.128 477.986 104.542 479.006 104.542Z" fill="#2F2F2F"/>
<line x1="462" y1="87.5" x2="486" y2="87.5" stroke="#3C3C3C"/>
<path d="M422.286 69.4V70.624L417.192 82H415.284L420.27 70.966H414.51V73.216H412.782V69.4H422.286Z" fill="#2F2F2F"/>
<path d="M400.207 81V82.36L394.547 95H392.427L397.967 82.74H391.567V85.24H389.647V81H400.207Z" fill="#2F2F2F"/>
<path d="M449.989 89.7H444.529V95.07H442.009V89.7H436.549V87.33H442.009V81.93H444.529V87.33H449.989V89.7Z" fill="#2F2F2F"/>
<path d="M412.572 93.4V106H410.79V94.966H407.946V93.4H412.572ZM422.006 106.144C421.01 106.144 420.122 105.892 419.342 105.388C418.574 104.872 417.968 104.128 417.524 103.156C417.08 102.184 416.858 101.032 416.858 99.7C416.858 98.368 417.08 97.216 417.524 96.244C417.968 95.272 418.574 94.534 419.342 94.03C420.122 93.514 421.01 93.256 422.006 93.256C422.99 93.256 423.866 93.514 424.634 94.03C425.414 94.534 426.026 95.272 426.47 96.244C426.914 97.216 427.136 98.368 427.136 99.7C427.136 101.032 426.914 102.184 426.47 103.156C426.026 104.128 425.414 104.872 424.634 105.388C423.866 105.892 422.99 106.144 422.006 106.144ZM422.006 104.542C423.014 104.542 423.818 104.128 424.418 103.3C425.03 102.472 425.336 101.272 425.336 99.7C425.336 98.128 425.03 96.928 424.418 96.1C423.818 95.272 423.014 94.858 422.006 94.858C420.986 94.858 420.17 95.272 419.558 96.1C418.958 96.928 418.658 98.128 418.658 99.7C418.658 101.272 418.958 102.472 419.558 103.3C420.17 104.128 420.986 104.542 422.006 104.542Z" fill="#2F2F2F"/>
<line x1="404" y1="87.5" x2="428" y2="87.5" stroke="#3C3C3C"/>
<path d="M172.651 21.312H177.493V22.806H172.651V21.312ZM186.181 27.144C185.185 27.144 184.297 26.892 183.517 26.388C182.749 25.872 182.143 25.128 181.699 24.156C181.255 23.184 181.033 22.032 181.033 20.7C181.033 19.368 181.255 18.216 181.699 17.244C182.143 16.272 182.749 15.534 183.517 15.03C184.297 14.514 185.185 14.256 186.181 14.256C187.165 14.256 188.041 14.514 188.809 15.03C189.589 15.534 190.201 16.272 190.645 17.244C191.089 18.216 191.311 19.368 191.311 20.7C191.311 22.032 191.089 23.184 190.645 24.156C190.201 25.128 189.589 25.872 188.809 26.388C188.041 26.892 187.165 27.144 186.181 27.144ZM186.181 25.542C187.189 25.542 187.993 25.128 188.593 24.3C189.205 23.472 189.511 22.272 189.511 20.7C189.511 19.128 189.205 17.928 188.593 17.1C187.993 16.272 187.189 15.858 186.181 15.858C185.161 15.858 184.345 16.272 183.733 17.1C183.133 17.928 182.833 19.128 182.833 20.7C182.833 22.272 183.133 23.472 183.733 24.3C184.345 25.128 185.161 25.542 186.181 25.542ZM195.545 27.108C195.209 27.108 194.921 26.994 194.681 26.766C194.441 26.526 194.321 26.226 194.321 25.866C194.321 25.518 194.441 25.23 194.681 25.002C194.921 24.762 195.209 24.642 195.545 24.642C195.881 24.642 196.163 24.756 196.391 24.984C196.619 25.212 196.733 25.506 196.733 25.866C196.733 26.226 196.613 26.526 196.373 26.766C196.145 26.994 195.869 27.108 195.545 27.108ZM205.191 19.35C206.019 19.35 206.757 19.506 207.405 19.818C208.065 20.13 208.581 20.58 208.953 21.168C209.325 21.744 209.511 22.41 209.511 23.166C209.511 23.958 209.313 24.654 208.917 25.254C208.533 25.854 207.999 26.322 207.315 26.658C206.643 26.982 205.887 27.144 205.047 27.144C203.355 27.144 202.047 26.598 201.123 25.506C200.211 24.414 199.755 22.866 199.755 20.862C199.755 19.458 200.001 18.264 200.493 17.28C200.997 16.284 201.693 15.534 202.581 15.03C203.481 14.514 204.525 14.256 205.713 14.256C206.325 14.256 206.901 14.322 207.441 14.454C207.981 14.574 208.449 14.754 208.845 14.994L208.161 16.398C207.561 16.002 206.757 15.804 205.749 15.804C204.441 15.804 203.415 16.212 202.671 17.028C201.927 17.832 201.555 19.008 201.555 20.556C201.555 20.748 201.561 20.898 201.573 21.006C201.933 20.466 202.425 20.058 203.049 19.782C203.685 19.494 204.399 19.35 205.191 19.35ZM204.975 25.686C205.803 25.686 206.475 25.464 206.991 25.02C207.507 24.576 207.765 23.982 207.765 23.238C207.765 22.494 207.501 21.906 206.973 21.474C206.457 21.03 205.761 20.808 204.885 20.808C204.321 20.808 203.817 20.916 203.373 21.132C202.941 21.348 202.599 21.642 202.347 22.014C202.107 22.386 201.987 22.8 201.987 23.256C201.987 23.7 202.101 24.108 202.329 24.48C202.569 24.84 202.911 25.134 203.355 25.362C203.811 25.578 204.351 25.686 204.975 25.686Z" fill="#2F2F2F"/>
<path d="M184.816 89.692C186.052 89.812 186.994 90.196 187.642 90.844C188.29 91.48 188.614 92.296 188.614 93.292C188.614 94.012 188.434 94.666 188.074 95.254C187.714 95.83 187.174 96.292 186.454 96.64C185.746 96.976 184.876 97.144 183.844 97.144C182.944 97.144 182.08 97.012 181.252 96.748C180.424 96.472 179.746 96.094 179.218 95.614L180.046 94.192C180.478 94.6 181.03 94.93 181.702 95.182C182.374 95.422 183.088 95.542 183.844 95.542C184.78 95.542 185.506 95.344 186.022 94.948C186.55 94.552 186.814 94.006 186.814 93.31C186.814 92.614 186.556 92.074 186.04 91.69C185.524 91.306 184.744 91.114 183.7 91.114H182.692V89.854L185.86 85.966H179.794V84.4H188.11V85.624L184.816 89.692ZM193.01 97.108C192.674 97.108 192.386 96.994 192.146 96.766C191.906 96.526 191.786 96.226 191.786 95.866C191.786 95.518 191.906 95.23 192.146 95.002C192.386 94.762 192.674 94.642 193.01 94.642C193.346 94.642 193.628 94.756 193.856 94.984C194.084 95.212 194.198 95.506 194.198 95.866C194.198 96.226 194.078 96.526 193.838 96.766C193.61 96.994 193.334 97.108 193.01 97.108ZM201.108 84.4V97H199.326V85.966H196.482V84.4H201.108Z" fill="#2F2F2F"/>
<path d="M552.269 21.312H557.111V22.806H552.269V21.312ZM564.128 19.422C565.928 19.422 567.248 19.764 568.088 20.448C568.94 21.12 569.366 22.044 569.366 23.22C569.366 23.964 569.186 24.636 568.826 25.236C568.478 25.824 567.944 26.292 567.224 26.64C566.516 26.976 565.64 27.144 564.596 27.144C563.708 27.144 562.85 27.012 562.022 26.748C561.194 26.472 560.51 26.094 559.97 25.614L560.798 24.192C561.23 24.6 561.782 24.93 562.454 25.182C563.126 25.422 563.834 25.542 564.578 25.542C565.526 25.542 566.258 25.344 566.774 24.948C567.302 24.54 567.566 23.988 567.566 23.292C567.566 22.536 567.278 21.966 566.702 21.582C566.126 21.186 565.142 20.988 563.75 20.988H560.888L561.554 14.4H568.664V15.966H563.066L562.724 19.422H564.128Z" fill="#2F2F2F"/>
<path d="M556.772 87.394C557.492 87.67 558.044 88.066 558.428 88.582C558.812 89.098 559.004 89.716 559.004 90.436C559.004 91.192 558.8 91.852 558.392 92.416C557.984 92.968 557.402 93.394 556.646 93.694C555.89 93.994 555.002 94.144 553.982 94.144C552.974 94.144 552.092 93.994 551.336 93.694C550.592 93.394 550.016 92.968 549.608 92.416C549.2 91.852 548.996 91.192 548.996 90.436C548.996 89.716 549.182 89.098 549.554 88.582C549.938 88.066 550.49 87.67 551.21 87.394C550.634 87.118 550.196 86.752 549.896 86.296C549.596 85.84 549.446 85.3 549.446 84.676C549.446 83.98 549.632 83.374 550.004 82.858C550.388 82.342 550.922 81.946 551.606 81.67C552.29 81.394 553.082 81.256 553.982 81.256C554.894 81.256 555.692 81.394 556.376 81.67C557.072 81.946 557.606 82.342 557.978 82.858C558.362 83.374 558.554 83.98 558.554 84.676C558.554 85.288 558.398 85.828 558.086 86.296C557.786 86.752 557.348 87.118 556.772 87.394ZM553.982 82.714C553.13 82.714 552.458 82.9 551.966 83.272C551.474 83.632 551.228 84.124 551.228 84.748C551.228 85.372 551.468 85.864 551.948 86.224C552.44 86.584 553.118 86.764 553.982 86.764C554.858 86.764 555.542 86.584 556.034 86.224C556.538 85.864 556.79 85.372 556.79 84.748C556.79 84.124 556.532 83.632 556.016 83.272C555.512 82.9 554.834 82.714 553.982 82.714ZM553.982 92.686C554.978 92.686 555.764 92.482 556.34 92.074C556.916 91.654 557.204 91.09 557.204 90.382C557.204 89.686 556.916 89.14 556.34 88.744C555.764 88.336 554.978 88.132 553.982 88.132C552.986 88.132 552.206 88.336 551.642 88.744C551.078 89.14 550.796 89.686 550.796 90.382C550.796 91.09 551.078 91.654 551.642 92.074C552.206 92.482 552.986 92.686 553.982 92.686ZM563.545 94.108C563.209 94.108 562.921 93.994 562.681 93.766C562.441 93.526 562.321 93.226 562.321 92.866C562.321 92.518 562.441 92.23 562.681 92.002C562.921 91.762 563.209 91.642 563.545 91.642C563.881 91.642 564.163 91.756 564.391 91.984C564.619 92.212 564.733 92.506 564.733 92.866C564.733 93.226 564.613 93.526 564.373 93.766C564.145 93.994 563.869 94.108 563.545 94.108ZM573.191 86.35C574.019 86.35 574.757 86.506 575.405 86.818C576.065 87.13 576.581 87.58 576.953 88.168C577.325 88.744 577.511 89.41 577.511 90.166C577.511 90.958 577.313 91.654 576.917 92.254C576.533 92.854 575.999 93.322 575.315 93.658C574.643 93.982 573.887 94.144 573.047 94.144C571.355 94.144 570.047 93.598 569.123 92.506C568.211 91.414 567.755 89.866 567.755 87.862C567.755 86.458 568.001 85.264 568.493 84.28C568.997 83.284 569.693 82.534 570.581 82.03C571.481 81.514 572.525 81.256 573.713 81.256C574.325 81.256 574.901 81.322 575.441 81.454C575.981 81.574 576.449 81.754 576.845 81.994L576.161 83.398C575.561 83.002 574.757 82.804 573.749 82.804C572.441 82.804 571.415 83.212 570.671 84.028C569.927 84.832 569.555 86.008 569.555 87.556C569.555 87.748 569.561 87.898 569.573 88.006C569.933 87.466 570.425 87.058 571.049 86.782C571.685 86.494 572.399 86.35 573.191 86.35ZM572.975 92.686C573.803 92.686 574.475 92.464 574.991 92.02C575.507 91.576 575.765 90.982 575.765 90.238C575.765 89.494 575.501 88.906 574.973 88.474C574.457 88.03 573.761 87.808 572.885 87.808C572.321 87.808 571.817 87.916 571.373 88.132C570.941 88.348 570.599 88.642 570.347 89.014C570.107 89.386 569.987 89.8 569.987 90.256C569.987 90.7 570.101 91.108 570.329 91.48C570.569 91.84 570.911 92.134 571.355 92.362C571.811 92.578 572.351 92.686 572.975 92.686Z" fill="#2F2F2F"/>
</svg>
