<svg width="140" height="42" viewBox="0 0 140 42" fill="none" xmlns="http://www.w3.org/2000/svg">
<path d="M6.73883 23.88C8.11216 24.0133 9.15883 24.44 9.87883 25.16C10.5988 25.8667 10.9588 26.7733 10.9588 27.88C10.9588 28.68 10.7588 29.4067 10.3588 30.06C9.95883 30.7 9.35883 31.2133 8.55883 31.6C7.77216 31.9733 6.80549 32.16 5.65883 32.16C4.65883 32.16 3.69883 32.0133 2.77883 31.72C1.85883 31.4133 1.10549 30.9933 0.518827 30.46L1.43883 28.88C1.91883 29.3333 2.53216 29.7 3.27883 29.98C4.02549 30.2467 4.81883 30.38 5.65883 30.38C6.69883 30.38 7.50549 30.16 8.07883 29.72C8.66549 29.28 8.95883 28.6733 8.95883 27.9C8.95883 27.1267 8.67216 26.5267 8.09883 26.1C7.52549 25.6733 6.65883 25.46 5.49883 25.46H4.37883V24.06L7.89883 19.74H1.15883V18H10.3988V19.36L6.73883 23.88ZM15.8441 32.12C15.4708 32.12 15.1508 31.9933 14.8841 31.74C14.6175 31.4733 14.4841 31.14 14.4841 30.74C14.4841 30.3533 14.6175 30.0333 14.8841 29.78C15.1508 29.5133 15.4708 29.38 15.8441 29.38C16.2175 29.38 16.5308 29.5067 16.7841 29.76C17.0375 30.0133 17.1641 30.34 17.1641 30.74C17.1641 31.14 17.0308 31.4733 16.7641 31.74C16.5108 31.9933 16.2041 32.12 15.8441 32.12ZM30.7907 30.26V32H20.7307V30.64L26.4307 25.14C27.124 24.4733 27.5907 23.9 27.8307 23.42C28.0707 22.9267 28.1907 22.4333 28.1907 21.94C28.1907 21.2067 27.9307 20.64 27.4107 20.24C26.904 19.8267 26.1707 19.62 25.2107 19.62C23.664 19.62 22.4707 20.1267 21.6307 21.14L20.2707 19.96C20.8174 19.2933 21.5307 18.7733 22.4107 18.4C23.304 18.0267 24.2974 17.84 25.3907 17.84C26.8574 17.84 28.024 18.1933 28.8907 18.9C29.7574 19.5933 30.1907 20.54 30.1907 21.74C30.1907 22.4867 30.0307 23.1933 29.7107 23.86C29.3907 24.5267 28.784 25.2867 27.8907 26.14L23.6107 30.26H30.7907ZM54.9891 22.7H49.5291V28.07H47.0091V22.7H41.5491V20.33H47.0091V14.93H49.5291V20.33H54.9891V22.7Z" fill="#2F2F2F"/>
<path d="M124.01 16.76H137.45V19.13H124.01V16.76ZM124.01 23.87H137.45V26.24H124.01V23.87Z" fill="#2F2F2F"/>
<path d="M109.785 11.904H107.391V15H105.645V11.904H98.643V10.644L105.087 2.4H107.031L100.857 10.356H105.699V7.62H107.391V10.356H109.785V11.904Z" fill="#2F2F2F"/>
<path d="M62.2303 20.52H70.3003V23.01H62.2303V20.52ZM80.8747 21.88C82.248 22.0133 83.2947 22.44 84.0147 23.16C84.7347 23.8667 85.0947 24.7733 85.0947 25.88C85.0947 26.68 84.8947 27.4067 84.4947 28.06C84.0947 28.7 83.4947 29.2133 82.6947 29.6C81.908 29.9733 80.9414 30.16 79.7947 30.16C78.7947 30.16 77.8347 30.0133 76.9147 29.72C75.9947 29.4133 75.2414 28.9933 74.6547 28.46L75.5747 26.88C76.0547 27.3333 76.668 27.7 77.4147 27.98C78.1614 28.2467 78.9547 28.38 79.7947 28.38C80.8347 28.38 81.6414 28.16 82.2147 27.72C82.8014 27.28 83.0947 26.6733 83.0947 25.9C83.0947 25.1267 82.808 24.5267 82.2347 24.1C81.6614 23.6733 80.7947 23.46 79.6347 23.46H78.5147V22.06L82.0347 17.74H75.2947V16H84.5347V17.36L80.8747 21.88Z" fill="#2F2F2F"/>
<path d="M103.128 31.422C104.928 31.422 106.248 31.764 107.088 32.448C107.94 33.12 108.366 34.044 108.366 35.22C108.366 35.964 108.186 36.636 107.826 37.236C107.478 37.824 106.944 38.292 106.224 38.64C105.516 38.976 104.64 39.144 103.596 39.144C102.708 39.144 101.85 39.012 101.022 38.748C100.194 38.472 99.5101 38.094 98.9701 37.614L99.7981 36.192C100.23 36.6 100.782 36.93 101.454 37.182C102.126 37.422 102.834 37.542 103.578 37.542C104.526 37.542 105.258 37.344 105.774 36.948C106.302 36.54 106.566 35.988 106.566 35.292C106.566 34.536 106.278 33.966 105.702 33.582C105.126 33.186 104.142 32.988 102.75 32.988H99.8881L100.554 26.4H107.664V27.966H102.066L101.724 31.422H103.128Z" fill="#2F2F2F"/>
<line x1="91" y1="20.5" x2="115" y2="20.5" stroke="#3C3C3C"/>
</svg>
