<svg width="124" height="42" viewBox="0 0 124 42" fill="none" xmlns="http://www.w3.org/2000/svg">
<path d="M108.01 16.76H121.45V19.13H108.01V16.76ZM108.01 23.87H121.45V26.24H108.01V23.87Z" fill="#2F2F2F"/>
<path d="M85.8406 2.256C87.5326 2.256 88.8346 2.802 89.7466 3.894C90.6706 4.986 91.1326 6.534 91.1326 8.538C91.1326 9.942 90.8806 11.142 90.3766 12.138C89.8846 13.122 89.1886 13.872 88.2886 14.388C87.4006 14.892 86.3626 15.144 85.1746 15.144C84.5626 15.144 83.9866 15.084 83.4466 14.964C82.9066 14.832 82.4386 14.646 82.0426 14.406L82.7266 13.002C83.3386 13.398 84.1486 13.596 85.1566 13.596C86.4646 13.596 87.4846 13.194 88.2166 12.39C88.9606 11.574 89.3326 10.392 89.3326 8.844V8.394C88.9726 8.934 88.4746 9.348 87.8386 9.636C87.2026 9.912 86.4886 10.05 85.6966 10.05C84.8686 10.05 84.1246 9.894 83.4646 9.582C82.8166 9.27 82.3066 8.826 81.9346 8.25C81.5746 7.662 81.3946 6.99 81.3946 6.234C81.3946 5.442 81.5866 4.746 81.9706 4.146C82.3666 3.546 82.9006 3.084 83.5726 2.76C84.2446 2.424 85.0006 2.256 85.8406 2.256ZM86.0026 8.592C86.5666 8.592 87.0706 8.484 87.5146 8.268C87.9586 8.052 88.3006 7.758 88.5406 7.386C88.7926 7.014 88.9186 6.6 88.9186 6.144C88.9186 5.7 88.7986 5.298 88.5586 4.938C88.3306 4.566 87.9886 4.272 87.5326 4.056C87.0886 3.828 86.5486 3.714 85.9126 3.714C85.0846 3.714 84.4126 3.936 83.8966 4.38C83.3926 4.824 83.1406 5.418 83.1406 6.162C83.1406 6.906 83.3986 7.5 83.9146 7.944C84.4306 8.376 85.1266 8.592 86.0026 8.592Z" fill="#2F2F2F"/>
<path d="M80.572 26.4V39H78.79V27.966H75.946V26.4H80.572ZM90.0061 39.144C89.0101 39.144 88.1221 38.892 87.3421 38.388C86.5741 37.872 85.9681 37.128 85.5241 36.156C85.0801 35.184 84.8581 34.032 84.8581 32.7C84.8581 31.368 85.0801 30.216 85.5241 29.244C85.9681 28.272 86.5741 27.534 87.3421 27.03C88.1221 26.514 89.0101 26.256 90.0061 26.256C90.9901 26.256 91.8661 26.514 92.6341 27.03C93.4141 27.534 94.0261 28.272 94.4701 29.244C94.9141 30.216 95.1361 31.368 95.1361 32.7C95.1361 34.032 94.9141 35.184 94.4701 36.156C94.0261 37.128 93.4141 37.872 92.6341 38.388C91.8661 38.892 90.9901 39.144 90.0061 39.144ZM90.0061 37.542C91.0141 37.542 91.8181 37.128 92.4181 36.3C93.0301 35.472 93.3361 34.272 93.3361 32.7C93.3361 31.128 93.0301 29.928 92.4181 29.1C91.8181 28.272 91.0141 27.858 90.0061 27.858C88.9861 27.858 88.1701 28.272 87.5581 29.1C86.9581 29.928 86.6581 31.128 86.6581 32.7C86.6581 34.272 86.9581 35.472 87.5581 36.3C88.1701 37.128 88.9861 37.542 90.0061 37.542Z" fill="#2F2F2F"/>
<line x1="73" y1="20.5" x2="97" y2="20.5" stroke="#3C3C3C"/>
<path d="M33.2862 2.4V3.624L28.1922 15H26.2842L31.2702 3.966H25.5102V6.216H23.7822V2.4H33.2862Z" fill="#2F2F2F"/>
<path d="M11.2069 14V15.36L5.54688 28H3.42688L8.96688 15.74H2.56688V18.24H0.646875V14H11.2069Z" fill="#2F2F2F"/>
<path d="M60.9891 22.7H55.5291V28.07H53.0091V22.7H47.5491V20.33H53.0091V14.93H55.5291V20.33H60.9891V22.7Z" fill="#2F2F2F"/>
<path d="M23.572 26.4V39H21.79V27.966H18.946V26.4H23.572ZM33.0061 39.144C32.0101 39.144 31.1221 38.892 30.3421 38.388C29.5741 37.872 28.9681 37.128 28.5241 36.156C28.0801 35.184 27.8581 34.032 27.8581 32.7C27.8581 31.368 28.0801 30.216 28.5241 29.244C28.9681 28.272 29.5741 27.534 30.3421 27.03C31.1221 26.514 32.0101 26.256 33.0061 26.256C33.9901 26.256 34.8661 26.514 35.6341 27.03C36.4141 27.534 37.0261 28.272 37.4701 29.244C37.9141 30.216 38.1361 31.368 38.1361 32.7C38.1361 34.032 37.9141 35.184 37.4701 36.156C37.0261 37.128 36.4141 37.872 35.6341 38.388C34.8661 38.892 33.9901 39.144 33.0061 39.144ZM33.0061 37.542C34.0141 37.542 34.8181 37.128 35.4181 36.3C36.0301 35.472 36.3361 34.272 36.3361 32.7C36.3361 31.128 36.0301 29.928 35.4181 29.1C34.8181 28.272 34.0141 27.858 33.0061 27.858C31.9861 27.858 31.1701 28.272 30.5581 29.1C29.9581 29.928 29.6581 31.128 29.6581 32.7C29.6581 34.272 29.9581 35.472 30.5581 36.3C31.1701 37.128 31.9861 37.542 33.0061 37.542Z" fill="#2F2F2F"/>
<line x1="15" y1="20.5" x2="39" y2="20.5" stroke="#3C3C3C"/>
</svg>
