<svg width="142" height="42" viewBox="0 0 142 42" fill="none" xmlns="http://www.w3.org/2000/svg">
<path d="M2.11789 22.52H10.1879V25.01H2.11789V22.52ZM19.7423 18V32H17.7623V19.74H14.6023V18H19.7423ZM25.8246 32.12C25.4513 32.12 25.1313 31.9933 24.8646 31.74C24.5979 31.4733 24.4646 31.14 24.4646 30.74C24.4646 30.3533 24.5979 30.0333 24.8646 29.78C25.1313 29.5133 25.4513 29.38 25.8246 29.38C26.1979 29.38 26.5113 29.5067 26.7646 29.76C27.0179 30.0133 27.1446 30.34 27.1446 30.74C27.1446 31.14 27.0113 31.4733 26.7446 31.74C26.4913 31.9933 26.1846 32.12 25.8246 32.12ZM40.682 18V19.36L35.022 32H32.902L38.442 19.74H32.042V22.24H30.122V18H40.682ZM64.9891 22.7H59.5291V28.07H57.0091V22.7H51.5491V20.33H57.0091V14.93H59.5291V20.33H64.9891V22.7Z" fill="#2F2F2F"/>
<path d="M126.01 16.76H139.45V19.13H126.01V16.76ZM126.01 23.87H139.45V26.24H126.01V23.87Z" fill="#2F2F2F"/>
<path d="M109.785 11.904H107.391V15H105.645V11.904H98.643V10.644L105.087 2.4H107.031L100.857 10.356H105.699V7.62H107.391V10.356H109.785V11.904Z" fill="#2F2F2F"/>
<path d="M85.7611 24.56H83.1011V28H81.1611V24.56H73.3811V23.16L80.5411 14H82.7011L75.8411 22.84H81.2211V19.8H83.1011V22.84H85.7611V24.56Z" fill="#2F2F2F"/>
<path d="M105.191 31.35C106.019 31.35 106.757 31.506 107.405 31.818C108.065 32.13 108.581 32.58 108.953 33.168C109.325 33.744 109.511 34.41 109.511 35.166C109.511 35.958 109.313 36.654 108.917 37.254C108.533 37.854 107.999 38.322 107.315 38.658C106.643 38.982 105.887 39.144 105.047 39.144C103.355 39.144 102.047 38.598 101.123 37.506C100.211 36.414 99.7546 34.866 99.7546 32.862C99.7546 31.458 100.001 30.264 100.493 29.28C100.997 28.284 101.693 27.534 102.581 27.03C103.481 26.514 104.525 26.256 105.713 26.256C106.325 26.256 106.901 26.322 107.441 26.454C107.981 26.574 108.449 26.754 108.845 26.994L108.161 28.398C107.561 28.002 106.757 27.804 105.749 27.804C104.441 27.804 103.415 28.212 102.671 29.028C101.927 29.832 101.555 31.008 101.555 32.556C101.555 32.748 101.561 32.898 101.573 33.006C101.933 32.466 102.425 32.058 103.049 31.782C103.685 31.494 104.399 31.35 105.191 31.35ZM104.975 37.686C105.803 37.686 106.475 37.464 106.991 37.02C107.507 36.576 107.765 35.982 107.765 35.238C107.765 34.494 107.501 33.906 106.973 33.474C106.457 33.03 105.761 32.808 104.885 32.808C104.321 32.808 103.817 32.916 103.373 33.132C102.941 33.348 102.599 33.642 102.347 34.014C102.107 34.386 101.987 34.8 101.987 35.256C101.987 35.7 102.101 36.108 102.329 36.48C102.569 36.84 102.911 37.134 103.355 37.362C103.811 37.578 104.351 37.686 104.975 37.686Z" fill="#2F2F2F"/>
<line x1="93" y1="20.5" x2="117" y2="20.5" stroke="#3C3C3C"/>
</svg>
