<svg width="120" height="42" viewBox="0 0 120 42" fill="none" xmlns="http://www.w3.org/2000/svg">
<path d="M1.71 22.52H9.78V25.01H1.71V22.52ZM18.9944 23.58C20.9944 23.58 22.461 23.96 23.3944 24.72C24.341 25.4667 24.8144 26.4933 24.8144 27.8C24.8144 28.6267 24.6144 29.3733 24.2144 30.04C23.8277 30.6933 23.2344 31.2133 22.4344 31.6C21.6477 31.9733 20.6744 32.16 19.5144 32.16C18.5277 32.16 17.5744 32.0133 16.6544 31.72C15.7344 31.4133 14.9744 30.9933 14.3744 30.46L15.2944 28.88C15.7744 29.3333 16.3877 29.7 17.1344 29.98C17.881 30.2467 18.6677 30.38 19.4944 30.38C20.5477 30.38 21.361 30.16 21.9344 29.72C22.521 29.2667 22.8144 28.6533 22.8144 27.88C22.8144 27.04 22.4944 26.4067 21.8544 25.98C21.2144 25.54 20.121 25.32 18.5744 25.32H15.3944L16.1344 18H24.0344V19.74H17.8144L17.4344 23.58H18.9944ZM29.4988 32.12C29.1254 32.12 28.8054 31.9933 28.5387 31.74C28.2721 31.4733 28.1388 31.14 28.1388 30.74C28.1388 30.3533 28.2721 30.0333 28.5387 29.78C28.8054 29.5133 29.1254 29.38 29.4988 29.38C29.8721 29.38 30.1854 29.5067 30.4388 29.76C30.6921 30.0133 30.8188 30.34 30.8188 30.74C30.8188 31.14 30.6854 31.4733 30.4188 31.74C30.1654 31.9933 29.8588 32.12 29.4988 32.12ZM46.4142 28.56H43.7542V32H41.8142V28.56H34.0342V27.16L41.1942 18H43.3542L36.4942 26.84H41.8742V23.8H43.7542V26.84H46.4142V28.56ZM70.8742 22.7H65.4142V28.07H62.8942V22.7H57.4342V20.33H62.8942V14.93H65.4142V20.33H70.8742V22.7Z" fill="#2F2F2F"/>
<path d="M104.01 16.76H117.45V19.13H104.01V16.76ZM104.01 23.87H117.45V26.24H104.01V23.87Z" fill="#2F2F2F"/>
<path d="M92.3841 13.434V15H83.3301V13.776L88.4601 8.826C89.0841 8.226 89.5041 7.71 89.7201 7.278C89.9361 6.834 90.0441 6.39 90.0441 5.946C90.0441 5.286 89.8101 4.776 89.3421 4.416C88.8861 4.044 88.2261 3.858 87.3621 3.858C85.9701 3.858 84.8961 4.314 84.1401 5.226L82.9161 4.164C83.4081 3.564 84.0501 3.096 84.8421 2.76C85.6461 2.424 86.5401 2.256 87.5241 2.256C88.8441 2.256 89.8941 2.574 90.6741 3.21C91.4541 3.834 91.8441 4.686 91.8441 5.766C91.8441 6.438 91.7001 7.074 91.4121 7.674C91.1241 8.274 90.5781 8.958 89.7741 9.726L85.9221 13.434H92.3841Z" fill="#2F2F2F"/>
<path d="M88.1281 31.422C89.9281 31.422 91.2481 31.764 92.0881 32.448C92.9401 33.12 93.3661 34.044 93.3661 35.22C93.3661 35.964 93.1861 36.636 92.8261 37.236C92.4781 37.824 91.9441 38.292 91.2241 38.64C90.5161 38.976 89.6401 39.144 88.5961 39.144C87.7081 39.144 86.8501 39.012 86.0221 38.748C85.1941 38.472 84.5101 38.094 83.9701 37.614L84.7981 36.192C85.2301 36.6 85.7821 36.93 86.4541 37.182C87.1261 37.422 87.8341 37.542 88.5781 37.542C89.5261 37.542 90.2581 37.344 90.7741 36.948C91.3021 36.54 91.5661 35.988 91.5661 35.292C91.5661 34.536 91.2781 33.966 90.7021 33.582C90.1261 33.186 89.1421 32.988 87.7501 32.988H84.8881L85.5541 26.4H92.6641V27.966H87.0661L86.7241 31.422H88.1281Z" fill="#2F2F2F"/>
<line x1="76" y1="20.5" x2="100" y2="20.5" stroke="#3C3C3C"/>
</svg>
