<svg width="143" height="45" viewBox="0 0 143 45" fill="none" xmlns="http://www.w3.org/2000/svg">
<path d="M2.1 16H4.1V28.26H11.68V30H2.1V16ZM18.5861 19.84H27.5461V21.42H18.5861V19.84ZM18.5861 24.58H27.5461V26.16H18.5861V24.58Z" fill="#2F2F2F"/>
<rect x="39.5" y="0.5" width="103" height="44" rx="4.5" fill="white"/>
<path d="M59.587 20.922C61.387 20.922 62.707 21.264 63.547 21.948C64.399 22.62 64.825 23.544 64.825 24.72C64.825 25.464 64.645 26.136 64.285 26.736C63.937 27.324 63.403 27.792 62.683 28.14C61.975 28.476 61.099 28.644 60.055 28.644C59.167 28.644 58.309 28.512 57.481 28.248C56.653 27.972 55.969 27.594 55.429 27.114L56.257 25.692C56.689 26.1 57.241 26.43 57.913 26.682C58.585 26.922 59.293 27.042 60.037 27.042C60.985 27.042 61.717 26.844 62.233 26.448C62.761 26.04 63.025 25.488 63.025 24.792C63.025 24.036 62.737 23.466 62.161 23.082C61.585 22.686 60.601 22.488 59.209 22.488H56.347L57.013 15.9H64.123V17.466H58.525L58.183 20.922H59.587ZM73.0404 28.5L70.2864 24.846L67.4964 28.5H65.5704L69.3324 23.622L65.7504 18.96H67.6764L70.3044 22.398L72.9144 18.96H74.8044L71.2044 23.622L75.0024 28.5H73.0404ZM79.102 31.992C78.418 30.888 77.89 29.622 77.518 28.194C77.146 26.754 76.96 25.212 76.96 23.568C76.96 21.924 77.146 20.382 77.518 18.942C77.89 17.49 78.418 16.224 79.102 15.144H80.74C80.02 16.404 79.492 17.724 79.156 19.104C78.82 20.484 78.652 21.972 78.652 23.568C78.652 25.164 78.82 26.652 79.156 28.032C79.492 29.412 80.02 30.732 80.74 31.992H79.102ZM82.3405 22.812H87.1825V24.306H82.3405V22.812ZM93.5415 21.192C94.7775 21.312 95.7195 21.696 96.3675 22.344C97.0155 22.98 97.3395 23.796 97.3395 24.792C97.3395 25.512 97.1595 26.166 96.7995 26.754C96.4395 27.33 95.8995 27.792 95.1795 28.14C94.4715 28.476 93.6015 28.644 92.5695 28.644C91.6695 28.644 90.8055 28.512 89.9775 28.248C89.1495 27.972 88.4715 27.594 87.9435 27.114L88.7715 25.692C89.2035 26.1 89.7555 26.43 90.4275 26.682C91.0995 26.922 91.8135 27.042 92.5695 27.042C93.5055 27.042 94.2315 26.844 94.7475 26.448C95.2755 26.052 95.5395 25.506 95.5395 24.81C95.5395 24.114 95.2815 23.574 94.7655 23.19C94.2495 22.806 93.4695 22.614 92.4255 22.614H91.4175V21.354L94.5855 17.466H88.5195V15.9H96.8355V17.124L93.5415 21.192ZM98.7303 31.992C99.4503 30.732 99.9783 29.412 100.314 28.032C100.662 26.652 100.836 25.164 100.836 23.568C100.836 21.972 100.662 20.484 100.314 19.104C99.9783 17.724 99.4503 16.404 98.7303 15.144H100.368C101.064 16.224 101.598 17.484 101.97 18.924C102.342 20.364 102.528 21.912 102.528 23.568C102.528 25.212 102.342 26.754 101.97 28.194C101.598 29.634 101.064 30.9 100.368 31.992H98.7303ZM113.506 22.92H110.23V26.142H108.718V22.92H105.442V21.498H108.718V18.258H110.23V21.498H113.506V22.92ZM126.662 25.404H124.268V28.5H122.522V25.404H115.52V24.144L121.964 15.9H123.908L117.734 23.856H122.576V21.12H124.268V23.856H126.662V25.404Z" fill="#2F2F2F"/>
<rect x="39.5" y="0.5" width="103" height="44" rx="4.5" stroke="#2F2F2F"/>
</svg>
