<svg width="40" height="398" viewBox="0 0 40 398" fill="none" xmlns="http://www.w3.org/2000/svg">
<path d="M34.5303 0.46967C34.2374 0.176777 33.7626 0.176777 33.4697 0.46967L28.6967 5.24264C28.4038 5.53553 28.4038 6.01041 28.6967 6.3033C28.9896 6.59619 29.4645 6.59619 29.7574 6.3033L34 2.06066L38.2426 6.3033C38.5355 6.59619 39.0104 6.59619 39.3033 6.3033C39.5962 6.01041 39.5962 5.53553 39.3033 5.24264L34.5303 0.46967ZM33.4697 397.53C33.7626 397.823 34.2375 397.823 34.5303 397.53L39.3033 392.757C39.5962 392.464 39.5962 391.99 39.3033 391.697C39.0104 391.404 38.5356 391.404 38.2427 391.697L34 395.939L29.7574 391.697C29.4645 391.404 28.9896 391.404 28.6967 391.697C28.4038 391.99 28.4038 392.464 28.6967 392.757L33.4697 397.53ZM33.25 1L33.25 397L34.75 397L34.75 1L33.25 1Z" fill="#369CB7"/>
<line x1="29.75" y1="119.695" x2="38.25" y2="119.695" stroke="#369CB7" stroke-width="1.5" stroke-linecap="round"/>
<line x1="29.75" y1="178.88" x2="38.25" y2="178.88" stroke="#369CB7" stroke-width="1.5" stroke-linecap="round"/>
<line x1="29.75" y1="159.51" x2="38.25" y2="159.51" stroke="#369CB7" stroke-width="1.5" stroke-linecap="round"/>
<line x1="29.75" y1="139.065" x2="38.25" y2="139.065" stroke="#369CB7" stroke-width="1.5" stroke-linecap="round"/>
<line x1="29.75" y1="99.249" x2="38.25" y2="99.249" stroke="#369CB7" stroke-width="1.5" stroke-linecap="round"/>
<line x1="29.75" y1="79.8799" x2="38.25" y2="79.8799" stroke="#369CB7" stroke-width="1.5" stroke-linecap="round"/>
<line x1="29.75" y1="60.5098" x2="38.25" y2="60.5098" stroke="#369CB7" stroke-width="1.5" stroke-linecap="round"/>
<line x1="29.75" y1="40.0646" x2="38.25" y2="40.0646" stroke="#369CB7" stroke-width="1.5" stroke-linecap="round"/>
<line x1="29.75" y1="20.6953" x2="38.25" y2="20.6953" stroke="#369CB7" stroke-width="1.5" stroke-linecap="round"/>
<path d="M7.84 178.49H11.508V179.358H7.84V178.49ZM15.6497 176.936C17.0684 176.936 18.0997 177.192 18.7437 177.706C19.397 178.21 19.7237 178.919 19.7237 179.834C19.7237 180.403 19.5884 180.912 19.3177 181.36C19.0564 181.808 18.6597 182.162 18.1277 182.424C17.5957 182.676 16.9424 182.802 16.1677 182.802C15.4677 182.802 14.8004 182.69 14.1657 182.466C13.5404 182.232 13.0364 181.924 12.6537 181.542L13.1437 180.744C13.4704 181.08 13.8997 181.355 14.4317 181.57C14.9637 181.775 15.5377 181.878 16.1537 181.878C16.9657 181.878 17.591 181.696 18.0297 181.332C18.4777 180.968 18.7017 180.482 18.7017 179.876C18.7017 179.204 18.4497 178.695 17.9457 178.35C17.451 178.004 16.611 177.832 15.4257 177.832H13.3397L13.8437 172.918H19.2057V173.814H14.7257L14.3897 176.936H15.6497Z" fill="#2F2F2F"/>
<path d="M6.84 159.119H10.508V159.987H6.84V159.119ZM20.5131 160.771H18.5531V163.347H17.5451V160.771H12.0151V160.043L17.2091 153.547H18.3291L13.3171 159.875H17.5731V157.607H18.5531V159.875H20.5131V160.771Z" fill="#2F2F2F"/>
<path d="M7.84 139.75H11.508V140.618H7.84V139.75ZM16.1323 138.378C17.1589 138.434 17.9383 138.714 18.4703 139.218C19.0116 139.712 19.2823 140.361 19.2823 141.164C19.2823 141.724 19.1469 142.223 18.8763 142.662C18.6056 143.091 18.2043 143.432 17.6723 143.684C17.1403 143.936 16.4916 144.062 15.7263 144.062C15.0169 144.062 14.3449 143.95 13.7103 143.726C13.0849 143.492 12.5809 143.184 12.1983 142.802L12.6883 142.004C13.0149 142.34 13.4489 142.615 13.9903 142.83C14.5316 143.035 15.1103 143.138 15.7263 143.138C16.5289 143.138 17.1496 142.965 17.5883 142.62C18.0269 142.265 18.2463 141.78 18.2463 141.164C18.2463 140.557 18.0269 140.081 17.5883 139.736C17.1496 139.39 16.4869 139.218 15.6003 139.218H14.9003V138.476L17.6163 135.074H12.6043V134.178H18.9043V134.892L16.1323 138.378Z" fill="#2F2F2F"/>
<path d="M7.84 120.38H11.508V121.248H7.84V120.38ZM19.6016 123.712V124.608H12.7276V123.894L16.8016 119.904C17.315 119.4 17.6603 118.966 17.8376 118.602C18.0243 118.229 18.1176 117.856 18.1176 117.482C18.1176 116.904 17.917 116.456 17.5156 116.138C17.1236 115.812 16.559 115.648 15.8216 115.648C14.6736 115.648 13.7823 116.012 13.1476 116.74L12.4336 116.124C12.8163 115.676 13.3016 115.331 13.8896 115.088C14.487 114.846 15.159 114.724 15.9056 114.724C16.9043 114.724 17.693 114.962 18.2716 115.438C18.8596 115.905 19.1536 116.549 19.1536 117.37C19.1536 117.874 19.0416 118.36 18.8176 118.826C18.5936 119.293 18.169 119.83 17.5436 120.436L14.2116 123.712H19.6016Z" fill="#2F2F2F"/>
<path d="M10.84 98.8589H14.508V99.7269H10.84V98.8589ZM18.5573 93.2869V103.087H17.5493V94.1829H15.2393V93.2869H18.5573Z" fill="#2F2F2F"/>
<path d="M15.634 84.8779C14.878 84.8779 14.2013 84.6773 13.604 84.2759C13.016 83.8746 12.554 83.3006 12.218 82.5539C11.8913 81.7979 11.728 80.9113 11.728 79.8939C11.728 78.8766 11.8913 77.9946 12.218 77.2479C12.554 76.4919 13.016 75.9133 13.604 75.5119C14.2013 75.1106 14.878 74.9099 15.634 74.9099C16.39 74.9099 17.062 75.1106 17.65 75.5119C18.2473 75.9133 18.714 76.4919 19.05 77.2479C19.386 77.9946 19.554 78.8766 19.554 79.8939C19.554 80.9113 19.386 81.7979 19.05 82.5539C18.714 83.3006 18.2473 83.8746 17.65 84.2759C17.062 84.6773 16.39 84.8779 15.634 84.8779ZM15.634 83.9539C16.2033 83.9539 16.7027 83.7953 17.132 83.4779C17.5707 83.1606 17.9113 82.6986 18.154 82.0919C18.3967 81.4853 18.518 80.7526 18.518 79.8939C18.518 79.0353 18.3967 78.3026 18.154 77.6959C17.9113 77.0893 17.5707 76.6273 17.132 76.3099C16.7027 75.9926 16.2033 75.8339 15.634 75.8339C15.0647 75.8339 14.5607 75.9926 14.122 76.3099C13.6927 76.6273 13.3567 77.0893 13.114 77.6959C12.8713 78.3026 12.75 79.0353 12.75 79.8939C12.75 80.7526 12.8713 81.4853 13.114 82.0919C13.3567 82.6986 13.6927 83.1606 14.122 83.4779C14.5607 83.7953 15.0647 83.9539 15.634 83.9539Z" fill="#2F2F2F"/>
<path d="M18.444 55.6229V65.4229H17.436V56.5189H15.126V55.6229H18.444Z" fill="#2F2F2F"/>
<path d="M19.42 44.0815V44.9775H12.546V44.2635L16.62 40.2735C17.1333 39.7695 17.4787 39.3355 17.656 38.9715C17.8427 38.5982 17.936 38.2249 17.936 37.8515C17.936 37.2729 17.7353 36.8249 17.334 36.5075C16.942 36.1809 16.3773 36.0175 15.64 36.0175C14.492 36.0175 13.6007 36.3815 12.966 37.1095L12.252 36.4935C12.6347 36.0455 13.12 35.7002 13.708 35.4575C14.3053 35.2149 14.9773 35.0935 15.724 35.0935C16.7227 35.0935 17.5113 35.3315 18.09 35.8075C18.678 36.2742 18.972 36.9182 18.972 37.7395C18.972 38.2435 18.86 38.7289 18.636 39.1955C18.412 39.6622 17.9873 40.1989 17.362 40.8055L14.03 44.0815H19.42Z" fill="#2F2F2F"/>
<path d="M16.06 20.0084C17.0867 20.0644 17.866 20.3444 18.398 20.8484C18.9393 21.3431 19.21 21.9917 19.21 22.7944C19.21 23.3544 19.0747 23.8537 18.804 24.2924C18.5333 24.7217 18.132 25.0624 17.6 25.3144C17.068 25.5664 16.4193 25.6924 15.654 25.6924C14.9447 25.6924 14.2727 25.5804 13.638 25.3564C13.0127 25.1231 12.5087 24.8151 12.126 24.4324L12.616 23.6344C12.9427 23.9704 13.3767 24.2457 13.918 24.4604C14.4593 24.6657 15.038 24.7684 15.654 24.7684C16.4567 24.7684 17.0773 24.5957 17.516 24.2504C17.9547 23.8957 18.174 23.4104 18.174 22.7944C18.174 22.1877 17.9547 21.7117 17.516 21.3664C17.0773 21.0211 16.4147 20.8484 15.528 20.8484H14.828V20.1064L17.544 16.7044H12.532V15.8084H18.832V16.5224L16.06 20.0084Z" fill="#2F2F2F"/>
<line x1="29.75" y1="376.88" x2="38.25" y2="376.88" stroke="#369CB7" stroke-width="1.5" stroke-linecap="round"/>
<line x1="29.75" y1="337.064" x2="38.25" y2="337.064" stroke="#369CB7" stroke-width="1.5" stroke-linecap="round"/>
<line x1="29.75" y1="317.695" x2="38.25" y2="317.695" stroke="#369CB7" stroke-width="1.5" stroke-linecap="round"/>
<line x1="29.75" y1="297.249" x2="38.25" y2="297.249" stroke="#369CB7" stroke-width="1.5" stroke-linecap="round"/>
<line x1="29.75" y1="277.88" x2="38.25" y2="277.88" stroke="#369CB7" stroke-width="1.5" stroke-linecap="round"/>
<line x1="29.75" y1="257.434" x2="38.25" y2="257.434" stroke="#369CB7" stroke-width="1.5" stroke-linecap="round"/>
<line x1="29.75" y1="238.064" x2="38.25" y2="238.064" stroke="#369CB7" stroke-width="1.5" stroke-linecap="round"/>
<line x1="29.75" y1="218.695" x2="38.25" y2="218.695" stroke="#369CB7" stroke-width="1.5" stroke-linecap="round"/>
<path d="M2.73844 377.566H6.40644V378.434H2.73844V377.566ZM10.4557 371.994V381.794H9.44772V372.89H7.13772V371.994H10.4557ZM15.3743 376.012C16.793 376.012 17.8243 376.269 18.4683 376.782C19.1216 377.286 19.4483 377.995 19.4483 378.91C19.4483 379.479 19.313 379.988 19.0423 380.436C18.781 380.884 18.3843 381.239 17.8523 381.5C17.3203 381.752 16.667 381.878 15.8923 381.878C15.1923 381.878 14.525 381.766 13.8903 381.542C13.265 381.309 12.761 381.001 12.3783 380.618L12.8683 379.82C13.195 380.156 13.6243 380.431 14.1563 380.646C14.6883 380.851 15.2623 380.954 15.8783 380.954C16.6903 380.954 17.3156 380.772 17.7543 380.408C18.2023 380.044 18.4263 379.559 18.4263 378.952C18.4263 378.28 18.1743 377.771 17.6703 377.426C17.1756 377.081 16.3356 376.908 15.1503 376.908H13.0643L13.5683 371.994H18.9303V372.89H14.4503L14.1143 376.012H15.3743Z" fill="#2F2F2F"/>
<path d="M2.76578 337.75H6.43378V338.618H2.76578V337.75ZM10.4831 332.178V341.978H9.47506V333.074H7.16506V332.178H10.4831ZM16.1577 336.378C17.1843 336.434 17.9637 336.714 18.4957 337.218C19.037 337.712 19.3077 338.361 19.3077 339.164C19.3077 339.724 19.1723 340.223 18.9017 340.662C18.631 341.091 18.2297 341.432 17.6977 341.684C17.1657 341.936 16.517 342.062 15.7517 342.062C15.0423 342.062 14.3703 341.95 13.7357 341.726C13.1103 341.492 12.6063 341.184 12.2237 340.802L12.7137 340.004C13.0403 340.34 13.4743 340.615 14.0157 340.83C14.557 341.035 15.1357 341.138 15.7517 341.138C16.5543 341.138 17.175 340.965 17.6137 340.62C18.0523 340.265 18.2717 339.78 18.2717 339.164C18.2717 338.557 18.0523 338.081 17.6137 337.736C17.175 337.39 16.5123 337.218 15.6257 337.218H14.9257V336.476L17.6417 333.074H12.6297V332.178H18.9297V332.892L16.1577 336.378Z" fill="#2F2F2F"/>
<path d="M2.71109 317.304H6.37909V318.172H2.71109V317.304ZM10.4284 311.732V321.532H9.42038V312.628H7.11038V311.732H10.4284ZM19.463 320.636V321.532H12.589V320.818L16.663 316.828C17.1763 316.324 17.5216 315.89 17.699 315.526C17.8856 315.153 17.979 314.78 17.979 314.406C17.979 313.828 17.7783 313.38 17.377 313.062C16.985 312.736 16.4203 312.572 15.683 312.572C14.535 312.572 13.6436 312.936 13.009 313.664L12.295 313.048C12.6776 312.6 13.163 312.255 13.751 312.012C14.3483 311.77 15.0203 311.648 15.767 311.648C16.7656 311.648 17.5543 311.886 18.133 312.362C18.721 312.829 19.015 313.473 19.015 314.294C19.015 314.798 18.903 315.284 18.679 315.75C18.455 316.217 18.0303 316.754 17.405 317.36L14.073 320.636H19.463Z" fill="#2F2F2F"/>
<path d="M5.60953 298.772H9.27753V299.64H5.60953V298.772ZM13.3268 293.2V303H12.3188V294.096H10.0088V293.2H13.3268ZM18.3854 293.2V303H17.3774V294.096H15.0674V293.2H18.3854Z" fill="#222222"/>
<path d="M1.39859 278.566H5.06659V279.434H1.39859V278.566ZM9.11588 272.994V282.794H8.10788V273.89H5.79788V272.994H9.11588ZM15.3645 282.878C14.6085 282.878 13.9318 282.677 13.3345 282.276C12.7465 281.875 12.2845 281.301 11.9485 280.554C11.6218 279.798 11.4585 278.911 11.4585 277.894C11.4585 276.877 11.6218 275.995 11.9485 275.248C12.2845 274.492 12.7465 273.913 13.3345 273.512C13.9318 273.111 14.6085 272.91 15.3645 272.91C16.1205 272.91 16.7925 273.111 17.3805 273.512C17.9778 273.913 18.4445 274.492 18.7805 275.248C19.1165 275.995 19.2845 276.877 19.2845 277.894C19.2845 278.911 19.1165 279.798 18.7805 280.554C18.4445 281.301 17.9778 281.875 17.3805 282.276C16.7925 282.677 16.1205 282.878 15.3645 282.878ZM15.3645 281.954C15.9338 281.954 16.4331 281.795 16.8625 281.478C17.3011 281.161 17.6418 280.699 17.8845 280.092C18.1271 279.485 18.2485 278.753 18.2485 277.894C18.2485 277.035 18.1271 276.303 17.8845 275.696C17.6418 275.089 17.3011 274.627 16.8625 274.31C16.4331 273.993 15.9338 273.834 15.3645 273.834C14.7951 273.834 14.2911 273.993 13.8525 274.31C13.4231 274.627 13.0871 275.089 12.8445 275.696C12.6018 276.303 12.4805 277.035 12.4805 277.894C12.4805 278.753 12.6018 279.485 12.8445 280.092C13.0871 280.699 13.4231 281.161 13.8525 281.478C14.2911 281.795 14.7951 281.954 15.3645 281.954Z" fill="#2F2F2F"/>
<path d="M6.96305 258.119H10.631V258.987H6.96305V258.119ZM15.2488 252.463C16.5461 252.463 17.5401 252.892 18.2308 253.751C18.9214 254.6 19.2668 255.804 19.2668 257.363C19.2668 258.455 19.0801 259.379 18.7068 260.135C18.3334 260.891 17.8108 261.465 17.1388 261.857C16.4668 262.239 15.6828 262.431 14.7868 262.431C13.8161 262.431 13.0414 262.253 12.4628 261.899L12.8688 261.087C13.3354 261.395 13.9701 261.549 14.7728 261.549C15.8554 261.549 16.7048 261.208 17.3208 260.527C17.9368 259.836 18.2448 258.837 18.2448 257.531C18.2448 257.288 18.2308 257.022 18.2028 256.733C17.9601 257.265 17.5728 257.68 17.0408 257.979C16.5088 258.268 15.8974 258.413 15.2068 258.413C14.5628 258.413 13.9888 258.291 13.4848 258.049C12.9901 257.806 12.6028 257.465 12.3228 257.027C12.0428 256.579 11.9028 256.061 11.9028 255.473C11.9028 254.875 12.0474 254.348 12.3368 253.891C12.6261 253.433 13.0228 253.083 13.5267 252.841C14.0401 252.589 14.6141 252.463 15.2488 252.463ZM15.3608 257.559C15.8554 257.559 16.2894 257.465 16.6628 257.279C17.0454 257.092 17.3441 256.835 17.5588 256.509C17.7734 256.182 17.8808 255.818 17.8808 255.417C17.8808 255.043 17.7781 254.698 17.5728 254.381C17.3768 254.063 17.0828 253.807 16.6908 253.611C16.2988 253.415 15.8321 253.317 15.2908 253.317C14.5814 253.317 14.0028 253.513 13.5548 253.905C13.1161 254.287 12.8968 254.801 12.8968 255.445C12.8968 256.089 13.1161 256.602 13.5548 256.985C14.0028 257.367 14.6048 257.559 15.3608 257.559Z" fill="#2F2F2F"/>
<path d="M6.56656 238.75H10.2346V239.618H6.56656V238.75ZM17.4143 237.84C18.0303 238.045 18.5016 238.353 18.8283 238.764C19.1643 239.174 19.3323 239.669 19.3323 240.248C19.3323 240.817 19.1783 241.316 18.8703 241.746C18.5623 242.166 18.1189 242.492 17.5403 242.726C16.9709 242.95 16.2989 243.062 15.5243 243.062C14.3483 243.062 13.4243 242.81 12.7523 242.306C12.0803 241.802 11.7443 241.116 11.7443 240.248C11.7443 239.66 11.9029 239.165 12.2203 238.764C12.5469 238.353 13.0183 238.045 13.6343 237.84C13.1303 237.644 12.7476 237.364 12.4863 237C12.2249 236.626 12.0943 236.188 12.0943 235.684C12.0943 234.89 12.4023 234.26 13.0183 233.794C13.6436 233.327 14.4789 233.094 15.5243 233.094C16.2149 233.094 16.8169 233.201 17.3303 233.416C17.8529 233.621 18.2589 233.92 18.5483 234.312C18.8376 234.704 18.9823 235.161 18.9823 235.684C18.9823 236.188 18.8469 236.626 18.5763 237C18.3056 237.364 17.9183 237.644 17.4143 237.84ZM13.1023 235.712C13.1023 236.253 13.3169 236.682 13.7463 237C14.1756 237.317 14.7683 237.476 15.5243 237.476C16.2803 237.476 16.8729 237.317 17.3023 237C17.7409 236.682 17.9603 236.258 17.9603 235.726C17.9603 235.175 17.7363 234.741 17.2883 234.424C16.8496 234.106 16.2616 233.948 15.5243 233.948C14.7776 233.948 14.1849 234.106 13.7463 234.424C13.3169 234.741 13.1023 235.17 13.1023 235.712ZM15.5243 242.208C16.3923 242.208 17.0689 242.03 17.5543 241.676C18.0489 241.321 18.2963 240.84 18.2963 240.234C18.2963 239.627 18.0489 239.151 17.5543 238.806C17.0689 238.451 16.3923 238.274 15.5243 238.274C14.6656 238.274 13.9889 238.451 13.4943 238.806C13.0089 239.151 12.7663 239.627 12.7663 240.234C12.7663 240.85 13.0089 241.335 13.4943 241.69C13.9796 242.035 14.6563 242.208 15.5243 242.208Z" fill="#2F2F2F"/>
<path d="M7.38688 219.38H11.0549V220.248H7.38688V219.38ZM19.3999 213.808V214.522L15.2979 223.608H14.2059L18.2379 214.704H13.1979V216.538H12.2039V213.808H19.3999Z" fill="#2F2F2F"/>
<path d="M7.84 197.86H11.508V198.728H7.84V197.86ZM17.2431 196.222C17.8871 196.222 18.4564 196.343 18.9511 196.586C19.4551 196.829 19.8471 197.174 20.1271 197.622C20.4071 198.061 20.5471 198.574 20.5471 199.162C20.5471 199.759 20.4024 200.287 20.1131 200.744C19.8237 201.201 19.4224 201.556 18.9091 201.808C18.4051 202.051 17.8357 202.172 17.2011 202.172C15.9037 202.172 14.9097 201.747 14.2191 200.898C13.5284 200.039 13.1831 198.831 13.1831 197.272C13.1831 196.18 13.3697 195.256 13.7431 194.5C14.1164 193.744 14.6391 193.175 15.3111 192.792C15.9831 192.4 16.7671 192.204 17.6631 192.204C18.6337 192.204 19.4084 192.381 19.9871 192.736L19.5811 193.548C19.1144 193.24 18.4797 193.086 17.6771 193.086C16.5944 193.086 15.7451 193.431 15.1291 194.122C14.5131 194.803 14.2051 195.797 14.2051 197.104C14.2051 197.337 14.2191 197.603 14.2471 197.902C14.4897 197.37 14.8771 196.959 15.4091 196.67C15.9411 196.371 16.5524 196.222 17.2431 196.222ZM17.1591 201.318C17.8684 201.318 18.4424 201.127 18.8811 200.744C19.3291 200.352 19.5531 199.834 19.5531 199.19C19.5531 198.546 19.3291 198.033 18.8811 197.65C18.4424 197.267 17.8451 197.076 17.0891 197.076C16.5944 197.076 16.1557 197.169 15.7731 197.356C15.3997 197.543 15.1057 197.799 14.8911 198.126C14.6764 198.453 14.5691 198.817 14.5691 199.218C14.5691 199.591 14.6671 199.937 14.8631 200.254C15.0684 200.571 15.3671 200.828 15.7591 201.024C16.1511 201.22 16.6177 201.318 17.1591 201.318Z" fill="#2F2F2F"/>
<path d="M1.41227 357.12H5.08027V357.988H1.41227V357.12ZM9.12955 351.548V361.348H8.12155V352.444H5.81155V351.548H9.12955ZM19.8021 358.772H17.8421V361.348H16.8341V358.772H11.3041V358.044L16.4981 351.548H17.6181L12.6061 357.876H16.8621V355.608H17.8421V357.876H19.8021V358.772Z" fill="#2F2F2F"/>
<line x1="29.75" y1="198.25" x2="38.25" y2="198.25" stroke="#369CB7" stroke-width="1.5" stroke-linecap="round"/>
<line x1="29.75" y1="354.282" x2="38.25" y2="354.282" stroke="#369CB7" stroke-width="1.5" stroke-linecap="round"/>
</svg>
