<svg width="160" height="45" viewBox="0 0 160 45" fill="none" xmlns="http://www.w3.org/2000/svg">
<path d="M0 5C0 2.23858 2.23858 0 5 0H65C67.7614 0 70 2.23858 70 5V40C70 42.7614 67.7614 45 65 45H5C2.23858 45 0 42.7614 0 40V5Z" fill="white"/>
<path d="M30.165 18.96L25.539 29.454C25.131 30.426 24.651 31.11 24.099 31.506C23.559 31.902 22.905 32.1 22.137 32.1C21.669 32.1 21.213 32.022 20.769 31.866C20.337 31.722 19.977 31.506 19.689 31.218L20.427 29.922C20.919 30.39 21.489 30.624 22.137 30.624C22.557 30.624 22.905 30.51 23.181 30.282C23.469 30.066 23.727 29.688 23.955 29.148L24.261 28.482L20.049 18.96H21.849L25.179 26.592L28.473 18.96H30.165ZM40.136 23.784C40.136 23.916 40.124 24.09 40.1 24.306H32.36C32.468 25.146 32.834 25.824 33.458 26.34C34.094 26.844 34.88 27.096 35.816 27.096C36.956 27.096 37.874 26.712 38.57 25.944L39.524 27.06C39.092 27.564 38.552 27.948 37.904 28.212C37.268 28.476 36.554 28.608 35.762 28.608C34.754 28.608 33.86 28.404 33.08 27.996C32.3 27.576 31.694 26.994 31.262 26.25C30.842 25.506 30.632 24.666 30.632 23.73C30.632 22.806 30.836 21.972 31.244 21.228C31.664 20.484 32.234 19.908 32.954 19.5C33.686 19.08 34.508 18.87 35.42 18.87C36.332 18.87 37.142 19.08 37.85 19.5C38.57 19.908 39.128 20.484 39.524 21.228C39.932 21.972 40.136 22.824 40.136 23.784ZM35.42 20.328C34.592 20.328 33.896 20.58 33.332 21.084C32.78 21.588 32.456 22.248 32.36 23.064H38.48C38.384 22.26 38.054 21.606 37.49 21.102C36.938 20.586 36.248 20.328 35.42 20.328ZM45.2715 28.608C44.4915 28.608 43.7415 28.506 43.0215 28.302C42.3015 28.086 41.7375 27.816 41.3295 27.492L42.0495 26.124C42.4695 26.424 42.9795 26.664 43.5795 26.844C44.1795 27.024 44.7855 27.114 45.3975 27.114C46.9095 27.114 47.6655 26.682 47.6655 25.818C47.6655 25.53 47.5635 25.302 47.3595 25.134C47.1555 24.966 46.8975 24.846 46.5855 24.774C46.2855 24.69 45.8535 24.6 45.2895 24.504C44.5215 24.384 43.8915 24.246 43.3995 24.09C42.9195 23.934 42.5055 23.67 42.1575 23.298C41.8095 22.926 41.6355 22.404 41.6355 21.732C41.6355 20.868 41.9955 20.178 42.7155 19.662C43.4355 19.134 44.4015 18.87 45.6135 18.87C46.2495 18.87 46.8855 18.948 47.5215 19.104C48.1575 19.26 48.6795 19.47 49.0875 19.734L48.3495 21.102C47.5695 20.598 46.6515 20.346 45.5955 20.346C44.8635 20.346 44.3055 20.466 43.9215 20.706C43.5375 20.946 43.3455 21.264 43.3455 21.66C43.3455 21.972 43.4535 22.218 43.6695 22.398C43.8855 22.578 44.1495 22.71 44.4615 22.794C44.7855 22.878 45.2355 22.974 45.8115 23.082C46.5795 23.214 47.1975 23.358 47.6655 23.514C48.1455 23.658 48.5535 23.91 48.8895 24.27C49.2255 24.63 49.3935 25.134 49.3935 25.782C49.3935 26.646 49.0215 27.336 48.2775 27.852C47.5455 28.356 46.5435 28.608 45.2715 28.608Z" fill="#2F2F2F"/>
<path d="M5 1H65V-1H5V1ZM69 5V40H71V5H69ZM65 44H5V46H65V44ZM1 40V5H-1V40H1ZM5 44C2.79086 44 1 42.2091 1 40H-1C-1 43.3137 1.68629 46 5 46V44ZM69 40C69 42.2091 67.2091 44 65 44V46C68.3137 46 71 43.3137 71 40H69ZM65 1C67.2091 1 69 2.79086 69 5H71C71 1.68629 68.3137 -1 65 -1V1ZM5 -1C1.68629 -1 -1 1.68629 -1 5H1C1 2.79086 2.79086 1 5 1V-1Z" fill="#2F2F2F"/>
<path d="M90 5C90 2.23858 92.2386 0 95 0H155C157.761 0 160 2.23858 160 5V40C160 42.7614 157.761 45 155 45H95C92.2386 45 90 42.7614 90 40V5Z" fill="white"/>
<path d="M119.867 18.87C121.079 18.87 122.039 19.224 122.747 19.932C123.467 20.628 123.827 21.654 123.827 23.01V28.5H122.099V23.208C122.099 22.284 121.877 21.588 121.433 21.12C120.989 20.652 120.353 20.418 119.525 20.418C118.589 20.418 117.851 20.694 117.311 21.246C116.771 21.786 116.501 22.566 116.501 23.586V28.5H114.773V18.96H116.429V20.4C116.777 19.908 117.245 19.53 117.833 19.266C118.433 19.002 119.111 18.87 119.867 18.87ZM131.163 28.608C130.215 28.608 129.363 28.398 128.607 27.978C127.851 27.558 127.257 26.982 126.825 26.25C126.405 25.506 126.195 24.666 126.195 23.73C126.195 22.794 126.405 21.96 126.825 21.228C127.257 20.484 127.851 19.908 128.607 19.5C129.363 19.08 130.215 18.87 131.163 18.87C132.111 18.87 132.957 19.08 133.701 19.5C134.457 19.908 135.045 20.484 135.465 21.228C135.897 21.96 136.113 22.794 136.113 23.73C136.113 24.666 135.897 25.506 135.465 26.25C135.045 26.982 134.457 27.558 133.701 27.978C132.957 28.398 132.111 28.608 131.163 28.608ZM131.163 27.096C131.775 27.096 132.321 26.958 132.801 26.682C133.293 26.394 133.677 25.998 133.953 25.494C134.229 24.978 134.367 24.39 134.367 23.73C134.367 23.07 134.229 22.488 133.953 21.984C133.677 21.468 133.293 21.072 132.801 20.796C132.321 20.52 131.775 20.382 131.163 20.382C130.551 20.382 129.999 20.52 129.507 20.796C129.027 21.072 128.643 21.468 128.355 21.984C128.079 22.488 127.941 23.07 127.941 23.73C127.941 24.39 128.079 24.978 128.355 25.494C128.643 25.998 129.027 26.394 129.507 26.682C129.999 26.958 130.551 27.096 131.163 27.096Z" fill="#2F2F2F"/>
<path d="M95 1H155V-1H95V1ZM159 5V40H161V5H159ZM155 44H95V46H155V44ZM91 40V5H89V40H91ZM95 44C92.7909 44 91 42.2091 91 40H89C89 43.3137 91.6863 46 95 46V44ZM159 40C159 42.2091 157.209 44 155 44V46C158.314 46 161 43.3137 161 40H159ZM155 1C157.209 1 159 2.79086 159 5H161C161 1.68629 158.314 -1 155 -1V1ZM95 -1C91.6863 -1 89 1.68629 89 5H91C91 2.79086 92.7909 1 95 1V-1Z" fill="#2F2F2F"/>
<path d="M90 5C90 2.23858 92.2386 0 95 0H155C157.761 0 160 2.23858 160 5V40C160 42.7614 157.761 45 155 45H95C92.2386 45 90 42.7614 90 40V5Z" fill="#BBEDF4"/>
<path d="M119.867 18.87C121.079 18.87 122.039 19.224 122.747 19.932C123.467 20.628 123.827 21.654 123.827 23.01V28.5H122.099V23.208C122.099 22.284 121.877 21.588 121.433 21.12C120.989 20.652 120.353 20.418 119.525 20.418C118.589 20.418 117.851 20.694 117.311 21.246C116.771 21.786 116.501 22.566 116.501 23.586V28.5H114.773V18.96H116.429V20.4C116.777 19.908 117.245 19.53 117.833 19.266C118.433 19.002 119.111 18.87 119.867 18.87ZM131.163 28.608C130.215 28.608 129.363 28.398 128.607 27.978C127.851 27.558 127.257 26.982 126.825 26.25C126.405 25.506 126.195 24.666 126.195 23.73C126.195 22.794 126.405 21.96 126.825 21.228C127.257 20.484 127.851 19.908 128.607 19.5C129.363 19.08 130.215 18.87 131.163 18.87C132.111 18.87 132.957 19.08 133.701 19.5C134.457 19.908 135.045 20.484 135.465 21.228C135.897 21.96 136.113 22.794 136.113 23.73C136.113 24.666 135.897 25.506 135.465 26.25C135.045 26.982 134.457 27.558 133.701 27.978C132.957 28.398 132.111 28.608 131.163 28.608ZM131.163 27.096C131.775 27.096 132.321 26.958 132.801 26.682C133.293 26.394 133.677 25.998 133.953 25.494C134.229 24.978 134.367 24.39 134.367 23.73C134.367 23.07 134.229 22.488 133.953 21.984C133.677 21.468 133.293 21.072 132.801 20.796C132.321 20.52 131.775 20.382 131.163 20.382C130.551 20.382 129.999 20.52 129.507 20.796C129.027 21.072 128.643 21.468 128.355 21.984C128.079 22.488 127.941 23.07 127.941 23.73C127.941 24.39 128.079 24.978 128.355 25.494C128.643 25.998 129.027 26.394 129.507 26.682C129.999 26.958 130.551 27.096 131.163 27.096Z" fill="#0E80A4"/>
<path d="M95 1H155V-1H95V1ZM159 5V40H161V5H159ZM155 44H95V46H155V44ZM91 40V5H89V40H91ZM95 44C92.7909 44 91 42.2091 91 40H89C89 43.3137 91.6863 46 95 46V44ZM159 40C159 42.2091 157.209 44 155 44V46C158.314 46 161 43.3137 161 40H159ZM155 1C157.209 1 159 2.79086 159 5H161C161 1.68629 158.314 -1 155 -1V1ZM95 -1C91.6863 -1 89 1.68629 89 5H91C91 2.79086 92.7909 1 95 1V-1Z" fill="#BBEDF4"/>
</svg>
