<svg width="24" height="24" viewBox="0 0 24 24" fill="none" xmlns="http://www.w3.org/2000/svg">
<g clip-path="url(#clip0_5611_100393)">
<path d="M13.2554 24.0003H10.2001C9.48718 24.0003 8.67242 23.4253 8.67242 22.2753V20.2628C8.67242 19.3045 8.1632 18.442 7.34844 17.7712C5.51524 16.4295 4.59863 14.5128 4.59863 12.4045C4.70048 8.76283 7.85766 5.88783 11.6259 5.79199C13.561 5.79199 15.3942 6.46283 16.7182 7.70866C18.0421 8.95449 18.8569 10.6795 18.8569 12.5003C18.8569 14.5128 17.9403 16.4295 16.2089 17.6753C15.2923 18.3462 14.7831 19.4003 14.7831 20.3587V22.5628C14.7831 23.3295 14.0702 24.0003 13.2554 24.0003ZM11.7278 6.75033C8.46873 6.75033 5.71892 9.33783 5.61708 12.4045C5.61708 14.2253 6.43184 15.9503 7.95951 17.0045C9.0798 17.867 9.69087 19.017 9.69087 20.2628V22.2753C9.69087 22.467 9.69087 23.042 10.2001 23.042H13.2554C13.561 23.042 13.7647 22.8503 13.7647 22.5628V20.3587C13.7647 19.1128 14.4776 17.7712 15.5979 16.9087C17.0237 15.8545 17.8384 14.2253 17.8384 12.5003C17.8384 10.967 17.2274 9.52949 16.0052 8.37949C14.8849 7.32533 13.3573 6.75033 11.7278 6.75033Z" fill="#065B5B"/>
<path d="M14.2733 21.1253H9.1811C8.87556 21.1253 8.67188 20.9337 8.67188 20.6462C8.67188 20.3587 8.87556 20.167 9.1811 20.167H14.2733C14.5789 20.167 14.7826 20.3587 14.7826 20.6462C14.7826 20.9337 14.5789 21.1253 14.2733 21.1253Z" fill="#065B5B"/>
<path d="M11.727 3.875C11.4215 3.875 11.2178 3.68333 11.2178 3.39583V1.47917C11.2178 1.19167 11.4215 1 11.727 1C12.0325 1 12.2362 1.19167 12.2362 1.47917V3.39583C12.2362 3.68333 12.0325 3.875 11.727 3.875Z" fill="#065B5B"/>
<path d="M18.5504 6.55872C18.4485 6.55872 18.2448 6.55872 18.143 6.46289C17.9393 6.27122 17.9393 5.98372 18.143 5.79206L19.5688 4.45039C19.7725 4.25872 20.0781 4.25872 20.2817 4.45039C20.4854 4.64206 20.4854 4.92956 20.2817 5.12122L18.8559 6.46289C18.8559 6.46289 18.6522 6.55872 18.5504 6.55872Z" fill="#065B5B"/>
<path d="M23.4397 12.9788H21.4028C21.0972 12.9788 20.8936 12.7872 20.8936 12.4997C20.8936 12.2122 21.0972 12.0205 21.4028 12.0205H23.4397C23.7452 12.0205 23.9489 12.2122 23.9489 12.4997C23.9489 12.7872 23.7452 12.9788 23.4397 12.9788Z" fill="#065B5B"/>
<path d="M19.9762 20.7413C19.8744 20.7413 19.6707 20.7413 19.5688 20.6455L18.143 19.3038C17.9393 19.1122 17.9393 18.8247 18.143 18.633C18.3467 18.4413 18.6522 18.4413 18.8559 18.633L20.2817 19.9747C20.4854 20.1663 20.4854 20.4538 20.2817 20.6455C20.2817 20.7413 20.1799 20.7413 19.9762 20.7413Z" fill="#065B5B"/>
<path d="M3.47714 20.7413C3.37529 20.7413 3.1716 20.7413 3.06976 20.6455C2.86607 20.4538 2.86607 20.1663 3.06976 19.9747L4.49558 18.633C4.69927 18.4413 5.00481 18.4413 5.2085 18.633C5.41219 18.8247 5.41219 19.1122 5.2085 19.3038L3.78267 20.6455C3.68083 20.7413 3.57898 20.7413 3.47714 20.7413Z" fill="#065B5B"/>
<path d="M2.05198 12.9788H0.0150829C-0.290451 12.9788 -0.494141 12.7872 -0.494141 12.4997C-0.494141 12.2122 -0.290451 12.0205 0.0150829 12.0205H2.05198C2.35751 12.0205 2.5612 12.2122 2.5612 12.4997C2.5612 12.7872 2.35751 12.9788 2.05198 12.9788Z" fill="#065B5B"/>
<path d="M4.90296 6.55788C4.80112 6.55788 4.59743 6.55788 4.49558 6.46204L3.06976 5.02454C2.86607 4.83288 2.86607 4.54538 3.06976 4.35371C3.27345 4.16204 3.57898 4.16204 3.78267 4.35371L5.2085 5.69538C5.41219 5.88704 5.41219 6.17454 5.2085 6.36621C5.10665 6.46204 5.00481 6.55788 4.90296 6.55788Z" fill="#065B5B"/>
<path d="M15.8008 12.9792C15.4952 12.9792 15.2916 12.7875 15.2916 12.5C15.2916 10.6792 13.662 9.14583 11.727 9.14583C11.4215 9.14583 11.2178 8.95417 11.2178 8.66667C11.2178 8.37917 11.4215 8.1875 11.727 8.1875C14.2731 8.1875 16.31 10.1042 16.31 12.5C16.31 12.7875 16.1063 12.9792 15.8008 12.9792Z" fill="#065B5B"/>
</g>
<defs>
<clipPath id="clip0_5611_100393">
<rect width="24" height="24" fill="white"/>
</clipPath>
</defs>
</svg>
