<svg width="118" height="31" viewBox="0 0 118 31" fill="none" xmlns="http://www.w3.org/2000/svg">
<path d="M5.00512 1.13983L51.851 1.01351L51.8407 -0.986463L4.99484 -0.860148L5.00512 1.13983ZM55.8715 5.00267L55.9743 25.0026L57.9743 24.9972L57.8715 4.99728L55.8715 5.00267ZM51.9949 29.0133L5.14902 29.1396L5.1593 31.1396L52.0052 31.0133L51.9949 29.0133ZM1.12848 25.1505L1.02569 5.15056L-0.9743 5.15595L-0.871515 25.1559L1.12848 25.1505ZM5.14902 29.1396C2.93989 29.1456 1.13983 27.3596 1.12848 25.1505L-0.871515 25.1559C-0.854486 28.4695 1.8456 31.1486 5.1593 31.1396L5.14902 29.1396ZM55.9743 25.0026C55.9857 27.2117 54.204 29.0074 51.9949 29.0133L52.0052 31.0133C55.3189 31.0044 57.9913 28.3109 57.9743 24.9972L55.9743 25.0026ZM51.851 1.01351C54.0601 1.00755 55.8602 2.79356 55.8715 5.00267L57.8715 4.99728C57.8545 1.68361 55.1544 -0.995398 51.8407 -0.986463L51.851 1.01351ZM4.99484 -0.860148C1.68115 -0.851213 -0.99133 1.84229 -0.9743 5.15595L1.02569 5.15056C1.01434 2.94145 2.79599 1.14578 5.00512 1.13983L4.99484 -0.860148Z" fill="#2F2F2F"/>
<path d="M82.12 11.2762C83.4667 11.2762 84.5333 11.6695 85.32 12.4562C86.1067 13.2295 86.5 14.3962 86.5 15.9562V22.0762H84V16.2762C84 15.3428 83.7933 14.6428 83.38 14.1762C82.9667 13.6962 82.3733 13.4562 81.6 13.4562C80.76 13.4562 80.0867 13.7362 79.58 14.2962C79.0733 14.8428 78.82 15.6295 78.82 16.6562V22.0762H76.32V16.2762C76.32 15.3428 76.1133 14.6428 75.7 14.1762C75.2867 13.6962 74.6933 13.4562 73.92 13.4562C73.0667 13.4562 72.3867 13.7295 71.88 14.2762C71.3867 14.8228 71.14 15.6162 71.14 16.6562V22.0762H68.64V11.3962H71.02V12.7562C71.42 12.2762 71.92 11.9095 72.52 11.6562C73.12 11.4028 73.7867 11.2762 74.52 11.2762C75.32 11.2762 76.0267 11.4295 76.64 11.7362C77.2667 12.0295 77.76 12.4695 78.12 13.0562C78.56 12.4962 79.1267 12.0628 79.82 11.7562C80.5133 11.4362 81.28 11.2762 82.12 11.2762ZM103.175 11.2762C104.521 11.2762 105.588 11.6695 106.375 12.4562C107.161 13.2295 107.555 14.3962 107.555 15.9562V22.0762H105.055V16.2762C105.055 15.3428 104.848 14.6428 104.435 14.1762C104.021 13.6962 103.428 13.4562 102.655 13.4562C101.815 13.4562 101.141 13.7362 100.635 14.2962C100.128 14.8428 99.8747 15.6295 99.8747 16.6562V22.0762H97.3747V16.2762C97.3747 15.3428 97.168 14.6428 96.7547 14.1762C96.3414 13.6962 95.748 13.4562 94.9747 13.4562C94.1214 13.4562 93.4414 13.7295 92.9347 14.2762C92.4414 14.8228 92.1947 15.6162 92.1947 16.6562V22.0762H89.6947V11.3962H92.0747V12.7562C92.4747 12.2762 92.9747 11.9095 93.5747 11.6562C94.1747 11.4028 94.8414 11.2762 95.5747 11.2762C96.3747 11.2762 97.0814 11.4295 97.6947 11.7362C98.3214 12.0295 98.8147 12.4695 99.1747 13.0562C99.6147 12.4962 100.181 12.0628 100.875 11.7562C101.568 11.4362 102.335 11.2762 103.175 11.2762ZM116.789 14.1162V15.5362H109.989V14.4162L113.569 11.2962C113.983 10.9228 114.263 10.6228 114.409 10.3962C114.569 10.1562 114.649 9.91617 114.649 9.67617C114.649 9.35617 114.503 9.09617 114.209 8.89617C113.929 8.69617 113.503 8.59617 112.929 8.59617C112.476 8.59617 112.069 8.6695 111.709 8.81617C111.349 8.96284 111.063 9.18284 110.849 9.47617L109.589 8.57617C109.936 8.1095 110.403 7.7495 110.989 7.49617C111.576 7.2295 112.269 7.09617 113.069 7.09617C114.123 7.09617 114.949 7.32284 115.549 7.77617C116.149 8.2295 116.449 8.82284 116.449 9.55617C116.449 9.98284 116.343 10.3828 116.129 10.7562C115.929 11.1295 115.523 11.5828 114.909 12.1162L112.629 14.1162H116.789Z" fill="#2F2F2F"/>
<path d="M28.4566 18.138H26.2246V21H23.9566V18.138H17.0446V16.518L23.2546 8.4H25.7566L19.9066 16.158H24.0286V13.62H26.2246V16.158H28.4566V18.138ZM37.7892 14.376C38.4492 14.676 38.9532 15.084 39.3012 15.6C39.6612 16.104 39.8412 16.698 39.8412 17.382C39.8412 18.15 39.6252 18.822 39.1932 19.398C38.7732 19.974 38.1732 20.418 37.3932 20.73C36.6132 21.03 35.7072 21.18 34.6752 21.18C33.6432 21.18 32.7372 21.03 31.9572 20.73C31.1892 20.418 30.5952 19.974 30.1752 19.398C29.7552 18.822 29.5452 18.15 29.5452 17.382C29.5452 16.698 29.7192 16.104 30.0672 15.6C30.4152 15.084 30.9132 14.676 31.5612 14.376C31.0572 14.1 30.6672 13.74 30.3912 13.296C30.1272 12.84 29.9952 12.318 29.9952 11.73C29.9952 11.022 30.1872 10.404 30.5712 9.876C30.9672 9.348 31.5192 8.94 32.2272 8.652C32.9352 8.364 33.7512 8.22 34.6752 8.22C35.6112 8.22 36.4332 8.364 37.1412 8.652C37.8492 8.94 38.4012 9.348 38.7972 9.876C39.1932 10.404 39.3912 11.022 39.3912 11.73C39.3912 12.318 39.2532 12.834 38.9772 13.278C38.7012 13.722 38.3052 14.088 37.7892 14.376ZM34.6752 10.056C33.9432 10.056 33.3612 10.212 32.9292 10.524C32.5092 10.836 32.2992 11.274 32.2992 11.838C32.2992 12.378 32.5092 12.81 32.9292 13.134C33.3612 13.446 33.9432 13.602 34.6752 13.602C35.4192 13.602 36.0072 13.446 36.4392 13.134C36.8712 12.81 37.0872 12.378 37.0872 11.838C37.0872 11.274 36.8652 10.836 36.4212 10.524C35.9892 10.212 35.4072 10.056 34.6752 10.056ZM34.6752 19.344C35.5392 19.344 36.2232 19.164 36.7272 18.804C37.2312 18.444 37.4832 17.946 37.4832 17.31C37.4832 16.686 37.2312 16.194 36.7272 15.834C36.2232 15.474 35.5392 15.294 34.6752 15.294C33.8112 15.294 33.1332 15.474 32.6412 15.834C32.1492 16.194 31.9032 16.686 31.9032 17.31C31.9032 17.946 32.1492 18.444 32.6412 18.804C33.1332 19.164 33.8112 19.344 34.6752 19.344Z" fill="#2F2F2F"/>
</svg>
