<svg width="284" height="201" viewBox="0 0 284 201" fill="none" xmlns="http://www.w3.org/2000/svg">
<path d="M103.005 83.1398L149.851 83.0135L149.841 81.0135L102.995 81.1399L103.005 83.1398ZM153.872 87.0027L153.974 107.003L155.974 106.997L155.872 86.9973L153.872 87.0027ZM149.995 111.013L103.149 111.14L103.159 113.14L150.005 113.013L149.995 111.013ZM99.1285 107.15L99.0257 87.1506L97.0257 87.156L97.1285 107.156L99.1285 107.15ZM103.149 111.14C100.94 111.146 99.1398 109.36 99.1285 107.15L97.1285 107.156C97.1455 110.47 99.8456 113.149 103.159 113.14L103.149 111.14ZM153.974 107.003C153.986 109.212 152.204 111.007 149.995 111.013L150.005 113.013C153.319 113.004 155.991 110.311 155.974 106.997L153.974 107.003ZM149.851 83.0135C152.06 83.0076 153.86 84.7936 153.872 87.0027L155.872 86.9973C155.854 83.6836 153.154 81.0046 149.841 81.0135L149.851 83.0135ZM102.995 81.1399C99.6811 81.1488 97.0087 83.8423 97.0257 87.156L99.0257 87.1506C99.0143 84.9414 100.796 83.1458 103.005 83.1398L102.995 81.1399Z" fill="#2F2F2F"/>
<path d="M176.64 93.3965L171.64 104.937C171.173 106.097 170.607 106.91 169.94 107.377C169.273 107.857 168.467 108.097 167.52 108.097C166.987 108.097 166.46 108.01 165.94 107.837C165.42 107.663 164.993 107.423 164.66 107.117L165.66 105.277C165.9 105.503 166.18 105.683 166.5 105.817C166.833 105.95 167.167 106.017 167.5 106.017C167.94 106.017 168.3 105.903 168.58 105.677C168.873 105.45 169.14 105.07 169.38 104.537L169.56 104.117L164.9 93.3965H167.5L170.86 101.297L174.24 93.3965H176.64ZM188.37 89.2365V104.077H185.97V102.697C185.556 103.203 185.043 103.583 184.43 103.837C183.83 104.09 183.163 104.217 182.43 104.217C181.403 104.217 180.476 103.99 179.65 103.537C178.836 103.083 178.196 102.443 177.73 101.617C177.263 100.777 177.03 99.8165 177.03 98.7365C177.03 97.6565 177.263 96.7032 177.73 95.8765C178.196 95.0499 178.836 94.4099 179.65 93.9565C180.476 93.5032 181.403 93.2765 182.43 93.2765C183.136 93.2765 183.783 93.3965 184.37 93.6365C184.956 93.8765 185.456 94.2365 185.87 94.7165V89.2365H188.37ZM182.73 102.077C183.33 102.077 183.87 101.943 184.35 101.677C184.83 101.397 185.21 101.003 185.49 100.497C185.77 99.9899 185.91 99.4032 185.91 98.7365C185.91 98.0699 185.77 97.4832 185.49 96.9765C185.21 96.4699 184.83 96.0832 184.35 95.8165C183.87 95.5365 183.33 95.3965 182.73 95.3965C182.13 95.3965 181.59 95.5365 181.11 95.8165C180.63 96.0832 180.25 96.4699 179.97 96.9765C179.69 97.4832 179.55 98.0699 179.55 98.7365C179.55 99.4032 179.69 99.9899 179.97 100.497C180.25 101.003 180.63 101.397 181.11 101.677C181.59 101.943 182.13 102.077 182.73 102.077ZM197.68 96.1165V97.5365H190.88V96.4165L194.46 93.2965C194.873 92.9232 195.153 92.6232 195.3 92.3965C195.46 92.1565 195.54 91.9165 195.54 91.6765C195.54 91.3565 195.393 91.0965 195.1 90.8965C194.82 90.6965 194.393 90.5965 193.82 90.5965C193.367 90.5965 192.96 90.6699 192.6 90.8165C192.24 90.9632 191.953 91.1832 191.74 91.4765L190.48 90.5765C190.827 90.1099 191.293 89.7499 191.88 89.4965C192.467 89.2299 193.16 89.0965 193.96 89.0965C195.013 89.0965 195.84 89.3232 196.44 89.7765C197.04 90.2299 197.34 90.8232 197.34 91.5565C197.34 91.9832 197.233 92.3832 197.02 92.7565C196.82 93.1299 196.413 93.5832 195.8 94.1165L193.52 96.1165H197.68Z" fill="#2F2F2F"/>
<path d="M3 2H189.565L281 177.497H94.4352L3 2Z" fill="#C2FFD0" stroke="#007119" stroke-width="3"/>
<path d="M164.132 190.432C164.822 190.432 165.437 190.562 165.977 190.822C166.527 191.082 166.957 191.457 167.267 191.947C167.577 192.427 167.732 192.982 167.732 193.612C167.732 194.272 167.567 194.852 167.237 195.352C166.917 195.852 166.472 196.242 165.902 196.522C165.342 196.792 164.712 196.927 164.012 196.927C162.602 196.927 161.512 196.472 160.742 195.562C159.982 194.652 159.602 193.362 159.602 191.692C159.602 190.522 159.807 189.527 160.217 188.707C160.637 187.877 161.217 187.252 161.957 186.832C162.707 186.402 163.577 186.187 164.567 186.187C165.077 186.187 165.557 186.242 166.007 186.352C166.457 186.452 166.847 186.602 167.177 186.802L166.607 187.972C166.107 187.642 165.437 187.477 164.597 187.477C163.507 187.477 162.652 187.817 162.032 188.497C161.412 189.167 161.102 190.147 161.102 191.437C161.102 191.597 161.107 191.722 161.117 191.812C161.417 191.362 161.827 191.022 162.347 190.792C162.877 190.552 163.472 190.432 164.132 190.432ZM163.952 195.712C164.642 195.712 165.202 195.527 165.632 195.157C166.062 194.787 166.277 194.292 166.277 193.672C166.277 193.052 166.057 192.562 165.617 192.202C165.187 191.832 164.607 191.647 163.877 191.647C163.407 191.647 162.987 191.737 162.617 191.917C162.257 192.097 161.972 192.342 161.762 192.652C161.562 192.962 161.462 193.307 161.462 193.687C161.462 194.057 161.557 194.397 161.747 194.707C161.947 195.007 162.232 195.252 162.602 195.442C162.982 195.622 163.432 195.712 163.952 195.712ZM183.478 188.782C184.478 188.782 185.268 189.072 185.848 189.652C186.438 190.232 186.733 191.092 186.733 192.232V196.807H185.293V192.397C185.293 191.627 185.113 191.047 184.753 190.657C184.403 190.267 183.898 190.072 183.238 190.072C182.508 190.072 181.928 190.302 181.498 190.762C181.068 191.212 180.853 191.862 180.853 192.712V196.807H179.413V192.397C179.413 191.627 179.233 191.047 178.873 190.657C178.523 190.267 178.018 190.072 177.358 190.072C176.628 190.072 176.048 190.302 175.618 190.762C175.188 191.212 174.973 191.862 174.973 192.712V196.807H173.533V188.857H174.913V190.042C175.203 189.632 175.583 189.322 176.053 189.112C176.523 188.892 177.058 188.782 177.658 188.782C178.278 188.782 178.828 188.907 179.308 189.157C179.788 189.407 180.158 189.772 180.418 190.252C180.718 189.792 181.133 189.432 181.663 189.172C182.203 188.912 182.808 188.782 183.478 188.782ZM199.328 188.782C200.328 188.782 201.118 189.072 201.698 189.652C202.288 190.232 202.583 191.092 202.583 192.232V196.807H201.143V192.397C201.143 191.627 200.963 191.047 200.603 190.657C200.253 190.267 199.748 190.072 199.088 190.072C198.358 190.072 197.778 190.302 197.348 190.762C196.918 191.212 196.703 191.862 196.703 192.712V196.807H195.263V192.397C195.263 191.627 195.083 191.047 194.723 190.657C194.373 190.267 193.868 190.072 193.208 190.072C192.478 190.072 191.898 190.302 191.468 190.762C191.038 191.212 190.823 191.862 190.823 192.712V196.807H189.383V188.857H190.763V190.042C191.053 189.632 191.433 189.322 191.903 189.112C192.373 188.892 192.908 188.782 193.508 188.782C194.128 188.782 194.678 188.907 195.158 189.157C195.638 189.407 196.008 189.772 196.268 190.252C196.568 189.792 196.983 189.432 197.513 189.172C198.053 188.912 198.658 188.782 199.328 188.782Z" fill="black"/>
<path d="M234.333 62.5V73H232.848V63.805H230.478V62.5H234.333ZM240.92 73.12C240.09 73.12 239.35 72.91 238.7 72.49C238.06 72.06 237.555 71.44 237.185 70.63C236.815 69.82 236.63 68.86 236.63 67.75C236.63 66.64 236.815 65.68 237.185 64.87C237.555 64.06 238.06 63.445 238.7 63.025C239.35 62.595 240.09 62.38 240.92 62.38C241.74 62.38 242.47 62.595 243.11 63.025C243.76 63.445 244.27 64.06 244.64 64.87C245.01 65.68 245.195 66.64 245.195 67.75C245.195 68.86 245.01 69.82 244.64 70.63C244.27 71.44 243.76 72.06 243.11 72.49C242.47 72.91 241.74 73.12 240.92 73.12ZM240.92 71.785C241.76 71.785 242.43 71.44 242.93 70.75C243.44 70.06 243.695 69.06 243.695 67.75C243.695 66.44 243.44 65.44 242.93 64.75C242.43 64.06 241.76 63.715 240.92 63.715C240.07 63.715 239.39 64.06 238.88 64.75C238.38 65.44 238.13 66.44 238.13 67.75C238.13 69.06 238.38 70.06 238.88 70.75C239.39 71.44 240.07 71.785 240.92 71.785ZM261.253 64.975C262.253 64.975 263.043 65.265 263.623 65.845C264.213 66.425 264.508 67.285 264.508 68.425V73H263.068V68.59C263.068 67.82 262.888 67.24 262.528 66.85C262.178 66.46 261.673 66.265 261.013 66.265C260.283 66.265 259.703 66.495 259.273 66.955C258.843 67.405 258.628 68.055 258.628 68.905V73H257.188V68.59C257.188 67.82 257.008 67.24 256.648 66.85C256.298 66.46 255.793 66.265 255.133 66.265C254.403 66.265 253.823 66.495 253.393 66.955C252.963 67.405 252.748 68.055 252.748 68.905V73H251.308V65.05H252.688V66.235C252.978 65.825 253.358 65.515 253.828 65.305C254.298 65.085 254.833 64.975 255.433 64.975C256.053 64.975 256.603 65.1 257.083 65.35C257.563 65.6 257.933 65.965 258.193 66.445C258.493 65.985 258.908 65.625 259.438 65.365C259.978 65.105 260.583 64.975 261.253 64.975ZM277.102 64.975C278.102 64.975 278.892 65.265 279.472 65.845C280.062 66.425 280.357 67.285 280.357 68.425V73H278.917V68.59C278.917 67.82 278.737 67.24 278.377 66.85C278.027 66.46 277.522 66.265 276.862 66.265C276.132 66.265 275.552 66.495 275.122 66.955C274.692 67.405 274.477 68.055 274.477 68.905V73H273.037V68.59C273.037 67.82 272.857 67.24 272.497 66.85C272.147 66.46 271.642 66.265 270.982 66.265C270.252 66.265 269.672 66.495 269.242 66.955C268.812 67.405 268.597 68.055 268.597 68.905V73H267.157V65.05H268.537V66.235C268.827 65.825 269.207 65.515 269.677 65.305C270.147 65.085 270.682 64.975 271.282 64.975C271.902 64.975 272.452 65.1 272.932 65.35C273.412 65.6 273.782 65.965 274.042 66.445C274.342 65.985 274.757 65.625 275.287 65.365C275.827 65.105 276.432 64.975 277.102 64.975Z" fill="black"/>
<path d="M142.45 67.495C143.05 67.725 143.51 68.055 143.83 68.485C144.15 68.915 144.31 69.43 144.31 70.03C144.31 70.66 144.14 71.21 143.8 71.68C143.46 72.14 142.975 72.495 142.345 72.745C141.715 72.995 140.975 73.12 140.125 73.12C139.285 73.12 138.55 72.995 137.92 72.745C137.3 72.495 136.82 72.14 136.48 71.68C136.14 71.21 135.97 70.66 135.97 70.03C135.97 69.43 136.125 68.915 136.435 68.485C136.755 68.055 137.215 67.725 137.815 67.495C137.335 67.265 136.97 66.96 136.72 66.58C136.47 66.2 136.345 65.75 136.345 65.23C136.345 64.65 136.5 64.145 136.81 63.715C137.13 63.285 137.575 62.955 138.145 62.725C138.715 62.495 139.375 62.38 140.125 62.38C140.885 62.38 141.55 62.495 142.12 62.725C142.7 62.955 143.145 63.285 143.455 63.715C143.775 64.145 143.935 64.65 143.935 65.23C143.935 65.74 143.805 66.19 143.545 66.58C143.295 66.96 142.93 67.265 142.45 67.495ZM140.125 63.595C139.415 63.595 138.855 63.75 138.445 64.06C138.035 64.36 137.83 64.77 137.83 65.29C137.83 65.81 138.03 66.22 138.43 66.52C138.84 66.82 139.405 66.97 140.125 66.97C140.855 66.97 141.425 66.82 141.835 66.52C142.255 66.22 142.465 65.81 142.465 65.29C142.465 64.77 142.25 64.36 141.82 64.06C141.4 63.75 140.835 63.595 140.125 63.595ZM140.125 71.905C140.955 71.905 141.61 71.735 142.09 71.395C142.57 71.045 142.81 70.575 142.81 69.985C142.81 69.405 142.57 68.95 142.09 68.62C141.61 68.28 140.955 68.11 140.125 68.11C139.295 68.11 138.645 68.28 138.175 68.62C137.705 68.95 137.47 69.405 137.47 69.985C137.47 70.575 137.705 71.045 138.175 71.395C138.645 71.735 139.295 71.905 140.125 71.905ZM160.301 64.975C161.301 64.975 162.091 65.265 162.671 65.845C163.261 66.425 163.556 67.285 163.556 68.425V73H162.116V68.59C162.116 67.82 161.936 67.24 161.576 66.85C161.226 66.46 160.721 66.265 160.061 66.265C159.331 66.265 158.751 66.495 158.321 66.955C157.891 67.405 157.676 68.055 157.676 68.905V73H156.236V68.59C156.236 67.82 156.056 67.24 155.696 66.85C155.346 66.46 154.841 66.265 154.181 66.265C153.451 66.265 152.871 66.495 152.441 66.955C152.011 67.405 151.796 68.055 151.796 68.905V73H150.356V65.05H151.736V66.235C152.026 65.825 152.406 65.515 152.876 65.305C153.346 65.085 153.881 64.975 154.481 64.975C155.101 64.975 155.651 65.1 156.131 65.35C156.611 65.6 156.981 65.965 157.241 66.445C157.541 65.985 157.956 65.625 158.486 65.365C159.026 65.105 159.631 64.975 160.301 64.975ZM176.151 64.975C177.151 64.975 177.941 65.265 178.521 65.845C179.111 66.425 179.406 67.285 179.406 68.425V73H177.966V68.59C177.966 67.82 177.786 67.24 177.426 66.85C177.076 66.46 176.571 66.265 175.911 66.265C175.181 66.265 174.601 66.495 174.171 66.955C173.741 67.405 173.526 68.055 173.526 68.905V73H172.086V68.59C172.086 67.82 171.906 67.24 171.546 66.85C171.196 66.46 170.691 66.265 170.031 66.265C169.301 66.265 168.721 66.495 168.291 66.955C167.861 67.405 167.646 68.055 167.646 68.905V73H166.206V65.05H167.586V66.235C167.876 65.825 168.256 65.515 168.726 65.305C169.196 65.085 169.731 64.975 170.331 64.975C170.951 64.975 171.501 65.1 171.981 65.35C172.461 65.6 172.831 65.965 173.091 66.445C173.391 65.985 173.806 65.625 174.336 65.365C174.876 65.105 175.481 64.975 176.151 64.975Z" fill="black"/>
<line y1="-1" x2="172.877" y2="-1" transform="matrix(3.08254e-08 1 1 -6.19841e-08 186.641 4.61914)" stroke="#4F4F4F" stroke-width="2" stroke-dasharray="5 5"/>
<line x1="187" y1="163" x2="200.854" y2="163" stroke="#4F4F4F" stroke-width="2"/>
<line x1="199.852" y1="177.497" x2="199.852" y2="164" stroke="#4F4F4F" stroke-width="2"/>
</svg>
