<svg width="49" height="16" viewBox="0 0 49 16" fill="none" xmlns="http://www.w3.org/2000/svg">
<path d="M14.12 4.27654C15.4667 4.27654 16.5333 4.66987 17.32 5.45654C18.1067 6.22987 18.5 7.39654 18.5 8.95654V15.0765H16V9.27654C16 8.3432 15.7933 7.6432 15.38 7.17654C14.9667 6.69654 14.3733 6.45654 13.6 6.45654C12.76 6.45654 12.0867 6.73654 11.58 7.29654C11.0733 7.8432 10.82 8.62987 10.82 9.65654V15.0765H8.32V9.27654C8.32 8.3432 8.11333 7.6432 7.7 7.17654C7.28667 6.69654 6.69333 6.45654 5.92 6.45654C5.06667 6.45654 4.38667 6.72987 3.88 7.27654C3.38667 7.8232 3.14 8.61654 3.14 9.65654V15.0765H0.64V4.39654H3.02V5.75654C3.42 5.27654 3.92 4.90987 4.52 4.65654C5.12 4.4032 5.78667 4.27654 6.52 4.27654C7.32 4.27654 8.02667 4.42987 8.64 4.73654C9.26667 5.02987 9.76 5.46987 10.12 6.05654C10.56 5.49654 11.1267 5.0632 11.82 4.75654C12.5133 4.43654 13.28 4.27654 14.12 4.27654ZM35.1747 4.27654C36.5214 4.27654 37.588 4.66987 38.3747 5.45654C39.1614 6.22987 39.5547 7.39654 39.5547 8.95654V15.0765H37.0547V9.27654C37.0547 8.3432 36.848 7.6432 36.4347 7.17654C36.0214 6.69654 35.428 6.45654 34.6547 6.45654C33.8147 6.45654 33.1414 6.73654 32.6347 7.29654C32.128 7.8432 31.8747 8.62987 31.8747 9.65654V15.0765H29.3747V9.27654C29.3747 8.3432 29.168 7.6432 28.7547 7.17654C28.3414 6.69654 27.748 6.45654 26.9747 6.45654C26.1214 6.45654 25.4414 6.72987 24.9347 7.27654C24.4414 7.8232 24.1947 8.61654 24.1947 9.65654V15.0765H21.6947V4.39654H24.0747V5.75654C24.4747 5.27654 24.9747 4.90987 25.5747 4.65654C26.1747 4.4032 26.8414 4.27654 27.5747 4.27654C28.3747 4.27654 29.0814 4.42987 29.6947 4.73654C30.3214 5.02987 30.8147 5.46987 31.1747 6.05654C31.6147 5.49654 32.1814 5.0632 32.8747 4.75654C33.568 4.43654 34.3347 4.27654 35.1747 4.27654ZM48.7894 7.11654V8.53654H41.9894V7.41654L45.5694 4.29654C45.9827 3.9232 46.2627 3.6232 46.4094 3.39654C46.5694 3.15654 46.6494 2.91654 46.6494 2.67654C46.6494 2.35654 46.5027 2.09654 46.2094 1.89654C45.9294 1.69654 45.5027 1.59654 44.9294 1.59654C44.476 1.59654 44.0694 1.66987 43.7094 1.81654C43.3494 1.9632 43.0627 2.1832 42.8494 2.47654L41.5894 1.57654C41.936 1.10987 42.4027 0.749871 42.9894 0.496537C43.576 0.229871 44.2694 0.0965378 45.0694 0.0965378C46.1227 0.0965378 46.9494 0.323204 47.5494 0.776537C48.1494 1.22987 48.4494 1.8232 48.4494 2.55654C48.4494 2.9832 48.3427 3.3832 48.1294 3.75654C47.9294 4.12987 47.5227 4.5832 46.9094 5.11654L44.6294 7.11654H48.7894Z" fill="#2F2F2F"/>
</svg>
