<svg width="626" height="45" viewBox="0 0 626 45" fill="none" xmlns="http://www.w3.org/2000/svg">
<path d="M142.5 5C142.5 2.23858 144.739 0 147.5 0H207.5C210.261 0 212.5 2.23858 212.5 5V40C212.5 42.7614 210.261 45 207.5 45H147.5C144.739 45 142.5 42.7614 142.5 40V5Z" fill="#BBEDF4"/>
<path d="M166.722 15.9V28.5H164.94V17.466H162.096V15.9H166.722ZM174.626 28.644C173.63 28.644 172.742 28.392 171.962 27.888C171.194 27.372 170.588 26.628 170.144 25.656C169.7 24.684 169.478 23.532 169.478 22.2C169.478 20.868 169.7 19.716 170.144 18.744C170.588 17.772 171.194 17.034 171.962 16.53C172.742 16.014 173.63 15.756 174.626 15.756C175.61 15.756 176.486 16.014 177.254 16.53C178.034 17.034 178.646 17.772 179.09 18.744C179.534 19.716 179.756 20.868 179.756 22.2C179.756 23.532 179.534 24.684 179.09 25.656C178.646 26.628 178.034 27.372 177.254 27.888C176.486 28.392 175.61 28.644 174.626 28.644ZM174.626 27.042C175.634 27.042 176.438 26.628 177.038 25.8C177.65 24.972 177.956 23.772 177.956 22.2C177.956 20.628 177.65 19.428 177.038 18.6C176.438 17.772 175.634 17.358 174.626 17.358C173.606 17.358 172.79 17.772 172.178 18.6C171.578 19.428 171.278 20.628 171.278 22.2C171.278 23.772 171.578 24.972 172.178 25.8C172.79 26.628 173.606 27.042 174.626 27.042ZM191.384 18.96V27.204C191.384 28.872 190.97 30.102 190.142 30.894C189.314 31.698 188.078 32.1 186.434 32.1C185.534 32.1 184.676 31.974 183.86 31.722C183.044 31.482 182.384 31.134 181.88 30.678L182.708 29.346C183.152 29.73 183.698 30.03 184.346 30.246C185.006 30.474 185.684 30.588 186.38 30.588C187.496 30.588 188.318 30.324 188.846 29.796C189.386 29.268 189.656 28.464 189.656 27.384V26.628C189.248 27.12 188.744 27.492 188.144 27.744C187.556 27.984 186.914 28.104 186.218 28.104C185.306 28.104 184.478 27.912 183.734 27.528C183.002 27.132 182.426 26.586 182.006 25.89C181.586 25.182 181.376 24.378 181.376 23.478C181.376 22.578 181.586 21.78 182.006 21.084C182.426 20.376 183.002 19.83 183.734 19.446C184.478 19.062 185.306 18.87 186.218 18.87C186.938 18.87 187.604 19.002 188.216 19.266C188.84 19.53 189.35 19.92 189.746 20.436V18.96H191.384ZM186.416 26.592C187.04 26.592 187.598 26.46 188.09 26.196C188.594 25.932 188.984 25.566 189.26 25.098C189.548 24.618 189.692 24.078 189.692 23.478C189.692 22.554 189.386 21.81 188.774 21.246C188.162 20.67 187.376 20.382 186.416 20.382C185.444 20.382 184.652 20.67 184.04 21.246C183.428 21.81 183.122 22.554 183.122 23.478C183.122 24.078 183.26 24.618 183.536 25.098C183.824 25.566 184.214 25.932 184.706 26.196C185.21 26.46 185.78 26.592 186.416 26.592Z" fill="#0E80A4"/>
<path d="M147.5 1H207.5V-1H147.5V1ZM211.5 5V40H213.5V5H211.5ZM207.5 44H147.5V46H207.5V44ZM143.5 40V5H141.5V40H143.5ZM147.5 44C145.291 44 143.5 42.2091 143.5 40H141.5C141.5 43.3137 144.186 46 147.5 46V44ZM211.5 40C211.5 42.2091 209.709 44 207.5 44V46C210.814 46 213.5 43.3137 213.5 40H211.5ZM207.5 1C209.709 1 211.5 2.79086 211.5 5H213.5C213.5 1.68629 210.814 -1 207.5 -1V1ZM147.5 -1C144.186 -1 141.5 1.68629 141.5 5H143.5C143.5 2.79086 145.291 1 147.5 1V-1Z" fill="#BBEDF4"/>
<rect x="233" y="0.5" width="100" height="44" rx="4.5" fill="#BBEDF4"/>
<path d="M253.44 15.9V28.5H251.658V17.466H248.814V15.9H253.44ZM260.102 15.9V28.5H258.32V17.466H255.476V15.9H260.102ZM272.758 18.96V27.204C272.758 28.872 272.344 30.102 271.516 30.894C270.688 31.698 269.452 32.1 267.808 32.1C266.908 32.1 266.05 31.974 265.234 31.722C264.418 31.482 263.758 31.134 263.254 30.678L264.082 29.346C264.526 29.73 265.072 30.03 265.72 30.246C266.38 30.474 267.058 30.588 267.754 30.588C268.87 30.588 269.692 30.324 270.22 29.796C270.76 29.268 271.03 28.464 271.03 27.384V26.628C270.622 27.12 270.118 27.492 269.518 27.744C268.93 27.984 268.288 28.104 267.592 28.104C266.68 28.104 265.852 27.912 265.108 27.528C264.376 27.132 263.8 26.586 263.38 25.89C262.96 25.182 262.75 24.378 262.75 23.478C262.75 22.578 262.96 21.78 263.38 21.084C263.8 20.376 264.376 19.83 265.108 19.446C265.852 19.062 266.68 18.87 267.592 18.87C268.312 18.87 268.978 19.002 269.59 19.266C270.214 19.53 270.724 19.92 271.12 20.436V18.96H272.758ZM267.79 26.592C268.414 26.592 268.972 26.46 269.464 26.196C269.968 25.932 270.358 25.566 270.634 25.098C270.922 24.618 271.066 24.078 271.066 23.478C271.066 22.554 270.76 21.81 270.148 21.246C269.536 20.67 268.75 20.382 267.79 20.382C266.818 20.382 266.026 20.67 265.414 21.246C264.802 21.81 264.496 22.554 264.496 23.478C264.496 24.078 264.634 24.618 264.91 25.098C265.198 25.566 265.588 25.932 266.08 26.196C266.584 26.46 267.154 26.592 267.79 26.592ZM288.526 22.92H285.25V26.142H283.738V22.92H280.462V21.498H283.738V18.258H285.25V21.498H288.526V22.92ZM299.03 20.922C300.83 20.922 302.15 21.264 302.99 21.948C303.842 22.62 304.268 23.544 304.268 24.72C304.268 25.464 304.088 26.136 303.728 26.736C303.38 27.324 302.846 27.792 302.126 28.14C301.418 28.476 300.542 28.644 299.498 28.644C298.61 28.644 297.752 28.512 296.924 28.248C296.096 27.972 295.412 27.594 294.872 27.114L295.7 25.692C296.132 26.1 296.684 26.43 297.356 26.682C298.028 26.922 298.736 27.042 299.48 27.042C300.428 27.042 301.16 26.844 301.676 26.448C302.204 26.04 302.468 25.488 302.468 24.792C302.468 24.036 302.18 23.466 301.604 23.082C301.028 22.686 300.044 22.488 298.652 22.488H295.79L296.456 15.9H303.566V17.466H297.968L297.626 20.922H299.03ZM315.666 18.96V27.204C315.666 28.872 315.252 30.102 314.424 30.894C313.596 31.698 312.36 32.1 310.716 32.1C309.816 32.1 308.958 31.974 308.142 31.722C307.326 31.482 306.666 31.134 306.162 30.678L306.99 29.346C307.434 29.73 307.98 30.03 308.628 30.246C309.288 30.474 309.966 30.588 310.662 30.588C311.778 30.588 312.6 30.324 313.128 29.796C313.668 29.268 313.938 28.464 313.938 27.384V26.628C313.53 27.12 313.026 27.492 312.426 27.744C311.838 27.984 311.196 28.104 310.5 28.104C309.588 28.104 308.76 27.912 308.016 27.528C307.284 27.132 306.708 26.586 306.288 25.89C305.868 25.182 305.658 24.378 305.658 23.478C305.658 22.578 305.868 21.78 306.288 21.084C306.708 20.376 307.284 19.83 308.016 19.446C308.76 19.062 309.588 18.87 310.5 18.87C311.22 18.87 311.886 19.002 312.498 19.266C313.122 19.53 313.632 19.92 314.028 20.436V18.96H315.666ZM310.698 26.592C311.322 26.592 311.88 26.46 312.372 26.196C312.876 25.932 313.266 25.566 313.542 25.098C313.83 24.618 313.974 24.078 313.974 23.478C313.974 22.554 313.668 21.81 313.056 21.246C312.444 20.67 311.658 20.382 310.698 20.382C309.726 20.382 308.934 20.67 308.322 21.246C307.71 21.81 307.404 22.554 307.404 23.478C307.404 24.078 307.542 24.618 307.818 25.098C308.106 25.566 308.496 25.932 308.988 26.196C309.492 26.46 310.062 26.592 310.698 26.592Z" fill="#0E80A4"/>
<rect x="233" y="0.5" width="100" height="44" rx="4.5" stroke="#BBEDF4"/>
<rect x="354" y="0.5" width="128" height="44" rx="4.5" fill="#BBEDF4"/>
<path d="M373.99 28.608C373.21 28.608 372.46 28.506 371.74 28.302C371.02 28.086 370.456 27.816 370.048 27.492L370.768 26.124C371.188 26.424 371.698 26.664 372.298 26.844C372.898 27.024 373.504 27.114 374.116 27.114C375.628 27.114 376.384 26.682 376.384 25.818C376.384 25.53 376.282 25.302 376.078 25.134C375.874 24.966 375.616 24.846 375.304 24.774C375.004 24.69 374.572 24.6 374.008 24.504C373.24 24.384 372.61 24.246 372.118 24.09C371.638 23.934 371.224 23.67 370.876 23.298C370.528 22.926 370.354 22.404 370.354 21.732C370.354 20.868 370.714 20.178 371.434 19.662C372.154 19.134 373.12 18.87 374.332 18.87C374.968 18.87 375.604 18.948 376.24 19.104C376.876 19.26 377.398 19.47 377.806 19.734L377.068 21.102C376.288 20.598 375.37 20.346 374.314 20.346C373.582 20.346 373.024 20.466 372.64 20.706C372.256 20.946 372.064 21.264 372.064 21.66C372.064 21.972 372.172 22.218 372.388 22.398C372.604 22.578 372.868 22.71 373.18 22.794C373.504 22.878 373.954 22.974 374.53 23.082C375.298 23.214 375.916 23.358 376.384 23.514C376.864 23.658 377.272 23.91 377.608 24.27C377.944 24.63 378.112 25.134 378.112 25.782C378.112 26.646 377.74 27.336 376.996 27.852C376.264 28.356 375.262 28.608 373.99 28.608ZM392.738 22.92H389.462V26.142H387.95V22.92H384.674V21.498H387.95V18.258H389.462V21.498H392.738V22.92ZM410.604 25.404H408.21V28.5H406.464V25.404H399.462V24.144L405.906 15.9H407.85L401.676 23.856H406.518V21.12H408.21V23.856H410.604V25.404ZM421.812 18.96V27.204C421.812 28.872 421.398 30.102 420.57 30.894C419.742 31.698 418.506 32.1 416.862 32.1C415.962 32.1 415.104 31.974 414.288 31.722C413.472 31.482 412.812 31.134 412.308 30.678L413.136 29.346C413.58 29.73 414.126 30.03 414.774 30.246C415.434 30.474 416.112 30.588 416.808 30.588C417.924 30.588 418.746 30.324 419.274 29.796C419.814 29.268 420.084 28.464 420.084 27.384V26.628C419.676 27.12 419.172 27.492 418.572 27.744C417.984 27.984 417.342 28.104 416.646 28.104C415.734 28.104 414.906 27.912 414.162 27.528C413.43 27.132 412.854 26.586 412.434 25.89C412.014 25.182 411.804 24.378 411.804 23.478C411.804 22.578 412.014 21.78 412.434 21.084C412.854 20.376 413.43 19.83 414.162 19.446C414.906 19.062 415.734 18.87 416.646 18.87C417.366 18.87 418.032 19.002 418.644 19.266C419.268 19.53 419.778 19.92 420.174 20.436V18.96H421.812ZM416.844 26.592C417.468 26.592 418.026 26.46 418.518 26.196C419.022 25.932 419.412 25.566 419.688 25.098C419.976 24.618 420.12 24.078 420.12 23.478C420.12 22.554 419.814 21.81 419.202 21.246C418.59 20.67 417.804 20.382 416.844 20.382C415.872 20.382 415.08 20.67 414.468 21.246C413.856 21.81 413.55 22.554 413.55 23.478C413.55 24.078 413.688 24.618 413.964 25.098C414.252 25.566 414.642 25.932 415.134 26.196C415.638 26.46 416.208 26.592 416.844 26.592ZM437.58 22.92H434.304V26.142H432.792V22.92H429.516V21.498H432.792V18.258H434.304V21.498H437.58V22.92ZM448.084 20.922C449.884 20.922 451.204 21.264 452.044 21.948C452.896 22.62 453.322 23.544 453.322 24.72C453.322 25.464 453.142 26.136 452.782 26.736C452.434 27.324 451.9 27.792 451.18 28.14C450.472 28.476 449.596 28.644 448.552 28.644C447.664 28.644 446.806 28.512 445.978 28.248C445.15 27.972 444.466 27.594 443.926 27.114L444.754 25.692C445.186 26.1 445.738 26.43 446.41 26.682C447.082 26.922 447.79 27.042 448.534 27.042C449.482 27.042 450.214 26.844 450.73 26.448C451.258 26.04 451.522 25.488 451.522 24.792C451.522 24.036 451.234 23.466 450.658 23.082C450.082 22.686 449.098 22.488 447.706 22.488H444.844L445.51 15.9H452.62V17.466H447.022L446.68 20.922H448.084ZM464.72 18.96V27.204C464.72 28.872 464.306 30.102 463.478 30.894C462.65 31.698 461.414 32.1 459.77 32.1C458.87 32.1 458.012 31.974 457.196 31.722C456.38 31.482 455.72 31.134 455.216 30.678L456.044 29.346C456.488 29.73 457.034 30.03 457.682 30.246C458.342 30.474 459.02 30.588 459.716 30.588C460.832 30.588 461.654 30.324 462.182 29.796C462.722 29.268 462.992 28.464 462.992 27.384V26.628C462.584 27.12 462.08 27.492 461.48 27.744C460.892 27.984 460.25 28.104 459.554 28.104C458.642 28.104 457.814 27.912 457.07 27.528C456.338 27.132 455.762 26.586 455.342 25.89C454.922 25.182 454.712 24.378 454.712 23.478C454.712 22.578 454.922 21.78 455.342 21.084C455.762 20.376 456.338 19.83 457.07 19.446C457.814 19.062 458.642 18.87 459.554 18.87C460.274 18.87 460.94 19.002 461.552 19.266C462.176 19.53 462.686 19.92 463.082 20.436V18.96H464.72ZM459.752 26.592C460.376 26.592 460.934 26.46 461.426 26.196C461.93 25.932 462.32 25.566 462.596 25.098C462.884 24.618 463.028 24.078 463.028 23.478C463.028 22.554 462.722 21.81 462.11 21.246C461.498 20.67 460.712 20.382 459.752 20.382C458.78 20.382 457.988 20.67 457.376 21.246C456.764 21.81 456.458 22.554 456.458 23.478C456.458 24.078 456.596 24.618 456.872 25.098C457.16 25.566 457.55 25.932 458.042 26.196C458.546 26.46 459.116 26.592 459.752 26.592Z" fill="#0E80A4"/>
<rect x="354" y="0.5" width="128" height="44" rx="4.5" stroke="#BBEDF4"/>
<rect x="503" y="0.5" width="122" height="44" rx="4.5" fill="#BBEDF4"/>
<path d="M522.891 28.608C522.111 28.608 521.361 28.506 520.641 28.302C519.921 28.086 519.357 27.816 518.949 27.492L519.669 26.124C520.089 26.424 520.599 26.664 521.199 26.844C521.799 27.024 522.405 27.114 523.017 27.114C524.529 27.114 525.285 26.682 525.285 25.818C525.285 25.53 525.183 25.302 524.979 25.134C524.775 24.966 524.517 24.846 524.205 24.774C523.905 24.69 523.473 24.6 522.909 24.504C522.141 24.384 521.511 24.246 521.019 24.09C520.539 23.934 520.125 23.67 519.777 23.298C519.429 22.926 519.255 22.404 519.255 21.732C519.255 20.868 519.615 20.178 520.335 19.662C521.055 19.134 522.021 18.87 523.233 18.87C523.869 18.87 524.505 18.948 525.141 19.104C525.777 19.26 526.299 19.47 526.707 19.734L525.969 21.102C525.189 20.598 524.271 20.346 523.215 20.346C522.483 20.346 521.925 20.466 521.541 20.706C521.157 20.946 520.965 21.264 520.965 21.66C520.965 21.972 521.073 22.218 521.289 22.398C521.505 22.578 521.769 22.71 522.081 22.794C522.405 22.878 522.855 22.974 523.431 23.082C524.199 23.214 524.817 23.358 525.285 23.514C525.765 23.658 526.173 23.91 526.509 24.27C526.845 24.63 527.013 25.134 527.013 25.782C527.013 26.646 526.641 27.336 525.897 27.852C525.165 28.356 524.163 28.608 522.891 28.608ZM541.638 22.92H538.362V26.142H536.85V22.92H533.574V21.498H536.85V18.258H538.362V21.498H541.638V22.92ZM551.531 31.992C550.847 30.888 550.319 29.622 549.947 28.194C549.575 26.754 549.389 25.212 549.389 23.568C549.389 21.924 549.575 20.382 549.947 18.942C550.319 17.49 550.847 16.224 551.531 15.144H553.169C552.449 16.404 551.921 17.724 551.585 19.104C551.249 20.484 551.081 21.972 551.081 23.568C551.081 25.164 551.249 26.652 551.585 28.032C551.921 29.412 552.449 30.732 553.169 31.992H551.531ZM558.207 20.922C560.007 20.922 561.327 21.264 562.167 21.948C563.019 22.62 563.445 23.544 563.445 24.72C563.445 25.464 563.265 26.136 562.905 26.736C562.557 27.324 562.023 27.792 561.303 28.14C560.595 28.476 559.719 28.644 558.675 28.644C557.787 28.644 556.929 28.512 556.101 28.248C555.273 27.972 554.589 27.594 554.049 27.114L554.877 25.692C555.309 26.1 555.861 26.43 556.533 26.682C557.205 26.922 557.913 27.042 558.657 27.042C559.605 27.042 560.337 26.844 560.853 26.448C561.381 26.04 561.645 25.488 561.645 24.792C561.645 24.036 561.357 23.466 560.781 23.082C560.205 22.686 559.221 22.488 557.829 22.488H554.967L555.633 15.9H562.743V17.466H557.145L556.803 20.922H558.207ZM574.843 18.96V27.204C574.843 28.872 574.429 30.102 573.601 30.894C572.773 31.698 571.537 32.1 569.893 32.1C568.993 32.1 568.135 31.974 567.319 31.722C566.503 31.482 565.843 31.134 565.339 30.678L566.167 29.346C566.611 29.73 567.157 30.03 567.805 30.246C568.465 30.474 569.143 30.588 569.839 30.588C570.955 30.588 571.777 30.324 572.305 29.796C572.845 29.268 573.115 28.464 573.115 27.384V26.628C572.707 27.12 572.203 27.492 571.603 27.744C571.015 27.984 570.373 28.104 569.677 28.104C568.765 28.104 567.937 27.912 567.193 27.528C566.461 27.132 565.885 26.586 565.465 25.89C565.045 25.182 564.835 24.378 564.835 23.478C564.835 22.578 565.045 21.78 565.465 21.084C565.885 20.376 566.461 19.83 567.193 19.446C567.937 19.062 568.765 18.87 569.677 18.87C570.397 18.87 571.063 19.002 571.675 19.266C572.299 19.53 572.809 19.92 573.205 20.436V18.96H574.843ZM569.875 26.592C570.499 26.592 571.057 26.46 571.549 26.196C572.053 25.932 572.443 25.566 572.719 25.098C573.007 24.618 573.151 24.078 573.151 23.478C573.151 22.554 572.845 21.81 572.233 21.246C571.621 20.67 570.835 20.382 569.875 20.382C568.903 20.382 568.111 20.67 567.499 21.246C566.887 21.81 566.581 22.554 566.581 23.478C566.581 24.078 566.719 24.618 566.995 25.098C567.283 25.566 567.673 25.932 568.165 26.196C568.669 26.46 569.239 26.592 569.875 26.592ZM582.367 22.812H587.209V24.306H582.367V22.812ZM602.785 26.934V28.5H593.731V27.276L598.861 22.326C599.485 21.726 599.905 21.21 600.121 20.778C600.337 20.334 600.445 19.89 600.445 19.446C600.445 18.786 600.211 18.276 599.743 17.916C599.287 17.544 598.627 17.358 597.763 17.358C596.371 17.358 595.297 17.814 594.541 18.726L593.317 17.664C593.809 17.064 594.451 16.596 595.243 16.26C596.047 15.924 596.941 15.756 597.925 15.756C599.245 15.756 600.295 16.074 601.075 16.71C601.855 17.334 602.245 18.186 602.245 19.266C602.245 19.938 602.101 20.574 601.813 21.174C601.525 21.774 600.979 22.458 600.175 23.226L596.323 26.934H602.785ZM603.977 31.992C604.697 30.732 605.225 29.412 605.561 28.032C605.909 26.652 606.083 25.164 606.083 23.568C606.083 21.972 605.909 20.484 605.561 19.104C605.225 17.724 604.697 16.404 603.977 15.144H605.615C606.311 16.224 606.845 17.484 607.217 18.924C607.589 20.364 607.775 21.912 607.775 23.568C607.775 25.212 607.589 26.754 607.217 28.194C606.845 29.634 606.311 30.9 605.615 31.992H603.977Z" fill="#0E80A4"/>
<rect x="503" y="0.5" width="122" height="44" rx="4.5" stroke="#BBEDF4"/>
<rect x="0.5" y="0.5" width="115" height="44" rx="4.5" fill="#BBEDF4"/>
<path d="M25.761 26.934V28.5H16.707V27.276L21.837 22.326C22.461 21.726 22.881 21.21 23.097 20.778C23.313 20.334 23.421 19.89 23.421 19.446C23.421 18.786 23.187 18.276 22.719 17.916C22.263 17.544 21.603 17.358 20.739 17.358C19.347 17.358 18.273 17.814 17.517 18.726L16.293 17.664C16.785 17.064 17.427 16.596 18.219 16.26C19.023 15.924 19.917 15.756 20.901 15.756C22.221 15.756 23.271 16.074 24.051 16.71C24.831 17.334 25.221 18.186 25.221 19.266C25.221 19.938 25.077 20.574 24.789 21.174C24.501 21.774 23.955 22.458 23.151 23.226L19.299 26.934H25.761ZM30.229 31.992C29.545 30.888 29.017 29.622 28.645 28.194C28.273 26.754 28.087 25.212 28.087 23.568C28.087 21.924 28.273 20.382 28.645 18.942C29.017 17.49 29.545 16.224 30.229 15.144H31.867C31.147 16.404 30.619 17.724 30.283 19.104C29.947 20.484 29.779 21.972 29.779 23.568C29.779 25.164 29.947 26.652 30.283 28.032C30.619 29.412 31.147 30.732 31.867 31.992H30.229ZM42.4854 15.9V17.124L37.3914 28.5H35.4834L40.4694 17.466H34.7094V19.716H32.9814V15.9H42.4854ZM53.0667 18.96V27.204C53.0667 28.872 52.6527 30.102 51.8247 30.894C50.9967 31.698 49.7607 32.1 48.1167 32.1C47.2167 32.1 46.3587 31.974 45.5427 31.722C44.7267 31.482 44.0667 31.134 43.5627 30.678L44.3907 29.346C44.8347 29.73 45.3807 30.03 46.0287 30.246C46.6887 30.474 47.3667 30.588 48.0627 30.588C49.1787 30.588 50.0007 30.324 50.5287 29.796C51.0687 29.268 51.3387 28.464 51.3387 27.384V26.628C50.9307 27.12 50.4267 27.492 49.8267 27.744C49.2387 27.984 48.5967 28.104 47.9007 28.104C46.9887 28.104 46.1607 27.912 45.4167 27.528C44.6847 27.132 44.1087 26.586 43.6887 25.89C43.2687 25.182 43.0587 24.378 43.0587 23.478C43.0587 22.578 43.2687 21.78 43.6887 21.084C44.1087 20.376 44.6847 19.83 45.4167 19.446C46.1607 19.062 46.9887 18.87 47.9007 18.87C48.6207 18.87 49.2867 19.002 49.8987 19.266C50.5227 19.53 51.0327 19.92 51.4287 20.436V18.96H53.0667ZM48.0987 26.592C48.7227 26.592 49.2807 26.46 49.7727 26.196C50.2767 25.932 50.6667 25.566 50.9427 25.098C51.2307 24.618 51.3747 24.078 51.3747 23.478C51.3747 22.554 51.0687 21.81 50.4567 21.246C49.8447 20.67 49.0587 20.382 48.0987 20.382C47.1267 20.382 46.3347 20.67 45.7227 21.246C45.1107 21.81 44.8047 22.554 44.8047 23.478C44.8047 24.078 44.9427 24.618 45.2187 25.098C45.5067 25.566 45.8967 25.932 46.3887 26.196C46.8927 26.46 47.4627 26.592 48.0987 26.592ZM60.5905 22.812H65.4325V24.306H60.5905V22.812ZM81.0091 26.934V28.5H71.9551V27.276L77.0851 22.326C77.7091 21.726 78.1291 21.21 78.3451 20.778C78.5611 20.334 78.6691 19.89 78.6691 19.446C78.6691 18.786 78.4351 18.276 77.9671 17.916C77.5111 17.544 76.8511 17.358 75.9871 17.358C74.5951 17.358 73.5211 17.814 72.7651 18.726L71.5411 17.664C72.0331 17.064 72.6751 16.596 73.4671 16.26C74.2711 15.924 75.1651 15.756 76.1491 15.756C77.4691 15.756 78.5191 16.074 79.2991 16.71C80.0791 17.334 80.4691 18.186 80.4691 19.266C80.4691 19.938 80.3251 20.574 80.0371 21.174C79.7491 21.774 79.2031 22.458 78.3991 23.226L74.5471 26.934H81.0091ZM92.2132 18.96V27.204C92.2132 28.872 91.7992 30.102 90.9712 30.894C90.1432 31.698 88.9072 32.1 87.2632 32.1C86.3632 32.1 85.5052 31.974 84.6892 31.722C83.8732 31.482 83.2132 31.134 82.7092 30.678L83.5372 29.346C83.9812 29.73 84.5272 30.03 85.1752 30.246C85.8352 30.474 86.5132 30.588 87.2092 30.588C88.3252 30.588 89.1472 30.324 89.6752 29.796C90.2152 29.268 90.4852 28.464 90.4852 27.384V26.628C90.0772 27.12 89.5732 27.492 88.9732 27.744C88.3852 27.984 87.7432 28.104 87.0472 28.104C86.1352 28.104 85.3072 27.912 84.5632 27.528C83.8312 27.132 83.2552 26.586 82.8352 25.89C82.4152 25.182 82.2052 24.378 82.2052 23.478C82.2052 22.578 82.4152 21.78 82.8352 21.084C83.2552 20.376 83.8312 19.83 84.5632 19.446C85.3072 19.062 86.1352 18.87 87.0472 18.87C87.7672 18.87 88.4332 19.002 89.0452 19.266C89.6692 19.53 90.1792 19.92 90.5752 20.436V18.96H92.2132ZM87.2452 26.592C87.8692 26.592 88.4272 26.46 88.9192 26.196C89.4232 25.932 89.8132 25.566 90.0892 25.098C90.3772 24.618 90.5212 24.078 90.5212 23.478C90.5212 22.554 90.2152 21.81 89.6032 21.246C88.9912 20.67 88.2052 20.382 87.2452 20.382C86.2732 20.382 85.4812 20.67 84.8692 21.246C84.2572 21.81 83.9512 22.554 83.9512 23.478C83.9512 24.078 84.0892 24.618 84.3652 25.098C84.6532 25.566 85.0432 25.932 85.5352 26.196C86.0392 26.46 86.6092 26.592 87.2452 26.592ZM94.453 31.992C95.173 30.732 95.701 29.412 96.037 28.032C96.385 26.652 96.559 25.164 96.559 23.568C96.559 21.972 96.385 20.484 96.037 19.104C95.701 17.724 95.173 16.404 94.453 15.144H96.091C96.787 16.224 97.321 17.484 97.693 18.924C98.065 20.364 98.251 21.912 98.251 23.568C98.251 25.212 98.065 26.754 97.693 28.194C97.321 29.634 96.787 30.9 96.091 31.992H94.453Z" fill="#0E80A4"/>
<rect x="0.5" y="0.5" width="115" height="44" rx="4.5" stroke="#BBEDF4"/>
</svg>
