<svg width="55" height="71" viewBox="0 0 55 71" fill="none" xmlns="http://www.w3.org/2000/svg">
<path d="M6.50467 1.13853L48.3641 1.01481L48.3547 -0.985169L6.49529 -0.861447L6.50467 1.13853ZM52.3828 5.00294L52.4766 25.0028L54.4766 24.9969L54.3828 4.99703L52.3828 5.00294ZM48.4953 29.0146L6.63594 29.1383L6.64532 31.1383L48.5047 31.0146L48.4953 29.0146ZM2.61721 25.1502L2.52344 5.15031L0.523446 5.15622L0.617215 25.1561L2.61721 25.1502ZM6.63594 29.1383C4.42681 29.1449 2.62756 27.3593 2.61721 25.1502L0.617215 25.1561C0.632751 28.4698 3.33162 31.1481 6.64532 31.1383L6.63594 29.1383ZM52.4766 25.0028C52.4869 27.212 50.7045 29.0081 48.4953 29.0146L48.5047 31.0146C51.8184 31.0048 54.4921 28.3106 54.4766 24.9969L52.4766 25.0028ZM48.3641 1.01481C50.5732 1.00828 52.3724 2.79383 52.3828 5.00294L54.3828 4.99703C54.3672 1.68336 51.6684 -0.994963 48.3547 -0.985169L48.3641 1.01481ZM6.49529 -0.861447C3.1816 -0.851653 0.50791 1.84255 0.523446 5.15622L2.52344 5.15031C2.51308 2.94119 4.29554 1.14506 6.50467 1.13853L6.49529 -0.861447Z" fill="#2F2F2F"/>
<line x1="55" y1="35.6533" x2="-4.37114e-08" y2="35.6533" stroke="black"/>
<path d="M6.50467 41.2919L48.3641 41.1681L48.3547 39.1682L6.49529 39.2919L6.50467 41.2919ZM52.3828 45.1563L52.4766 65.1562L54.4766 65.1503L54.3828 45.1504L52.3828 45.1563ZM48.4953 69.1679L6.63594 69.2917L6.64532 71.2916L48.5047 71.1679L48.4953 69.1679ZM2.61721 65.3035L2.52344 45.3036L0.523446 45.3095L0.617215 65.3094L2.61721 65.3035ZM6.63594 69.2917C4.42681 69.2982 2.62756 67.5126 2.61721 65.3035L0.617215 65.3094C0.632751 68.6231 3.33162 71.3014 6.64532 71.2916L6.63594 69.2917ZM52.4766 65.1562C52.4869 67.3653 50.7045 69.1614 48.4953 69.1679L48.5047 71.1679C51.8184 71.1581 54.4921 68.4639 54.4766 65.1503L52.4766 65.1562ZM48.3641 41.1681C50.5732 41.1616 52.3724 42.9471 52.3828 45.1563L54.3828 45.1504C54.3672 41.8367 51.6684 39.1584 48.3547 39.1682L48.3641 41.1681ZM6.49529 39.2919C3.1816 39.3017 0.50791 41.9959 0.523446 45.3095L2.52344 45.3036C2.51308 43.0945 4.29554 41.2984 6.50467 41.2919L6.49529 39.2919Z" fill="#2F2F2F"/>
<path d="M30.156 13.602C31.32 13.746 32.208 14.142 32.82 14.79C33.432 15.438 33.738 16.248 33.738 17.22C33.738 17.952 33.552 18.618 33.18 19.218C32.808 19.818 32.244 20.298 31.488 20.658C30.744 21.006 29.832 21.18 28.752 21.18C27.852 21.18 26.982 21.054 26.142 20.802C25.314 20.538 24.606 20.178 24.018 19.722L25.026 17.904C25.482 18.288 26.034 18.594 26.682 18.822C27.342 19.038 28.02 19.146 28.716 19.146C29.544 19.146 30.192 18.978 30.66 18.642C31.14 18.294 31.38 17.826 31.38 17.238C31.38 16.65 31.152 16.194 30.696 15.87C30.252 15.534 29.568 15.366 28.644 15.366H27.492V13.764L30.354 10.362H24.63V8.4H33.216V9.966L30.156 13.602Z" fill="#2F2F2F"/>
<path d="M34.024 59.138H31.792V62H29.524V59.138H22.612V57.518L28.822 49.4H31.324L25.474 57.158H29.596V54.62H31.792V57.158H34.024V59.138Z" fill="#2F2F2F"/>
</svg>
