<svg width="977" height="53" viewBox="0 0 977 53" fill="none" xmlns="http://www.w3.org/2000/svg">
<rect x="1" y="1" width="51" height="51" fill="#A1D9E8" stroke="#369CB7" stroke-width="2"/>
<rect x="67" y="1" width="51" height="51" fill="#A1D9E8" stroke="#369CB7" stroke-width="2"/>
<rect x="133" y="1" width="51" height="51" fill="#A1D9E8" stroke="#369CB7" stroke-width="2"/>
<rect x="199" y="1" width="51" height="51" fill="#A1D9E8" stroke="#369CB7" stroke-width="2"/>
<rect x="265" y="1" width="51" height="51" fill="#A1D9E8" stroke="#369CB7" stroke-width="2"/>
<rect x="331" y="1" width="51" height="51" fill="#A1D9E8" stroke="#369CB7" stroke-width="2"/>
<rect x="397" y="1" width="51" height="51" fill="#A1D9E8" stroke="#369CB7" stroke-width="2"/>
<rect x="463" y="1" width="51" height="51" fill="#A1D9E8" stroke="#369CB7" stroke-width="2"/>
<rect x="529" y="1" width="51" height="51" fill="#A1D9E8" stroke="#369CB7" stroke-width="2"/>
<rect x="595" y="1" width="51" height="51" fill="#A1D9E8" stroke="#369CB7" stroke-width="2"/>
<rect x="661" y="1" width="51" height="51" fill="#A1D9E8" stroke="#369CB7" stroke-width="2"/>
<rect x="727" y="1" width="51" height="51" fill="#A1D9E8" stroke="#369CB7" stroke-width="2"/>
<rect x="793" y="1" width="51" height="51" rx="25.5" fill="#A1E8AC" stroke="#5FB736" stroke-width="2"/>
<rect x="859" y="1" width="51" height="51" rx="25.5" fill="#A1E8AC" stroke="#5FB736" stroke-width="2"/>
<rect x="925" y="1" width="51" height="51" rx="25.5" fill="#A1E8AC" stroke="#5FB736" stroke-width="2"/>
</svg>
