<svg width="130" height="31" viewBox="0 0 130 31" fill="none" xmlns="http://www.w3.org/2000/svg">
<path d="M14.4476 21.0762L14.4296 12.7242L10.2896 19.6362H9.24564L5.10564 12.8322V21.0762H2.87364V8.47617H4.79964L9.80364 16.8282L14.7176 8.47617H16.6436L16.6616 21.0762H14.4476ZM28.237 18.1602H21.937L20.695 21.0762H18.283L23.953 8.47617H26.257L31.945 21.0762H29.497L28.237 18.1602ZM27.463 16.3242L25.087 10.8162L22.729 16.3242H27.463ZM33.5475 8.47617H39.0555C40.3995 8.47617 41.5935 8.74017 42.6375 9.26817C43.6815 9.78417 44.4915 10.5222 45.0675 11.4822C45.6435 12.4302 45.9315 13.5282 45.9315 14.7762C45.9315 16.0242 45.6435 17.1282 45.0675 18.0882C44.4915 19.0362 43.6815 19.7742 42.6375 20.3022C41.5935 20.8182 40.3995 21.0762 39.0555 21.0762H33.5475V8.47617ZM38.9475 19.0962C39.8715 19.0962 40.6815 18.9222 41.3775 18.5742C42.0855 18.2142 42.6255 17.7102 42.9975 17.0622C43.3815 16.4022 43.5735 15.6402 43.5735 14.7762C43.5735 13.9122 43.3815 13.1562 42.9975 12.5082C42.6255 11.8482 42.0855 11.3442 41.3775 10.9962C40.6815 10.6362 39.8715 10.4562 38.9475 10.4562H35.8875V19.0962H38.9475ZM52.8712 11.6982H61.1692V13.4982H52.8712V11.6982ZM52.8712 16.0542H61.1692V17.8542H52.8712V16.0542Z" fill="#2F2F2F"/>
<path d="M77.7551 1.13983L124.601 1.01351L124.591 -0.986463L77.7448 -0.860148L77.7551 1.13983ZM128.622 5.00267L128.724 25.0026L130.724 24.9972L130.622 4.99728L128.622 5.00267ZM124.745 29.0133L77.899 29.1396L77.9093 31.1396L124.755 31.0133L124.745 29.0133ZM73.8785 25.1505L73.7757 5.15056L71.7757 5.15595L71.8785 25.1559L73.8785 25.1505ZM77.899 29.1396C75.6899 29.1456 73.8898 27.3596 73.8785 25.1505L71.8785 25.1559C71.8955 28.4695 74.5956 31.1486 77.9093 31.1396L77.899 29.1396ZM128.724 25.0026C128.736 27.2117 126.954 29.0074 124.745 29.0133L124.755 31.0133C128.069 31.0044 130.741 28.3109 130.724 24.9972L128.724 25.0026ZM124.601 1.01351C126.81 1.00755 128.61 2.79356 128.622 5.00267L130.622 4.99728C130.604 1.68361 127.904 -0.995398 124.591 -0.986463L124.601 1.01351ZM77.7448 -0.860148C74.4311 -0.851213 71.7587 1.84229 71.7757 5.15595L73.7757 5.15056C73.7643 2.94145 75.546 1.14578 77.7551 1.13983L77.7448 -0.860148Z" fill="#2F2F2F"/>
<path d="M93.048 21.18C92.04 21.18 91.14 20.928 90.348 20.424C89.556 19.908 88.932 19.164 88.476 18.192C88.02 17.208 87.792 16.044 87.792 14.7C87.792 13.356 88.02 12.198 88.476 11.226C88.932 10.242 89.556 9.498 90.348 8.994C91.14 8.478 92.04 8.22 93.048 8.22C94.056 8.22 94.956 8.478 95.748 8.994C96.552 9.498 97.182 10.242 97.638 11.226C98.094 12.198 98.322 13.356 98.322 14.7C98.322 16.044 98.094 17.208 97.638 18.192C97.182 19.164 96.552 19.908 95.748 20.424C94.956 20.928 94.056 21.18 93.048 21.18ZM93.048 19.146C93.948 19.146 94.656 18.774 95.172 18.03C95.7 17.286 95.964 16.176 95.964 14.7C95.964 13.224 95.7 12.114 95.172 11.37C94.656 10.626 93.948 10.254 93.048 10.254C92.16 10.254 91.452 10.626 90.924 11.37C90.408 12.114 90.15 13.224 90.15 14.7C90.15 16.176 90.408 17.286 90.924 18.03C91.452 18.774 92.16 19.146 93.048 19.146ZM101.096 21.126C100.688 21.126 100.34 20.988 100.052 20.712C99.7644 20.424 99.6204 20.064 99.6204 19.632C99.6204 19.188 99.7584 18.828 100.034 18.552C100.322 18.276 100.676 18.138 101.096 18.138C101.516 18.138 101.864 18.276 102.14 18.552C102.428 18.828 102.572 19.188 102.572 19.632C102.572 20.064 102.428 20.424 102.14 20.712C101.852 20.988 101.504 21.126 101.096 21.126ZM108.335 8.22C110.063 8.22 111.401 8.76 112.349 9.84C113.309 10.92 113.789 12.468 113.789 14.484C113.789 15.9 113.531 17.112 113.015 18.12C112.499 19.116 111.773 19.878 110.837 20.406C109.913 20.922 108.839 21.18 107.615 21.18C106.967 21.18 106.355 21.114 105.779 20.982C105.215 20.838 104.723 20.634 104.303 20.37L105.167 18.606C105.791 19.014 106.589 19.218 107.561 19.218C108.773 19.218 109.721 18.846 110.405 18.102C111.089 17.358 111.431 16.284 111.431 14.88V14.862C111.059 15.294 110.585 15.624 110.009 15.852C109.433 16.068 108.785 16.176 108.065 16.176C107.237 16.176 106.493 16.02 105.833 15.708C105.173 15.384 104.657 14.928 104.285 14.34C103.913 13.752 103.727 13.074 103.727 12.306C103.727 11.49 103.931 10.776 104.339 10.164C104.747 9.54 105.299 9.06 105.995 8.724C106.691 8.388 107.471 8.22 108.335 8.22ZM108.515 14.34C109.271 14.34 109.883 14.136 110.351 13.728C110.831 13.32 111.071 12.804 111.071 12.18C111.071 11.568 110.837 11.064 110.369 10.668C109.913 10.26 109.277 10.056 108.461 10.056C107.729 10.056 107.135 10.254 106.679 10.65C106.223 11.034 105.995 11.55 105.995 12.198C105.995 12.858 106.223 13.38 106.679 13.764C107.135 14.148 107.747 14.34 108.515 14.34Z" fill="#2F2F2F"/>
</svg>
