<svg width="263" height="34" viewBox="0 0 263 34" fill="none" xmlns="http://www.w3.org/2000/svg">
<rect x="0.5" y="0.5" width="39.5" height="33" rx="4.5" fill="#DAFAFF"/>
<path d="M20.9216 15.458C21.7496 15.458 22.4816 15.614 23.1176 15.926C23.7656 16.238 24.2696 16.682 24.6296 17.258C24.9896 17.822 25.1696 18.482 25.1696 19.238C25.1696 20.006 24.9836 20.684 24.6116 21.272C24.2396 21.86 23.7236 22.316 23.0636 22.64C22.4156 22.952 21.6836 23.108 20.8676 23.108C19.1996 23.108 17.9216 22.562 17.0336 21.47C16.1456 20.366 15.7016 18.812 15.7016 16.808C15.7016 15.404 15.9416 14.216 16.4216 13.244C16.9016 12.272 17.5736 11.54 18.4376 11.048C19.3016 10.544 20.3096 10.292 21.4616 10.292C22.7096 10.292 23.7056 10.52 24.4496 10.976L23.9276 12.02C23.3276 11.624 22.5116 11.426 21.4796 11.426C20.0876 11.426 18.9956 11.87 18.2036 12.758C17.4116 13.634 17.0156 14.912 17.0156 16.592C17.0156 16.892 17.0336 17.234 17.0696 17.618C17.3816 16.934 17.8796 16.406 18.5636 16.034C19.2476 15.65 20.0336 15.458 20.9216 15.458ZM20.8136 22.01C21.7256 22.01 22.4636 21.764 23.0276 21.272C23.6036 20.768 23.8916 20.102 23.8916 19.274C23.8916 18.446 23.6036 17.786 23.0276 17.294C22.4636 16.802 21.6956 16.556 20.7236 16.556C20.0876 16.556 19.5236 16.676 19.0316 16.916C18.5516 17.156 18.1736 17.486 17.8976 17.906C17.6216 18.326 17.4836 18.794 17.4836 19.31C17.4836 19.79 17.6096 20.234 17.8616 20.642C18.1256 21.05 18.5096 21.38 19.0136 21.632C19.5176 21.884 20.1176 22.01 20.8136 22.01Z" fill="black"/>
<rect x="0.5" y="0.5" width="39.5" height="33" rx="4.5" stroke="#369CB7"/>
<rect x="56" y="0.5" width="39.5" height="33" rx="4.5" fill="#DAFAFF"/>
<path d="M78.1647 16.394C78.9567 16.658 79.5627 17.054 79.9827 17.582C80.4147 18.11 80.6307 18.746 80.6307 19.49C80.6307 20.222 80.4327 20.864 80.0367 21.416C79.6407 21.956 79.0707 22.376 78.3267 22.676C77.5947 22.964 76.7307 23.108 75.7347 23.108C74.2227 23.108 73.0347 22.784 72.1707 22.136C71.3067 21.488 70.8747 20.606 70.8747 19.49C70.8747 18.734 71.0787 18.098 71.4867 17.582C71.9067 17.054 72.5127 16.658 73.3047 16.394C72.6567 16.142 72.1647 15.782 71.8287 15.314C71.4927 14.834 71.3247 14.27 71.3247 13.622C71.3247 12.602 71.7207 11.792 72.5127 11.192C73.3167 10.592 74.3907 10.292 75.7347 10.292C76.6227 10.292 77.3967 10.43 78.0567 10.706C78.7287 10.97 79.2507 11.354 79.6227 11.858C79.9947 12.362 80.1807 12.95 80.1807 13.622C80.1807 14.27 80.0067 14.834 79.6587 15.314C79.3107 15.782 78.8127 16.142 78.1647 16.394ZM72.6207 13.658C72.6207 14.354 72.8967 14.906 73.4487 15.314C74.0007 15.722 74.7627 15.926 75.7347 15.926C76.7067 15.926 77.4687 15.722 78.0207 15.314C78.5847 14.906 78.8667 14.36 78.8667 13.676C78.8667 12.968 78.5787 12.41 78.0027 12.002C77.4387 11.594 76.6827 11.39 75.7347 11.39C74.7747 11.39 74.0127 11.594 73.4487 12.002C72.8967 12.41 72.6207 12.962 72.6207 13.658ZM75.7347 22.01C76.8507 22.01 77.7207 21.782 78.3447 21.326C78.9807 20.87 79.2987 20.252 79.2987 19.472C79.2987 18.692 78.9807 18.08 78.3447 17.636C77.7207 17.18 76.8507 16.952 75.7347 16.952C74.6307 16.952 73.7607 17.18 73.1247 17.636C72.5007 18.08 72.1887 18.692 72.1887 19.472C72.1887 20.264 72.5007 20.888 73.1247 21.344C73.7487 21.788 74.6187 22.01 75.7347 22.01Z" fill="black"/>
<rect x="56" y="0.5" width="39.5" height="33" rx="4.5" stroke="#369CB7"/>
<rect x="111.5" y="0.5" width="39.5" height="33" rx="4.5" fill="#DAFAFF"/>
<path d="M135.778 10.4V11.318L130.504 23H129.1L134.284 11.552H127.804V13.91H126.526V10.4H135.778Z" fill="black"/>
<rect x="111.5" y="0.5" width="39.5" height="33" rx="4.5" stroke="#369CB7"/>
<rect x="167" y="0.5" width="39.5" height="33" rx="4.5" fill="#DAFAFF"/>
<path d="M191.278 10.4V11.318L186.004 23H184.6L189.784 11.552H183.304V13.91H182.026V10.4H191.278Z" fill="black"/>
<rect x="167" y="0.5" width="39.5" height="33" rx="4.5" stroke="#369CB7"/>
<rect x="222.5" y="0.5" width="39.5" height="33" rx="4.5" fill="#DAFAFF"/>
<path d="M241.4 15.566C243.224 15.566 244.55 15.896 245.378 16.556C246.218 17.204 246.638 18.116 246.638 19.292C246.638 20.024 246.464 20.678 246.116 21.254C245.78 21.83 245.27 22.286 244.586 22.622C243.902 22.946 243.062 23.108 242.066 23.108C241.166 23.108 240.308 22.964 239.492 22.676C238.688 22.376 238.04 21.98 237.548 21.488L238.178 20.462C238.598 20.894 239.15 21.248 239.834 21.524C240.518 21.788 241.256 21.92 242.048 21.92C243.092 21.92 243.896 21.686 244.46 21.218C245.036 20.75 245.324 20.126 245.324 19.346C245.324 18.482 245 17.828 244.352 17.384C243.716 16.94 242.636 16.718 241.112 16.718H238.43L239.078 10.4H245.972V11.552H240.212L239.78 15.566H241.4Z" fill="black"/>
<rect x="222.5" y="0.5" width="39.5" height="33" rx="4.5" stroke="#369CB7"/>
</svg>
