<svg width="397" height="115" viewBox="0 0 397 115" fill="none" xmlns="http://www.w3.org/2000/svg">
<path d="M7.57203 3.9V16.5H5.79003V5.466H2.94603V3.9H7.57203ZM17.0061 16.644C16.0101 16.644 15.1221 16.392 14.3421 15.888C13.5741 15.372 12.9681 14.628 12.5241 13.656C12.0801 12.684 11.8581 11.532 11.8581 10.2C11.8581 8.868 12.0801 7.716 12.5241 6.744C12.9681 5.772 13.5741 5.034 14.3421 4.53C15.1221 4.014 16.0101 3.756 17.0061 3.756C17.9901 3.756 18.8661 4.014 19.6341 4.53C20.4141 5.034 21.0261 5.772 21.4701 6.744C21.9141 7.716 22.1361 8.868 22.1361 10.2C22.1361 11.532 21.9141 12.684 21.4701 13.656C21.0261 14.628 20.4141 15.372 19.6341 15.888C18.8661 16.392 17.9901 16.644 17.0061 16.644ZM17.0061 15.042C18.0141 15.042 18.8181 14.628 19.4181 13.8C20.0301 12.972 20.3361 11.772 20.3361 10.2C20.3361 8.628 20.0301 7.428 19.4181 6.6C18.8181 5.772 18.0141 5.358 17.0061 5.358C15.9861 5.358 15.1701 5.772 14.5581 6.6C13.9581 7.428 13.6581 8.628 13.6581 10.2C13.6581 11.772 13.9581 12.972 14.5581 13.8C15.1701 14.628 15.9861 15.042 17.0061 15.042Z" fill="#2F2F2F"/>
<path d="M6.53687 27.9V40.5H4.75487V29.466H1.91087V27.9H6.53687ZM21.785 37.404H19.391V40.5H17.645V37.404H10.643V36.144L17.087 27.9H19.031L12.857 35.856H17.699V33.12H19.391V35.856H21.785V37.404Z" fill="#2F2F2F"/>
<line y1="21.5" x2="24" y2="21.5" stroke="#3C3C3C"/>
<g opacity="0.3">
<path d="M39 5C39 2.23858 41.2386 0 44 0H104C106.761 0 109 2.23858 109 5V40C109 42.7614 106.761 45 104 45H44C41.2386 45 39 42.7614 39 40V5Z" fill="#369CB7"/>
<path d="M44 1H104V-1H44V1ZM108 5V40H110V5H108ZM104 44H44V46H104V44ZM40 40V5H38V40H40ZM44 44C41.7909 44 40 42.2091 40 40H38C38 43.3137 40.6863 46 44 46V44ZM108 40C108 42.2091 106.209 44 104 44V46C107.314 46 110 43.3137 110 40H108ZM104 1C106.209 1 108 2.79086 108 5H110C110 1.68629 107.314 -1 104 -1V1ZM44 -1C40.6863 -1 38 1.68629 38 5H40C40 2.79086 41.7909 1 44 1V-1Z" fill="#369CB7"/>
</g>
<path d="M137.128 8.922C138.928 8.922 140.248 9.264 141.088 9.948C141.94 10.62 142.366 11.544 142.366 12.72C142.366 13.464 142.186 14.136 141.826 14.736C141.478 15.324 140.944 15.792 140.224 16.14C139.516 16.476 138.64 16.644 137.596 16.644C136.708 16.644 135.85 16.512 135.022 16.248C134.194 15.972 133.51 15.594 132.97 15.114L133.798 13.692C134.23 14.1 134.782 14.43 135.454 14.682C136.126 14.922 136.834 15.042 137.578 15.042C138.526 15.042 139.258 14.844 139.774 14.448C140.302 14.04 140.566 13.488 140.566 12.792C140.566 12.036 140.278 11.466 139.702 11.082C139.126 10.686 138.142 10.488 136.75 10.488H133.888L134.554 3.9H141.664V5.466H136.066L135.724 8.922H137.128Z" fill="#2F2F2F"/>
<path d="M137.191 32.85C138.019 32.85 138.757 33.006 139.405 33.318C140.065 33.63 140.581 34.08 140.953 34.668C141.325 35.244 141.511 35.91 141.511 36.666C141.511 37.458 141.313 38.154 140.917 38.754C140.533 39.354 139.999 39.822 139.315 40.158C138.643 40.482 137.887 40.644 137.047 40.644C135.355 40.644 134.047 40.098 133.123 39.006C132.211 37.914 131.755 36.366 131.755 34.362C131.755 32.958 132.001 31.764 132.493 30.78C132.997 29.784 133.693 29.034 134.581 28.53C135.481 28.014 136.525 27.756 137.713 27.756C138.325 27.756 138.901 27.822 139.441 27.954C139.981 28.074 140.449 28.254 140.845 28.494L140.161 29.898C139.561 29.502 138.757 29.304 137.749 29.304C136.441 29.304 135.415 29.712 134.671 30.528C133.927 31.332 133.555 32.508 133.555 34.056C133.555 34.248 133.561 34.398 133.573 34.506C133.933 33.966 134.425 33.558 135.049 33.282C135.685 32.994 136.399 32.85 137.191 32.85ZM136.975 39.186C137.803 39.186 138.475 38.964 138.991 38.52C139.507 38.076 139.765 37.482 139.765 36.738C139.765 35.994 139.501 35.406 138.973 34.974C138.457 34.53 137.761 34.308 136.885 34.308C136.321 34.308 135.817 34.416 135.373 34.632C134.941 34.848 134.599 35.142 134.347 35.514C134.107 35.886 133.987 36.3 133.987 36.756C133.987 37.2 134.101 37.608 134.329 37.98C134.569 38.34 134.911 38.634 135.355 38.862C135.811 39.078 136.351 39.186 136.975 39.186Z" fill="#2F2F2F"/>
<line x1="124" y1="22" x2="148" y2="22" stroke="#3C3C3C"/>
<path d="M6.53687 73.9V86.5H4.75487V75.466H1.91087V73.9H6.53687ZM21.785 83.404H19.391V86.5H17.645V83.404H10.643V82.144L17.087 73.9H19.031L12.857 81.856H17.699V79.12H19.391V81.856H21.785V83.404Z" fill="#2F2F2F"/>
<path d="M12.192 108.934V110.5H3.13795V109.276L8.26795 104.326C8.89195 103.726 9.31195 103.21 9.52795 102.778C9.74395 102.334 9.85195 101.89 9.85195 101.446C9.85195 100.786 9.61795 100.276 9.14995 99.916C8.69395 99.544 8.03395 99.358 7.16995 99.358C5.77795 99.358 4.70395 99.814 3.94795 100.726L2.72395 99.664C3.21595 99.064 3.85795 98.596 4.64995 98.26C5.45395 97.924 6.34795 97.756 7.33195 97.756C8.65195 97.756 9.70195 98.074 10.482 98.71C11.262 99.334 11.652 100.186 11.652 101.266C11.652 101.938 11.508 102.574 11.22 103.174C10.932 103.774 10.386 104.458 9.58195 105.226L5.72995 108.934H12.192ZM19.1079 97.9V110.5H17.3259V99.466H14.4819V97.9H19.1079Z" fill="#2F2F2F"/>
<line y1="92" x2="24" y2="92" stroke="#3C3C3C"/>
<g opacity="0.3">
<path d="M39 75C39 72.2386 41.2386 70 44 70H104C106.761 70 109 72.2386 109 75V110C109 112.761 106.761 115 104 115H44C41.2386 115 39 112.761 39 110V75Z" fill="#369CB7"/>
<path d="M44 71H104V69H44V71ZM108 75V110H110V75H108ZM104 114H44V116H104V114ZM40 110V75H38V110H40ZM44 114C41.7909 114 40 112.209 40 110H38C38 113.314 40.6863 116 44 116V114ZM108 110C108 112.209 106.209 114 104 114V116C107.314 116 110 113.314 110 110H108ZM104 71C106.209 71 108 72.7909 108 75H110C110 71.6863 107.314 69 104 69V71ZM44 69C40.6863 69 38 71.6863 38 75H40C40 72.7909 41.7909 71 44 71V69Z" fill="#369CB7"/>
</g>
<path d="M142.384 84.934V86.5H133.33V85.276L138.46 80.326C139.084 79.726 139.504 79.21 139.72 78.778C139.936 78.334 140.044 77.89 140.044 77.446C140.044 76.786 139.81 76.276 139.342 75.916C138.886 75.544 138.226 75.358 137.362 75.358C135.97 75.358 134.896 75.814 134.14 76.726L132.916 75.664C133.408 75.064 134.05 74.596 134.842 74.26C135.646 73.924 136.54 73.756 137.524 73.756C138.844 73.756 139.894 74.074 140.674 74.71C141.454 75.334 141.844 76.186 141.844 77.266C141.844 77.938 141.7 78.574 141.412 79.174C141.124 79.774 140.578 80.458 139.774 81.226L135.922 84.934H142.384Z" fill="#2F2F2F"/>
<path d="M137.387 103.192C138.623 103.312 139.565 103.696 140.213 104.344C140.861 104.98 141.185 105.796 141.185 106.792C141.185 107.512 141.005 108.166 140.645 108.754C140.285 109.33 139.745 109.792 139.025 110.14C138.317 110.476 137.447 110.644 136.415 110.644C135.515 110.644 134.651 110.512 133.823 110.248C132.995 109.972 132.317 109.594 131.789 109.114L132.617 107.692C133.049 108.1 133.601 108.43 134.273 108.682C134.945 108.922 135.659 109.042 136.415 109.042C137.351 109.042 138.077 108.844 138.593 108.448C139.121 108.052 139.385 107.506 139.385 106.81C139.385 106.114 139.127 105.574 138.611 105.19C138.095 104.806 137.315 104.614 136.271 104.614H135.263V103.354L138.431 99.466H132.365V97.9H140.681V99.124L137.387 103.192Z" fill="#2F2F2F"/>
<line x1="124" y1="92" x2="148" y2="92" stroke="#3C3C3C"/>
<path d="M262.387 9.192C263.623 9.312 264.565 9.696 265.213 10.344C265.861 10.98 266.185 11.796 266.185 12.792C266.185 13.512 266.005 14.166 265.645 14.754C265.285 15.33 264.745 15.792 264.025 16.14C263.317 16.476 262.447 16.644 261.415 16.644C260.515 16.644 259.651 16.512 258.823 16.248C257.995 15.972 257.317 15.594 256.789 15.114L257.617 13.692C258.049 14.1 258.601 14.43 259.273 14.682C259.945 14.922 260.659 15.042 261.415 15.042C262.351 15.042 263.077 14.844 263.593 14.448C264.121 14.052 264.385 13.506 264.385 12.81C264.385 12.114 264.127 11.574 263.611 11.19C263.095 10.806 262.315 10.614 261.271 10.614H260.263V9.354L263.431 5.466H257.365V3.9H265.681V5.124L262.387 9.192Z" fill="#2F2F2F"/>
<path d="M260.128 32.922C261.928 32.922 263.248 33.264 264.088 33.948C264.94 34.62 265.366 35.544 265.366 36.72C265.366 37.464 265.186 38.136 264.826 38.736C264.478 39.324 263.944 39.792 263.224 40.14C262.516 40.476 261.64 40.644 260.596 40.644C259.708 40.644 258.85 40.512 258.022 40.248C257.194 39.972 256.51 39.594 255.97 39.114L256.798 37.692C257.23 38.1 257.782 38.43 258.454 38.682C259.126 38.922 259.834 39.042 260.578 39.042C261.526 39.042 262.258 38.844 262.774 38.448C263.302 38.04 263.566 37.488 263.566 36.792C263.566 36.036 263.278 35.466 262.702 35.082C262.126 34.686 261.142 34.488 259.75 34.488H256.888L257.554 27.9H264.664V29.466H259.066L258.724 32.922H260.128Z" fill="#2F2F2F"/>
<line x1="248" y1="22" x2="272" y2="22" stroke="#3C3C3C"/>
<g opacity="0.3">
<path d="M287 5C287 2.23858 289.239 0 292 0H352C354.761 0 357 2.23858 357 5V40C357 42.7614 354.761 45 352 45H292C289.239 45 287 42.7614 287 40V5Z" fill="#369CB7"/>
<path d="M292 1H352V-1H292V1ZM356 5V40H358V5H356ZM352 44H292V46H352V44ZM288 40V5H286V40H288ZM292 44C289.791 44 288 42.2091 288 40H286C286 43.3137 288.686 46 292 46V44ZM356 40C356 42.2091 354.209 44 352 44V46C355.314 46 358 43.3137 358 40H356ZM352 1C354.209 1 356 2.79086 356 5H358C358 1.68629 355.314 -1 352 -1V1ZM292 -1C288.686 -1 286 1.68629 286 5H288C288 2.79086 289.791 1 292 1V-1Z" fill="#369CB7"/>
</g>
<path d="M380.242 3.9V16.5H378.46V5.466H375.616V3.9H380.242ZM393.384 14.934V16.5H384.33V15.276L389.46 10.326C390.084 9.726 390.504 9.21 390.72 8.778C390.936 8.334 391.044 7.89 391.044 7.446C391.044 6.786 390.81 6.276 390.342 5.916C389.886 5.544 389.226 5.358 388.362 5.358C386.97 5.358 385.896 5.814 385.14 6.726L383.916 5.664C384.408 5.064 385.05 4.596 385.842 4.26C386.646 3.924 387.54 3.756 388.524 3.756C389.844 3.756 390.894 4.074 391.674 4.71C392.454 5.334 392.844 6.186 392.844 7.266C392.844 7.938 392.7 8.574 392.412 9.174C392.124 9.774 391.578 10.458 390.774 11.226L386.922 14.934H393.384Z" fill="#2F2F2F"/>
<path d="M379.242 27.9V40.5H377.46V29.466H374.616V27.9H379.242ZM387.128 32.922C388.928 32.922 390.248 33.264 391.088 33.948C391.94 34.62 392.366 35.544 392.366 36.72C392.366 37.464 392.186 38.136 391.826 38.736C391.478 39.324 390.944 39.792 390.224 40.14C389.516 40.476 388.64 40.644 387.596 40.644C386.708 40.644 385.85 40.512 385.022 40.248C384.194 39.972 383.51 39.594 382.97 39.114L383.798 37.692C384.23 38.1 384.782 38.43 385.454 38.682C386.126 38.922 386.834 39.042 387.578 39.042C388.526 39.042 389.258 38.844 389.774 38.448C390.302 38.04 390.566 37.488 390.566 36.792C390.566 36.036 390.278 35.466 389.702 35.082C389.126 34.686 388.142 34.488 386.75 34.488H383.888L384.554 27.9H391.664V29.466H386.066L385.724 32.922H387.128Z" fill="#2F2F2F"/>
<line x1="372" y1="21.5" x2="396" y2="21.5" stroke="#3C3C3C"/>
<path d="M256.469 73.65V86.25H254.687V75.216H251.843V73.65H256.469ZM266.191 78.6C267.019 78.6 267.757 78.756 268.405 79.068C269.065 79.38 269.581 79.83 269.953 80.418C270.325 80.994 270.511 81.66 270.511 82.416C270.511 83.208 270.313 83.904 269.917 84.504C269.533 85.104 268.999 85.572 268.315 85.908C267.643 86.232 266.887 86.394 266.047 86.394C264.355 86.394 263.047 85.848 262.123 84.756C261.211 83.664 260.755 82.116 260.755 80.112C260.755 78.708 261.001 77.514 261.493 76.53C261.997 75.534 262.693 74.784 263.581 74.28C264.481 73.764 265.525 73.506 266.713 73.506C267.325 73.506 267.901 73.572 268.441 73.704C268.981 73.824 269.449 74.004 269.845 74.244L269.161 75.648C268.561 75.252 267.757 75.054 266.749 75.054C265.441 75.054 264.415 75.462 263.671 76.278C262.927 77.082 262.555 78.258 262.555 79.806C262.555 79.998 262.561 80.148 262.573 80.256C262.933 79.716 263.425 79.308 264.049 79.032C264.685 78.744 265.399 78.6 266.191 78.6ZM265.975 84.936C266.803 84.936 267.475 84.714 267.991 84.27C268.507 83.826 268.765 83.232 268.765 82.488C268.765 81.744 268.501 81.156 267.973 80.724C267.457 80.28 266.761 80.058 265.885 80.058C265.321 80.058 264.817 80.166 264.373 80.382C263.941 80.598 263.599 80.892 263.347 81.264C263.107 81.636 262.987 82.05 262.987 82.506C262.987 82.95 263.101 83.358 263.329 83.73C263.569 84.09 263.911 84.384 264.355 84.612C264.811 84.828 265.351 84.936 265.975 84.936Z" fill="#2F2F2F"/>
<path d="M257.901 109.184V110.75H248.847V109.526L253.977 104.576C254.601 103.976 255.021 103.46 255.237 103.028C255.453 102.584 255.561 102.14 255.561 101.696C255.561 101.036 255.327 100.526 254.859 100.166C254.403 99.794 253.743 99.608 252.879 99.608C251.487 99.608 250.413 100.064 249.657 100.976L248.433 99.914C248.925 99.314 249.567 98.846 250.359 98.51C251.163 98.174 252.057 98.006 253.041 98.006C254.361 98.006 255.411 98.324 256.191 98.96C256.971 99.584 257.361 100.436 257.361 101.516C257.361 102.188 257.217 102.824 256.929 103.424C256.641 104.024 256.095 104.708 255.291 105.476L251.439 109.184H257.901ZM266.006 110.894C265.01 110.894 264.122 110.642 263.342 110.138C262.574 109.622 261.968 108.878 261.524 107.906C261.08 106.934 260.858 105.782 260.858 104.45C260.858 103.118 261.08 101.966 261.524 100.994C261.968 100.022 262.574 99.284 263.342 98.78C264.122 98.264 265.01 98.006 266.006 98.006C266.99 98.006 267.866 98.264 268.634 98.78C269.414 99.284 270.026 100.022 270.47 100.994C270.914 101.966 271.136 103.118 271.136 104.45C271.136 105.782 270.914 106.934 270.47 107.906C270.026 108.878 269.414 109.622 268.634 110.138C267.866 110.642 266.99 110.894 266.006 110.894ZM266.006 109.292C267.014 109.292 267.818 108.878 268.418 108.05C269.03 107.222 269.336 106.022 269.336 104.45C269.336 102.878 269.03 101.678 268.418 100.85C267.818 100.022 267.014 99.608 266.006 99.608C264.986 99.608 264.17 100.022 263.558 100.85C262.958 101.678 262.658 102.878 262.658 104.45C262.658 106.022 262.958 107.222 263.558 108.05C264.17 108.878 264.986 109.292 266.006 109.292Z" fill="#2F2F2F"/>
<line x1="249" y1="91.75" x2="273" y2="91.75" stroke="#3C3C3C"/>
<g opacity="0.3">
<path d="M288 75C288 72.2386 290.239 70 293 70H353C355.761 70 358 72.2386 358 75V110C358 112.761 355.761 115 353 115H293C290.239 115 288 112.761 288 110V75Z" fill="#369CB7"/>
<path d="M293 71H353V69H293V71ZM357 75V110H359V75H357ZM353 114H293V116H353V114ZM289 110V75H287V110H289ZM293 114C290.791 114 289 112.209 289 110H287C287 113.314 289.686 116 293 116V114ZM357 110C357 112.209 355.209 114 353 114V116C356.314 116 359 113.314 359 110H357ZM353 71C355.209 71 357 72.7909 357 75H359C359 71.6863 356.314 69 353 69V71ZM293 69C289.686 69 287 71.6863 287 75H289C289 72.7909 290.791 71 293 71V69Z" fill="#369CB7"/>
</g>
<path d="M391.785 83.404H389.391V86.5H387.645V83.404H380.643V82.144L387.087 73.9H389.031L382.857 81.856H387.699V79.12H389.391V81.856H391.785V83.404Z" fill="#2F2F2F"/>
<path d="M385.128 102.922C386.928 102.922 388.248 103.264 389.088 103.948C389.94 104.62 390.366 105.544 390.366 106.72C390.366 107.464 390.186 108.136 389.826 108.736C389.478 109.324 388.944 109.792 388.224 110.14C387.516 110.476 386.64 110.644 385.596 110.644C384.708 110.644 383.85 110.512 383.022 110.248C382.194 109.972 381.51 109.594 380.97 109.114L381.798 107.692C382.23 108.1 382.782 108.43 383.454 108.682C384.126 108.922 384.834 109.042 385.578 109.042C386.526 109.042 387.258 108.844 387.774 108.448C388.302 108.04 388.566 107.488 388.566 106.792C388.566 106.036 388.278 105.466 387.702 105.082C387.126 104.686 386.142 104.488 384.75 104.488H381.888L382.554 97.9H389.664V99.466H384.066L383.724 102.922H385.128Z" fill="#2F2F2F"/>
<line x1="373" y1="92" x2="397" y2="92" stroke="#3C3C3C"/>
<path d="M39 5C39 2.23858 41.2386 0 44 0H104C106.761 0 109 2.23858 109 5V40C109 42.7614 106.761 45 104 45H44C41.2386 45 39 42.7614 39 40V5Z" fill="#369CB7"/>
<path d="M76.7023 20.87L74.4223 25.13H80.9323V28.13H72.8323L71.0023 31.58H67.9123L69.7423 28.13H67.1023V25.13H71.3623L73.6123 20.87H67.1023V17.87H75.2323L77.0623 14.42H80.1223L78.2923 17.87H80.9323V20.87H76.7023Z" fill="white"/>
<path d="M44 1H104V-1H44V1ZM108 5V40H110V5H108ZM104 44H44V46H104V44ZM40 40V5H38V40H40ZM44 44C41.7909 44 40 42.2091 40 40H38C38 43.3137 40.6863 46 44 46V44ZM108 40C108 42.2091 106.209 44 104 44V46C107.314 46 110 43.3137 110 40H108ZM104 1C106.209 1 108 2.79086 108 5H110C110 1.68629 107.314 -1 104 -1V1ZM44 -1C40.6863 -1 38 1.68629 38 5H40C40 2.79086 41.7909 1 44 1V-1Z" fill="#369CB7"/>
<path d="M39 75C39 72.2386 41.2386 70 44 70H104C106.761 70 109 72.2386 109 75V110C109 112.761 106.761 115 104 115H44C41.2386 115 39 112.761 39 110V75Z" fill="#369CB7"/>
<path d="M67.1023 87.87H80.9323V90.87H67.1023V87.87ZM67.1023 95.13H80.9323V98.13H67.1023V95.13Z" fill="white"/>
<path d="M44 71H104V69H44V71ZM108 75V110H110V75H108ZM104 114H44V116H104V114ZM40 110V75H38V110H40ZM44 114C41.7909 114 40 112.209 40 110H38C38 113.314 40.6863 116 44 116V114ZM108 110C108 112.209 106.209 114 104 114V116C107.314 116 110 113.314 110 110H108ZM104 71C106.209 71 108 72.7909 108 75H110C110 71.6863 107.314 69 104 69V71ZM44 69C40.6863 69 38 71.6863 38 75H40C40 72.7909 41.7909 71 44 71V69Z" fill="#369CB7"/>
<path d="M288 5C288 2.23858 290.239 0 293 0H353C355.761 0 358 2.23858 358 5V40C358 42.7614 355.761 45 353 45H293C290.239 45 288 42.7614 288 40V5Z" fill="#369CB7"/>
<path d="M325.702 20.87L323.422 25.13H329.932V28.13H321.832L320.002 31.58H316.912L318.742 28.13H316.102V25.13H320.362L322.612 20.87H316.102V17.87H324.232L326.062 14.42H329.122L327.292 17.87H329.932V20.87H325.702Z" fill="white"/>
<path d="M293 1H353V-1H293V1ZM357 5V40H359V5H357ZM353 44H293V46H353V44ZM289 40V5H287V40H289ZM293 44C290.791 44 289 42.2091 289 40H287C287 43.3137 289.686 46 293 46V44ZM357 40C357 42.2091 355.209 44 353 44V46C356.314 46 359 43.3137 359 40H357ZM353 1C355.209 1 357 2.79086 357 5H359C359 1.68629 356.314 -1 353 -1V1ZM293 -1C289.686 -1 287 1.68629 287 5H289C289 2.79086 290.791 1 293 1V-1Z" fill="#369CB7"/>
<path d="M288 75C288 72.2386 290.239 70 293 70H353C355.761 70 358 72.2386 358 75V110C358 112.761 355.761 115 353 115H293C290.239 115 288 112.761 288 110V75Z" fill="#369CB7"/>
<path d="M316.102 87.87H329.932V90.87H316.102V87.87ZM316.102 95.13H329.932V98.13H316.102V95.13Z" fill="white"/>
<path d="M293 71H353V69H293V71ZM357 75V110H359V75H357ZM353 114H293V116H353V114ZM289 110V75H287V110H289ZM293 114C290.791 114 289 112.209 289 110H287C287 113.314 289.686 116 293 116V114ZM357 110C357 112.209 355.209 114 353 114V116C356.314 116 359 113.314 359 110H357ZM353 71C355.209 71 357 72.7909 357 75H359C359 71.6863 356.314 69 353 69V71ZM293 69C289.686 69 287 71.6863 287 75H289C289 72.7909 290.791 71 293 71V69Z" fill="#369CB7"/>
</svg>
