<svg width="24" height="43" viewBox="0 0 24 43" fill="none" xmlns="http://www.w3.org/2000/svg">
<path d="M18.785 12.154H16.391V15.25H14.645V12.154H7.64298V10.894L14.087 2.65H16.031L9.85698 10.606H14.699V7.87H16.391V10.606H18.785V12.154Z" fill="#2F2F2F"/>
<path d="M12.1281 31.672C13.9281 31.672 15.2481 32.014 16.0881 32.698C16.9401 33.37 17.3661 34.294 17.3661 35.47C17.3661 36.214 17.1861 36.886 16.8261 37.486C16.4781 38.074 15.9441 38.542 15.2241 38.89C14.5161 39.226 13.6401 39.394 12.5961 39.394C11.7081 39.394 10.8501 39.262 10.0221 38.998C9.19406 38.722 8.51006 38.344 7.97006 37.864L8.79806 36.442C9.23006 36.85 9.78206 37.18 10.4541 37.432C11.1261 37.672 11.8341 37.792 12.5781 37.792C13.5261 37.792 14.2581 37.594 14.7741 37.198C15.3021 36.79 15.5661 36.238 15.5661 35.542C15.5661 34.786 15.2781 34.216 14.7021 33.832C14.1261 33.436 13.1421 33.238 11.7501 33.238H8.88806L9.55406 26.65H16.6641V28.216H11.0661L10.7241 31.672H12.1281Z" fill="#2F2F2F"/>
<line y1="20.75" x2="24" y2="20.75" stroke="#3C3C3C"/>
</svg>
