<svg width="24" height="42" viewBox="0 0 24 42" fill="none" xmlns="http://www.w3.org/2000/svg">
<path d="M14.3872 7.692C15.6232 7.812 16.5652 8.196 17.2132 8.844C17.8612 9.48 18.1852 10.296 18.1852 11.292C18.1852 12.012 18.0052 12.666 17.6452 13.254C17.2852 13.83 16.7452 14.292 16.0252 14.64C15.3172 14.976 14.4472 15.144 13.4152 15.144C12.5152 15.144 11.6512 15.012 10.8232 14.748C9.99522 14.472 9.31722 14.094 8.78922 13.614L9.61722 12.192C10.0492 12.6 10.6012 12.93 11.2732 13.182C11.9452 13.422 12.6592 13.542 13.4152 13.542C14.3512 13.542 15.0772 13.344 15.5932 12.948C16.1212 12.552 16.3852 12.006 16.3852 11.31C16.3852 10.614 16.1272 10.074 15.6112 9.69C15.0952 9.306 14.3152 9.114 13.2712 9.114H12.2632V7.854L15.4312 3.966H9.36522V2.4H17.6812V3.624L14.3872 7.692Z" fill="#2F2F2F"/>
<path d="M12.1281 31.422C13.9281 31.422 15.2481 31.764 16.0881 32.448C16.9401 33.12 17.3661 34.044 17.3661 35.22C17.3661 35.964 17.1861 36.636 16.8261 37.236C16.4781 37.824 15.9441 38.292 15.2241 38.64C14.5161 38.976 13.6401 39.144 12.5961 39.144C11.7081 39.144 10.8501 39.012 10.0221 38.748C9.19406 38.472 8.51006 38.094 7.97006 37.614L8.79806 36.192C9.23006 36.6 9.78206 36.93 10.4541 37.182C11.1261 37.422 11.8341 37.542 12.5781 37.542C13.5261 37.542 14.2581 37.344 14.7741 36.948C15.3021 36.54 15.5661 35.988 15.5661 35.292C15.5661 34.536 15.2781 33.966 14.7021 33.582C14.1261 33.186 13.1421 32.988 11.7501 32.988H8.88806L9.55406 26.4H16.6641V27.966H11.0661L10.7241 31.422H12.1281Z" fill="#2F2F2F"/>
<line y1="20.5" x2="24" y2="20.5" stroke="#3C3C3C"/>
</svg>
