<svg width="24" height="43" viewBox="0 0 24 43" fill="none" xmlns="http://www.w3.org/2000/svg">
<path d="M7.57203 2.9V15.5H5.79003V4.466H2.94603V2.9H7.57203ZM17.0061 15.644C16.0101 15.644 15.1221 15.392 14.3421 14.888C13.5741 14.372 12.9681 13.628 12.5241 12.656C12.0801 11.684 11.8581 10.532 11.8581 9.2C11.8581 7.868 12.0801 6.716 12.5241 5.744C12.9681 4.772 13.5741 4.034 14.3421 3.53C15.1221 3.014 16.0101 2.756 17.0061 2.756C17.9901 2.756 18.8661 3.014 19.6341 3.53C20.4141 4.034 21.0261 4.772 21.4701 5.744C21.9141 6.716 22.1361 7.868 22.1361 9.2C22.1361 10.532 21.9141 11.684 21.4701 12.656C21.0261 13.628 20.4141 14.372 19.6341 14.888C18.8661 15.392 17.9901 15.644 17.0061 15.644ZM17.0061 14.042C18.0141 14.042 18.8181 13.628 19.4181 12.8C20.0301 11.972 20.3361 10.772 20.3361 9.2C20.3361 7.628 20.0301 6.428 19.4181 5.6C18.8181 4.772 18.0141 4.358 17.0061 4.358C15.9861 4.358 15.1701 4.772 14.5581 5.6C13.9581 6.428 13.6581 7.628 13.6581 9.2C13.6581 10.772 13.9581 11.972 14.5581 12.8C15.1701 13.628 15.9861 14.042 17.0061 14.042Z" fill="#2F2F2F"/>
<path d="M6.53687 26.9V39.5H4.75487V28.466H1.91087V26.9H6.53687ZM21.785 36.404H19.391V39.5H17.645V36.404H10.643V35.144L17.087 26.9H19.031L12.857 34.856H17.699V32.12H19.391V34.856H21.785V36.404Z" fill="#2F2F2F"/>
<line y1="20.5" x2="24" y2="20.5" stroke="#3C3C3C"/>
</svg>
