<svg width="24" height="42" viewBox="0 0 24 42" fill="none" xmlns="http://www.w3.org/2000/svg">
<path d="M18.3841 13.434V15H9.33006V13.776L14.4601 8.826C15.0841 8.226 15.5041 7.71 15.7201 7.278C15.9361 6.834 16.0441 6.39 16.0441 5.946C16.0441 5.286 15.8101 4.776 15.3421 4.416C14.8861 4.044 14.2261 3.858 13.3621 3.858C11.9701 3.858 10.8961 4.314 10.1401 5.226L8.91606 4.164C9.40806 3.564 10.0501 3.096 10.8421 2.76C11.6461 2.424 12.5401 2.256 13.5241 2.256C14.8441 2.256 15.8941 2.574 16.6741 3.21C17.4541 3.834 17.8441 4.686 17.8441 5.766C17.8441 6.438 17.7001 7.074 17.4121 7.674C17.1241 8.274 16.5781 8.958 15.7741 9.726L11.9221 13.434H18.3841Z" fill="#2F2F2F"/>
<path d="M13.3872 31.692C14.6232 31.812 15.5652 32.196 16.2132 32.844C16.8612 33.48 17.1852 34.296 17.1852 35.292C17.1852 36.012 17.0052 36.666 16.6452 37.254C16.2852 37.83 15.7452 38.292 15.0252 38.64C14.3172 38.976 13.4472 39.144 12.4152 39.144C11.5152 39.144 10.6512 39.012 9.82322 38.748C8.99522 38.472 8.31722 38.094 7.78922 37.614L8.61722 36.192C9.04922 36.6 9.60122 36.93 10.2732 37.182C10.9452 37.422 11.6592 37.542 12.4152 37.542C13.3512 37.542 14.0772 37.344 14.5932 36.948C15.1212 36.552 15.3852 36.006 15.3852 35.31C15.3852 34.614 15.1272 34.074 14.6112 33.69C14.0952 33.306 13.3152 33.114 12.2712 33.114H11.2632V31.854L14.4312 27.966H8.36522V26.4H16.6812V27.624L13.3872 31.692Z" fill="#2F2F2F"/>
<line y1="20.5" x2="24" y2="20.5" stroke="#3C3C3C"/>
</svg>
