<svg width="24" height="43" viewBox="0 0 24 43" fill="none" xmlns="http://www.w3.org/2000/svg">
<path d="M13.1281 7.922C14.9281 7.922 16.2481 8.264 17.0881 8.948C17.9401 9.62 18.3661 10.544 18.3661 11.72C18.3661 12.464 18.1861 13.136 17.8261 13.736C17.4781 14.324 16.9441 14.792 16.2241 15.14C15.5161 15.476 14.6401 15.644 13.5961 15.644C12.7081 15.644 11.8501 15.512 11.0221 15.248C10.1941 14.972 9.51006 14.594 8.97006 14.114L9.79806 12.692C10.2301 13.1 10.7821 13.43 11.4541 13.682C12.1261 13.922 12.8341 14.042 13.5781 14.042C14.5261 14.042 15.2581 13.844 15.7741 13.448C16.3021 13.04 16.5661 12.488 16.5661 11.792C16.5661 11.036 16.2781 10.466 15.7021 10.082C15.1261 9.686 14.1421 9.488 12.7501 9.488H9.88806L10.5541 2.9H17.6641V4.466H12.0661L11.7241 7.922H13.1281Z" fill="#2F2F2F"/>
<path d="M13.1906 31.85C14.0186 31.85 14.7566 32.006 15.4046 32.318C16.0646 32.63 16.5806 33.08 16.9526 33.668C17.3246 34.244 17.5106 34.91 17.5106 35.666C17.5106 36.458 17.3126 37.154 16.9166 37.754C16.5326 38.354 15.9986 38.822 15.3146 39.158C14.6426 39.482 13.8866 39.644 13.0466 39.644C11.3546 39.644 10.0466 39.098 9.12263 38.006C8.21063 36.914 7.75463 35.366 7.75463 33.362C7.75463 31.958 8.00063 30.764 8.49263 29.78C8.99663 28.784 9.69263 28.034 10.5806 27.53C11.4806 27.014 12.5246 26.756 13.7126 26.756C14.3246 26.756 14.9006 26.822 15.4406 26.954C15.9806 27.074 16.4486 27.254 16.8446 27.494L16.1606 28.898C15.5606 28.502 14.7566 28.304 13.7486 28.304C12.4406 28.304 11.4146 28.712 10.6706 29.528C9.92663 30.332 9.55463 31.508 9.55463 33.056C9.55463 33.248 9.56063 33.398 9.57263 33.506C9.93263 32.966 10.4246 32.558 11.0486 32.282C11.6846 31.994 12.3986 31.85 13.1906 31.85ZM12.9746 38.186C13.8026 38.186 14.4746 37.964 14.9906 37.52C15.5066 37.076 15.7646 36.482 15.7646 35.738C15.7646 34.994 15.5006 34.406 14.9726 33.974C14.4566 33.53 13.7606 33.308 12.8846 33.308C12.3206 33.308 11.8166 33.416 11.3726 33.632C10.9406 33.848 10.5986 34.142 10.3466 34.514C10.1066 34.886 9.98663 35.3 9.98663 35.756C9.98663 36.2 10.1006 36.608 10.3286 36.98C10.5686 37.34 10.9106 37.634 11.3546 37.862C11.8106 38.078 12.3506 38.186 12.9746 38.186Z" fill="#2F2F2F"/>
<line y1="21" x2="24" y2="21" stroke="#3C3C3C"/>
</svg>
