<svg width="25" height="43" viewBox="0 0 25 43" fill="none" xmlns="http://www.w3.org/2000/svg">
<path d="M8.46852 2.4V15H6.68652V3.966H3.84251V2.4H8.46852ZM18.1906 7.35C19.0186 7.35 19.7566 7.506 20.4046 7.818C21.0646 8.13 21.5806 8.58 21.9526 9.168C22.3246 9.744 22.5106 10.41 22.5106 11.166C22.5106 11.958 22.3126 12.654 21.9166 13.254C21.5326 13.854 20.9986 14.322 20.3146 14.658C19.6426 14.982 18.8866 15.144 18.0466 15.144C16.3546 15.144 15.0466 14.598 14.1226 13.506C13.2106 12.414 12.7546 10.866 12.7546 8.862C12.7546 7.458 13.0006 6.264 13.4926 5.28C13.9966 4.284 14.6926 3.534 15.5806 3.03C16.4806 2.514 17.5246 2.256 18.7126 2.256C19.3246 2.256 19.9006 2.322 20.4406 2.454C20.9806 2.574 21.4486 2.754 21.8446 2.994L21.1606 4.398C20.5606 4.002 19.7566 3.804 18.7486 3.804C17.4406 3.804 16.4146 4.212 15.6706 5.028C14.9266 5.832 14.5546 7.008 14.5546 8.556C14.5546 8.748 14.5606 8.898 14.5726 9.006C14.9326 8.466 15.4246 8.058 16.0486 7.782C16.6846 7.494 17.3986 7.35 18.1906 7.35ZM17.9746 13.686C18.8026 13.686 19.4746 13.464 19.9906 13.02C20.5066 12.576 20.7646 11.982 20.7646 11.238C20.7646 10.494 20.5006 9.906 19.9726 9.474C19.4566 9.03 18.7606 8.808 17.8846 8.808C17.3206 8.808 16.8166 8.916 16.3726 9.132C15.9406 9.348 15.5986 9.642 15.3466 10.014C15.1066 10.386 14.9866 10.8 14.9866 11.256C14.9866 11.7 15.1006 12.108 15.3286 12.48C15.5686 12.84 15.9106 13.134 16.3546 13.362C16.8106 13.578 17.3506 13.686 17.9746 13.686Z" fill="#2F2F2F"/>
<path d="M9.90094 37.934V39.5H0.846937V38.276L5.97694 33.326C6.60094 32.726 7.02094 32.21 7.23694 31.778C7.45294 31.334 7.56094 30.89 7.56094 30.446C7.56094 29.786 7.32694 29.276 6.85894 28.916C6.40294 28.544 5.74294 28.358 4.87894 28.358C3.48694 28.358 2.41294 28.814 1.65694 29.726L0.432937 28.664C0.924937 28.064 1.56694 27.596 2.35894 27.26C3.16294 26.924 4.05694 26.756 5.04094 26.756C6.36094 26.756 7.41094 27.074 8.19094 27.71C8.97094 28.334 9.36094 29.186 9.36094 30.266C9.36094 30.938 9.21694 31.574 8.92894 32.174C8.64094 32.774 8.09494 33.458 7.29094 34.226L3.43894 37.934H9.90094ZM18.0061 39.644C17.0101 39.644 16.1221 39.392 15.3421 38.888C14.5741 38.372 13.9681 37.628 13.5241 36.656C13.0801 35.684 12.8581 34.532 12.8581 33.2C12.8581 31.868 13.0801 30.716 13.5241 29.744C13.9681 28.772 14.5741 28.034 15.3421 27.53C16.1221 27.014 17.0101 26.756 18.0061 26.756C18.9901 26.756 19.8661 27.014 20.6341 27.53C21.4141 28.034 22.0261 28.772 22.4701 29.744C22.9141 30.716 23.1361 31.868 23.1361 33.2C23.1361 34.532 22.9141 35.684 22.4701 36.656C22.0261 37.628 21.4141 38.372 20.6341 38.888C19.8661 39.392 18.9901 39.644 18.0061 39.644ZM18.0061 38.042C19.0141 38.042 19.8181 37.628 20.4181 36.8C21.0301 35.972 21.3361 34.772 21.3361 33.2C21.3361 31.628 21.0301 30.428 20.4181 29.6C19.8181 28.772 19.0141 28.358 18.0061 28.358C16.9861 28.358 16.1701 28.772 15.5581 29.6C14.9581 30.428 14.6581 31.628 14.6581 33.2C14.6581 34.772 14.9581 35.972 15.5581 36.8C16.1701 37.628 16.9861 38.042 18.0061 38.042Z" fill="#2F2F2F"/>
<line x1="1" y1="20.5" x2="25" y2="20.5" stroke="#3C3C3C"/>
</svg>
