<svg width="24" height="42" viewBox="0 0 24 42" fill="none" xmlns="http://www.w3.org/2000/svg">
<path d="M8.24195 2.4V15H6.45995V3.966H3.61595V2.4H8.24195ZM21.3841 13.434V15H12.3301V13.776L17.4601 8.826C18.0841 8.226 18.5041 7.71 18.7201 7.278C18.9361 6.834 19.0441 6.39 19.0441 5.946C19.0441 5.286 18.8101 4.776 18.3421 4.416C17.8861 4.044 17.2261 3.858 16.3621 3.858C14.9701 3.858 13.8961 4.314 13.1401 5.226L11.9161 4.164C12.4081 3.564 13.0501 3.096 13.8421 2.76C14.6461 2.424 15.5401 2.256 16.5241 2.256C17.8441 2.256 18.8941 2.574 19.6741 3.21C20.4541 3.834 20.8441 4.686 20.8441 5.766C20.8441 6.438 20.7001 7.074 20.4121 7.674C20.1241 8.274 19.5781 8.958 18.7741 9.726L14.9221 13.434H21.3841Z" fill="#2F2F2F"/>
<path d="M7.24195 26.4V39H5.45995V27.966H2.61595V26.4H7.24195ZM15.1281 31.422C16.9281 31.422 18.2481 31.764 19.0881 32.448C19.9401 33.12 20.3661 34.044 20.3661 35.22C20.3661 35.964 20.1861 36.636 19.8261 37.236C19.4781 37.824 18.9441 38.292 18.2241 38.64C17.5161 38.976 16.6401 39.144 15.5961 39.144C14.7081 39.144 13.8501 39.012 13.0221 38.748C12.1941 38.472 11.5101 38.094 10.9701 37.614L11.7981 36.192C12.2301 36.6 12.7821 36.93 13.4541 37.182C14.1261 37.422 14.8341 37.542 15.5781 37.542C16.5261 37.542 17.2581 37.344 17.7741 36.948C18.3021 36.54 18.5661 35.988 18.5661 35.292C18.5661 34.536 18.2781 33.966 17.7021 33.582C17.1261 33.186 16.1421 32.988 14.7501 32.988H11.8881L12.5541 26.4H19.6641V27.966H14.0661L13.7241 31.422H15.1281Z" fill="#2F2F2F"/>
<line y1="20" x2="24" y2="20" stroke="#3C3C3C"/>
</svg>
