<svg width="24" height="42" viewBox="0 0 24 42" fill="none" xmlns="http://www.w3.org/2000/svg">
<path d="M6.53687 2.4V15H4.75487V3.966H1.91087V2.4H6.53687ZM21.785 11.904H19.391V15H17.645V11.904H10.643V10.644L17.087 2.4H19.031L12.857 10.356H17.699V7.62H19.391V10.356H21.785V11.904Z" fill="#2F2F2F"/>
<path d="M12.192 37.434V39H3.13795V37.776L8.26795 32.826C8.89195 32.226 9.31195 31.71 9.52795 31.278C9.74395 30.834 9.85195 30.39 9.85195 29.946C9.85195 29.286 9.61795 28.776 9.14995 28.416C8.69395 28.044 8.03395 27.858 7.16995 27.858C5.77795 27.858 4.70395 28.314 3.94795 29.226L2.72395 28.164C3.21595 27.564 3.85795 27.096 4.64995 26.76C5.45395 26.424 6.34795 26.256 7.33195 26.256C8.65195 26.256 9.70195 26.574 10.482 27.21C11.262 27.834 11.652 28.686 11.652 29.766C11.652 30.438 11.508 31.074 11.22 31.674C10.932 32.274 10.386 32.958 9.58195 33.726L5.72995 37.434H12.192ZM19.1079 26.4V39H17.3259V27.966H14.4819V26.4H19.1079Z" fill="#2F2F2F"/>
<line y1="20.5" x2="24" y2="20.5" stroke="#3C3C3C"/>
</svg>
