<svg width="142" height="31" viewBox="0 0 142 31" fill="none" xmlns="http://www.w3.org/2000/svg">
<path d="M10.1599 18.1602H3.8599L2.6179 21.0762H0.205898L5.8759 8.47617H8.1799L13.8679 21.0762H11.4199L10.1599 18.1602ZM9.3859 16.3242L7.0099 10.8162L4.6519 16.3242H9.3859ZM20.7083 11.3562C21.9203 11.3562 22.8923 11.7102 23.6243 12.4182C24.3563 13.1262 24.7223 14.1762 24.7223 15.5682V21.0762H22.4723V15.8562C22.4723 15.0162 22.2743 14.3862 21.8783 13.9662C21.4823 13.5342 20.9183 13.3182 20.1863 13.3182C19.3583 13.3182 18.7043 13.5702 18.2243 14.0742C17.7443 14.5662 17.5043 15.2802 17.5043 16.2162V21.0762H15.2543V11.4642H17.3963V12.7062C17.7683 12.2622 18.2363 11.9262 18.8003 11.6982C19.3643 11.4702 20.0003 11.3562 20.7083 11.3562ZM30.5466 21.2022C29.7666 21.2022 29.0046 21.1002 28.2606 20.8962C27.5166 20.6922 26.9226 20.4342 26.4786 20.1222L27.3426 18.4122C27.7746 18.7002 28.2906 18.9342 28.8906 19.1142C29.5026 19.2822 30.1026 19.3662 30.6906 19.3662C32.0346 19.3662 32.7066 19.0122 32.7066 18.3042C32.7066 17.9682 32.5326 17.7342 32.1846 17.6022C31.8486 17.4702 31.3026 17.3442 30.5466 17.2242C29.7546 17.1042 29.1066 16.9662 28.6026 16.8102C28.1106 16.6542 27.6786 16.3842 27.3066 16.0002C26.9466 15.6042 26.7666 15.0582 26.7666 14.3622C26.7666 13.4502 27.1446 12.7242 27.9006 12.1842C28.6686 11.6322 29.7006 11.3562 30.9966 11.3562C31.6566 11.3562 32.3166 11.4342 32.9766 11.5902C33.6366 11.7342 34.1766 11.9322 34.5966 12.1842L33.7326 13.8942C32.9166 13.4142 31.9986 13.1742 30.9786 13.1742C30.3186 13.1742 29.8146 13.2762 29.4666 13.4802C29.1306 13.6722 28.9626 13.9302 28.9626 14.2542C28.9626 14.6142 29.1426 14.8722 29.5026 15.0282C29.8746 15.1722 30.4446 15.3102 31.2126 15.4422C31.9806 15.5622 32.6106 15.7002 33.1026 15.8562C33.5946 16.0122 34.0146 16.2762 34.3626 16.6482C34.7226 17.0202 34.9026 17.5482 34.9026 18.2322C34.9026 19.1322 34.5126 19.8522 33.7326 20.3922C32.9526 20.9322 31.8906 21.2022 30.5466 21.2022ZM51.6585 11.4642L48.1125 21.0762H45.9525L43.4685 14.4522L40.9485 21.0762H38.7885L35.2605 11.4642H37.3845L39.9225 18.5562L42.5685 11.4642H44.4585L47.0505 18.5922L49.6605 11.4642H51.6585ZM61.9778 16.3242C61.9778 16.4802 61.9658 16.7022 61.9418 16.9902H54.3998C54.5318 17.6982 54.8738 18.2622 55.4258 18.6822C55.9898 19.0902 56.6858 19.2942 57.5138 19.2942C58.5698 19.2942 59.4398 18.9462 60.1238 18.2502L61.3298 19.6362C60.8978 20.1522 60.3518 20.5422 59.6918 20.8062C59.0318 21.0702 58.2878 21.2022 57.4598 21.2022C56.4038 21.2022 55.4738 20.9922 54.6698 20.5722C53.8658 20.1522 53.2418 19.5702 52.7978 18.8262C52.3658 18.0702 52.1498 17.2182 52.1498 16.2702C52.1498 15.3342 52.3598 14.4942 52.7798 13.7502C53.2118 12.9942 53.8058 12.4062 54.5618 11.9862C55.3178 11.5662 56.1698 11.3562 57.1178 11.3562C58.0538 11.3562 58.8878 11.5662 59.6198 11.9862C60.3638 12.3942 60.9398 12.9762 61.3478 13.7322C61.7678 14.4762 61.9778 15.3402 61.9778 16.3242ZM57.1178 13.1562C56.3978 13.1562 55.7858 13.3722 55.2818 13.8042C54.7898 14.2242 54.4898 14.7882 54.3818 15.4962H59.8358C59.7398 14.8002 59.4458 14.2362 58.9538 13.8042C58.4618 13.3722 57.8498 13.1562 57.1178 13.1562ZM66.2811 12.8682C66.9291 11.8602 68.0691 11.3562 69.7011 11.3562V13.4982C69.5091 13.4622 69.3351 13.4442 69.1791 13.4442C68.3031 13.4442 67.6191 13.7022 67.1271 14.2182C66.6351 14.7222 66.3891 15.4542 66.3891 16.4142V21.0762H64.1391V11.4642H66.2811V12.8682ZM72.5056 14.3442C72.0976 14.3442 71.7496 14.2062 71.4616 13.9302C71.1736 13.6422 71.0296 13.2822 71.0296 12.8502C71.0296 12.4062 71.1676 12.0462 71.4436 11.7702C71.7316 11.4942 72.0856 11.3562 72.5056 11.3562C72.9256 11.3562 73.2736 11.4942 73.5496 11.7702C73.8376 12.0462 73.9816 12.4062 73.9816 12.8502C73.9816 13.2822 73.8376 13.6422 73.5496 13.9302C73.2616 14.2062 72.9136 14.3442 72.5056 14.3442ZM72.5056 21.2022C72.0976 21.2022 71.7496 21.0642 71.4616 20.7882C71.1736 20.5002 71.0296 20.1402 71.0296 19.7082C71.0296 19.2642 71.1676 18.9042 71.4436 18.6282C71.7316 18.3522 72.0856 18.2142 72.5056 18.2142C72.9256 18.2142 73.2736 18.3522 73.5496 18.6282C73.8376 18.9042 73.9816 19.2642 73.9816 19.7082C73.9816 20.1402 73.8376 20.5002 73.5496 20.7882C73.2616 21.0642 72.9136 21.2022 72.5056 21.2022Z" fill="#2F2F2F"/>
<path d="M90.0051 1.13983L136.851 1.01351L136.841 -0.986463L89.9948 -0.860148L90.0051 1.13983ZM140.872 5.00267L140.974 25.0026L142.974 24.9972L142.872 4.99728L140.872 5.00267ZM136.995 29.0133L90.149 29.1396L90.1593 31.1396L137.005 31.0133L136.995 29.0133ZM86.1285 25.1505L86.0257 5.15056L84.0257 5.15595L84.1285 25.1559L86.1285 25.1505ZM90.149 29.1396C87.9399 29.1456 86.1398 27.3596 86.1285 25.1505L84.1285 25.1559C84.1455 28.4695 86.8456 31.1486 90.1593 31.1396L90.149 29.1396ZM140.974 25.0026C140.986 27.2117 139.204 29.0074 136.995 29.0133L137.005 31.0133C140.319 31.0044 142.991 28.3109 142.974 24.9972L140.974 25.0026ZM136.851 1.01351C139.06 1.00755 140.86 2.79356 140.872 5.00267L142.872 4.99728C142.854 1.68361 140.154 -0.995398 136.841 -0.986463L136.851 1.01351ZM89.9948 -0.860148C86.6811 -0.851213 84.0087 1.84229 84.0257 5.15595L86.0257 5.15056C86.0143 2.94145 87.796 1.14578 90.0051 1.13983L89.9948 -0.860148Z" fill="#2F2F2F"/>
<path d="M108.635 13.224C109.463 13.224 110.207 13.386 110.867 13.71C111.527 14.022 112.043 14.472 112.415 15.06C112.787 15.648 112.973 16.326 112.973 17.094C112.973 17.91 112.769 18.63 112.361 19.254C111.953 19.866 111.401 20.34 110.705 20.676C110.009 21.012 109.229 21.18 108.365 21.18C106.637 21.18 105.293 20.64 104.333 19.56C103.385 18.48 102.911 16.932 102.911 14.916C102.911 13.5 103.169 12.294 103.685 11.298C104.201 10.29 104.921 9.528 105.845 9.012C106.781 8.484 107.861 8.22 109.085 8.22C109.733 8.22 110.339 8.292 110.903 8.436C111.479 8.568 111.977 8.766 112.397 9.03L111.533 10.794C110.909 10.386 110.111 10.182 109.139 10.182C107.927 10.182 106.979 10.554 106.295 11.298C105.611 12.042 105.269 13.116 105.269 14.52V14.538C105.641 14.106 106.115 13.782 106.691 13.566C107.267 13.338 107.915 13.224 108.635 13.224ZM108.239 19.344C108.971 19.344 109.565 19.152 110.021 18.768C110.477 18.372 110.705 17.85 110.705 17.202C110.705 16.542 110.477 16.02 110.021 15.636C109.565 15.252 108.953 15.06 108.185 15.06C107.429 15.06 106.811 15.264 106.331 15.672C105.863 16.08 105.629 16.596 105.629 17.22C105.629 17.832 105.857 18.342 106.313 18.75C106.781 19.146 107.423 19.344 108.239 19.344ZM123.322 19.02V21H114.034V19.434L119.038 14.682C119.602 14.142 119.98 13.674 120.172 13.278C120.376 12.87 120.478 12.468 120.478 12.072C120.478 11.484 120.28 11.034 119.884 10.722C119.488 10.41 118.906 10.254 118.138 10.254C116.854 10.254 115.87 10.692 115.186 11.568L113.548 10.308C114.04 9.648 114.7 9.138 115.528 8.778C116.368 8.406 117.304 8.22 118.336 8.22C119.704 8.22 120.796 8.544 121.612 9.192C122.428 9.84 122.836 10.722 122.836 11.838C122.836 12.522 122.692 13.164 122.404 13.764C122.116 14.364 121.564 15.048 120.748 15.816L117.382 19.02H123.322Z" fill="#2F2F2F"/>
</svg>
