<svg width="372" height="45" viewBox="0 0 372 45" fill="none" xmlns="http://www.w3.org/2000/svg">
<rect x="0.5" y="0.5" width="77" height="44" rx="4.5" fill="white"/>
<path d="M16.1235 21.192C17.3595 21.312 18.3015 21.696 18.9495 22.344C19.5975 22.98 19.9215 23.796 19.9215 24.792C19.9215 25.512 19.7415 26.166 19.3815 26.754C19.0215 27.33 18.4815 27.792 17.7615 28.14C17.0535 28.476 16.1835 28.644 15.1515 28.644C14.2515 28.644 13.3875 28.512 12.5595 28.248C11.7315 27.972 11.0535 27.594 10.5255 27.114L11.3535 25.692C11.7855 26.1 12.3375 26.43 13.0095 26.682C13.6815 26.922 14.3955 27.042 15.1515 27.042C16.0875 27.042 16.8135 26.844 17.3295 26.448C17.8575 26.052 18.1215 25.506 18.1215 24.81C18.1215 24.114 17.8635 23.574 17.3475 23.19C16.8315 22.806 16.0515 22.614 15.0075 22.614H13.9995V21.354L17.1675 17.466H11.1015V15.9H19.4175V17.124L16.1235 21.192ZM32.5623 25.404H30.1683V28.5H28.4223V25.404H21.4203V24.144L27.8643 15.9H29.8083L23.6343 23.856H28.4763V21.12H30.1683V23.856H32.5623V25.404ZM39.6633 21.336C39.3273 21.336 39.0393 21.222 38.7993 20.994C38.5593 20.754 38.4393 20.454 38.4393 20.094C38.4393 19.746 38.5593 19.458 38.7993 19.23C39.0393 18.99 39.3273 18.87 39.6633 18.87C39.9993 18.87 40.2813 18.984 40.5093 19.212C40.7373 19.44 40.8513 19.734 40.8513 20.094C40.8513 20.454 40.7313 20.754 40.4913 20.994C40.2633 21.222 39.9873 21.336 39.6633 21.336ZM39.6633 28.608C39.3273 28.608 39.0393 28.494 38.7993 28.266C38.5593 28.026 38.4393 27.726 38.4393 27.366C38.4393 27.018 38.5593 26.73 38.7993 26.502C39.0393 26.262 39.3273 26.142 39.6633 26.142C39.9993 26.142 40.2813 26.256 40.5093 26.484C40.7373 26.712 40.8513 27.006 40.8513 27.366C40.8513 27.726 40.7313 28.026 40.4913 28.266C40.2633 28.494 39.9873 28.608 39.6633 28.608ZM56.2434 26.934V28.5H47.1894V27.276L52.3194 22.326C52.9434 21.726 53.3634 21.21 53.5794 20.778C53.7954 20.334 53.9034 19.89 53.9034 19.446C53.9034 18.786 53.6694 18.276 53.2014 17.916C52.7454 17.544 52.0854 17.358 51.2214 17.358C49.8294 17.358 48.7554 17.814 47.9994 18.726L46.7754 17.664C47.2674 17.064 47.9094 16.596 48.7014 16.26C49.5054 15.924 50.3994 15.756 51.3834 15.756C52.7034 15.756 53.7534 16.074 54.5334 16.71C55.3134 17.334 55.7034 18.186 55.7034 19.266C55.7034 19.938 55.5594 20.574 55.2714 21.174C54.9834 21.774 54.4374 22.458 53.6334 23.226L49.7814 26.934H56.2434ZM66.8506 15.9V17.124L61.7566 28.5H59.8486L64.8346 17.466H59.0746V19.716H57.3466V15.9H66.8506Z" fill="#2F2F2F"/>
<rect x="0.5" y="0.5" width="77" height="44" rx="4.5" stroke="#2F2F2F"/>
<rect x="98.5" y="0.5" width="77" height="44" rx="4.5" fill="white"/>
<path d="M119.368 26.934V28.5H110.314V27.276L115.444 22.326C116.068 21.726 116.488 21.21 116.704 20.778C116.92 20.334 117.028 19.89 117.028 19.446C117.028 18.786 116.794 18.276 116.326 17.916C115.87 17.544 115.21 17.358 114.346 17.358C112.954 17.358 111.88 17.814 111.124 18.726L109.9 17.664C110.392 17.064 111.034 16.596 111.826 16.26C112.63 15.924 113.524 15.756 114.508 15.756C115.828 15.756 116.878 16.074 117.658 16.71C118.438 17.334 118.828 18.186 118.828 19.266C118.828 19.938 118.684 20.574 118.396 21.174C118.108 21.774 117.562 22.458 116.758 23.226L112.906 26.934H119.368ZM125.944 28.644C124.948 28.644 124.06 28.392 123.28 27.888C122.512 27.372 121.906 26.628 121.462 25.656C121.018 24.684 120.796 23.532 120.796 22.2C120.796 20.868 121.018 19.716 121.462 18.744C121.906 17.772 122.512 17.034 123.28 16.53C124.06 16.014 124.948 15.756 125.944 15.756C126.928 15.756 127.804 16.014 128.572 16.53C129.352 17.034 129.964 17.772 130.408 18.744C130.852 19.716 131.074 20.868 131.074 22.2C131.074 23.532 130.852 24.684 130.408 25.656C129.964 26.628 129.352 27.372 128.572 27.888C127.804 28.392 126.928 28.644 125.944 28.644ZM125.944 27.042C126.952 27.042 127.756 26.628 128.356 25.8C128.968 24.972 129.274 23.772 129.274 22.2C129.274 20.628 128.968 19.428 128.356 18.6C127.756 17.772 126.952 17.358 125.944 17.358C124.924 17.358 124.108 17.772 123.496 18.6C122.896 19.428 122.596 20.628 122.596 22.2C122.596 23.772 122.896 24.972 123.496 25.8C124.108 26.628 124.924 27.042 125.944 27.042ZM138.823 21.336C138.487 21.336 138.199 21.222 137.959 20.994C137.719 20.754 137.599 20.454 137.599 20.094C137.599 19.746 137.719 19.458 137.959 19.23C138.199 18.99 138.487 18.87 138.823 18.87C139.159 18.87 139.441 18.984 139.669 19.212C139.897 19.44 140.011 19.734 140.011 20.094C140.011 20.454 139.891 20.754 139.651 20.994C139.423 21.222 139.147 21.336 138.823 21.336ZM138.823 28.608C138.487 28.608 138.199 28.494 137.959 28.266C137.719 28.026 137.599 27.726 137.599 27.366C137.599 27.018 137.719 26.73 137.959 26.502C138.199 26.262 138.487 26.142 138.823 26.142C139.159 26.142 139.441 26.256 139.669 26.484C139.897 26.712 140.011 27.006 140.011 27.366C140.011 27.726 139.891 28.026 139.651 28.266C139.423 28.494 139.147 28.608 138.823 28.608ZM150.454 15.9V28.5H148.672V17.466H145.828V15.9H150.454ZM158.358 28.644C157.362 28.644 156.474 28.392 155.694 27.888C154.926 27.372 154.32 26.628 153.876 25.656C153.432 24.684 153.21 23.532 153.21 22.2C153.21 20.868 153.432 19.716 153.876 18.744C154.32 17.772 154.926 17.034 155.694 16.53C156.474 16.014 157.362 15.756 158.358 15.756C159.342 15.756 160.218 16.014 160.986 16.53C161.766 17.034 162.378 17.772 162.822 18.744C163.266 19.716 163.488 20.868 163.488 22.2C163.488 23.532 163.266 24.684 162.822 25.656C162.378 26.628 161.766 27.372 160.986 27.888C160.218 28.392 159.342 28.644 158.358 28.644ZM158.358 27.042C159.366 27.042 160.17 26.628 160.77 25.8C161.382 24.972 161.688 23.772 161.688 22.2C161.688 20.628 161.382 19.428 160.77 18.6C160.17 17.772 159.366 17.358 158.358 17.358C157.338 17.358 156.522 17.772 155.91 18.6C155.31 19.428 155.01 20.628 155.01 22.2C155.01 23.772 155.31 24.972 155.91 25.8C156.522 26.628 157.338 27.042 158.358 27.042Z" fill="#2F2F2F"/>
<rect x="98.5" y="0.5" width="77" height="44" rx="4.5" stroke="#2F2F2F"/>
<rect x="196.5" y="0.5" width="77" height="44" rx="4.5" fill="white"/>
<path d="M213.877 15.9V28.5H212.095V17.466H209.251V15.9H213.877ZM220.234 20.922C222.034 20.922 223.354 21.264 224.194 21.948C225.046 22.62 225.472 23.544 225.472 24.72C225.472 25.464 225.292 26.136 224.932 26.736C224.584 27.324 224.05 27.792 223.33 28.14C222.622 28.476 221.746 28.644 220.702 28.644C219.814 28.644 218.956 28.512 218.128 28.248C217.3 27.972 216.616 27.594 216.076 27.114L216.904 25.692C217.336 26.1 217.888 26.43 218.56 26.682C219.232 26.922 219.94 27.042 220.684 27.042C221.632 27.042 222.364 26.844 222.88 26.448C223.408 26.04 223.672 25.488 223.672 24.792C223.672 24.036 223.384 23.466 222.808 23.082C222.232 22.686 221.248 22.488 219.856 22.488H216.994L217.66 15.9H224.77V17.466H219.172L218.83 20.922H220.234ZM232.991 21.336C232.655 21.336 232.367 21.222 232.127 20.994C231.887 20.754 231.767 20.454 231.767 20.094C231.767 19.746 231.887 19.458 232.127 19.23C232.367 18.99 232.655 18.87 232.991 18.87C233.327 18.87 233.609 18.984 233.837 19.212C234.065 19.44 234.179 19.734 234.179 20.094C234.179 20.454 234.059 20.754 233.819 20.994C233.591 21.222 233.315 21.336 232.991 21.336ZM232.991 28.608C232.655 28.608 232.367 28.494 232.127 28.266C231.887 28.026 231.767 27.726 231.767 27.366C231.767 27.018 231.887 26.73 232.127 26.502C232.367 26.262 232.655 26.142 232.991 26.142C233.327 26.142 233.609 26.256 233.837 26.484C234.065 26.712 234.179 27.006 234.179 27.366C234.179 27.726 234.059 28.026 233.819 28.266C233.591 28.494 233.315 28.608 232.991 28.608ZM249.572 26.934V28.5H240.518V27.276L245.648 22.326C246.272 21.726 246.692 21.21 246.908 20.778C247.124 20.334 247.232 19.89 247.232 19.446C247.232 18.786 246.998 18.276 246.53 17.916C246.074 17.544 245.414 17.358 244.55 17.358C243.158 17.358 242.084 17.814 241.328 18.726L240.104 17.664C240.596 17.064 241.238 16.596 242.03 16.26C242.834 15.924 243.728 15.756 244.712 15.756C246.032 15.756 247.082 16.074 247.862 16.71C248.642 17.334 249.032 18.186 249.032 19.266C249.032 19.938 248.888 20.574 248.6 21.174C248.312 21.774 247.766 22.458 246.962 23.226L243.11 26.934H249.572ZM260.179 15.9V17.124L255.085 28.5H253.177L258.163 17.466H252.403V19.716H250.675V15.9H260.179Z" fill="#2F2F2F"/>
<rect x="196.5" y="0.5" width="77" height="44" rx="4.5" stroke="#2F2F2F"/>
<rect x="294.5" y="0.5" width="77" height="44" rx="4.5" fill="white"/>
<path d="M317.045 15.9V28.5H315.263V17.466H312.419V15.9H317.045ZM325.823 21.336C325.487 21.336 325.199 21.222 324.959 20.994C324.719 20.754 324.599 20.454 324.599 20.094C324.599 19.746 324.719 19.458 324.959 19.23C325.199 18.99 325.487 18.87 325.823 18.87C326.159 18.87 326.441 18.984 326.669 19.212C326.897 19.44 327.011 19.734 327.011 20.094C327.011 20.454 326.891 20.754 326.651 20.994C326.423 21.222 326.147 21.336 325.823 21.336ZM325.823 28.608C325.487 28.608 325.199 28.494 324.959 28.266C324.719 28.026 324.599 27.726 324.599 27.366C324.599 27.018 324.719 26.73 324.959 26.502C325.199 26.262 325.487 26.142 325.823 26.142C326.159 26.142 326.441 26.256 326.669 26.484C326.897 26.712 327.011 27.006 327.011 27.366C327.011 27.726 326.891 28.026 326.651 28.266C326.423 28.494 326.147 28.608 325.823 28.608ZM342.404 26.934V28.5H333.35V27.276L338.48 22.326C339.104 21.726 339.524 21.21 339.74 20.778C339.956 20.334 340.064 19.89 340.064 19.446C340.064 18.786 339.83 18.276 339.362 17.916C338.906 17.544 338.246 17.358 337.382 17.358C335.99 17.358 334.916 17.814 334.16 18.726L332.936 17.664C333.428 17.064 334.07 16.596 334.862 16.26C335.666 15.924 336.56 15.756 337.544 15.756C338.864 15.756 339.914 16.074 340.694 16.71C341.474 17.334 341.864 18.186 341.864 19.266C341.864 19.938 341.72 20.574 341.432 21.174C341.144 21.774 340.598 22.458 339.794 23.226L335.942 26.934H342.404ZM353.011 15.9V17.124L347.917 28.5H346.009L350.995 17.466H345.235V19.716H343.507V15.9H353.011Z" fill="#2F2F2F"/>
<rect x="294.5" y="0.5" width="77" height="44" rx="4.5" stroke="#2F2F2F"/>
<rect x="0.5" y="0.5" width="77" height="44" rx="4.5" fill="#BBEDF4"/>
<path d="M16.1235 21.192C17.3595 21.312 18.3015 21.696 18.9495 22.344C19.5975 22.98 19.9215 23.796 19.9215 24.792C19.9215 25.512 19.7415 26.166 19.3815 26.754C19.0215 27.33 18.4815 27.792 17.7615 28.14C17.0535 28.476 16.1835 28.644 15.1515 28.644C14.2515 28.644 13.3875 28.512 12.5595 28.248C11.7315 27.972 11.0535 27.594 10.5255 27.114L11.3535 25.692C11.7855 26.1 12.3375 26.43 13.0095 26.682C13.6815 26.922 14.3955 27.042 15.1515 27.042C16.0875 27.042 16.8135 26.844 17.3295 26.448C17.8575 26.052 18.1215 25.506 18.1215 24.81C18.1215 24.114 17.8635 23.574 17.3475 23.19C16.8315 22.806 16.0515 22.614 15.0075 22.614H13.9995V21.354L17.1675 17.466H11.1015V15.9H19.4175V17.124L16.1235 21.192ZM32.5623 25.404H30.1683V28.5H28.4223V25.404H21.4203V24.144L27.8643 15.9H29.8083L23.6343 23.856H28.4763V21.12H30.1683V23.856H32.5623V25.404ZM39.6633 21.336C39.3273 21.336 39.0393 21.222 38.7993 20.994C38.5593 20.754 38.4393 20.454 38.4393 20.094C38.4393 19.746 38.5593 19.458 38.7993 19.23C39.0393 18.99 39.3273 18.87 39.6633 18.87C39.9993 18.87 40.2813 18.984 40.5093 19.212C40.7373 19.44 40.8513 19.734 40.8513 20.094C40.8513 20.454 40.7313 20.754 40.4913 20.994C40.2633 21.222 39.9873 21.336 39.6633 21.336ZM39.6633 28.608C39.3273 28.608 39.0393 28.494 38.7993 28.266C38.5593 28.026 38.4393 27.726 38.4393 27.366C38.4393 27.018 38.5593 26.73 38.7993 26.502C39.0393 26.262 39.3273 26.142 39.6633 26.142C39.9993 26.142 40.2813 26.256 40.5093 26.484C40.7373 26.712 40.8513 27.006 40.8513 27.366C40.8513 27.726 40.7313 28.026 40.4913 28.266C40.2633 28.494 39.9873 28.608 39.6633 28.608ZM56.2434 26.934V28.5H47.1894V27.276L52.3194 22.326C52.9434 21.726 53.3634 21.21 53.5794 20.778C53.7954 20.334 53.9034 19.89 53.9034 19.446C53.9034 18.786 53.6694 18.276 53.2014 17.916C52.7454 17.544 52.0854 17.358 51.2214 17.358C49.8294 17.358 48.7554 17.814 47.9994 18.726L46.7754 17.664C47.2674 17.064 47.9094 16.596 48.7014 16.26C49.5054 15.924 50.3994 15.756 51.3834 15.756C52.7034 15.756 53.7534 16.074 54.5334 16.71C55.3134 17.334 55.7034 18.186 55.7034 19.266C55.7034 19.938 55.5594 20.574 55.2714 21.174C54.9834 21.774 54.4374 22.458 53.6334 23.226L49.7814 26.934H56.2434ZM66.8506 15.9V17.124L61.7566 28.5H59.8486L64.8346 17.466H59.0746V19.716H57.3466V15.9H66.8506Z" fill="#0E80A4"/>
<rect x="0.5" y="0.5" width="77" height="44" rx="4.5" stroke="#BBEDF4"/>
</svg>
