<svg width="372" height="46" viewBox="0 0 372 46" fill="none" xmlns="http://www.w3.org/2000/svg">
<rect x="0.5" y="1.18652" width="77" height="44" rx="4.5" fill="white"/>
<path d="M33.3479 27.6205V29.1865H24.2939V27.9625L29.4239 23.0125C30.0479 22.4125 30.4679 21.8965 30.6839 21.4645C30.8999 21.0205 31.0079 20.5765 31.0079 20.1325C31.0079 19.4725 30.7739 18.9625 30.3059 18.6025C29.8499 18.2305 29.1899 18.0445 28.3259 18.0445C26.9339 18.0445 25.8599 18.5005 25.1039 19.4125L23.8799 18.3505C24.3719 17.7505 25.0139 17.2825 25.8059 16.9465C26.6099 16.6105 27.5039 16.4425 28.4879 16.4425C29.8079 16.4425 30.8579 16.7605 31.6379 17.3965C32.4179 18.0205 32.8079 18.8725 32.8079 19.9525C32.8079 20.6245 32.6639 21.2605 32.3759 21.8605C32.0879 22.4605 31.5419 23.1445 30.7379 23.9125L26.8859 27.6205H33.3479ZM40.8499 22.0225C40.5139 22.0225 40.2259 21.9085 39.9859 21.6805C39.7459 21.4405 39.6259 21.1405 39.6259 20.7805C39.6259 20.4325 39.7459 20.1445 39.9859 19.9165C40.2259 19.6765 40.5139 19.5565 40.8499 19.5565C41.1859 19.5565 41.4679 19.6705 41.6959 19.8985C41.9239 20.1265 42.0379 20.4205 42.0379 20.7805C42.0379 21.1405 41.9179 21.4405 41.6779 21.6805C41.4499 21.9085 41.1739 22.0225 40.8499 22.0225ZM40.8499 29.2945C40.5139 29.2945 40.2259 29.1805 39.9859 28.9525C39.7459 28.7125 39.6259 28.4125 39.6259 28.0525C39.6259 27.7045 39.7459 27.4165 39.9859 27.1885C40.2259 26.9485 40.5139 26.8285 40.8499 26.8285C41.1859 26.8285 41.4679 26.9425 41.6959 27.1705C41.9239 27.3985 42.0379 27.6925 42.0379 28.0525C42.0379 28.4125 41.9179 28.7125 41.6779 28.9525C41.4499 29.1805 41.1739 29.2945 40.8499 29.2945ZM52.48 16.5865V29.1865H50.698V18.1525H47.854V16.5865H52.48Z" fill="#2F2F2F"/>
<rect x="0.5" y="1.18652" width="77" height="44" rx="4.5" stroke="#2F2F2F"/>
<rect x="98.5" y="1.18652" width="77" height="44" rx="4.5" fill="white"/>
<path d="M125.497 21.8785C126.733 21.9985 127.675 22.3825 128.323 23.0305C128.971 23.6665 129.295 24.4825 129.295 25.4785C129.295 26.1985 129.115 26.8525 128.755 27.4405C128.395 28.0165 127.855 28.4785 127.135 28.8265C126.427 29.1625 125.557 29.3305 124.525 29.3305C123.625 29.3305 122.761 29.1985 121.933 28.9345C121.105 28.6585 120.427 28.2805 119.899 27.8005L120.727 26.3785C121.159 26.7865 121.711 27.1165 122.383 27.3685C123.055 27.6085 123.769 27.7285 124.525 27.7285C125.461 27.7285 126.187 27.5305 126.703 27.1345C127.231 26.7385 127.495 26.1925 127.495 25.4965C127.495 24.8005 127.237 24.2605 126.721 23.8765C126.205 23.4925 125.425 23.3005 124.381 23.3005H123.373V22.0405L126.541 18.1525H120.475V16.5865H128.791V17.8105L125.497 21.8785ZM136.995 22.0225C136.659 22.0225 136.371 21.9085 136.131 21.6805C135.891 21.4405 135.771 21.1405 135.771 20.7805C135.771 20.4325 135.891 20.1445 136.131 19.9165C136.371 19.6765 136.659 19.5565 136.995 19.5565C137.331 19.5565 137.613 19.6705 137.841 19.8985C138.069 20.1265 138.183 20.4205 138.183 20.7805C138.183 21.1405 138.063 21.4405 137.823 21.6805C137.595 21.9085 137.319 22.0225 136.995 22.0225ZM136.995 29.2945C136.659 29.2945 136.371 29.1805 136.131 28.9525C135.891 28.7125 135.771 28.4125 135.771 28.0525C135.771 27.7045 135.891 27.4165 136.131 27.1885C136.371 26.9485 136.659 26.8285 136.995 26.8285C137.331 26.8285 137.613 26.9425 137.841 27.1705C138.069 27.3985 138.183 27.6925 138.183 28.0525C138.183 28.4125 138.063 28.7125 137.823 28.9525C137.595 29.1805 137.319 29.2945 136.995 29.2945ZM148.319 21.6085C150.119 21.6085 151.439 21.9505 152.279 22.6345C153.131 23.3065 153.557 24.2305 153.557 25.4065C153.557 26.1505 153.377 26.8225 153.017 27.4225C152.669 28.0105 152.135 28.4785 151.415 28.8265C150.707 29.1625 149.831 29.3305 148.787 29.3305C147.899 29.3305 147.041 29.1985 146.213 28.9345C145.385 28.6585 144.701 28.2805 144.161 27.8005L144.989 26.3785C145.421 26.7865 145.973 27.1165 146.645 27.3685C147.317 27.6085 148.025 27.7285 148.769 27.7285C149.717 27.7285 150.449 27.5305 150.965 27.1345C151.493 26.7265 151.757 26.1745 151.757 25.4785C151.757 24.7225 151.469 24.1525 150.893 23.7685C150.317 23.3725 149.333 23.1745 147.941 23.1745H145.079L145.745 16.5865H152.855V18.1525H147.257L146.915 21.6085H148.319Z" fill="#2F2F2F"/>
<rect x="98.5" y="1.18652" width="77" height="44" rx="4.5" stroke="#2F2F2F"/>
<rect x="196.5" y="1.18652" width="77" height="44" rx="4.5" fill="white"/>
<path d="M227.529 27.6205V29.1865H218.475V27.9625L223.605 23.0125C224.229 22.4125 224.649 21.8965 224.865 21.4645C225.081 21.0205 225.189 20.5765 225.189 20.1325C225.189 19.4725 224.955 18.9625 224.487 18.6025C224.031 18.2305 223.371 18.0445 222.507 18.0445C221.115 18.0445 220.041 18.5005 219.285 19.4125L218.061 18.3505C218.553 17.7505 219.195 17.2825 219.987 16.9465C220.791 16.6105 221.685 16.4425 222.669 16.4425C223.989 16.4425 225.039 16.7605 225.819 17.3965C226.599 18.0205 226.989 18.8725 226.989 19.9525C226.989 20.6245 226.845 21.2605 226.557 21.8605C226.269 22.4605 225.723 23.1445 224.919 23.9125L221.067 27.6205H227.529ZM235.031 22.0225C234.695 22.0225 234.407 21.9085 234.167 21.6805C233.927 21.4405 233.807 21.1405 233.807 20.7805C233.807 20.4325 233.927 20.1445 234.167 19.9165C234.407 19.6765 234.695 19.5565 235.031 19.5565C235.367 19.5565 235.649 19.6705 235.877 19.8985C236.105 20.1265 236.219 20.4205 236.219 20.7805C236.219 21.1405 236.099 21.4405 235.859 21.6805C235.631 21.9085 235.355 22.0225 235.031 22.0225ZM235.031 29.2945C234.695 29.2945 234.407 29.1805 234.167 28.9525C233.927 28.7125 233.807 28.4125 233.807 28.0525C233.807 27.7045 233.927 27.4165 234.167 27.1885C234.407 26.9485 234.695 26.8285 235.031 26.8285C235.367 26.8285 235.649 26.9425 235.877 27.1705C236.105 27.3985 236.219 27.6925 236.219 28.0525C236.219 28.4125 236.099 28.7125 235.859 28.9525C235.631 29.1805 235.355 29.2945 235.031 29.2945ZM247.579 21.8785C248.815 21.9985 249.757 22.3825 250.405 23.0305C251.053 23.6665 251.377 24.4825 251.377 25.4785C251.377 26.1985 251.197 26.8525 250.837 27.4405C250.477 28.0165 249.937 28.4785 249.217 28.8265C248.509 29.1625 247.639 29.3305 246.607 29.3305C245.707 29.3305 244.843 29.1985 244.015 28.9345C243.187 28.6585 242.509 28.2805 241.981 27.8005L242.809 26.3785C243.241 26.7865 243.793 27.1165 244.465 27.3685C245.137 27.6085 245.851 27.7285 246.607 27.7285C247.543 27.7285 248.269 27.5305 248.785 27.1345C249.313 26.7385 249.577 26.1925 249.577 25.4965C249.577 24.8005 249.319 24.2605 248.803 23.8765C248.287 23.4925 247.507 23.3005 246.463 23.3005H245.455V22.0405L248.623 18.1525H242.557V16.5865H250.873V17.8105L247.579 21.8785Z" fill="#2F2F2F"/>
<rect x="196.5" y="1.18652" width="77" height="44" rx="4.5" stroke="#2F2F2F"/>
<rect x="294.5" y="1.18652" width="77" height="44" rx="4.5" fill="#BBEDF4"/>
<path d="M322.398 16.5865V29.1865H320.616V18.1525H317.772V16.5865H322.398ZM331.176 22.0225C330.84 22.0225 330.552 21.9085 330.312 21.6805C330.072 21.4405 329.952 21.1405 329.952 20.7805C329.952 20.4325 330.072 20.1445 330.312 19.9165C330.552 19.6765 330.84 19.5565 331.176 19.5565C331.512 19.5565 331.794 19.6705 332.022 19.8985C332.25 20.1265 332.364 20.4205 332.364 20.7805C332.364 21.1405 332.244 21.4405 332.004 21.6805C331.776 21.9085 331.5 22.0225 331.176 22.0225ZM331.176 29.2945C330.84 29.2945 330.552 29.1805 330.312 28.9525C330.072 28.7125 329.952 28.4125 329.952 28.0525C329.952 27.7045 330.072 27.4165 330.312 27.1885C330.552 26.9485 330.84 26.8285 331.176 26.8285C331.512 26.8285 331.794 26.9425 332.022 27.1705C332.25 27.3985 332.364 27.6925 332.364 28.0525C332.364 28.4125 332.244 28.7125 332.004 28.9525C331.776 29.1805 331.5 29.2945 331.176 29.2945ZM347.756 27.6205V29.1865H338.702V27.9625L343.832 23.0125C344.456 22.4125 344.876 21.8965 345.092 21.4645C345.308 21.0205 345.416 20.5765 345.416 20.1325C345.416 19.4725 345.182 18.9625 344.714 18.6025C344.258 18.2305 343.598 18.0445 342.734 18.0445C341.342 18.0445 340.268 18.5005 339.512 19.4125L338.288 18.3505C338.78 17.7505 339.422 17.2825 340.214 16.9465C341.018 16.6105 341.912 16.4425 342.896 16.4425C344.216 16.4425 345.266 16.7605 346.046 17.3965C346.826 18.0205 347.216 18.8725 347.216 19.9525C347.216 20.6245 347.072 21.2605 346.784 21.8605C346.496 22.4605 345.95 23.1445 345.146 23.9125L341.294 27.6205H347.756Z" fill="#0E80A4"/>
<rect x="294.5" y="1.18652" width="77" height="44" rx="4.5" stroke="#BBEDF4"/>
</svg>
