<svg width="590" height="78" viewBox="0 0 590 78" fill="none" xmlns="http://www.w3.org/2000/svg">
<path d="M12.024 14.138H9.792V17H7.524V14.138H0.612V12.518L6.822 4.4H9.324L3.474 12.158H7.596V9.62H9.792V12.158H12.024V14.138ZM22.0821 15.02V17H12.7941V15.434L17.7981 10.682C18.3621 10.142 18.7401 9.674 18.9321 9.278C19.1361 8.87 19.2381 8.468 19.2381 8.072C19.2381 7.484 19.0401 7.034 18.6441 6.722C18.2481 6.41 17.6661 6.254 16.8981 6.254C15.6141 6.254 14.6301 6.692 13.9461 7.568L12.3081 6.308C12.8001 5.648 13.4601 5.138 14.2881 4.778C15.1281 4.406 16.0641 4.22 17.0961 4.22C18.4641 4.22 19.5561 4.544 20.3721 5.192C21.1881 5.84 21.5961 6.722 21.5961 7.838C21.5961 8.522 21.4521 9.164 21.1641 9.764C20.8761 10.364 20.3241 11.048 19.5081 11.816L16.1421 15.02H22.0821ZM28.0406 12.878L26.3666 14.462V17H24.1166V3.644H26.3666V11.708L31.0286 7.388H33.7286L29.7146 11.42L34.1066 17H31.3706L28.0406 12.878ZM40.0486 11.06H44.9986V12.932H40.0486V11.06ZM57.115 9.602C58.279 9.746 59.167 10.142 59.779 10.79C60.391 11.438 60.697 12.248 60.697 13.22C60.697 13.952 60.511 14.618 60.139 15.218C59.767 15.818 59.203 16.298 58.447 16.658C57.703 17.006 56.791 17.18 55.711 17.18C54.811 17.18 53.941 17.054 53.101 16.802C52.273 16.538 51.565 16.178 50.977 15.722L51.985 13.904C52.441 14.288 52.993 14.594 53.641 14.822C54.301 15.038 54.979 15.146 55.675 15.146C56.503 15.146 57.151 14.978 57.619 14.642C58.099 14.294 58.339 13.826 58.339 13.238C58.339 12.65 58.111 12.194 57.655 11.87C57.211 11.534 56.527 11.366 55.603 11.366H54.451V9.764L57.313 6.362H51.589V4.4H60.175V5.966L57.115 9.602ZM66.8355 12.878L65.1615 14.462V17H62.9115V3.644H65.1615V11.708L69.8235 7.388H72.5235L68.5095 11.42L72.9015 17H70.1655L66.8355 12.878ZM79.0235 7.622H87.3215V9.422H79.0235V7.622ZM79.0235 11.978H87.3215V13.778H79.0235V11.978ZM103.741 4.4V5.966L98.8453 17H96.3433L101.077 6.38H96.1273V8.522H93.9493V4.4H103.741ZM113.044 10.376C113.704 10.676 114.208 11.084 114.556 11.6C114.916 12.104 115.096 12.698 115.096 13.382C115.096 14.15 114.88 14.822 114.448 15.398C114.028 15.974 113.428 16.418 112.648 16.73C111.868 17.03 110.962 17.18 109.93 17.18C108.898 17.18 107.992 17.03 107.212 16.73C106.444 16.418 105.85 15.974 105.43 15.398C105.01 14.822 104.8 14.15 104.8 13.382C104.8 12.698 104.974 12.104 105.322 11.6C105.67 11.084 106.168 10.676 106.816 10.376C106.312 10.1 105.922 9.74 105.646 9.296C105.382 8.84 105.25 8.318 105.25 7.73C105.25 7.022 105.442 6.404 105.826 5.876C106.222 5.348 106.774 4.94 107.482 4.652C108.19 4.364 109.006 4.22 109.93 4.22C110.866 4.22 111.688 4.364 112.396 4.652C113.104 4.94 113.656 5.348 114.052 5.876C114.448 6.404 114.646 7.022 114.646 7.73C114.646 8.318 114.508 8.834 114.232 9.278C113.956 9.722 113.56 10.088 113.044 10.376ZM109.93 6.056C109.198 6.056 108.616 6.212 108.184 6.524C107.764 6.836 107.554 7.274 107.554 7.838C107.554 8.378 107.764 8.81 108.184 9.134C108.616 9.446 109.198 9.602 109.93 9.602C110.674 9.602 111.262 9.446 111.694 9.134C112.126 8.81 112.342 8.378 112.342 7.838C112.342 7.274 112.12 6.836 111.676 6.524C111.244 6.212 110.662 6.056 109.93 6.056ZM109.93 15.344C110.794 15.344 111.478 15.164 111.982 14.804C112.486 14.444 112.738 13.946 112.738 13.31C112.738 12.686 112.486 12.194 111.982 11.834C111.478 11.474 110.794 11.294 109.93 11.294C109.066 11.294 108.388 11.474 107.896 11.834C107.404 12.194 107.158 12.686 107.158 13.31C107.158 13.946 107.404 14.444 107.896 14.804C108.388 15.164 109.066 15.344 109.93 15.344ZM121.87 17.18C120.862 17.18 119.962 16.928 119.17 16.424C118.378 15.908 117.754 15.164 117.298 14.192C116.842 13.208 116.614 12.044 116.614 10.7C116.614 9.356 116.842 8.198 117.298 7.226C117.754 6.242 118.378 5.498 119.17 4.994C119.962 4.478 120.862 4.22 121.87 4.22C122.878 4.22 123.778 4.478 124.57 4.994C125.374 5.498 126.004 6.242 126.46 7.226C126.916 8.198 127.144 9.356 127.144 10.7C127.144 12.044 126.916 13.208 126.46 14.192C126.004 15.164 125.374 15.908 124.57 16.424C123.778 16.928 122.878 17.18 121.87 17.18ZM121.87 15.146C122.77 15.146 123.478 14.774 123.994 14.03C124.522 13.286 124.786 12.176 124.786 10.7C124.786 9.224 124.522 8.114 123.994 7.37C123.478 6.626 122.77 6.254 121.87 6.254C120.982 6.254 120.274 6.626 119.746 7.37C119.23 8.114 118.972 9.224 118.972 10.7C118.972 12.176 119.23 13.286 119.746 14.03C120.274 14.774 120.982 15.146 121.87 15.146Z" fill="#2F2F2F"/>
<path d="M5.88242 61.378L4.20842 62.962V65.5H1.95842V52.144H4.20842V60.208L8.87042 55.888H11.5704L7.55642 59.92L11.9484 65.5H9.21242L5.88242 61.378ZM18.0704 56.122H26.3684V57.922H18.0704V56.122ZM18.0704 60.478H26.3684V62.278H18.0704V60.478Z" fill="#2F2F2F"/>
<path d="M43.0051 45.5637L89.851 45.4373L89.8407 43.4374L42.9948 43.5637L43.0051 45.5637ZM93.8715 49.4265L93.9743 69.4264L95.9743 69.421L95.8715 49.4211L93.8715 49.4265ZM89.9949 73.4372L43.149 73.5635L43.1593 75.5634L90.0052 75.4371L89.9949 73.4372ZM39.1285 69.5743L39.0257 49.5744L37.0257 49.5798L37.1285 69.5797L39.1285 69.5743ZM43.149 73.5635C40.9399 73.5694 39.1398 71.7834 39.1285 69.5743L37.1285 69.5797C37.1455 72.8934 39.8456 75.5724 43.1593 75.5634L43.149 73.5635ZM93.9743 69.4264C93.9857 71.6355 92.204 73.4312 89.9949 73.4372L90.0052 75.4371C93.3189 75.4282 95.9913 72.7347 95.9743 69.421L93.9743 69.4264ZM89.851 45.4373C92.0601 45.4314 93.8602 47.2174 93.8715 49.4265L95.8715 49.4211C95.8545 46.1074 93.1544 43.4284 89.8407 43.4374L89.851 45.4373ZM42.9948 43.5637C39.6811 43.5726 37.0087 46.2661 37.0257 49.5798L39.0257 49.5744C39.0143 47.3653 40.796 45.5696 43.0051 45.5637L42.9948 43.5637Z" fill="#2F2F2F"/>
<path d="M234.516 9.224C235.344 9.224 236.088 9.386 236.748 9.71C237.408 10.022 237.924 10.472 238.296 11.06C238.668 11.648 238.854 12.326 238.854 13.094C238.854 13.91 238.65 14.63 238.242 15.254C237.834 15.866 237.282 16.34 236.586 16.676C235.89 17.012 235.11 17.18 234.246 17.18C232.518 17.18 231.174 16.64 230.214 15.56C229.266 14.48 228.792 12.932 228.792 10.916C228.792 9.5 229.05 8.294 229.566 7.298C230.082 6.29 230.802 5.528 231.726 5.012C232.662 4.484 233.742 4.22 234.966 4.22C235.614 4.22 236.22 4.292 236.784 4.436C237.36 4.568 237.858 4.766 238.278 5.03L237.414 6.794C236.79 6.386 235.992 6.182 235.02 6.182C233.808 6.182 232.86 6.554 232.176 7.298C231.492 8.042 231.15 9.116 231.15 10.52V10.538C231.522 10.106 231.996 9.782 232.572 9.566C233.148 9.338 233.796 9.224 234.516 9.224ZM234.12 15.344C234.852 15.344 235.446 15.152 235.902 14.768C236.358 14.372 236.586 13.85 236.586 13.202C236.586 12.542 236.358 12.02 235.902 11.636C235.446 11.252 234.834 11.06 234.066 11.06C233.31 11.06 232.692 11.264 232.212 11.672C231.744 12.08 231.51 12.596 231.51 13.22C231.51 13.832 231.738 14.342 232.194 14.75C232.662 15.146 233.304 15.344 234.12 15.344ZM249.493 4.4V5.966L244.597 17H242.095L246.829 6.38H241.879V8.522H239.701V4.4H249.493ZM257.481 17L255.015 13.67L252.531 17H250.047L253.791 12.122L250.209 7.388H252.711L255.069 10.538L257.427 7.388H259.857L256.257 12.086L260.019 17H257.481ZM266.168 11.06H271.118V12.932H266.168V11.06ZM282.226 4.4V17H279.886V6.362H277.222V4.4H282.226ZM288.668 9.278C290.444 9.278 291.758 9.626 292.61 10.322C293.462 11.006 293.888 11.942 293.888 13.13C293.888 13.886 293.702 14.57 293.33 15.182C292.958 15.794 292.4 16.28 291.656 16.64C290.912 17 289.994 17.18 288.902 17.18C288.002 17.18 287.132 17.054 286.292 16.802C285.452 16.538 284.744 16.178 284.168 15.722L285.158 13.904C285.626 14.288 286.184 14.594 286.832 14.822C287.492 15.038 288.17 15.146 288.866 15.146C289.694 15.146 290.342 14.978 290.81 14.642C291.29 14.294 291.53 13.82 291.53 13.22C291.53 12.572 291.272 12.086 290.756 11.762C290.252 11.426 289.382 11.258 288.146 11.258H285.104L285.752 4.4H293.15V6.362H287.732L287.462 9.278H288.668ZM301.866 17L299.4 13.67L296.916 17H294.432L298.176 12.122L294.594 7.388H297.096L299.454 10.538L301.812 7.388H304.242L300.642 12.086L304.404 17H301.866ZM310.733 7.622H319.031V9.422H310.733V7.622ZM310.733 11.978H319.031V13.778H310.733V11.978ZM331.31 9.602C332.474 9.746 333.362 10.142 333.974 10.79C334.586 11.438 334.892 12.248 334.892 13.22C334.892 13.952 334.706 14.618 334.334 15.218C333.962 15.818 333.398 16.298 332.642 16.658C331.898 17.006 330.986 17.18 329.906 17.18C329.006 17.18 328.136 17.054 327.296 16.802C326.468 16.538 325.76 16.178 325.172 15.722L326.18 13.904C326.636 14.288 327.188 14.594 327.836 14.822C328.496 15.038 329.174 15.146 329.87 15.146C330.698 15.146 331.346 14.978 331.814 14.642C332.294 14.294 332.534 13.826 332.534 13.238C332.534 12.65 332.306 12.194 331.85 11.87C331.406 11.534 330.722 11.366 329.798 11.366H328.646V9.764L331.508 6.362H325.784V4.4H334.37V5.966L331.31 9.602ZM345.751 4.4V5.966L340.855 17H338.353L343.087 6.38H338.137V8.522H335.959V4.4H345.751ZM351.73 4.4V17H349.39V6.362H346.726V4.4H351.73Z" fill="#2F2F2F"/>
<path d="M235.641 65.5L233.175 62.17L230.691 65.5H228.207L231.951 60.622L228.369 55.888H230.871L233.229 59.038L235.587 55.888H238.017L234.417 60.586L238.179 65.5H235.641ZM244.508 56.122H252.806V57.922H244.508V56.122ZM244.508 60.478H252.806V62.278H244.508V60.478Z" fill="#2F2F2F"/>
<path d="M269.005 45.5637L315.851 45.4373L315.841 43.4374L268.995 43.5637L269.005 45.5637ZM319.872 49.4265L319.974 69.4264L321.974 69.421L321.872 49.4211L319.872 49.4265ZM315.995 73.4372L269.149 73.5635L269.159 75.5634L316.005 75.4371L315.995 73.4372ZM265.128 69.5743L265.026 49.5744L263.026 49.5798L263.128 69.5797L265.128 69.5743ZM269.149 73.5635C266.94 73.5694 265.14 71.7834 265.128 69.5743L263.128 69.5797C263.146 72.8934 265.846 75.5724 269.159 75.5634L269.149 73.5635ZM319.974 69.4264C319.986 71.6355 318.204 73.4312 315.995 73.4372L316.005 75.4371C319.319 75.4282 321.991 72.7347 321.974 69.421L319.974 69.4264ZM315.851 45.4373C318.06 45.4314 319.86 47.2174 319.872 49.4265L321.872 49.4211C321.854 46.1074 319.154 43.4284 315.841 43.4374L315.851 45.4373ZM268.995 43.5637C265.681 43.5726 263.009 46.2661 263.026 49.5798L265.026 49.5744C265.014 47.3653 266.796 45.5696 269.005 45.5637L268.995 43.5637Z" fill="#2F2F2F"/>
<path d="M459.148 4.4V17H456.808V6.362H454.144V4.4H459.148ZM466.903 17.18C465.895 17.18 464.995 16.928 464.203 16.424C463.411 15.908 462.787 15.164 462.331 14.192C461.875 13.208 461.647 12.044 461.647 10.7C461.647 9.356 461.875 8.198 462.331 7.226C462.787 6.242 463.411 5.498 464.203 4.994C464.995 4.478 465.895 4.22 466.903 4.22C467.911 4.22 468.811 4.478 469.603 4.994C470.407 5.498 471.037 6.242 471.493 7.226C471.949 8.198 472.177 9.356 472.177 10.7C472.177 12.044 471.949 13.208 471.493 14.192C471.037 15.164 470.407 15.908 469.603 16.424C468.811 16.928 467.911 17.18 466.903 17.18ZM466.903 15.146C467.803 15.146 468.511 14.774 469.027 14.03C469.555 13.286 469.819 12.176 469.819 10.7C469.819 9.224 469.555 8.114 469.027 7.37C468.511 6.626 467.803 6.254 466.903 6.254C466.015 6.254 465.307 6.626 464.779 7.37C464.263 8.114 464.005 9.224 464.005 10.7C464.005 12.176 464.263 13.286 464.779 14.03C465.307 14.774 466.015 15.146 466.903 15.146ZM478.007 4.22C479.735 4.22 481.073 4.76 482.021 5.84C482.981 6.92 483.461 8.468 483.461 10.484C483.461 11.9 483.203 13.112 482.687 14.12C482.171 15.116 481.445 15.878 480.509 16.406C479.585 16.922 478.511 17.18 477.287 17.18C476.639 17.18 476.027 17.114 475.451 16.982C474.887 16.838 474.395 16.634 473.975 16.37L474.839 14.606C475.463 15.014 476.261 15.218 477.233 15.218C478.445 15.218 479.393 14.846 480.077 14.102C480.761 13.358 481.103 12.284 481.103 10.88V10.862C480.731 11.294 480.257 11.624 479.681 11.852C479.105 12.068 478.457 12.176 477.737 12.176C476.909 12.176 476.165 12.02 475.505 11.708C474.845 11.384 474.329 10.928 473.957 10.34C473.585 9.752 473.399 9.074 473.399 8.306C473.399 7.49 473.603 6.776 474.011 6.164C474.419 5.54 474.971 5.06 475.667 4.724C476.363 4.388 477.143 4.22 478.007 4.22ZM478.187 10.34C478.943 10.34 479.555 10.136 480.023 9.728C480.503 9.32 480.743 8.804 480.743 8.18C480.743 7.568 480.509 7.064 480.041 6.668C479.585 6.26 478.949 6.056 478.133 6.056C477.401 6.056 476.807 6.254 476.351 6.65C475.895 7.034 475.667 7.55 475.667 8.198C475.667 8.858 475.895 9.38 476.351 9.764C476.807 10.148 477.419 10.34 478.187 10.34ZM484.597 20.618C483.649 20.618 482.929 20.432 482.437 20.06L483.085 18.386C483.421 18.638 483.859 18.764 484.399 18.764C484.819 18.764 485.137 18.632 485.353 18.368C485.581 18.116 485.695 17.738 485.695 17.234V7.388H487.945V17.18C487.945 18.248 487.651 19.088 487.063 19.7C486.475 20.312 485.653 20.618 484.597 20.618ZM486.811 5.804C486.403 5.804 486.061 5.678 485.785 5.426C485.509 5.162 485.371 4.838 485.371 4.454C485.371 4.07 485.509 3.752 485.785 3.5C486.061 3.236 486.403 3.104 486.811 3.104C487.219 3.104 487.561 3.23 487.837 3.482C488.113 3.722 488.251 4.028 488.251 4.4C488.251 4.796 488.113 5.132 487.837 5.408C487.573 5.672 487.231 5.804 486.811 5.804ZM495.385 11.06H500.335V12.932H495.385V11.06ZM511.443 4.4V17H509.103V6.362H506.439V4.4H511.443ZM522.114 10.376C522.774 10.676 523.278 11.084 523.626 11.6C523.986 12.104 524.166 12.698 524.166 13.382C524.166 14.15 523.95 14.822 523.518 15.398C523.098 15.974 522.498 16.418 521.718 16.73C520.938 17.03 520.032 17.18 519 17.18C517.968 17.18 517.062 17.03 516.282 16.73C515.514 16.418 514.92 15.974 514.5 15.398C514.08 14.822 513.87 14.15 513.87 13.382C513.87 12.698 514.044 12.104 514.392 11.6C514.74 11.084 515.238 10.676 515.886 10.376C515.382 10.1 514.992 9.74 514.716 9.296C514.452 8.84 514.32 8.318 514.32 7.73C514.32 7.022 514.512 6.404 514.896 5.876C515.292 5.348 515.844 4.94 516.552 4.652C517.26 4.364 518.076 4.22 519 4.22C519.936 4.22 520.758 4.364 521.466 4.652C522.174 4.94 522.726 5.348 523.122 5.876C523.518 6.404 523.716 7.022 523.716 7.73C523.716 8.318 523.578 8.834 523.302 9.278C523.026 9.722 522.63 10.088 522.114 10.376ZM519 6.056C518.268 6.056 517.686 6.212 517.254 6.524C516.834 6.836 516.624 7.274 516.624 7.838C516.624 8.378 516.834 8.81 517.254 9.134C517.686 9.446 518.268 9.602 519 9.602C519.744 9.602 520.332 9.446 520.764 9.134C521.196 8.81 521.412 8.378 521.412 7.838C521.412 7.274 521.19 6.836 520.746 6.524C520.314 6.212 519.732 6.056 519 6.056ZM519 15.344C519.864 15.344 520.548 15.164 521.052 14.804C521.556 14.444 521.808 13.946 521.808 13.31C521.808 12.686 521.556 12.194 521.052 11.834C520.548 11.474 519.864 11.294 519 11.294C518.136 11.294 517.458 11.474 516.966 11.834C516.474 12.194 516.228 12.686 516.228 13.31C516.228 13.946 516.474 14.444 516.966 14.804C517.458 15.164 518.136 15.344 519 15.344ZM525.238 20.618C524.29 20.618 523.57 20.432 523.078 20.06L523.726 18.386C524.062 18.638 524.5 18.764 525.04 18.764C525.46 18.764 525.778 18.632 525.994 18.368C526.222 18.116 526.336 17.738 526.336 17.234V7.388H528.586V17.18C528.586 18.248 528.292 19.088 527.704 19.7C527.116 20.312 526.294 20.618 525.238 20.618ZM527.452 5.804C527.044 5.804 526.702 5.678 526.426 5.426C526.15 5.162 526.012 4.838 526.012 4.454C526.012 4.07 526.15 3.752 526.426 3.5C526.702 3.236 527.044 3.104 527.452 3.104C527.86 3.104 528.202 3.23 528.478 3.482C528.754 3.722 528.892 4.028 528.892 4.4C528.892 4.796 528.754 5.132 528.478 5.408C528.214 5.672 527.872 5.804 527.452 5.804ZM536.205 7.622H544.503V9.422H536.205V7.622ZM536.205 11.978H544.503V13.778H536.205V11.978ZM555.775 4.4V17H553.435V6.362H550.771V4.4H555.775ZM563.638 9.602C564.802 9.746 565.69 10.142 566.302 10.79C566.914 11.438 567.22 12.248 567.22 13.22C567.22 13.952 567.034 14.618 566.662 15.218C566.29 15.818 565.726 16.298 564.97 16.658C564.226 17.006 563.314 17.18 562.234 17.18C561.334 17.18 560.464 17.054 559.624 16.802C558.796 16.538 558.088 16.178 557.5 15.722L558.508 13.904C558.964 14.288 559.516 14.594 560.164 14.822C560.824 15.038 561.502 15.146 562.198 15.146C563.026 15.146 563.674 14.978 564.142 14.642C564.622 14.294 564.862 13.826 564.862 13.238C564.862 12.65 564.634 12.194 564.178 11.87C563.734 11.534 563.05 11.366 562.126 11.366H560.974V9.764L563.836 6.362H558.112V4.4H566.698V5.966L563.638 9.602ZM574.475 9.224C575.303 9.224 576.047 9.386 576.707 9.71C577.367 10.022 577.883 10.472 578.255 11.06C578.627 11.648 578.813 12.326 578.813 13.094C578.813 13.91 578.609 14.63 578.201 15.254C577.793 15.866 577.241 16.34 576.545 16.676C575.849 17.012 575.069 17.18 574.205 17.18C572.477 17.18 571.133 16.64 570.173 15.56C569.225 14.48 568.751 12.932 568.751 10.916C568.751 9.5 569.009 8.294 569.525 7.298C570.041 6.29 570.761 5.528 571.685 5.012C572.621 4.484 573.701 4.22 574.925 4.22C575.573 4.22 576.179 4.292 576.743 4.436C577.319 4.568 577.817 4.766 578.237 5.03L577.373 6.794C576.749 6.386 575.951 6.182 574.979 6.182C573.767 6.182 572.819 6.554 572.135 7.298C571.451 8.042 571.109 9.116 571.109 10.52V10.538C571.481 10.106 571.955 9.782 572.531 9.566C573.107 9.338 573.755 9.224 574.475 9.224ZM574.079 15.344C574.811 15.344 575.405 15.152 575.861 14.768C576.317 14.372 576.545 13.85 576.545 13.202C576.545 12.542 576.317 12.02 575.861 11.636C575.405 11.252 574.793 11.06 574.025 11.06C573.269 11.06 572.651 11.264 572.171 11.672C571.703 12.08 571.469 12.596 571.469 13.22C571.469 13.832 571.697 14.342 572.153 14.75C572.621 15.146 573.263 15.344 574.079 15.344ZM583.978 9.278C585.754 9.278 587.068 9.626 587.92 10.322C588.772 11.006 589.198 11.942 589.198 13.13C589.198 13.886 589.012 14.57 588.64 15.182C588.268 15.794 587.71 16.28 586.966 16.64C586.222 17 585.304 17.18 584.212 17.18C583.312 17.18 582.442 17.054 581.602 16.802C580.762 16.538 580.054 16.178 579.478 15.722L580.468 13.904C580.936 14.288 581.494 14.594 582.142 14.822C582.802 15.038 583.48 15.146 584.176 15.146C585.004 15.146 585.652 14.978 586.12 14.642C586.6 14.294 586.84 13.82 586.84 13.22C586.84 12.572 586.582 12.086 586.066 11.762C585.562 11.426 584.692 11.258 583.456 11.258H580.414L581.062 4.4H588.46V6.362H583.042L582.772 9.278H583.978Z" fill="#2F2F2F"/>
<path d="M454.536 71.618C453.588 71.618 452.868 71.432 452.376 71.06L453.024 69.386C453.36 69.638 453.798 69.764 454.338 69.764C454.758 69.764 455.076 69.632 455.292 69.368C455.52 69.116 455.634 68.738 455.634 68.234V58.388H457.884V68.18C457.884 69.248 457.59 70.088 457.002 70.7C456.414 71.312 455.592 71.618 454.536 71.618ZM456.75 56.804C456.342 56.804 456 56.678 455.724 56.426C455.448 56.162 455.31 55.838 455.31 55.454C455.31 55.07 455.448 54.752 455.724 54.5C456 54.236 456.342 54.104 456.75 54.104C457.158 54.104 457.5 54.23 457.776 54.482C458.052 54.722 458.19 55.028 458.19 55.4C458.19 55.796 458.052 56.132 457.776 56.408C457.512 56.672 457.17 56.804 456.75 56.804ZM465.503 58.622H473.801V60.422H465.503V58.622ZM465.503 62.978H473.801V64.778H465.503V62.978Z" fill="#2F2F2F"/>
<path d="M490.005 48.0637L536.851 47.9373L536.841 45.9374L489.995 46.0637L490.005 48.0637ZM540.872 51.9265L540.974 71.9264L542.974 71.921L542.872 51.9211L540.872 51.9265ZM536.995 75.9372L490.149 76.0635L490.159 78.0634L537.005 77.9371L536.995 75.9372ZM486.128 72.0743L486.026 52.0744L484.026 52.0798L484.128 72.0797L486.128 72.0743ZM490.149 76.0635C487.94 76.0694 486.14 74.2834 486.128 72.0743L484.128 72.0797C484.146 75.3934 486.846 78.0724 490.159 78.0634L490.149 76.0635ZM540.974 71.9264C540.986 74.1355 539.204 75.9312 536.995 75.9372L537.005 77.9371C540.319 77.9282 542.991 75.2347 542.974 71.921L540.974 71.9264ZM536.851 47.9373C539.06 47.9314 540.86 49.7174 540.872 51.9265L542.872 51.9211C542.854 48.6074 540.154 45.9284 536.841 45.9374L536.851 47.9373ZM489.995 46.0637C486.681 46.0726 484.009 48.7661 484.026 52.0798L486.026 52.0744C486.014 49.8653 487.796 48.0696 490.005 48.0637L489.995 46.0637Z" fill="#2F2F2F"/>
<path d="M64.72 63.434V65H55.666V63.776L60.796 58.826C61.42 58.226 61.84 57.71 62.056 57.278C62.272 56.834 62.38 56.39 62.38 55.946C62.38 55.286 62.146 54.776 61.678 54.416C61.222 54.044 60.562 53.858 59.698 53.858C58.306 53.858 57.232 54.314 56.476 55.226L55.252 54.164C55.744 53.564 56.386 53.096 57.178 52.76C57.982 52.424 58.876 52.256 59.86 52.256C61.18 52.256 62.23 52.574 63.01 53.21C63.79 53.834 64.18 54.686 64.18 55.766C64.18 56.438 64.036 57.074 63.748 57.674C63.46 58.274 62.914 58.958 62.11 59.726L58.258 63.434H64.72ZM72.8252 65.144C71.8292 65.144 70.9412 64.892 70.1612 64.388C69.3932 63.872 68.7872 63.128 68.3432 62.156C67.8992 61.184 67.6772 60.032 67.6772 58.7C67.6772 57.368 67.8992 56.216 68.3432 55.244C68.7872 54.272 69.3932 53.534 70.1612 53.03C70.9412 52.514 71.8292 52.256 72.8252 52.256C73.8092 52.256 74.6852 52.514 75.4532 53.03C76.2332 53.534 76.8452 54.272 77.2892 55.244C77.7332 56.216 77.9552 57.368 77.9552 58.7C77.9552 60.032 77.7332 61.184 77.2892 62.156C76.8452 63.128 76.2332 63.872 75.4532 64.388C74.6852 64.892 73.8092 65.144 72.8252 65.144ZM72.8252 63.542C73.8332 63.542 74.6372 63.128 75.2372 62.3C75.8492 61.472 76.1552 60.272 76.1552 58.7C76.1552 57.128 75.8492 55.928 75.2372 55.1C74.6372 54.272 73.8332 53.858 72.8252 53.858C71.8052 53.858 70.9892 54.272 70.3772 55.1C69.7772 55.928 69.4772 57.128 69.4772 58.7C69.4772 60.272 69.7772 61.472 70.3772 62.3C70.9892 63.128 71.8052 63.542 72.8252 63.542Z" fill="#2F2F2F"/>
<path d="M298.044 54.4V55.624L292.95 67H291.042L296.028 55.966H290.268V58.216H288.54V54.4H298.044Z" fill="#2F2F2F"/>
<path d="M510.77 55.4V68H508.988V56.966H506.144V55.4H510.77ZM518.656 60.422C520.456 60.422 521.776 60.764 522.616 61.448C523.468 62.12 523.894 63.044 523.894 64.22C523.894 64.964 523.714 65.636 523.354 66.236C523.006 66.824 522.472 67.292 521.752 67.64C521.044 67.976 520.168 68.144 519.124 68.144C518.236 68.144 517.378 68.012 516.55 67.748C515.722 67.472 515.038 67.094 514.498 66.614L515.326 65.192C515.758 65.6 516.31 65.93 516.982 66.182C517.654 66.422 518.362 66.542 519.106 66.542C520.054 66.542 520.786 66.344 521.302 65.948C521.83 65.54 522.094 64.988 522.094 64.292C522.094 63.536 521.806 62.966 521.23 62.582C520.654 62.186 519.67 61.988 518.278 61.988H515.416L516.082 55.4H523.192V56.966H517.594L517.252 60.422H518.656Z" fill="#2F2F2F"/>
</svg>
