<svg width="128" height="22" viewBox="0 0 128 22" fill="none" xmlns="http://www.w3.org/2000/svg">
<path d="M12.024 14.138H9.792V17H7.524V14.138H0.612V12.518L6.822 4.4H9.324L3.474 12.158H7.596V9.62H9.792V12.158H12.024V14.138ZM22.0821 15.02V17H12.7941V15.434L17.7981 10.682C18.3621 10.142 18.7401 9.674 18.9321 9.278C19.1361 8.87 19.2381 8.468 19.2381 8.072C19.2381 7.484 19.0401 7.034 18.6441 6.722C18.2481 6.41 17.6661 6.254 16.8981 6.254C15.6141 6.254 14.6301 6.692 13.9461 7.568L12.3081 6.308C12.8001 5.648 13.4601 5.138 14.2881 4.778C15.1281 4.406 16.0641 4.22 17.0961 4.22C18.4641 4.22 19.5561 4.544 20.3721 5.192C21.1881 5.84 21.5961 6.722 21.5961 7.838C21.5961 8.522 21.4521 9.164 21.1641 9.764C20.8761 10.364 20.3241 11.048 19.5081 11.816L16.1421 15.02H22.0821ZM28.0406 12.878L26.3666 14.462V17H24.1166V3.644H26.3666V11.708L31.0286 7.388H33.7286L29.7146 11.42L34.1066 17H31.3706L28.0406 12.878ZM40.0486 11.06H44.9986V12.932H40.0486V11.06ZM57.115 9.602C58.279 9.746 59.167 10.142 59.779 10.79C60.391 11.438 60.697 12.248 60.697 13.22C60.697 13.952 60.511 14.618 60.139 15.218C59.767 15.818 59.203 16.298 58.447 16.658C57.703 17.006 56.791 17.18 55.711 17.18C54.811 17.18 53.941 17.054 53.101 16.802C52.273 16.538 51.565 16.178 50.977 15.722L51.985 13.904C52.441 14.288 52.993 14.594 53.641 14.822C54.301 15.038 54.979 15.146 55.675 15.146C56.503 15.146 57.151 14.978 57.619 14.642C58.099 14.294 58.339 13.826 58.339 13.238C58.339 12.65 58.111 12.194 57.655 11.87C57.211 11.534 56.527 11.366 55.603 11.366H54.451V9.764L57.313 6.362H51.589V4.4H60.175V5.966L57.115 9.602ZM66.8355 12.878L65.1615 14.462V17H62.9115V3.644H65.1615V11.708L69.8235 7.388H72.5235L68.5095 11.42L72.9015 17H70.1655L66.8355 12.878ZM79.0235 7.622H87.3215V9.422H79.0235V7.622ZM79.0235 11.978H87.3215V13.778H79.0235V11.978ZM103.741 4.4V5.966L98.8453 17H96.3433L101.077 6.38H96.1273V8.522H93.9493V4.4H103.741ZM113.044 10.376C113.704 10.676 114.208 11.084 114.556 11.6C114.916 12.104 115.096 12.698 115.096 13.382C115.096 14.15 114.88 14.822 114.448 15.398C114.028 15.974 113.428 16.418 112.648 16.73C111.868 17.03 110.962 17.18 109.93 17.18C108.898 17.18 107.992 17.03 107.212 16.73C106.444 16.418 105.85 15.974 105.43 15.398C105.01 14.822 104.8 14.15 104.8 13.382C104.8 12.698 104.974 12.104 105.322 11.6C105.67 11.084 106.168 10.676 106.816 10.376C106.312 10.1 105.922 9.74 105.646 9.296C105.382 8.84 105.25 8.318 105.25 7.73C105.25 7.022 105.442 6.404 105.826 5.876C106.222 5.348 106.774 4.94 107.482 4.652C108.19 4.364 109.006 4.22 109.93 4.22C110.866 4.22 111.688 4.364 112.396 4.652C113.104 4.94 113.656 5.348 114.052 5.876C114.448 6.404 114.646 7.022 114.646 7.73C114.646 8.318 114.508 8.834 114.232 9.278C113.956 9.722 113.56 10.088 113.044 10.376ZM109.93 6.056C109.198 6.056 108.616 6.212 108.184 6.524C107.764 6.836 107.554 7.274 107.554 7.838C107.554 8.378 107.764 8.81 108.184 9.134C108.616 9.446 109.198 9.602 109.93 9.602C110.674 9.602 111.262 9.446 111.694 9.134C112.126 8.81 112.342 8.378 112.342 7.838C112.342 7.274 112.12 6.836 111.676 6.524C111.244 6.212 110.662 6.056 109.93 6.056ZM109.93 15.344C110.794 15.344 111.478 15.164 111.982 14.804C112.486 14.444 112.738 13.946 112.738 13.31C112.738 12.686 112.486 12.194 111.982 11.834C111.478 11.474 110.794 11.294 109.93 11.294C109.066 11.294 108.388 11.474 107.896 11.834C107.404 12.194 107.158 12.686 107.158 13.31C107.158 13.946 107.404 14.444 107.896 14.804C108.388 15.164 109.066 15.344 109.93 15.344ZM121.87 17.18C120.862 17.18 119.962 16.928 119.17 16.424C118.378 15.908 117.754 15.164 117.298 14.192C116.842 13.208 116.614 12.044 116.614 10.7C116.614 9.356 116.842 8.198 117.298 7.226C117.754 6.242 118.378 5.498 119.17 4.994C119.962 4.478 120.862 4.22 121.87 4.22C122.878 4.22 123.778 4.478 124.57 4.994C125.374 5.498 126.004 6.242 126.46 7.226C126.916 8.198 127.144 9.356 127.144 10.7C127.144 12.044 126.916 13.208 126.46 14.192C126.004 15.164 125.374 15.908 124.57 16.424C123.778 16.928 122.878 17.18 121.87 17.18ZM121.87 15.146C122.77 15.146 123.478 14.774 123.994 14.03C124.522 13.286 124.786 12.176 124.786 10.7C124.786 9.224 124.522 8.114 123.994 7.37C123.478 6.626 122.77 6.254 121.87 6.254C120.982 6.254 120.274 6.626 119.746 7.37C119.23 8.114 118.972 9.224 118.972 10.7C118.972 12.176 119.23 13.286 119.746 14.03C120.274 14.774 120.982 15.146 121.87 15.146Z" fill="#2F2F2F"/>
</svg>
