<svg width="126" height="22" viewBox="0 0 126 22" fill="none" xmlns="http://www.w3.org/2000/svg">
<path d="M6.516 9.224C7.344 9.224 8.088 9.386 8.748 9.71C9.408 10.022 9.924 10.472 10.296 11.06C10.668 11.648 10.854 12.326 10.854 13.094C10.854 13.91 10.65 14.63 10.242 15.254C9.834 15.866 9.282 16.34 8.586 16.676C7.89 17.012 7.11 17.18 6.246 17.18C4.518 17.18 3.174 16.64 2.214 15.56C1.266 14.48 0.792 12.932 0.792 10.916C0.792 9.5 1.05 8.294 1.566 7.298C2.082 6.29 2.802 5.528 3.726 5.012C4.662 4.484 5.742 4.22 6.966 4.22C7.614 4.22 8.22 4.292 8.784 4.436C9.36 4.568 9.858 4.766 10.278 5.03L9.414 6.794C8.79 6.386 7.992 6.182 7.02 6.182C5.808 6.182 4.86 6.554 4.176 7.298C3.492 8.042 3.15 9.116 3.15 10.52V10.538C3.522 10.106 3.996 9.782 4.572 9.566C5.148 9.338 5.796 9.224 6.516 9.224ZM6.12 15.344C6.852 15.344 7.446 15.152 7.902 14.768C8.358 14.372 8.586 13.85 8.586 13.202C8.586 12.542 8.358 12.02 7.902 11.636C7.446 11.252 6.834 11.06 6.066 11.06C5.31 11.06 4.692 11.264 4.212 11.672C3.744 12.08 3.51 12.596 3.51 13.22C3.51 13.832 3.738 14.342 4.194 14.75C4.662 15.146 5.304 15.344 6.12 15.344ZM21.4933 4.4V5.966L16.5973 17H14.0953L18.8293 6.38H13.8793V8.522H11.7013V4.4H21.4933ZM29.4808 17L27.0148 13.67L24.5308 17H22.0468L25.7908 12.122L22.2088 7.388H24.7108L27.0688 10.538L29.4268 7.388H31.8568L28.2568 12.086L32.0188 17H29.4808ZM38.1677 11.06H43.1177V12.932H38.1677V11.06ZM54.2261 4.4V17H51.8861V6.362H49.2221V4.4H54.2261ZM60.6676 9.278C62.4436 9.278 63.7576 9.626 64.6096 10.322C65.4616 11.006 65.8876 11.942 65.8876 13.13C65.8876 13.886 65.7016 14.57 65.3296 15.182C64.9576 15.794 64.3996 16.28 63.6556 16.64C62.9116 17 61.9936 17.18 60.9016 17.18C60.0016 17.18 59.1316 17.054 58.2916 16.802C57.4516 16.538 56.7436 16.178 56.1676 15.722L57.1576 13.904C57.6256 14.288 58.1836 14.594 58.8316 14.822C59.4916 15.038 60.1696 15.146 60.8656 15.146C61.6936 15.146 62.3416 14.978 62.8096 14.642C63.2896 14.294 63.5296 13.82 63.5296 13.22C63.5296 12.572 63.2716 12.086 62.7556 11.762C62.2516 11.426 61.3816 11.258 60.1456 11.258H57.1036L57.7516 4.4H65.1496V6.362H59.7316L59.4616 9.278H60.6676ZM73.8655 17L71.3995 13.67L68.9155 17H66.4315L70.1755 12.122L66.5935 7.388H69.0955L71.4535 10.538L73.8115 7.388H76.2415L72.6415 12.086L76.4035 17H73.8655ZM82.7325 7.622H91.0305V9.422H82.7325V7.622ZM82.7325 11.978H91.0305V13.778H82.7325V11.978ZM103.31 9.602C104.474 9.746 105.362 10.142 105.974 10.79C106.586 11.438 106.892 12.248 106.892 13.22C106.892 13.952 106.706 14.618 106.334 15.218C105.962 15.818 105.398 16.298 104.642 16.658C103.898 17.006 102.986 17.18 101.906 17.18C101.006 17.18 100.136 17.054 99.2963 16.802C98.4683 16.538 97.7603 16.178 97.1723 15.722L98.1803 13.904C98.6363 14.288 99.1883 14.594 99.8363 14.822C100.496 15.038 101.174 15.146 101.87 15.146C102.698 15.146 103.346 14.978 103.814 14.642C104.294 14.294 104.534 13.826 104.534 13.238C104.534 12.65 104.306 12.194 103.85 11.87C103.406 11.534 102.722 11.366 101.798 11.366H100.646V9.764L103.508 6.362H97.7843V4.4H106.37V5.966L103.31 9.602ZM117.751 4.4V5.966L112.855 17H110.353L115.087 6.38H110.137V8.522H107.959V4.4H117.751ZM123.73 4.4V17H121.39V6.362H118.726V4.4H123.73Z" fill="#2F2F2F"/>
</svg>
