<svg width="136" height="22" viewBox="0 0 136 22" fill="none" xmlns="http://www.w3.org/2000/svg">
<path d="M5.148 4.4V17H2.808V6.362H0.144V4.4H5.148ZM12.9035 17.18C11.8955 17.18 10.9955 16.928 10.2035 16.424C9.41147 15.908 8.78747 15.164 8.33147 14.192C7.87547 13.208 7.64747 12.044 7.64747 10.7C7.64747 9.356 7.87547 8.198 8.33147 7.226C8.78747 6.242 9.41147 5.498 10.2035 4.994C10.9955 4.478 11.8955 4.22 12.9035 4.22C13.9115 4.22 14.8115 4.478 15.6035 4.994C16.4075 5.498 17.0375 6.242 17.4935 7.226C17.9495 8.198 18.1775 9.356 18.1775 10.7C18.1775 12.044 17.9495 13.208 17.4935 14.192C17.0375 15.164 16.4075 15.908 15.6035 16.424C14.8115 16.928 13.9115 17.18 12.9035 17.18ZM12.9035 15.146C13.8035 15.146 14.5115 14.774 15.0275 14.03C15.5555 13.286 15.8195 12.176 15.8195 10.7C15.8195 9.224 15.5555 8.114 15.0275 7.37C14.5115 6.626 13.8035 6.254 12.9035 6.254C12.0155 6.254 11.3075 6.626 10.7795 7.37C10.2635 8.114 10.0055 9.224 10.0055 10.7C10.0055 12.176 10.2635 13.286 10.7795 14.03C11.3075 14.774 12.0155 15.146 12.9035 15.146ZM24.0068 4.22C25.7348 4.22 27.0728 4.76 28.0208 5.84C28.9808 6.92 29.4608 8.468 29.4608 10.484C29.4608 11.9 29.2028 13.112 28.6868 14.12C28.1708 15.116 27.4448 15.878 26.5088 16.406C25.5848 16.922 24.5108 17.18 23.2868 17.18C22.6388 17.18 22.0268 17.114 21.4508 16.982C20.8868 16.838 20.3948 16.634 19.9748 16.37L20.8388 14.606C21.4628 15.014 22.2608 15.218 23.2328 15.218C24.4448 15.218 25.3928 14.846 26.0768 14.102C26.7608 13.358 27.1028 12.284 27.1028 10.88V10.862C26.7308 11.294 26.2568 11.624 25.6808 11.852C25.1048 12.068 24.4568 12.176 23.7368 12.176C22.9088 12.176 22.1648 12.02 21.5048 11.708C20.8448 11.384 20.3288 10.928 19.9568 10.34C19.5848 9.752 19.3988 9.074 19.3988 8.306C19.3988 7.49 19.6028 6.776 20.0108 6.164C20.4188 5.54 20.9708 5.06 21.6668 4.724C22.3628 4.388 23.1428 4.22 24.0068 4.22ZM24.1868 10.34C24.9428 10.34 25.5548 10.136 26.0228 9.728C26.5028 9.32 26.7428 8.804 26.7428 8.18C26.7428 7.568 26.5088 7.064 26.0408 6.668C25.5848 6.26 24.9488 6.056 24.1328 6.056C23.4008 6.056 22.8068 6.254 22.3508 6.65C21.8948 7.034 21.6668 7.55 21.6668 8.198C21.6668 8.858 21.8948 9.38 22.3508 9.764C22.8068 10.148 23.4188 10.34 24.1868 10.34ZM30.5973 20.618C29.6493 20.618 28.9293 20.432 28.4373 20.06L29.0853 18.386C29.4213 18.638 29.8593 18.764 30.3993 18.764C30.8193 18.764 31.1373 18.632 31.3533 18.368C31.5813 18.116 31.6953 17.738 31.6953 17.234V7.388H33.9453V17.18C33.9453 18.248 33.6513 19.088 33.0633 19.7C32.4753 20.312 31.6533 20.618 30.5973 20.618ZM32.8113 5.804C32.4033 5.804 32.0613 5.678 31.7853 5.426C31.5093 5.162 31.3713 4.838 31.3713 4.454C31.3713 4.07 31.5093 3.752 31.7853 3.5C32.0613 3.236 32.4033 3.104 32.8113 3.104C33.2193 3.104 33.5613 3.23 33.8373 3.482C34.1133 3.722 34.2513 4.028 34.2513 4.4C34.2513 4.796 34.1133 5.132 33.8373 5.408C33.5733 5.672 33.2313 5.804 32.8113 5.804ZM41.3845 11.06H46.3345V12.932H41.3845V11.06ZM57.4429 4.4V17H55.1029V6.362H52.4389V4.4H57.4429ZM68.1144 10.376C68.7744 10.676 69.2784 11.084 69.6264 11.6C69.9864 12.104 70.1664 12.698 70.1664 13.382C70.1664 14.15 69.9504 14.822 69.5184 15.398C69.0984 15.974 68.4984 16.418 67.7184 16.73C66.9384 17.03 66.0324 17.18 65.0004 17.18C63.9684 17.18 63.0624 17.03 62.2824 16.73C61.5144 16.418 60.9204 15.974 60.5004 15.398C60.0804 14.822 59.8704 14.15 59.8704 13.382C59.8704 12.698 60.0444 12.104 60.3924 11.6C60.7404 11.084 61.2384 10.676 61.8864 10.376C61.3824 10.1 60.9924 9.74 60.7164 9.296C60.4524 8.84 60.3204 8.318 60.3204 7.73C60.3204 7.022 60.5124 6.404 60.8964 5.876C61.2924 5.348 61.8444 4.94 62.5524 4.652C63.2604 4.364 64.0764 4.22 65.0004 4.22C65.9364 4.22 66.7584 4.364 67.4664 4.652C68.1744 4.94 68.7264 5.348 69.1224 5.876C69.5184 6.404 69.7164 7.022 69.7164 7.73C69.7164 8.318 69.5784 8.834 69.3024 9.278C69.0264 9.722 68.6304 10.088 68.1144 10.376ZM65.0004 6.056C64.2684 6.056 63.6864 6.212 63.2544 6.524C62.8344 6.836 62.6244 7.274 62.6244 7.838C62.6244 8.378 62.8344 8.81 63.2544 9.134C63.6864 9.446 64.2684 9.602 65.0004 9.602C65.7444 9.602 66.3324 9.446 66.7644 9.134C67.1964 8.81 67.4124 8.378 67.4124 7.838C67.4124 7.274 67.1904 6.836 66.7464 6.524C66.3144 6.212 65.7324 6.056 65.0004 6.056ZM65.0004 15.344C65.8644 15.344 66.5484 15.164 67.0524 14.804C67.5564 14.444 67.8084 13.946 67.8084 13.31C67.8084 12.686 67.5564 12.194 67.0524 11.834C66.5484 11.474 65.8644 11.294 65.0004 11.294C64.1364 11.294 63.4584 11.474 62.9664 11.834C62.4744 12.194 62.2284 12.686 62.2284 13.31C62.2284 13.946 62.4744 14.444 62.9664 14.804C63.4584 15.164 64.1364 15.344 65.0004 15.344ZM71.238 20.618C70.29 20.618 69.57 20.432 69.078 20.06L69.726 18.386C70.062 18.638 70.5 18.764 71.04 18.764C71.46 18.764 71.778 18.632 71.994 18.368C72.222 18.116 72.336 17.738 72.336 17.234V7.388H74.586V17.18C74.586 18.248 74.292 19.088 73.704 19.7C73.116 20.312 72.294 20.618 71.238 20.618ZM73.452 5.804C73.044 5.804 72.702 5.678 72.426 5.426C72.15 5.162 72.012 4.838 72.012 4.454C72.012 4.07 72.15 3.752 72.426 3.5C72.702 3.236 73.044 3.104 73.452 3.104C73.86 3.104 74.202 3.23 74.478 3.482C74.754 3.722 74.892 4.028 74.892 4.4C74.892 4.796 74.754 5.132 74.478 5.408C74.214 5.672 73.872 5.804 73.452 5.804ZM82.2052 7.622H90.5032V9.422H82.2052V7.622ZM82.2052 11.978H90.5032V13.778H82.2052V11.978ZM101.775 4.4V17H99.435V6.362H96.771V4.4H101.775ZM109.638 9.602C110.802 9.746 111.69 10.142 112.302 10.79C112.914 11.438 113.22 12.248 113.22 13.22C113.22 13.952 113.034 14.618 112.662 15.218C112.29 15.818 111.726 16.298 110.97 16.658C110.226 17.006 109.314 17.18 108.234 17.18C107.334 17.18 106.464 17.054 105.624 16.802C104.796 16.538 104.088 16.178 103.5 15.722L104.508 13.904C104.964 14.288 105.516 14.594 106.164 14.822C106.824 15.038 107.502 15.146 108.198 15.146C109.026 15.146 109.674 14.978 110.142 14.642C110.622 14.294 110.862 13.826 110.862 13.238C110.862 12.65 110.634 12.194 110.178 11.87C109.734 11.534 109.05 11.366 108.126 11.366H106.974V9.764L109.836 6.362H104.112V4.4H112.698V5.966L109.638 9.602ZM120.475 9.224C121.303 9.224 122.047 9.386 122.707 9.71C123.367 10.022 123.883 10.472 124.255 11.06C124.627 11.648 124.813 12.326 124.813 13.094C124.813 13.91 124.609 14.63 124.201 15.254C123.793 15.866 123.241 16.34 122.545 16.676C121.849 17.012 121.069 17.18 120.205 17.18C118.477 17.18 117.133 16.64 116.173 15.56C115.225 14.48 114.751 12.932 114.751 10.916C114.751 9.5 115.009 8.294 115.525 7.298C116.041 6.29 116.761 5.528 117.685 5.012C118.621 4.484 119.701 4.22 120.925 4.22C121.573 4.22 122.179 4.292 122.743 4.436C123.319 4.568 123.817 4.766 124.237 5.03L123.373 6.794C122.749 6.386 121.951 6.182 120.979 6.182C119.767 6.182 118.819 6.554 118.135 7.298C117.451 8.042 117.109 9.116 117.109 10.52V10.538C117.481 10.106 117.955 9.782 118.531 9.566C119.107 9.338 119.755 9.224 120.475 9.224ZM120.079 15.344C120.811 15.344 121.405 15.152 121.861 14.768C122.317 14.372 122.545 13.85 122.545 13.202C122.545 12.542 122.317 12.02 121.861 11.636C121.405 11.252 120.793 11.06 120.025 11.06C119.269 11.06 118.651 11.264 118.171 11.672C117.703 12.08 117.469 12.596 117.469 13.22C117.469 13.832 117.697 14.342 118.153 14.75C118.621 15.146 119.263 15.344 120.079 15.344ZM129.978 9.278C131.754 9.278 133.068 9.626 133.92 10.322C134.772 11.006 135.198 11.942 135.198 13.13C135.198 13.886 135.012 14.57 134.64 15.182C134.268 15.794 133.71 16.28 132.966 16.64C132.222 17 131.304 17.18 130.212 17.18C129.312 17.18 128.442 17.054 127.602 16.802C126.762 16.538 126.054 16.178 125.478 15.722L126.468 13.904C126.936 14.288 127.494 14.594 128.142 14.822C128.802 15.038 129.48 15.146 130.176 15.146C131.004 15.146 131.652 14.978 132.12 14.642C132.6 14.294 132.84 13.82 132.84 13.22C132.84 12.572 132.582 12.086 132.066 11.762C131.562 11.426 130.692 11.258 129.456 11.258H126.414L127.062 4.4H134.46V6.362H129.042L128.772 9.278H129.978Z" fill="#2F2F2F"/>
</svg>
