<svg width="705" height="140" viewBox="0 0 705 140" fill="none" xmlns="http://www.w3.org/2000/svg">
<path d="M0.93934 103.939C0.353553 104.525 0.353553 105.475 0.93934 106.061L10.4853 115.607C11.0711 116.192 12.0208 116.192 12.6066 115.607C13.1924 115.021 13.1924 114.071 12.6066 113.485L4.12132 105L12.6066 96.5147C13.1924 95.9289 13.1924 94.9792 12.6066 94.3934C12.0208 93.8076 11.0711 93.8076 10.4853 94.3934L0.93934 103.939ZM704.061 106.061C704.646 105.475 704.646 104.525 704.061 103.939L694.515 94.3934C693.929 93.8076 692.979 93.8076 692.393 94.3934C691.808 94.9792 691.808 95.9289 692.393 96.5147L700.879 105L692.393 113.485C691.808 114.071 691.808 115.021 692.393 115.607C692.979 116.192 693.929 116.192 694.515 115.607L704.061 106.061ZM2 106.5H703V103.5H2V106.5Z" fill="#369CB7"/>
<line x1="100.316" y1="96.5" x2="100.316" y2="113.5" stroke="#369CB7" stroke-width="3" stroke-linecap="round"/>
<path d="M77.3275 129.68H82.7075V131.34H77.3275V129.68ZM94.3898 134.26V136H84.3298V134.64L90.0298 129.14C90.7232 128.473 91.1898 127.9 91.4298 127.42C91.6698 126.927 91.7898 126.433 91.7898 125.94C91.7898 125.207 91.5298 124.64 91.0098 124.24C90.5032 123.827 89.7698 123.62 88.8098 123.62C87.2632 123.62 86.0698 124.127 85.2298 125.14L83.8698 123.96C84.4165 123.293 85.1298 122.773 86.0098 122.4C86.9032 122.027 87.8965 121.84 88.9898 121.84C90.4565 121.84 91.6232 122.193 92.4898 122.9C93.3565 123.593 93.7898 124.54 93.7898 125.74C93.7898 126.487 93.6298 127.193 93.3098 127.86C92.9898 128.527 92.3832 129.287 91.4898 130.14L87.2098 134.26H94.3898ZM97.5495 136.12C97.1762 136.12 96.8562 135.993 96.5895 135.74C96.3229 135.473 96.1895 135.14 96.1895 134.74C96.1895 134.353 96.3229 134.033 96.5895 133.78C96.8562 133.513 97.1762 133.38 97.5495 133.38C97.9229 133.38 98.2362 133.507 98.4895 133.76C98.7429 134.013 98.8695 134.34 98.8695 134.74C98.8695 135.14 98.7362 135.473 98.4695 135.74C98.2162 135.993 97.9095 136.12 97.5495 136.12ZM110.796 134.26V136H100.736V134.64L106.436 129.14C107.129 128.473 107.596 127.9 107.836 127.42C108.076 126.927 108.196 126.433 108.196 125.94C108.196 125.207 107.936 124.64 107.416 124.24C106.909 123.827 106.176 123.62 105.216 123.62C103.669 123.62 102.476 124.127 101.636 125.14L100.276 123.96C100.823 123.293 101.536 122.773 102.416 122.4C103.309 122.027 104.303 121.84 105.396 121.84C106.863 121.84 108.029 122.193 108.896 122.9C109.763 123.593 110.196 124.54 110.196 125.74C110.196 126.487 110.036 127.193 109.716 127.86C109.396 128.527 108.789 129.287 107.896 130.14L103.616 134.26H110.796Z" fill="#2F2F2F"/>
<line x1="198.398" y1="96.5" x2="198.398" y2="113.5" stroke="#369CB7" stroke-width="3" stroke-linecap="round"/>
<line x1="296.477" y1="96.5" x2="296.477" y2="113.5" stroke="#369CB7" stroke-width="3" stroke-linecap="round"/>
<line x1="394.551" y1="96.5" x2="394.551" y2="113.5" stroke="#369CB7" stroke-width="3" stroke-linecap="round"/>
<line x1="492.629" y1="96.5" x2="492.629" y2="113.5" stroke="#369CB7" stroke-width="3" stroke-linecap="round"/>
<line x1="595.734" y1="96.5" x2="595.734" y2="113.5" stroke="#369CB7" stroke-width="3" stroke-linecap="round"/>
<path d="M97.3297 88.8007C97.2196 89.6218 97.7961 90.3766 98.6171 90.4867C99.4382 90.5968 100.193 90.0204 100.303 89.1993L97.3297 88.8007ZM143.823 61.0027L143.835 59.5028L143.823 61.0027ZM184.537 90.0812C185.134 90.6554 186.084 90.6368 186.658 90.0397L196.015 80.3086C196.589 79.7114 196.571 78.7618 195.974 78.1877C195.377 77.6135 194.427 77.6321 193.853 78.2292L185.535 86.8791L176.886 78.5617C176.288 77.9875 175.339 78.0061 174.765 78.6032C174.19 79.2004 174.209 80.1499 174.806 80.7241L184.537 90.0812ZM98.8164 89C100.303 89.1993 100.303 89.2002 100.303 89.201C100.303 89.2012 100.303 89.2019 100.303 89.2021C100.303 89.2027 100.303 89.2028 100.303 89.2025C100.303 89.2019 100.303 89.1996 100.304 89.1956C100.305 89.1877 100.307 89.1731 100.31 89.1522C100.317 89.1103 100.328 89.0428 100.345 88.9515C100.378 88.7688 100.434 88.4908 100.519 88.1313C100.691 87.412 100.982 86.3685 101.457 85.1097C102.407 82.5908 104.087 79.2235 106.999 75.863C112.779 69.193 123.593 62.3448 143.812 62.5027L143.835 59.5028C122.843 59.3388 111.153 66.4892 104.732 73.8983C101.544 77.5774 99.6992 81.2698 98.65 84.0507C98.1251 85.4417 97.798 86.6082 97.6008 87.4363C97.5022 87.8505 97.4359 88.1806 97.3935 88.4126C97.3723 88.5286 97.3571 88.6201 97.3468 88.6853C97.3417 88.718 97.3378 88.7441 97.335 88.7634C97.3336 88.773 97.3324 88.781 97.3316 88.7872C97.3311 88.7903 97.3308 88.793 97.3304 88.7953C97.3303 88.7964 97.3301 88.7978 97.33 88.7983C97.3299 88.7996 97.3297 88.8007 98.8164 89ZM143.812 62.5027C164.046 62.6607 174.006 69.509 178.96 76.0295C181.462 79.3224 182.743 82.6044 183.399 85.058C183.727 86.284 183.897 87.2988 183.985 87.9975C184.029 88.3466 184.052 88.6161 184.064 88.7927C184.07 88.8809 184.074 88.9459 184.076 88.9859C184.076 89.006 184.077 89.0197 184.077 89.027C184.077 89.0307 184.077 89.0327 184.077 89.0331C184.077 89.0333 184.077 89.0331 184.077 89.0325C184.077 89.0322 184.077 89.0314 184.077 89.0313C184.077 89.0304 184.077 89.0294 185.577 89C187.077 88.9706 187.077 88.9694 187.077 88.9681C187.077 88.9675 187.077 88.9661 187.077 88.965C187.076 88.9627 187.076 88.9599 187.076 88.9568C187.076 88.9505 187.076 88.9425 187.076 88.9328C187.075 88.9136 187.074 88.8876 187.073 88.8553C187.07 88.7905 187.065 88.7001 187.057 88.5856C187.041 88.3566 187.013 88.0311 186.961 87.6229C186.859 86.8069 186.665 85.6569 186.297 84.2834C185.564 81.5378 184.134 77.8808 181.349 74.2146C175.729 66.8169 164.812 59.6666 143.835 59.5028L143.812 62.5027Z" fill="#065B5B"/>
<path d="M200.443 88.8007C200.333 89.6218 200.909 90.3766 201.73 90.4867C202.552 90.5968 203.306 90.0204 203.416 89.1993L200.443 88.8007ZM246.937 61.0027L246.948 59.5028L246.937 61.0027ZM287.651 90.0812C288.248 90.6554 289.197 90.6368 289.771 90.0397L299.129 80.3086C299.703 79.7114 299.684 78.7618 299.087 78.1877C298.49 77.6135 297.54 77.6321 296.966 78.2292L288.649 86.8791L279.999 78.5617C279.402 77.9875 278.452 78.0061 277.878 78.6032C277.304 79.2004 277.322 80.1499 277.919 80.7241L287.651 90.0812ZM201.93 89C203.416 89.1993 203.416 89.2002 203.416 89.201C203.416 89.2012 203.416 89.2019 203.416 89.2021C203.416 89.2027 203.416 89.2028 203.416 89.2025C203.416 89.2019 203.416 89.1996 203.417 89.1956C203.418 89.1877 203.42 89.1731 203.424 89.1522C203.43 89.1103 203.441 89.0428 203.458 88.9515C203.491 88.7688 203.547 88.4908 203.632 88.1313C203.804 87.412 204.095 86.3685 204.57 85.1097C205.52 82.5908 207.2 79.2235 210.113 75.863C215.893 69.193 226.706 62.3448 246.925 62.5027L246.948 59.5028C225.956 59.3388 214.266 66.4892 207.845 73.8983C204.657 77.5774 202.812 81.2698 201.763 84.0507C201.238 85.4417 200.911 86.6082 200.714 87.4363C200.615 87.8505 200.549 88.1806 200.507 88.4126C200.486 88.5286 200.47 88.6201 200.46 88.6853C200.455 88.718 200.451 88.7441 200.448 88.7634C200.447 88.773 200.446 88.781 200.445 88.7872C200.444 88.7903 200.444 88.793 200.444 88.7953C200.444 88.7964 200.443 88.7978 200.443 88.7983C200.443 88.7996 200.443 88.8007 201.93 89ZM246.925 62.5027C267.159 62.6607 277.12 69.509 282.073 76.0295C284.575 79.3224 285.857 82.6044 286.512 85.058C286.84 86.284 287.01 87.2988 287.098 87.9975C287.142 88.3466 287.165 88.6161 287.178 88.7927C287.184 88.8809 287.187 88.9459 287.189 88.9859C287.19 89.006 287.19 89.0197 287.19 89.027C287.191 89.0307 287.191 89.0327 287.191 89.0331C287.191 89.0333 287.191 89.0331 287.191 89.0325C287.191 89.0322 287.191 89.0314 287.191 89.0313C287.191 89.0304 287.191 89.0294 288.69 89C290.19 88.9706 290.19 88.9694 290.19 88.9681C290.19 88.9675 290.19 88.9661 290.19 88.965C290.19 88.9627 290.19 88.9599 290.19 88.9568C290.189 88.9505 290.189 88.9425 290.189 88.9328C290.188 88.9136 290.187 88.8876 290.186 88.8553C290.183 88.7905 290.178 88.7001 290.171 88.5856C290.155 88.3566 290.126 88.0311 290.075 87.6229C289.972 86.8069 289.778 85.6569 289.411 84.2834C288.677 81.5378 287.247 77.8808 284.462 74.2146C278.842 66.8169 267.925 59.6666 246.948 59.5028L246.925 62.5027Z" fill="#065B5B"/>
<path d="M301.029 88.8007C300.919 89.6218 301.495 90.3766 302.316 90.4867C303.137 90.5968 303.892 90.0204 304.002 89.1993L301.029 88.8007ZM347.523 61.0027L347.534 59.5028L347.523 61.0027ZM388.236 90.0812C388.834 90.6554 389.783 90.6368 390.357 90.0397L399.715 80.3086C400.289 79.7114 400.27 78.7618 399.673 78.1877C399.076 77.6135 398.126 77.6321 397.552 78.2292L389.235 86.8791L380.585 78.5617C379.988 77.9875 379.038 78.0061 378.464 78.6032C377.89 79.2004 377.908 80.1499 378.505 80.7241L388.236 90.0812ZM302.516 89C304.002 89.1993 304.002 89.2002 304.002 89.201C304.002 89.2012 304.002 89.2019 304.002 89.2021C304.002 89.2027 304.002 89.2028 304.002 89.2025C304.002 89.2019 304.002 89.1996 304.003 89.1956C304.004 89.1877 304.006 89.1731 304.009 89.1522C304.016 89.1103 304.027 89.0428 304.044 88.9515C304.077 88.7688 304.133 88.4908 304.218 88.1313C304.39 87.412 304.681 86.3685 305.156 85.1097C306.106 82.5908 307.786 79.2235 310.698 75.863C316.479 69.193 327.292 62.3448 347.511 62.5027L347.534 59.5028C326.542 59.3388 314.852 66.4892 308.431 73.8983C305.243 77.5774 303.398 81.2698 302.349 84.0507C301.824 85.4417 301.497 86.6082 301.3 87.4363C301.201 87.8505 301.135 88.1806 301.093 88.4126C301.072 88.5286 301.056 88.6201 301.046 88.6853C301.041 88.718 301.037 88.7441 301.034 88.7634C301.033 88.773 301.032 88.781 301.031 88.7872C301.03 88.7903 301.03 88.793 301.03 88.7953C301.03 88.7964 301.029 88.7978 301.029 88.7983C301.029 88.7996 301.029 88.8007 302.516 89ZM347.511 62.5027C367.745 62.6607 377.706 69.509 382.659 76.0295C385.161 79.3224 386.443 82.6044 387.098 85.058C387.426 86.284 387.596 87.2988 387.684 87.9975C387.728 88.3466 387.751 88.6161 387.764 88.7927C387.77 88.8809 387.773 88.9459 387.775 88.9859C387.776 89.006 387.776 89.0197 387.776 89.027C387.776 89.0307 387.777 89.0327 387.777 89.0331C387.777 89.0333 387.777 89.0331 387.777 89.0325C387.777 89.0322 387.777 89.0314 387.777 89.0313C387.776 89.0304 387.776 89.0294 389.276 89C390.776 88.9706 390.776 88.9694 390.776 88.9681C390.776 88.9675 390.776 88.9661 390.776 88.965C390.776 88.9627 390.776 88.9599 390.776 88.9568C390.775 88.9505 390.775 88.9425 390.775 88.9328C390.774 88.9136 390.773 88.8876 390.772 88.8553C390.769 88.7905 390.764 88.7001 390.756 88.5856C390.741 88.3566 390.712 88.0311 390.661 87.6229C390.558 86.8069 390.364 85.6569 389.997 84.2834C389.263 81.5378 387.833 77.8808 385.048 74.2146C379.428 66.8169 368.511 59.6666 347.534 59.5028L347.511 62.5027Z" fill="#065B5B"/>
<path d="M404.138 88.8007C404.028 89.6218 404.605 90.3766 405.426 90.4867C406.247 90.5968 407.002 90.0204 407.112 89.1993L404.138 88.8007ZM450.632 61.0027L450.644 59.5028L450.632 61.0027ZM491.346 90.0812C491.943 90.6554 492.893 90.6368 493.467 90.0397L502.824 80.3086C503.398 79.7114 503.379 78.7619 502.782 78.1877C502.185 77.6135 501.236 77.6321 500.661 78.2292L492.344 86.8791L483.694 78.5617C483.097 77.9875 482.147 78.0061 481.573 78.6032C480.999 79.2004 481.018 80.1499 481.615 80.7241L491.346 90.0812ZM405.625 89C407.112 89.1993 407.112 89.2002 407.111 89.201C407.111 89.2012 407.111 89.2019 407.111 89.2021C407.111 89.2027 407.111 89.2028 407.111 89.2025C407.111 89.2019 407.112 89.1996 407.112 89.1956C407.113 89.1877 407.116 89.1731 407.119 89.1522C407.125 89.1103 407.137 89.0428 407.153 88.9515C407.187 88.7688 407.242 88.4908 407.328 88.1313C407.499 87.412 407.791 86.3685 408.265 85.1097C409.216 82.5908 410.896 79.2235 413.808 75.863C419.588 69.193 430.401 62.3448 450.62 62.5027L450.644 59.5028C429.651 59.3388 417.961 66.4892 411.541 73.8983C408.353 77.5774 406.508 81.2698 405.459 84.0507C404.934 85.4417 404.607 86.6082 404.409 87.4363C404.311 87.8505 404.244 88.1806 404.202 88.4126C404.181 88.5286 404.166 88.6201 404.155 88.6853C404.15 88.718 404.146 88.7441 404.144 88.7634C404.142 88.773 404.141 88.781 404.14 88.7872C404.14 88.7903 404.139 88.793 404.139 88.7953C404.139 88.7964 404.139 88.7978 404.139 88.7983C404.138 88.7996 404.138 88.8007 405.625 89ZM450.62 62.5027C470.855 62.6607 480.815 69.509 485.769 76.0295C488.27 79.3224 489.552 82.6044 490.208 85.058C490.535 86.284 490.706 87.2988 490.793 87.9975C490.837 88.3466 490.861 88.6161 490.873 88.7927C490.879 88.8809 490.882 88.9459 490.884 88.9859C490.885 89.006 490.886 89.0197 490.886 89.027C490.886 89.0307 490.886 89.0327 490.886 89.0331C490.886 89.0333 490.886 89.0331 490.886 89.0325C490.886 89.0322 490.886 89.0314 490.886 89.0313C490.886 89.0304 490.886 89.0294 492.386 89C493.885 88.9706 493.885 88.9694 493.885 88.9681C493.885 88.9675 493.885 88.9661 493.885 88.965C493.885 88.9627 493.885 88.9599 493.885 88.9568C493.885 88.9505 493.885 88.9425 493.884 88.9328C493.884 88.9136 493.883 88.8876 493.881 88.8553C493.878 88.7905 493.874 88.7001 493.866 88.5856C493.85 88.3566 493.821 88.0311 493.77 87.6229C493.667 86.8069 493.473 85.6569 493.106 84.2834C492.372 81.5378 490.943 77.8808 488.157 74.2146C482.537 66.8169 471.621 59.6666 450.644 59.5028L450.62 62.5027Z" fill="#065B5B"/>
<path d="M505.513 88.8002C505.403 89.6212 505.979 90.3763 506.8 90.4866C507.621 90.597 508.376 90.0209 508.487 89.1998L505.513 88.8002ZM552.131 61.0027L552.143 59.5028L552.131 61.0027ZM592.96 90.0813C593.558 90.6555 594.507 90.6368 595.081 90.0396L604.438 80.308C605.012 79.7108 604.993 78.7613 604.396 78.1871C603.799 77.6129 602.849 77.6316 602.275 78.2288L593.958 86.8791L585.308 78.5621C584.711 77.988 583.761 78.0066 583.187 78.6038C582.613 79.201 582.632 80.1505 583.229 80.7247L592.96 90.0813ZM507 89C508.487 89.1998 508.487 89.2007 508.486 89.2016C508.486 89.2017 508.486 89.2024 508.486 89.2027C508.486 89.2032 508.486 89.2033 508.486 89.203C508.486 89.2024 508.487 89.2001 508.487 89.1962C508.488 89.1883 508.491 89.1738 508.494 89.1528C508.5 89.111 508.512 89.0435 508.528 88.9522C508.562 88.7696 508.617 88.4917 508.703 88.1322C508.875 87.413 509.167 86.3696 509.643 85.111C510.596 82.5923 512.281 79.2252 515.201 75.8646C520.997 69.1941 531.842 62.3448 552.12 62.5027L552.143 59.5028C531.095 59.3389 519.374 66.4882 512.937 73.8968C509.74 77.5757 507.89 81.2682 506.837 84.0494C506.311 85.4406 505.983 86.6071 505.785 87.4353C505.686 87.8496 505.62 88.1798 505.577 88.4119C505.556 88.5279 505.541 88.6194 505.531 88.6847C505.525 88.7174 505.521 88.7435 505.519 88.7628C505.517 88.7724 505.516 88.7804 505.515 88.7866C505.515 88.7898 505.514 88.7925 505.514 88.7947C505.514 88.7958 505.514 88.7972 505.514 88.7978C505.514 88.799 505.513 88.8002 507 89ZM552.12 62.5027C572.412 62.6607 582.402 69.5102 587.369 76.031C589.878 79.324 591.163 82.6057 591.82 85.059C592.149 86.2848 592.32 87.2994 592.408 87.998C592.452 88.3471 592.475 88.6164 592.487 88.793C592.494 88.8812 592.497 88.9461 592.499 88.9861C592.499 89.0061 592.5 89.0199 592.5 89.0272C592.5 89.0308 592.5 89.0328 592.5 89.0332C592.5 89.0334 592.5 89.0332 592.5 89.0326C592.5 89.0323 592.5 89.0315 592.5 89.0313C592.5 89.0305 592.5 89.0295 594 89C595.5 88.9705 595.5 88.9693 595.5 88.968C595.5 88.9675 595.5 88.966 595.5 88.9649C595.5 88.9626 595.499 88.9598 595.499 88.9567C595.499 88.9504 595.499 88.9424 595.499 88.9327C595.498 88.9134 595.497 88.8875 595.496 88.8551C595.493 88.7903 595.488 88.6998 595.48 88.5853C595.464 88.3562 595.436 88.0307 595.384 87.6224C595.281 86.8062 595.086 85.6561 594.718 84.2824C593.982 81.5364 592.549 77.8792 589.756 74.213C584.12 66.8157 573.175 59.6665 552.143 59.5028L552.12 62.5027Z" fill="#065B5B"/>
<path d="M377.68 136.16C376.573 136.16 375.587 135.88 374.72 135.32C373.867 134.747 373.193 133.92 372.7 132.84C372.207 131.76 371.96 130.48 371.96 129C371.96 127.52 372.207 126.24 372.7 125.16C373.193 124.08 373.867 123.26 374.72 122.7C375.587 122.127 376.573 121.84 377.68 121.84C378.773 121.84 379.747 122.127 380.6 122.7C381.467 123.26 382.147 124.08 382.64 125.16C383.133 126.24 383.38 127.52 383.38 129C383.38 130.48 383.133 131.76 382.64 132.84C382.147 133.92 381.467 134.747 380.6 135.32C379.747 135.88 378.773 136.16 377.68 136.16ZM377.68 134.38C378.8 134.38 379.693 133.92 380.36 133C381.04 132.08 381.38 130.747 381.38 129C381.38 127.253 381.04 125.92 380.36 125C379.693 124.08 378.8 123.62 377.68 123.62C376.547 123.62 375.64 124.08 374.96 125C374.293 125.92 373.96 127.253 373.96 129C373.96 130.747 374.293 132.08 374.96 133C375.64 133.92 376.547 134.38 377.68 134.38ZM386.385 136.12C386.012 136.12 385.692 135.993 385.425 135.74C385.159 135.473 385.025 135.14 385.025 134.74C385.025 134.353 385.159 134.033 385.425 133.78C385.692 133.513 386.012 133.38 386.385 133.38C386.759 133.38 387.072 133.507 387.325 133.76C387.579 134.013 387.705 134.34 387.705 134.74C387.705 135.14 387.572 135.473 387.305 135.74C387.052 135.993 386.745 136.12 386.385 136.12ZM395.082 136.16C393.976 136.16 392.989 135.88 392.122 135.32C391.269 134.747 390.596 133.92 390.102 132.84C389.609 131.76 389.362 130.48 389.362 129C389.362 127.52 389.609 126.24 390.102 125.16C390.596 124.08 391.269 123.26 392.122 122.7C392.989 122.127 393.976 121.84 395.082 121.84C396.176 121.84 397.149 122.127 398.002 122.7C398.869 123.26 399.549 124.08 400.042 125.16C400.536 126.24 400.782 127.52 400.782 129C400.782 130.48 400.536 131.76 400.042 132.84C399.549 133.92 398.869 134.747 398.002 135.32C397.149 135.88 396.176 136.16 395.082 136.16ZM395.082 134.38C396.202 134.38 397.096 133.92 397.762 133C398.442 132.08 398.782 130.747 398.782 129C398.782 127.253 398.442 125.92 397.762 125C397.096 124.08 396.202 123.62 395.082 123.62C393.949 123.62 393.042 124.08 392.362 125C391.696 125.92 391.362 127.253 391.362 129C391.362 130.747 391.696 132.08 392.362 133C393.042 133.92 393.949 134.38 395.082 134.38ZM406.702 127.58C408.702 127.58 410.169 127.96 411.102 128.72C412.049 129.467 412.522 130.493 412.522 131.8C412.522 132.627 412.322 133.373 411.922 134.04C411.536 134.693 410.942 135.213 410.142 135.6C409.356 135.973 408.382 136.16 407.222 136.16C406.236 136.16 405.282 136.013 404.362 135.72C403.442 135.413 402.682 134.993 402.082 134.46L403.002 132.88C403.482 133.333 404.096 133.7 404.842 133.98C405.589 134.247 406.376 134.38 407.202 134.38C408.256 134.38 409.069 134.16 409.642 133.72C410.229 133.267 410.522 132.653 410.522 131.88C410.522 131.04 410.202 130.407 409.562 129.98C408.922 129.54 407.829 129.32 406.282 129.32H403.102L403.842 122H411.742V123.74H405.522L405.142 127.58H406.702Z" fill="#2F2F2F"/>
<path d="M581.3 124V138H579.32V125.74H576.16V124H581.3ZM585.682 138.12C585.309 138.12 584.989 137.993 584.722 137.74C584.456 137.473 584.322 137.14 584.322 136.74C584.322 136.353 584.456 136.033 584.722 135.78C584.989 135.513 585.309 135.38 585.682 135.38C586.056 135.38 586.369 135.507 586.622 135.76C586.876 136.013 587.002 136.34 587.002 136.74C587.002 137.14 586.869 137.473 586.602 137.74C586.349 137.993 586.042 138.12 585.682 138.12ZM592.894 129.58C594.894 129.58 596.36 129.96 597.294 130.72C598.24 131.467 598.714 132.493 598.714 133.8C598.714 134.627 598.514 135.373 598.114 136.04C597.727 136.693 597.134 137.213 596.334 137.6C595.547 137.973 594.574 138.16 593.414 138.16C592.427 138.16 591.474 138.013 590.554 137.72C589.634 137.413 588.874 136.993 588.274 136.46L589.194 134.88C589.674 135.333 590.287 135.7 591.034 135.98C591.78 136.247 592.567 136.38 593.394 136.38C594.447 136.38 595.26 136.16 595.834 135.72C596.42 135.267 596.714 134.653 596.714 133.88C596.714 133.04 596.394 132.407 595.754 131.98C595.114 131.54 594.02 131.32 592.474 131.32H589.294L590.034 124H597.934V125.74H591.714L591.334 129.58H592.894ZM604.28 129.58C606.28 129.58 607.747 129.96 608.68 130.72C609.627 131.467 610.1 132.493 610.1 133.8C610.1 134.627 609.9 135.373 609.5 136.04C609.114 136.693 608.52 137.213 607.72 137.6C606.934 137.973 605.96 138.16 604.8 138.16C603.814 138.16 602.86 138.013 601.94 137.72C601.02 137.413 600.26 136.993 599.66 136.46L600.58 134.88C601.06 135.333 601.674 135.7 602.42 135.98C603.167 136.247 603.954 136.38 604.78 136.38C605.834 136.38 606.647 136.16 607.22 135.72C607.807 135.267 608.1 134.653 608.1 133.88C608.1 133.04 607.78 132.407 607.14 131.98C606.5 131.54 605.407 131.32 603.86 131.32H600.68L601.42 124H609.32V125.74H603.1L602.72 129.58H604.28Z" fill="#2F2F2F"/>
<path d="M144.156 9.602C145.32 9.746 146.208 10.142 146.82 10.79C147.432 11.438 147.738 12.248 147.738 13.22C147.738 13.952 147.552 14.618 147.18 15.218C146.808 15.818 146.244 16.298 145.488 16.658C144.744 17.006 143.832 17.18 142.752 17.18C141.852 17.18 140.982 17.054 140.142 16.802C139.314 16.538 138.606 16.178 138.018 15.722L139.026 13.904C139.482 14.288 140.034 14.594 140.682 14.822C141.342 15.038 142.02 15.146 142.716 15.146C143.544 15.146 144.192 14.978 144.66 14.642C145.14 14.294 145.38 13.826 145.38 13.238C145.38 12.65 145.152 12.194 144.696 11.87C144.252 11.534 143.568 11.366 142.644 11.366H141.492V9.764L144.354 6.362H138.63V4.4H147.216V5.966L144.156 9.602Z" fill="#2F2F2F"/>
<path d="M128.624 24.8H124.376V29H121.808V24.8H117.56V22.4H121.808V18.2H124.376V22.4H128.624V24.8Z" fill="#2F2F2F"/>
<path d="M130.5 24.5H156.5" stroke="#2F2F2F" stroke-linecap="round"/>
<path d="M149.024 41.138H146.792V44H144.524V41.138H137.612V39.518L143.822 31.4H146.324L140.474 39.158H144.596V36.62H146.792V39.158H149.024V41.138Z" fill="#2F2F2F"/>
<path d="M559.156 9.602C560.32 9.746 561.208 10.142 561.82 10.79C562.432 11.438 562.738 12.248 562.738 13.22C562.738 13.952 562.552 14.618 562.18 15.218C561.808 15.818 561.244 16.298 560.488 16.658C559.744 17.006 558.832 17.18 557.752 17.18C556.852 17.18 555.982 17.054 555.142 16.802C554.314 16.538 553.606 16.178 553.018 15.722L554.026 13.904C554.482 14.288 555.034 14.594 555.682 14.822C556.342 15.038 557.02 15.146 557.716 15.146C558.544 15.146 559.192 14.978 559.66 14.642C560.14 14.294 560.38 13.826 560.38 13.238C560.38 12.65 560.152 12.194 559.696 11.87C559.252 11.534 558.568 11.366 557.644 11.366H556.492V9.764L559.354 6.362H553.63V4.4H562.216V5.966L559.156 9.602Z" fill="#2F2F2F"/>
<path d="M543.624 24.8H539.376V29H536.808V24.8H532.56V22.4H536.808V18.2H539.376V22.4H543.624V24.8Z" fill="#2F2F2F"/>
<path d="M545.5 24.5H571.5" stroke="#2F2F2F" stroke-linecap="round"/>
<path d="M564.024 41.138H561.792V44H559.524V41.138H552.612V39.518L558.822 31.4H561.324L555.474 39.158H559.596V36.62H561.792V39.158H564.024V41.138Z" fill="#2F2F2F"/>
<path d="M457.156 9.602C458.32 9.746 459.208 10.142 459.82 10.79C460.432 11.438 460.738 12.248 460.738 13.22C460.738 13.952 460.552 14.618 460.18 15.218C459.808 15.818 459.244 16.298 458.488 16.658C457.744 17.006 456.832 17.18 455.752 17.18C454.852 17.18 453.982 17.054 453.142 16.802C452.314 16.538 451.606 16.178 451.018 15.722L452.026 13.904C452.482 14.288 453.034 14.594 453.682 14.822C454.342 15.038 455.02 15.146 455.716 15.146C456.544 15.146 457.192 14.978 457.66 14.642C458.14 14.294 458.38 13.826 458.38 13.238C458.38 12.65 458.152 12.194 457.696 11.87C457.252 11.534 456.568 11.366 455.644 11.366H454.492V9.764L457.354 6.362H451.63V4.4H460.216V5.966L457.156 9.602Z" fill="#2F2F2F"/>
<path d="M441.624 24.8H437.376V29H434.808V24.8H430.56V22.4H434.808V18.2H437.376V22.4H441.624V24.8Z" fill="#2F2F2F"/>
<path d="M443.5 24.5H469.5" stroke="#2F2F2F" stroke-linecap="round"/>
<path d="M462.024 41.138H459.792V44H457.524V41.138H450.612V39.518L456.822 31.4H459.324L453.474 39.158H457.596V36.62H459.792V39.158H462.024V41.138Z" fill="#2F2F2F"/>
<path d="M354.156 9.602C355.32 9.746 356.208 10.142 356.82 10.79C357.432 11.438 357.738 12.248 357.738 13.22C357.738 13.952 357.552 14.618 357.18 15.218C356.808 15.818 356.244 16.298 355.488 16.658C354.744 17.006 353.832 17.18 352.752 17.18C351.852 17.18 350.982 17.054 350.142 16.802C349.314 16.538 348.606 16.178 348.018 15.722L349.026 13.904C349.482 14.288 350.034 14.594 350.682 14.822C351.342 15.038 352.02 15.146 352.716 15.146C353.544 15.146 354.192 14.978 354.66 14.642C355.14 14.294 355.38 13.826 355.38 13.238C355.38 12.65 355.152 12.194 354.696 11.87C354.252 11.534 353.568 11.366 352.644 11.366H351.492V9.764L354.354 6.362H348.63V4.4H357.216V5.966L354.156 9.602Z" fill="#2F2F2F"/>
<path d="M338.624 24.8H334.376V29H331.808V24.8H327.56V22.4H331.808V18.2H334.376V22.4H338.624V24.8Z" fill="#2F2F2F"/>
<path d="M340.5 24.5H366.5" stroke="#2F2F2F" stroke-linecap="round"/>
<path d="M359.024 41.138H356.792V44H354.524V41.138H347.612V39.518L353.822 31.4H356.324L350.474 39.158H354.596V36.62H356.792V39.158H359.024V41.138Z" fill="#2F2F2F"/>
<path d="M253.156 9.602C254.32 9.746 255.208 10.142 255.82 10.79C256.432 11.438 256.738 12.248 256.738 13.22C256.738 13.952 256.552 14.618 256.18 15.218C255.808 15.818 255.244 16.298 254.488 16.658C253.744 17.006 252.832 17.18 251.752 17.18C250.852 17.18 249.982 17.054 249.142 16.802C248.314 16.538 247.606 16.178 247.018 15.722L248.026 13.904C248.482 14.288 249.034 14.594 249.682 14.822C250.342 15.038 251.02 15.146 251.716 15.146C252.544 15.146 253.192 14.978 253.66 14.642C254.14 14.294 254.38 13.826 254.38 13.238C254.38 12.65 254.152 12.194 253.696 11.87C253.252 11.534 252.568 11.366 251.644 11.366H250.492V9.764L253.354 6.362H247.63V4.4H256.216V5.966L253.156 9.602Z" fill="#2F2F2F"/>
<path d="M237.624 24.8H233.376V29H230.808V24.8H226.56V22.4H230.808V18.2H233.376V22.4H237.624V24.8Z" fill="#2F2F2F"/>
<path d="M239.5 24.5H265.5" stroke="#2F2F2F" stroke-linecap="round"/>
<path d="M258.024 41.138H255.792V44H253.524V41.138H246.612V39.518L252.822 31.4H255.324L249.474 39.158H253.596V36.62H255.792V39.158H258.024V41.138Z" fill="#2F2F2F"/>
</svg>
