<svg width="101" height="31" viewBox="0 0 101 31" fill="none" xmlns="http://www.w3.org/2000/svg">
<path d="M5.00512 1.13983L51.851 1.01351L51.8407 -0.986463L4.99484 -0.860148L5.00512 1.13983ZM55.8715 5.00267L55.9743 25.0026L57.9743 24.9972L57.8715 4.99728L55.8715 5.00267ZM51.9949 29.0133L5.14902 29.1396L5.1593 31.1396L52.0052 31.0133L51.9949 29.0133ZM1.12848 25.1505L1.02569 5.15056L-0.9743 5.15595L-0.871515 25.1559L1.12848 25.1505ZM5.14902 29.1396C2.93989 29.1456 1.13983 27.3596 1.12848 25.1505L-0.871515 25.1559C-0.854486 28.4695 1.8456 31.1486 5.1593 31.1396L5.14902 29.1396ZM55.9743 25.0026C55.9857 27.2117 54.204 29.0074 51.9949 29.0133L52.0052 31.0133C55.3189 31.0044 57.9913 28.3109 57.9743 24.9972L55.9743 25.0026ZM51.851 1.01351C54.0601 1.00755 55.8602 2.79356 55.8715 5.00267L57.8715 4.99728C57.8545 1.68361 55.1544 -0.995398 51.8407 -0.986463L51.851 1.01351ZM4.99484 -0.860148C1.68115 -0.851213 -0.99133 1.84229 -0.9743 5.15595L1.02569 5.15056C1.01434 2.94145 2.79599 1.14578 5.00512 1.13983L4.99484 -0.860148Z" fill="#2F2F2F"/>
<path d="M78.64 11.3962L73.64 22.9362C73.1733 24.0962 72.6067 24.9095 71.94 25.3762C71.2733 25.8562 70.4667 26.0962 69.52 26.0962C68.9867 26.0962 68.46 26.0095 67.94 25.8362C67.42 25.6628 66.9933 25.4228 66.66 25.1162L67.66 23.2762C67.9 23.5028 68.18 23.6828 68.5 23.8162C68.8333 23.9495 69.1667 24.0162 69.5 24.0162C69.94 24.0162 70.3 23.9028 70.58 23.6762C70.8733 23.4495 71.14 23.0695 71.38 22.5362L71.56 22.1162L66.9 11.3962H69.5L72.86 19.2962L76.24 11.3962H78.64ZM90.3695 7.23617V22.0762H87.9695V20.6962C87.5562 21.2028 87.0429 21.5828 86.4295 21.8362C85.8295 22.0895 85.1629 22.2162 84.4295 22.2162C83.4029 22.2162 82.4762 21.9895 81.6495 21.5362C80.8362 21.0828 80.1962 20.4428 79.7295 19.6162C79.2629 18.7762 79.0295 17.8162 79.0295 16.7362C79.0295 15.6562 79.2629 14.7028 79.7295 13.8762C80.1962 13.0495 80.8362 12.4095 81.6495 11.9562C82.4762 11.5028 83.4029 11.2762 84.4295 11.2762C85.1362 11.2762 85.7829 11.3962 86.3695 11.6362C86.9562 11.8762 87.4562 12.2362 87.8695 12.7162V7.23617H90.3695ZM84.7295 20.0762C85.3295 20.0762 85.8695 19.9428 86.3495 19.6762C86.8295 19.3962 87.2095 19.0028 87.4895 18.4962C87.7695 17.9895 87.9095 17.4028 87.9095 16.7362C87.9095 16.0695 87.7695 15.4828 87.4895 14.9762C87.2095 14.4695 86.8295 14.0828 86.3495 13.8162C85.8695 13.5362 85.3295 13.3962 84.7295 13.3962C84.1295 13.3962 83.5895 13.5362 83.1095 13.8162C82.6295 14.0828 82.2495 14.4695 81.9695 14.9762C81.6895 15.4828 81.5495 16.0695 81.5495 16.7362C81.5495 17.4028 81.6895 17.9895 81.9695 18.4962C82.2495 19.0028 82.6295 19.3962 83.1095 19.6762C83.5895 19.9428 84.1295 20.0762 84.7295 20.0762ZM99.68 14.1162V15.5362H92.88V14.4162L96.46 11.2962C96.8733 10.9228 97.1533 10.6228 97.3 10.3962C97.46 10.1562 97.54 9.91617 97.54 9.67617C97.54 9.35617 97.3933 9.09617 97.1 8.89617C96.82 8.69617 96.3933 8.59617 95.82 8.59617C95.3667 8.59617 94.96 8.6695 94.6 8.81617C94.24 8.96284 93.9533 9.18284 93.74 9.47617L92.48 8.57617C92.8267 8.1095 93.2933 7.7495 93.88 7.49617C94.4667 7.2295 95.16 7.09617 95.96 7.09617C97.0133 7.09617 97.84 7.32284 98.44 7.77617C99.04 8.2295 99.34 8.82284 99.34 9.55617C99.34 9.98284 99.2333 10.3828 99.02 10.7562C98.82 11.1295 98.4133 11.5828 97.8 12.1162L95.52 14.1162H99.68Z" fill="#2F2F2F"/>
<path d="M34.0929 14.376C34.7529 14.676 35.2569 15.084 35.6049 15.6C35.9649 16.104 36.1449 16.698 36.1449 17.382C36.1449 18.15 35.9289 18.822 35.4969 19.398C35.0769 19.974 34.4769 20.418 33.6969 20.73C32.9169 21.03 32.0109 21.18 30.9789 21.18C29.9469 21.18 29.0409 21.03 28.2609 20.73C27.4929 20.418 26.8989 19.974 26.4789 19.398C26.0589 18.822 25.8489 18.15 25.8489 17.382C25.8489 16.698 26.0229 16.104 26.3709 15.6C26.7189 15.084 27.2169 14.676 27.8649 14.376C27.3609 14.1 26.9709 13.74 26.6949 13.296C26.4309 12.84 26.2989 12.318 26.2989 11.73C26.2989 11.022 26.4909 10.404 26.8749 9.876C27.2709 9.348 27.8229 8.94 28.5309 8.652C29.2389 8.364 30.0549 8.22 30.9789 8.22C31.9149 8.22 32.7369 8.364 33.4449 8.652C34.1529 8.94 34.7049 9.348 35.1009 9.876C35.4969 10.404 35.6949 11.022 35.6949 11.73C35.6949 12.318 35.5569 12.834 35.2809 13.278C35.0049 13.722 34.6089 14.088 34.0929 14.376ZM30.9789 10.056C30.2469 10.056 29.6649 10.212 29.2329 10.524C28.8129 10.836 28.6029 11.274 28.6029 11.838C28.6029 12.378 28.8129 12.81 29.2329 13.134C29.6649 13.446 30.2469 13.602 30.9789 13.602C31.7229 13.602 32.3109 13.446 32.7429 13.134C33.1749 12.81 33.3909 12.378 33.3909 11.838C33.3909 11.274 33.1689 10.836 32.7249 10.524C32.2929 10.212 31.7109 10.056 30.9789 10.056ZM30.9789 19.344C31.8429 19.344 32.5269 19.164 33.0309 18.804C33.5349 18.444 33.7869 17.946 33.7869 17.31C33.7869 16.686 33.5349 16.194 33.0309 15.834C32.5269 15.474 31.8429 15.294 30.9789 15.294C30.1149 15.294 29.4369 15.474 28.9449 15.834C28.4529 16.194 28.2069 16.686 28.2069 17.31C28.2069 17.946 28.4529 18.444 28.9449 18.804C29.4369 19.164 30.1149 19.344 30.9789 19.344Z" fill="#2F2F2F"/>
</svg>
