<svg width="233" height="233" viewBox="0 0 233 233" fill="none" xmlns="http://www.w3.org/2000/svg">
<path d="M115.923 183.395L1.97492 116.629L116.632 49.1598L230.58 115.926L115.923 183.395Z" fill="#DAFAFF" stroke="#369CB7" stroke-width="2"/>
<path d="M117.001 50.5011L117.001 183.001" stroke="#4F4F4F" stroke-width="2" stroke-dasharray="5 5"/>
<path d="M3 117.001L229 116" stroke="#4F4F4F" stroke-width="2" stroke-dasharray="5 5"/>
<path d="M128.587 148.695V150H121.042V148.98L125.317 144.855C125.837 144.355 126.187 143.925 126.367 143.565C126.547 143.195 126.637 142.825 126.637 142.455C126.637 141.905 126.442 141.48 126.052 141.18C125.672 140.87 125.122 140.715 124.402 140.715C123.242 140.715 122.347 141.095 121.717 141.855L120.697 140.97C121.107 140.47 121.642 140.08 122.302 139.8C122.972 139.52 123.717 139.38 124.537 139.38C125.637 139.38 126.512 139.645 127.162 140.175C127.812 140.695 128.137 141.405 128.137 142.305C128.137 142.865 128.017 143.395 127.777 143.895C127.537 144.395 127.082 144.965 126.412 145.605L123.202 148.695H128.587ZM141.529 142.05L137.674 150.795C137.334 151.605 136.934 152.175 136.474 152.505C136.024 152.835 135.479 153 134.839 153C134.449 153 134.069 152.935 133.699 152.805C133.339 152.685 133.039 152.505 132.799 152.265L133.414 151.185C133.824 151.575 134.299 151.77 134.839 151.77C135.189 151.77 135.479 151.675 135.709 151.485C135.949 151.305 136.164 150.99 136.354 150.54L136.609 149.985L133.099 142.05H134.599L137.374 148.41L140.119 142.05H141.529ZM150.153 138.87V150H148.773V148.74C148.453 149.18 148.048 149.515 147.558 149.745C147.068 149.975 146.528 150.09 145.938 150.09C145.168 150.09 144.478 149.92 143.868 149.58C143.258 149.24 142.778 148.765 142.428 148.155C142.088 147.535 141.918 146.825 141.918 146.025C141.918 145.225 142.088 144.52 142.428 143.91C142.778 143.3 143.258 142.825 143.868 142.485C144.478 142.145 145.168 141.975 145.938 141.975C146.508 141.975 147.033 142.085 147.513 142.305C147.993 142.515 148.393 142.83 148.713 143.25V138.87H150.153ZM146.058 148.83C146.558 148.83 147.013 148.715 147.423 148.485C147.833 148.245 148.153 147.915 148.383 147.495C148.613 147.065 148.728 146.575 148.728 146.025C148.728 145.475 148.613 144.99 148.383 144.57C148.153 144.14 147.833 143.81 147.423 143.58C147.013 143.35 146.558 143.235 146.058 143.235C145.548 143.235 145.088 143.35 144.678 143.58C144.278 143.81 143.958 144.14 143.718 144.57C143.488 144.99 143.373 145.475 143.373 146.025C143.373 146.575 143.488 147.065 143.718 147.495C143.958 147.915 144.278 148.245 144.678 148.485C145.088 148.715 145.548 148.83 146.058 148.83Z" fill="black"/>
<path d="M53.6073 105.495C54.2073 105.725 54.6673 106.055 54.9873 106.485C55.3073 106.915 55.4673 107.43 55.4673 108.03C55.4673 108.66 55.2973 109.21 54.9573 109.68C54.6173 110.14 54.1323 110.495 53.5023 110.745C52.8723 110.995 52.1323 111.12 51.2823 111.12C50.4423 111.12 49.7073 110.995 49.0773 110.745C48.4573 110.495 47.9773 110.14 47.6373 109.68C47.2973 109.21 47.1273 108.66 47.1273 108.03C47.1273 107.43 47.2823 106.915 47.5923 106.485C47.9123 106.055 48.3723 105.725 48.9723 105.495C48.4923 105.265 48.1273 104.96 47.8773 104.58C47.6273 104.2 47.5023 103.75 47.5023 103.23C47.5023 102.65 47.6573 102.145 47.9673 101.715C48.2873 101.285 48.7323 100.955 49.3023 100.725C49.8723 100.495 50.5323 100.38 51.2823 100.38C52.0423 100.38 52.7073 100.495 53.2773 100.725C53.8573 100.955 54.3023 101.285 54.6123 101.715C54.9323 102.145 55.0923 102.65 55.0923 103.23C55.0923 103.74 54.9623 104.19 54.7023 104.58C54.4523 104.96 54.0873 105.265 53.6073 105.495ZM51.2823 101.595C50.5723 101.595 50.0123 101.75 49.6023 102.06C49.1923 102.36 48.9873 102.77 48.9873 103.29C48.9873 103.81 49.1873 104.22 49.5873 104.52C49.9973 104.82 50.5623 104.97 51.2823 104.97C52.0123 104.97 52.5823 104.82 52.9923 104.52C53.4123 104.22 53.6223 103.81 53.6223 103.29C53.6223 102.77 53.4073 102.36 52.9773 102.06C52.5573 101.75 51.9923 101.595 51.2823 101.595ZM51.2823 109.905C52.1123 109.905 52.7673 109.735 53.2473 109.395C53.7273 109.045 53.9673 108.575 53.9673 107.985C53.9673 107.405 53.7273 106.95 53.2473 106.62C52.7673 106.28 52.1123 106.11 51.2823 106.11C50.4523 106.11 49.8023 106.28 49.3323 106.62C48.8623 106.95 48.6273 107.405 48.6273 107.985C48.6273 108.575 48.8623 109.045 49.3323 109.395C49.8023 109.735 50.4523 109.905 51.2823 109.905ZM68.5489 103.05L64.6939 111.795C64.3539 112.605 63.9539 113.175 63.4939 113.505C63.0439 113.835 62.4989 114 61.8589 114C61.4689 114 61.0889 113.935 60.7189 113.805C60.3589 113.685 60.0589 113.505 59.8189 113.265L60.4339 112.185C60.8439 112.575 61.3189 112.77 61.8589 112.77C62.2089 112.77 62.4989 112.675 62.7289 112.485C62.9689 112.305 63.1839 111.99 63.3739 111.54L63.6289 110.985L60.1189 103.05H61.6189L64.3939 109.41L67.1389 103.05H68.5489ZM77.1731 99.8702V111H75.7931V109.74C75.4731 110.18 75.0681 110.515 74.5781 110.745C74.0881 110.975 73.5481 111.09 72.9581 111.09C72.1881 111.09 71.4981 110.92 70.8881 110.58C70.2781 110.24 69.7981 109.765 69.4481 109.155C69.1081 108.535 68.9381 107.825 68.9381 107.025C68.9381 106.225 69.1081 105.52 69.4481 104.91C69.7981 104.3 70.2781 103.825 70.8881 103.485C71.4981 103.145 72.1881 102.975 72.9581 102.975C73.5281 102.975 74.0531 103.085 74.5331 103.305C75.0131 103.515 75.4131 103.83 75.7331 104.25V99.8702H77.1731ZM73.0781 109.83C73.5781 109.83 74.0331 109.715 74.4431 109.485C74.8531 109.245 75.1731 108.915 75.4031 108.495C75.6331 108.065 75.7481 107.575 75.7481 107.025C75.7481 106.475 75.6331 105.99 75.4031 105.57C75.1731 105.14 74.8531 104.81 74.4431 104.58C74.0331 104.35 73.5781 104.235 73.0781 104.235C72.5681 104.235 72.1081 104.35 71.6981 104.58C71.2981 104.81 70.9781 105.14 70.7381 105.57C70.5081 105.99 70.3931 106.475 70.3931 107.025C70.3931 107.575 70.5081 108.065 70.7381 108.495C70.9781 108.915 71.2981 109.245 71.6981 109.485C72.1081 109.715 72.5681 109.83 73.0781 109.83Z" fill="black"/>
</svg>
