<svg width="34" height="20" viewBox="0 0 34 20" fill="none" xmlns="http://www.w3.org/2000/svg">
<path d="M12.64 4.39617L7.64 15.9362C7.17333 17.0962 6.60667 17.9095 5.94 18.3762C5.27333 18.8562 4.46667 19.0962 3.52 19.0962C2.98667 19.0962 2.46 19.0095 1.94 18.8362C1.42 18.6628 0.993333 18.4228 0.66 18.1162L1.66 16.2762C1.9 16.5028 2.18 16.6828 2.5 16.8162C2.83333 16.9495 3.16667 17.0162 3.5 17.0162C3.94 17.0162 4.3 16.9028 4.58 16.6762C4.87333 16.4495 5.14 16.0695 5.38 15.5362L5.56 15.1162L0.9 4.39617H3.5L6.86 12.2962L10.24 4.39617H12.64ZM24.3695 0.236171V15.0762H21.9695V13.6962C21.5562 14.2028 21.0429 14.5828 20.4295 14.8362C19.8295 15.0895 19.1629 15.2162 18.4295 15.2162C17.4029 15.2162 16.4762 14.9895 15.6495 14.5362C14.8362 14.0828 14.1962 13.4428 13.7295 12.6162C13.2629 11.7762 13.0295 10.8162 13.0295 9.73617C13.0295 8.65617 13.2629 7.70284 13.7295 6.87617C14.1962 6.0495 14.8362 5.4095 15.6495 4.95617C16.4762 4.50284 17.4029 4.27617 18.4295 4.27617C19.1362 4.27617 19.7829 4.39617 20.3695 4.63617C20.9562 4.87617 21.4562 5.23617 21.8695 5.71617V0.236171H24.3695ZM18.7295 13.0762C19.3295 13.0762 19.8695 12.9428 20.3495 12.6762C20.8295 12.3962 21.2095 12.0028 21.4895 11.4962C21.7695 10.9895 21.9095 10.4028 21.9095 9.73617C21.9095 9.06951 21.7695 8.48284 21.4895 7.97617C21.2095 7.4695 20.8295 7.08284 20.3495 6.81617C19.8695 6.53617 19.3295 6.39617 18.7295 6.39617C18.1295 6.39617 17.5895 6.53617 17.1095 6.81617C16.6295 7.08284 16.2495 7.4695 15.9695 7.97617C15.6895 8.48284 15.5495 9.06951 15.5495 9.73617C15.5495 10.4028 15.6895 10.9895 15.9695 11.4962C16.2495 12.0028 16.6295 12.3962 17.1095 12.6762C17.5895 12.9428 18.1295 13.0762 18.7295 13.0762ZM33.68 7.11617V8.53617H26.88V7.41617L30.46 4.29617C30.8733 3.92284 31.1533 3.62284 31.3 3.39617C31.46 3.15617 31.54 2.91617 31.54 2.67617C31.54 2.35617 31.3933 2.09617 31.1 1.89617C30.82 1.69617 30.3933 1.59617 29.82 1.59617C29.3667 1.59617 28.96 1.6695 28.6 1.81617C28.24 1.96284 27.9533 2.18284 27.74 2.47617L26.48 1.57617C26.8267 1.1095 27.2933 0.749504 27.88 0.496171C28.4667 0.229505 29.16 0.0961716 29.96 0.0961716C31.0133 0.0961716 31.84 0.322838 32.44 0.776171C33.04 1.2295 33.34 1.82284 33.34 2.55617C33.34 2.98284 33.2333 3.38284 33.02 3.75617C32.82 4.1295 32.4133 4.58284 31.8 5.11617L29.52 7.11617H33.68Z" fill="#2F2F2F"/>
</svg>
