<svg width="286" height="45" viewBox="0 0 286 45" fill="none" xmlns="http://www.w3.org/2000/svg">
<path d="M13.3872 8.817C14.6232 8.937 15.5652 9.321 16.2132 9.969C16.8612 10.605 17.1852 11.421 17.1852 12.417C17.1852 13.137 17.0052 13.791 16.6452 14.379C16.2852 14.955 15.7452 15.417 15.0252 15.765C14.3172 16.101 13.4472 16.269 12.4152 16.269C11.5152 16.269 10.6512 16.137 9.82322 15.873C8.99522 15.597 8.31722 15.219 7.78922 14.739L8.61722 13.317C9.04922 13.725 9.60122 14.055 10.2732 14.307C10.9452 14.547 11.6592 14.667 12.4152 14.667C13.3512 14.667 14.0772 14.469 14.5932 14.073C15.1212 13.677 15.3852 13.131 15.3852 12.435C15.3852 11.739 15.1272 11.199 14.6112 10.815C14.0952 10.431 13.3152 10.239 12.2712 10.239H11.2632V8.979L14.4312 5.091H8.36522V3.525H16.6812V4.749L13.3872 8.817Z" fill="#2F2F2F"/>
<path d="M8.91578 28.275V40.875H7.13378V29.841H4.28978V28.275H8.91578ZM17.1079 28.275V40.875H15.3259V29.841H12.4819V28.275H17.1079Z" fill="#2F2F2F"/>
<line y1="21.625" x2="24" y2="21.625" stroke="#3C3C3C"/>
<path d="M54.9891 24.2H49.5291V29.57H47.0091V24.2H41.5491V21.83H47.0091V16.43H49.5291V21.83H54.9891V24.2Z" fill="#2F2F2F"/>
<path d="M89.3841 14.559V16.125H80.3301V14.901L85.4601 9.951C86.0841 9.351 86.5041 8.835 86.7201 8.403C86.9361 7.959 87.0441 7.515 87.0441 7.071C87.0441 6.411 86.8101 5.901 86.3421 5.541C85.8861 5.169 85.2261 4.983 84.3621 4.983C82.9701 4.983 81.8961 5.439 81.1401 6.351L79.9161 5.289C80.4081 4.689 81.0501 4.221 81.8421 3.885C82.6461 3.549 83.5401 3.381 84.5241 3.381C85.8441 3.381 86.8941 3.699 87.6741 4.335C88.4541 4.959 88.8441 5.811 88.8441 6.891C88.8441 7.563 88.7001 8.199 88.4121 8.799C88.1241 9.399 87.5781 10.083 86.7741 10.851L82.9221 14.559H89.3841Z" fill="#2F2F2F"/>
<path d="M81.9158 28.275V40.875H80.1338V29.841H77.2898V28.275H81.9158ZM90.1079 28.275V40.875H88.3259V29.841H85.4819V28.275H90.1079Z" fill="#2F2F2F"/>
<line x1="72" y1="21.625" x2="96" y2="21.625" stroke="#3C3C3C"/>
<g opacity="0.3">
<path d="M111 5C111 2.23858 113.239 0 116 0H176C178.761 0 181 2.23858 181 5V40C181 42.7614 178.761 45 176 45H116C113.239 45 111 42.7614 111 40V5Z" fill="#369CB7"/>
<path d="M116 1H176V-1H116V1ZM180 5V40H182V5H180ZM176 44H116V46H176V44ZM112 40V5H110V40H112ZM116 44C113.791 44 112 42.2091 112 40H110C110 43.3137 112.686 46 116 46V44ZM180 40C180 42.2091 178.209 44 176 44V46C179.314 46 182 43.3137 182 40H180ZM176 1C178.209 1 180 2.79086 180 5H182C182 1.68629 179.314 -1 176 -1V1ZM116 -1C112.686 -1 110 1.68629 110 5H112C112 2.79086 113.791 1 116 1V-1Z" fill="#369CB7"/>
</g>
<path d="M212.286 3.775V4.999L207.192 16.375H205.284L210.27 5.341H204.51V7.591H202.782V3.775H212.286Z" fill="#2F2F2F"/>
<path d="M203.916 28.025V40.625H202.134V29.591H199.29V28.025H203.916ZM212.108 28.025V40.625H210.326V29.591H207.482V28.025H212.108Z" fill="#2F2F2F"/>
<line x1="196" y1="22.125" x2="220" y2="22.125" stroke="#3C3C3C"/>
<path d="M237.226 24.02H245.296V26.51H237.226V24.02Z" fill="#2F2F2F"/>
<path d="M274.387 9.6295C275.623 9.7495 276.565 10.1335 277.213 10.7815C277.861 11.4175 278.185 12.2335 278.185 13.2295C278.185 13.9495 278.005 14.6035 277.645 15.1915C277.285 15.7675 276.745 16.2295 276.025 16.5775C275.317 16.9135 274.447 17.0815 273.415 17.0815C272.515 17.0815 271.651 16.9495 270.823 16.6855C269.995 16.4095 269.317 16.0315 268.789 15.5515L269.617 14.1295C270.049 14.5375 270.601 14.8675 271.273 15.1195C271.945 15.3595 272.659 15.4795 273.415 15.4795C274.351 15.4795 275.077 15.2815 275.593 14.8855C276.121 14.4895 276.385 13.9435 276.385 13.2475C276.385 12.5515 276.127 12.0115 275.611 11.6275C275.095 11.2435 274.315 11.0515 273.271 11.0515H272.263V9.7915L275.431 5.9035H269.365V4.3375H277.681V5.5615L274.387 9.6295Z" fill="#2F2F2F"/>
<path d="M270.916 27.4625V40.0625H269.134V29.0285H266.29V27.4625H270.916ZM279.108 27.4625V40.0625H277.326V29.0285H274.482V27.4625H279.108Z" fill="#2F2F2F"/>
<line x1="262" y1="22.1875" x2="286" y2="22.1875" stroke="#3C3C3C"/>
<path d="M111 5C111 2.23858 113.239 0 116 0H176C178.761 0 181 2.23858 181 5V40C181 42.7614 178.761 45 176 45H116C113.239 45 111 42.7614 111 40V5Z" fill="#369CB7"/>
<path d="M152.932 21.38V24.62L139.102 29.99V26.87L149.452 23L139.102 19.13V16.01L152.932 21.38Z" fill="white"/>
<path d="M116 1H176V-1H116V1ZM180 5V40H182V5H180ZM176 44H116V46H176V44ZM112 40V5H110V40H112ZM116 44C113.791 44 112 42.2091 112 40H110C110 43.3137 112.686 46 116 46V44ZM180 40C180 42.2091 178.209 44 176 44V46C179.314 46 182 43.3137 182 40H180ZM176 1C178.209 1 180 2.79086 180 5H182C182 1.68629 179.314 -1 176 -1V1ZM116 -1C112.686 -1 110 1.68629 110 5H112C112 2.79086 113.791 1 116 1V-1Z" fill="#369CB7"/>
</svg>
