<svg width="96" height="43" viewBox="0 0 96 43" fill="none" xmlns="http://www.w3.org/2000/svg">
<path d="M13.3872 7.817C14.6232 7.937 15.5652 8.321 16.2132 8.969C16.8612 9.605 17.1852 10.421 17.1852 11.417C17.1852 12.137 17.0052 12.791 16.6452 13.379C16.2852 13.955 15.7452 14.417 15.0252 14.765C14.3172 15.101 13.4472 15.269 12.4152 15.269C11.5152 15.269 10.6512 15.137 9.82322 14.873C8.99522 14.597 8.31722 14.219 7.78922 13.739L8.61722 12.317C9.04922 12.725 9.60122 13.055 10.2732 13.307C10.9452 13.547 11.6592 13.667 12.4152 13.667C13.3512 13.667 14.0772 13.469 14.5932 13.073C15.1212 12.677 15.3852 12.131 15.3852 11.435C15.3852 10.739 15.1272 10.199 14.6112 9.815C14.0952 9.431 13.3152 9.239 12.2712 9.239H11.2632V7.979L14.4312 4.091H8.36522V2.525H16.6812V3.749L13.3872 7.817Z" fill="#2F2F2F"/>
<path d="M8.91578 27.275V39.875H7.13378V28.841H4.28978V27.275H8.91578ZM17.1079 27.275V39.875H15.3259V28.841H12.4819V27.275H17.1079Z" fill="#2F2F2F"/>
<line y1="20.625" x2="24" y2="20.625" stroke="#3C3C3C"/>
<path d="M54.9891 23.2H49.5291V28.57H47.0091V23.2H41.5491V20.83H47.0091V15.43H49.5291V20.83H54.9891V23.2Z" fill="#2F2F2F"/>
<path d="M89.3841 13.559V15.125H80.3301V13.901L85.4601 8.951C86.0841 8.351 86.5041 7.835 86.7201 7.403C86.9361 6.959 87.0441 6.515 87.0441 6.071C87.0441 5.411 86.8101 4.901 86.3421 4.541C85.8861 4.169 85.2261 3.983 84.3621 3.983C82.9701 3.983 81.8961 4.439 81.1401 5.351L79.9161 4.289C80.4081 3.689 81.0501 3.221 81.8421 2.885C82.6461 2.549 83.5401 2.381 84.5241 2.381C85.8441 2.381 86.8941 2.699 87.6741 3.335C88.4541 3.959 88.8441 4.811 88.8441 5.891C88.8441 6.563 88.7001 7.199 88.4121 7.799C88.1241 8.399 87.5781 9.083 86.7741 9.851L82.9221 13.559H89.3841Z" fill="#2F2F2F"/>
<path d="M81.9158 27.275V39.875H80.1338V28.841H77.2898V27.275H81.9158ZM90.1079 27.275V39.875H88.3259V28.841H85.4819V27.275H90.1079Z" fill="#2F2F2F"/>
<line x1="72" y1="20.625" x2="96" y2="20.625" stroke="#3C3C3C"/>
</svg>
