<svg width="70" height="45" viewBox="0 0 70 45" fill="none" xmlns="http://www.w3.org/2000/svg">
<path d="M0 5C0 2.23858 2.23858 0 5 0H65C67.7614 0 70 2.23858 70 5V40C70 42.7614 67.7614 45 65 45H5C2.23858 45 0 42.7614 0 40V5Z" fill="#369CB7"/>
<path d="M41.9323 21.38V24.62L28.1023 29.99V26.87L38.4523 23L28.1023 19.13V16.01L41.9323 21.38Z" fill="white"/>
<path d="M5 1H65V-1H5V1ZM69 5V40H71V5H69ZM65 44H5V46H65V44ZM1 40V5H-1V40H1ZM5 44C2.79086 44 1 42.2091 1 40H-1C-1 43.3137 1.68629 46 5 46V44ZM69 40C69 42.2091 67.2091 44 65 44V46C68.3137 46 71 43.3137 71 40H69ZM65 1C67.2091 1 69 2.79086 69 5H71C71 1.68629 68.3137 -1 65 -1V1ZM5 -1C1.68629 -1 -1 1.68629 -1 5H1C1 2.79086 2.79086 1 5 1V-1Z" fill="#369CB7"/>
</svg>
