<svg width="90" height="43" viewBox="0 0 90 43" fill="none" xmlns="http://www.w3.org/2000/svg">
<path d="M16.2862 2.775V3.999L11.1922 15.375H9.28419L14.2702 4.341H8.51019V6.591H6.78219V2.775H16.2862Z" fill="#2F2F2F"/>
<path d="M7.91578 27.025V39.625H6.13378V28.591H3.28978V27.025H7.91578ZM16.1079 27.025V39.625H14.3259V28.591H11.4819V27.025H16.1079Z" fill="#2F2F2F"/>
<line y1="21.125" x2="24" y2="21.125" stroke="#3C3C3C"/>
<path d="M41.2256 23.02H49.2956V25.51H41.2256V23.02Z" fill="#2F2F2F"/>
<path d="M78.3872 8.6295C79.6232 8.7495 80.5652 9.1335 81.2132 9.7815C81.8612 10.4175 82.1852 11.2335 82.1852 12.2295C82.1852 12.9495 82.0052 13.6035 81.6452 14.1915C81.2852 14.7675 80.7452 15.2295 80.0252 15.5775C79.3172 15.9135 78.4472 16.0815 77.4152 16.0815C76.5152 16.0815 75.6512 15.9495 74.8232 15.6855C73.9952 15.4095 73.3172 15.0315 72.7892 14.5515L73.6172 13.1295C74.0492 13.5375 74.6012 13.8675 75.2732 14.1195C75.9452 14.3595 76.6592 14.4795 77.4152 14.4795C78.3512 14.4795 79.0772 14.2815 79.5932 13.8855C80.1212 13.4895 80.3852 12.9435 80.3852 12.2475C80.3852 11.5515 80.1272 11.0115 79.6112 10.6275C79.0952 10.2435 78.3152 10.0515 77.2712 10.0515H76.2632V8.7915L79.4312 4.9035H73.3652V3.3375H81.6812V4.5615L78.3872 8.6295Z" fill="#2F2F2F"/>
<path d="M74.9158 26.4625V39.0625H73.1338V28.0285H70.2898V26.4625H74.9158ZM83.1079 26.4625V39.0625H81.3259V28.0285H78.4819V26.4625H83.1079Z" fill="#2F2F2F"/>
<line x1="66" y1="21.1875" x2="90" y2="21.1875" stroke="#3C3C3C"/>
</svg>
