<svg width="344" height="134" viewBox="0 0 344 134" fill="none" xmlns="http://www.w3.org/2000/svg">
<path d="M20.024 100.138H17.792V103H15.524V100.138H8.612V98.518L14.822 90.4H17.324L11.474 98.158H15.596V95.62H17.792V98.158H20.024V100.138Z" fill="#2F2F2F"/>
<line x1="0.5" y1="109.5" x2="26.5" y2="109.5" stroke="#2F2F2F" stroke-linecap="round"/>
<path d="M14.516 121.224C15.344 121.224 16.088 121.386 16.748 121.71C17.408 122.022 17.924 122.472 18.296 123.06C18.668 123.648 18.854 124.326 18.854 125.094C18.854 125.91 18.65 126.63 18.242 127.254C17.834 127.866 17.282 128.34 16.586 128.676C15.89 129.012 15.11 129.18 14.246 129.18C12.518 129.18 11.174 128.64 10.214 127.56C9.266 126.48 8.792 124.932 8.792 122.916C8.792 121.5 9.05 120.294 9.566 119.298C10.082 118.29 10.802 117.528 11.726 117.012C12.662 116.484 13.742 116.22 14.966 116.22C15.614 116.22 16.22 116.292 16.784 116.436C17.36 116.568 17.858 116.766 18.278 117.03L17.414 118.794C16.79 118.386 15.992 118.182 15.02 118.182C13.808 118.182 12.86 118.554 12.176 119.298C11.492 120.042 11.15 121.116 11.15 122.52V122.538C11.522 122.106 11.996 121.782 12.572 121.566C13.148 121.338 13.796 121.224 14.516 121.224ZM14.12 127.344C14.852 127.344 15.446 127.152 15.902 126.768C16.358 126.372 16.586 125.85 16.586 125.202C16.586 124.542 16.358 124.02 15.902 123.636C15.446 123.252 14.834 123.06 14.066 123.06C13.31 123.06 12.692 123.264 12.212 123.672C11.744 124.08 11.51 124.596 11.51 125.22C11.51 125.832 11.738 126.342 12.194 126.75C12.662 127.146 13.304 127.344 14.12 127.344Z" fill="#2F2F2F"/>
<path d="M39.2795 105.76H52.7195V108.13H39.2795V105.76ZM39.2795 112.87H52.7195V115.24H39.2795V112.87Z" fill="#2F2F2F"/>
<path d="M70.0051 96.0637L116.851 95.9373L116.841 93.9374L69.9948 94.0637L70.0051 96.0637ZM120.872 99.9265L120.974 119.926L122.974 119.921L122.872 99.9211L120.872 99.9265ZM116.995 123.937L70.149 124.063L70.1593 126.063L117.005 125.937L116.995 123.937ZM66.1285 120.074L66.0257 100.074L64.0257 100.08L64.1285 120.08L66.1285 120.074ZM70.149 124.063C67.9399 124.069 66.1398 122.283 66.1285 120.074L64.1285 120.08C64.1455 123.393 66.8456 126.072 70.1593 126.063L70.149 124.063ZM120.974 119.926C120.986 122.136 119.204 123.931 116.995 123.937L117.005 125.937C120.319 125.928 122.991 123.235 122.974 119.921L120.974 119.926ZM116.851 95.9373C119.06 95.9314 120.86 97.7174 120.872 99.9265L122.872 99.9211C122.854 96.6074 120.154 93.9284 116.841 93.9374L116.851 95.9373ZM69.9948 94.0637C66.6811 94.0726 64.0087 96.7661 64.0257 100.08L66.0257 100.074C66.0143 97.8653 67.796 96.0696 70.0051 96.0637L69.9948 94.0637Z" fill="#2F2F2F"/>
<path d="M234.734 95.278C236.51 95.278 237.824 95.626 238.676 96.322C239.528 97.006 239.954 97.942 239.954 99.13C239.954 99.886 239.768 100.57 239.396 101.182C239.024 101.794 238.466 102.28 237.722 102.64C236.978 103 236.06 103.18 234.968 103.18C234.068 103.18 233.198 103.054 232.358 102.802C231.518 102.538 230.81 102.178 230.234 101.722L231.224 99.904C231.692 100.288 232.25 100.594 232.898 100.822C233.558 101.038 234.236 101.146 234.932 101.146C235.76 101.146 236.408 100.978 236.876 100.642C237.356 100.294 237.596 99.82 237.596 99.22C237.596 98.572 237.338 98.086 236.822 97.762C236.318 97.426 235.448 97.258 234.212 97.258H231.17L231.818 90.4H239.216V92.362H233.798L233.528 95.278H234.734Z" fill="#2F2F2F"/>
<line x1="222.5" y1="109.5" x2="248.5" y2="109.5" stroke="#2F2F2F" stroke-linecap="round"/>
<path d="M234.918 127.02V129H225.63V127.434L230.634 122.682C231.198 122.142 231.576 121.674 231.768 121.278C231.972 120.87 232.074 120.468 232.074 120.072C232.074 119.484 231.876 119.034 231.48 118.722C231.084 118.41 230.502 118.254 229.734 118.254C228.45 118.254 227.466 118.692 226.782 119.568L225.144 118.308C225.636 117.648 226.296 117.138 227.124 116.778C227.964 116.406 228.9 116.22 229.932 116.22C231.3 116.22 232.392 116.544 233.208 117.192C234.024 117.84 234.432 118.722 234.432 119.838C234.432 120.522 234.288 121.164 234 121.764C233.712 122.364 233.16 123.048 232.344 123.816L228.978 127.02H234.918ZM240.211 121.278C241.987 121.278 243.301 121.626 244.153 122.322C245.005 123.006 245.431 123.942 245.431 125.13C245.431 125.886 245.245 126.57 244.873 127.182C244.501 127.794 243.943 128.28 243.199 128.64C242.455 129 241.537 129.18 240.445 129.18C239.545 129.18 238.675 129.054 237.835 128.802C236.995 128.538 236.287 128.178 235.711 127.722L236.701 125.904C237.169 126.288 237.727 126.594 238.375 126.822C239.035 127.038 239.713 127.146 240.409 127.146C241.237 127.146 241.885 126.978 242.353 126.642C242.833 126.294 243.073 125.82 243.073 125.22C243.073 124.572 242.815 124.086 242.299 123.762C241.795 123.426 240.925 123.258 239.689 123.258H236.647L237.295 116.4H244.693V118.362H239.275L239.005 121.278H240.211Z" fill="#2F2F2F"/>
<path d="M261.28 105.76H274.72V108.13H261.28V105.76ZM261.28 112.87H274.72V115.24H261.28V112.87Z" fill="#2F2F2F"/>
<path d="M292.005 96.0637L338.851 95.9373L338.841 93.9374L291.995 94.0637L292.005 96.0637ZM342.872 99.9265L342.974 119.926L344.974 119.921L344.872 99.9211L342.872 99.9265ZM338.995 123.937L292.149 124.063L292.159 126.063L339.005 125.937L338.995 123.937ZM288.128 120.074L288.026 100.074L286.026 100.08L286.128 120.08L288.128 120.074ZM292.149 124.063C289.94 124.069 288.14 122.283 288.128 120.074L286.128 120.08C286.146 123.393 288.846 126.072 292.159 126.063L292.149 124.063ZM342.974 119.926C342.986 122.136 341.204 123.931 338.995 123.937L339.005 125.937C342.319 125.928 344.991 123.235 344.974 119.921L342.974 119.926ZM338.851 95.9373C341.06 95.9314 342.86 97.7174 342.872 99.9265L344.872 99.9211C344.854 96.6074 342.154 93.9284 338.841 93.9374L338.851 95.9373ZM291.995 94.0637C288.681 94.0726 286.009 96.7661 286.026 100.08L288.026 100.074C288.014 97.8653 289.796 96.0696 292.005 96.0637L291.995 94.0637Z" fill="#2F2F2F"/>
<path d="M18.024 14.138H15.792V17H13.524V14.138H6.612V12.518L12.822 4.4H15.324L9.474 12.158H13.596V9.62H15.792V12.158H18.024V14.138Z" fill="#2F2F2F"/>
<line x1="0.5" y1="23.5" x2="26.5" y2="23.5" stroke="#2F2F2F" stroke-linecap="round"/>
<path d="M15.964 36.376C16.624 36.676 17.128 37.084 17.476 37.6C17.836 38.104 18.016 38.698 18.016 39.382C18.016 40.15 17.8 40.822 17.368 41.398C16.948 41.974 16.348 42.418 15.568 42.73C14.788 43.03 13.882 43.18 12.85 43.18C11.818 43.18 10.912 43.03 10.132 42.73C9.364 42.418 8.77 41.974 8.35 41.398C7.93 40.822 7.72 40.15 7.72 39.382C7.72 38.698 7.894 38.104 8.242 37.6C8.59 37.084 9.088 36.676 9.736 36.376C9.232 36.1 8.842 35.74 8.566 35.296C8.302 34.84 8.17 34.318 8.17 33.73C8.17 33.022 8.362 32.404 8.746 31.876C9.142 31.348 9.694 30.94 10.402 30.652C11.11 30.364 11.926 30.22 12.85 30.22C13.786 30.22 14.608 30.364 15.316 30.652C16.024 30.94 16.576 31.348 16.972 31.876C17.368 32.404 17.566 33.022 17.566 33.73C17.566 34.318 17.428 34.834 17.152 35.278C16.876 35.722 16.48 36.088 15.964 36.376ZM12.85 32.056C12.118 32.056 11.536 32.212 11.104 32.524C10.684 32.836 10.474 33.274 10.474 33.838C10.474 34.378 10.684 34.81 11.104 35.134C11.536 35.446 12.118 35.602 12.85 35.602C13.594 35.602 14.182 35.446 14.614 35.134C15.046 34.81 15.262 34.378 15.262 33.838C15.262 33.274 15.04 32.836 14.596 32.524C14.164 32.212 13.582 32.056 12.85 32.056ZM12.85 41.344C13.714 41.344 14.398 41.164 14.902 40.804C15.406 40.444 15.658 39.946 15.658 39.31C15.658 38.686 15.406 38.194 14.902 37.834C14.398 37.474 13.714 37.294 12.85 37.294C11.986 37.294 11.308 37.474 10.816 37.834C10.324 38.194 10.078 38.686 10.078 39.31C10.078 39.946 10.324 40.444 10.816 40.804C11.308 41.164 11.986 41.344 12.85 41.344Z" fill="#2F2F2F"/>
<path d="M39.2795 19.76H52.7195V22.13H39.2795V19.76ZM39.2795 26.87H52.7195V29.24H39.2795V26.87Z" fill="#2F2F2F"/>
<path d="M70.0051 10.0637L116.851 9.93734L116.841 7.93736L69.9948 8.06368L70.0051 10.0637ZM120.872 13.9265L120.974 33.9264L122.974 33.921L122.872 13.9211L120.872 13.9265ZM116.995 37.9372L70.149 38.0635L70.1593 40.0634L117.005 39.9371L116.995 37.9372ZM66.1285 34.0743L66.0257 14.0744L64.0257 14.0798L64.1285 34.0797L66.1285 34.0743ZM70.149 38.0635C67.9399 38.0694 66.1398 36.2834 66.1285 34.0743L64.1285 34.0797C64.1455 37.3934 66.8456 40.0724 70.1593 40.0634L70.149 38.0635ZM120.974 33.9264C120.986 36.1355 119.204 37.9312 116.995 37.9372L117.005 39.9371C120.319 39.9282 122.991 37.2347 122.974 33.921L120.974 33.9264ZM116.851 9.93734C119.06 9.93138 120.86 11.7174 120.872 13.9265L122.872 13.9211C122.854 10.6074 120.154 7.92843 116.841 7.93736L116.851 9.93734ZM69.9948 8.06368C66.6811 8.07261 64.0087 10.7661 64.0257 14.0798L66.0257 14.0744C66.0143 11.8653 67.796 10.0696 70.0051 10.0637L69.9948 8.06368Z" fill="#2F2F2F"/>
<path d="M239.918 15.02V17H230.63V15.434L235.634 10.682C236.198 10.142 236.576 9.674 236.768 9.278C236.972 8.87 237.074 8.468 237.074 8.072C237.074 7.484 236.876 7.034 236.48 6.722C236.084 6.41 235.502 6.254 234.734 6.254C233.45 6.254 232.466 6.692 231.782 7.568L230.144 6.308C230.636 5.648 231.296 5.138 232.124 4.778C232.964 4.406 233.9 4.22 234.932 4.22C236.3 4.22 237.392 4.544 238.208 5.192C239.024 5.84 239.432 6.722 239.432 7.838C239.432 8.522 239.288 9.164 239 9.764C238.712 10.364 238.16 11.048 237.344 11.816L233.978 15.02H239.918Z" fill="#2F2F2F"/>
<line x1="222.5" y1="23.5" x2="248.5" y2="23.5" stroke="#2F2F2F" stroke-linecap="round"/>
<path d="M235.516 35.224C236.344 35.224 237.088 35.386 237.748 35.71C238.408 36.022 238.924 36.472 239.296 37.06C239.668 37.648 239.854 38.326 239.854 39.094C239.854 39.91 239.65 40.63 239.242 41.254C238.834 41.866 238.282 42.34 237.586 42.676C236.89 43.012 236.11 43.18 235.246 43.18C233.518 43.18 232.174 42.64 231.214 41.56C230.266 40.48 229.792 38.932 229.792 36.916C229.792 35.5 230.05 34.294 230.566 33.298C231.082 32.29 231.802 31.528 232.726 31.012C233.662 30.484 234.742 30.22 235.966 30.22C236.614 30.22 237.22 30.292 237.784 30.436C238.36 30.568 238.858 30.766 239.278 31.03L238.414 32.794C237.79 32.386 236.992 32.182 236.02 32.182C234.808 32.182 233.86 32.554 233.176 33.298C232.492 34.042 232.15 35.116 232.15 36.52V36.538C232.522 36.106 232.996 35.782 233.572 35.566C234.148 35.338 234.796 35.224 235.516 35.224ZM235.12 41.344C235.852 41.344 236.446 41.152 236.902 40.768C237.358 40.372 237.586 39.85 237.586 39.202C237.586 38.542 237.358 38.02 236.902 37.636C236.446 37.252 235.834 37.06 235.066 37.06C234.31 37.06 233.692 37.264 233.212 37.672C232.744 38.08 232.51 38.596 232.51 39.22C232.51 39.832 232.738 40.342 233.194 40.75C233.662 41.146 234.304 41.344 235.12 41.344Z" fill="#2F2F2F"/>
<path d="M261.28 19.76H274.72V22.13H261.28V19.76ZM261.28 26.87H274.72V29.24H261.28V26.87Z" fill="#2F2F2F"/>
<path d="M292.005 10.0637L338.851 9.93734L338.841 7.93736L291.995 8.06368L292.005 10.0637ZM342.872 13.9265L342.974 33.9264L344.974 33.921L344.872 13.9211L342.872 13.9265ZM338.995 37.9372L292.149 38.0635L292.159 40.0634L339.005 39.9371L338.995 37.9372ZM288.128 34.0743L288.026 14.0744L286.026 14.0798L286.128 34.0797L288.128 34.0743ZM292.149 38.0635C289.94 38.0694 288.14 36.2834 288.128 34.0743L286.128 34.0797C286.146 37.3934 288.846 40.0724 292.159 40.0634L292.149 38.0635ZM342.974 33.9264C342.986 36.1355 341.204 37.9312 338.995 37.9372L339.005 39.9371C342.319 39.9282 344.991 37.2347 344.974 33.921L342.974 33.9264ZM338.851 9.93734C341.06 9.93138 342.86 11.7174 342.872 13.9265L344.872 13.9211C344.854 10.6074 342.154 7.92843 338.841 7.93736L338.851 9.93734ZM291.995 8.06368C288.681 8.07261 286.009 10.7661 286.026 14.0798L288.026 14.0744C288.014 11.8653 289.796 10.0696 292.005 10.0637L291.995 8.06368Z" fill="#2F2F2F"/>
<path d="M84.3838 19.4V32H82.6018V20.966H79.7578V19.4H84.3838ZM93.2419 16.844H94.8079L88.8679 33.8H87.3019L93.2419 16.844ZM105.384 30.434V32H96.3301V30.776L101.46 25.826C102.084 25.226 102.504 24.71 102.72 24.278C102.936 23.834 103.044 23.39 103.044 22.946C103.044 22.286 102.81 21.776 102.342 21.416C101.886 21.044 101.226 20.858 100.362 20.858C98.9701 20.858 97.8961 21.314 97.1401 22.226L95.9161 21.164C96.4081 20.564 97.0501 20.096 97.8421 19.76C98.6461 19.424 99.5401 19.256 100.524 19.256C101.844 19.256 102.894 19.574 103.674 20.21C104.454 20.834 104.844 21.686 104.844 22.766C104.844 23.438 104.7 24.074 104.412 24.674C104.124 25.274 103.578 25.958 102.774 26.726L98.9221 30.434H105.384Z" fill="#2F2F2F"/>
<path d="M308.419 19.4V32H306.637V20.966H303.793V19.4H308.419ZM317.277 16.844H318.843L312.903 33.8H311.337L317.277 16.844ZM325.387 24.692C326.623 24.812 327.565 25.196 328.213 25.844C328.861 26.48 329.185 27.296 329.185 28.292C329.185 29.012 329.005 29.666 328.645 30.254C328.285 30.83 327.745 31.292 327.025 31.64C326.317 31.976 325.447 32.144 324.415 32.144C323.515 32.144 322.651 32.012 321.823 31.748C320.995 31.472 320.317 31.094 319.789 30.614L320.617 29.192C321.049 29.6 321.601 29.93 322.273 30.182C322.945 30.422 323.659 30.542 324.415 30.542C325.351 30.542 326.077 30.344 326.593 29.948C327.121 29.552 327.385 29.006 327.385 28.31C327.385 27.614 327.127 27.074 326.611 26.69C326.095 26.306 325.315 26.114 324.271 26.114H323.263V24.854L326.431 20.966H320.365V19.4H328.681V20.624L325.387 24.692Z" fill="#2F2F2F"/>
<path d="M88.5194 114.434V116H79.4654V114.776L84.5954 109.826C85.2194 109.226 85.6394 108.71 85.8554 108.278C86.0714 107.834 86.1794 107.39 86.1794 106.946C86.1794 106.286 85.9454 105.776 85.4774 105.416C85.0214 105.044 84.3614 104.858 83.4974 104.858C82.1054 104.858 81.0314 105.314 80.2754 106.226L79.0514 105.164C79.5434 104.564 80.1854 104.096 80.9774 103.76C81.7814 103.424 82.6754 103.256 83.6594 103.256C84.9794 103.256 86.0294 103.574 86.8094 104.21C87.5894 104.834 87.9794 105.686 87.9794 106.766C87.9794 107.438 87.8354 108.074 87.5474 108.674C87.2594 109.274 86.7134 109.958 85.9094 110.726L82.0574 114.434H88.5194ZM96.2771 100.844H97.8431L91.9031 117.8H90.3371L96.2771 100.844ZM104.387 108.692C105.623 108.812 106.565 109.196 107.213 109.844C107.861 110.48 108.185 111.296 108.185 112.292C108.185 113.012 108.005 113.666 107.645 114.254C107.285 114.83 106.745 115.292 106.025 115.64C105.317 115.976 104.447 116.144 103.415 116.144C102.515 116.144 101.651 116.012 100.823 115.748C99.9952 115.472 99.3172 115.094 98.7892 114.614L99.6172 113.192C100.049 113.6 100.601 113.93 101.273 114.182C101.945 114.422 102.659 114.542 103.415 114.542C104.351 114.542 105.077 114.344 105.593 113.948C106.121 113.552 106.385 113.006 106.385 112.31C106.385 111.614 106.127 111.074 105.611 110.69C105.095 110.306 104.315 110.114 103.271 110.114H102.263V108.854L105.431 104.966H99.3652V103.4H107.681V104.624L104.387 108.692Z" fill="#2F2F2F"/>
<path d="M306.384 103.4V116H304.602V104.966H301.758V103.4H306.384ZM315.242 100.844H316.808L310.868 117.8H309.302L315.242 100.844ZM322.128 108.422C323.928 108.422 325.248 108.764 326.088 109.448C326.94 110.12 327.366 111.044 327.366 112.22C327.366 112.964 327.186 113.636 326.826 114.236C326.478 114.824 325.944 115.292 325.224 115.64C324.516 115.976 323.64 116.144 322.596 116.144C321.708 116.144 320.85 116.012 320.022 115.748C319.194 115.472 318.51 115.094 317.97 114.614L318.798 113.192C319.23 113.6 319.782 113.93 320.454 114.182C321.126 114.422 321.834 114.542 322.578 114.542C323.526 114.542 324.258 114.344 324.774 113.948C325.302 113.54 325.566 112.988 325.566 112.292C325.566 111.536 325.278 110.966 324.702 110.582C324.126 110.186 323.142 109.988 321.75 109.988H318.888L319.554 103.4H326.664V104.966H321.066L320.724 108.422H322.128Z" fill="#2F2F2F"/>
</svg>
