<svg width="55" height="48" viewBox="0 0 55 48" fill="none" xmlns="http://www.w3.org/2000/svg">
<path d="M18.024 14.138H15.792V17H13.524V14.138H6.612V12.518L12.822 4.4H15.324L9.474 12.158H13.596V9.62H15.792V12.158H18.024V14.138Z" fill="#2F2F2F"/>
<line x1="0.5" y1="23.5" x2="26.5" y2="23.5" stroke="#2F2F2F" stroke-linecap="round"/>
<path d="M15.964 36.376C16.624 36.676 17.128 37.084 17.476 37.6C17.836 38.104 18.016 38.698 18.016 39.382C18.016 40.15 17.8 40.822 17.368 41.398C16.948 41.974 16.348 42.418 15.568 42.73C14.788 43.03 13.882 43.18 12.85 43.18C11.818 43.18 10.912 43.03 10.132 42.73C9.364 42.418 8.77 41.974 8.35 41.398C7.93 40.822 7.72 40.15 7.72 39.382C7.72 38.698 7.894 38.104 8.242 37.6C8.59 37.084 9.088 36.676 9.736 36.376C9.232 36.1 8.842 35.74 8.566 35.296C8.302 34.84 8.17 34.318 8.17 33.73C8.17 33.022 8.362 32.404 8.746 31.876C9.142 31.348 9.694 30.94 10.402 30.652C11.11 30.364 11.926 30.22 12.85 30.22C13.786 30.22 14.608 30.364 15.316 30.652C16.024 30.94 16.576 31.348 16.972 31.876C17.368 32.404 17.566 33.022 17.566 33.73C17.566 34.318 17.428 34.834 17.152 35.278C16.876 35.722 16.48 36.088 15.964 36.376ZM12.85 32.056C12.118 32.056 11.536 32.212 11.104 32.524C10.684 32.836 10.474 33.274 10.474 33.838C10.474 34.378 10.684 34.81 11.104 35.134C11.536 35.446 12.118 35.602 12.85 35.602C13.594 35.602 14.182 35.446 14.614 35.134C15.046 34.81 15.262 34.378 15.262 33.838C15.262 33.274 15.04 32.836 14.596 32.524C14.164 32.212 13.582 32.056 12.85 32.056ZM12.85 41.344C13.714 41.344 14.398 41.164 14.902 40.804C15.406 40.444 15.658 39.946 15.658 39.31C15.658 38.686 15.406 38.194 14.902 37.834C14.398 37.474 13.714 37.294 12.85 37.294C11.986 37.294 11.308 37.474 10.816 37.834C10.324 38.194 10.078 38.686 10.078 39.31C10.078 39.946 10.324 40.444 10.816 40.804C11.308 41.164 11.986 41.344 12.85 41.344Z" fill="#2F2F2F"/>
<path d="M39.2795 19.76H52.7195V22.13H39.2795V19.76ZM39.2795 26.87H52.7195V29.24H39.2795V26.87Z" fill="#2F2F2F"/>
</svg>
