<svg width="55" height="48" viewBox="0 0 55 48" fill="none" xmlns="http://www.w3.org/2000/svg">
<path d="M12.734 9.278C14.51 9.278 15.824 9.626 16.676 10.322C17.528 11.006 17.954 11.942 17.954 13.13C17.954 13.886 17.768 14.57 17.396 15.182C17.024 15.794 16.466 16.28 15.722 16.64C14.978 17 14.06 17.18 12.968 17.18C12.068 17.18 11.198 17.054 10.358 16.802C9.518 16.538 8.81 16.178 8.234 15.722L9.224 13.904C9.692 14.288 10.25 14.594 10.898 14.822C11.558 15.038 12.236 15.146 12.932 15.146C13.76 15.146 14.408 14.978 14.876 14.642C15.356 14.294 15.596 13.82 15.596 13.22C15.596 12.572 15.338 12.086 14.822 11.762C14.318 11.426 13.448 11.258 12.212 11.258H9.17L9.818 4.4H17.216V6.362H11.798L11.528 9.278H12.734Z" fill="#2F2F2F"/>
<line x1="0.5" y1="23.5" x2="26.5" y2="23.5" stroke="#2F2F2F" stroke-linecap="round"/>
<path d="M12.918 41.02V43H3.63V41.434L8.634 36.682C9.198 36.142 9.576 35.674 9.768 35.278C9.972 34.87 10.074 34.468 10.074 34.072C10.074 33.484 9.876 33.034 9.48 32.722C9.084 32.41 8.502 32.254 7.734 32.254C6.45 32.254 5.466 32.692 4.782 33.568L3.144 32.308C3.636 31.648 4.296 31.138 5.124 30.778C5.964 30.406 6.9 30.22 7.932 30.22C9.3 30.22 10.392 30.544 11.208 31.192C12.024 31.84 12.432 32.722 12.432 33.838C12.432 34.522 12.288 35.164 12 35.764C11.712 36.364 11.16 37.048 10.344 37.816L6.978 41.02H12.918ZM18.2106 35.278C19.9866 35.278 21.3006 35.626 22.1526 36.322C23.0046 37.006 23.4306 37.942 23.4306 39.13C23.4306 39.886 23.2446 40.57 22.8726 41.182C22.5006 41.794 21.9426 42.28 21.1986 42.64C20.4546 43 19.5366 43.18 18.4446 43.18C17.5446 43.18 16.6746 43.054 15.8346 42.802C14.9946 42.538 14.2866 42.178 13.7106 41.722L14.7006 39.904C15.1686 40.288 15.7266 40.594 16.3746 40.822C17.0346 41.038 17.7126 41.146 18.4086 41.146C19.2366 41.146 19.8846 40.978 20.3526 40.642C20.8326 40.294 21.0726 39.82 21.0726 39.22C21.0726 38.572 20.8146 38.086 20.2986 37.762C19.7946 37.426 18.9246 37.258 17.6886 37.258H14.6466L15.2946 30.4H22.6926V32.362H17.2746L17.0046 35.278H18.2106Z" fill="#2F2F2F"/>
<path d="M39.2795 19.76H52.7195V22.13H39.2795V19.76ZM39.2795 26.87H52.7195V29.24H39.2795V26.87Z" fill="#2F2F2F"/>
</svg>
