<svg width="55" height="48" viewBox="0 0 55 48" fill="none" xmlns="http://www.w3.org/2000/svg">
<path d="M20.024 14.138H17.792V17H15.524V14.138H8.612V12.518L14.822 4.4H17.324L11.474 12.158H15.596V9.62H17.792V12.158H20.024V14.138Z" fill="#2F2F2F"/>
<line x1="0.5" y1="23.5" x2="26.5" y2="23.5" stroke="#2F2F2F" stroke-linecap="round"/>
<path d="M14.516 35.224C15.344 35.224 16.088 35.386 16.748 35.71C17.408 36.022 17.924 36.472 18.296 37.06C18.668 37.648 18.854 38.326 18.854 39.094C18.854 39.91 18.65 40.63 18.242 41.254C17.834 41.866 17.282 42.34 16.586 42.676C15.89 43.012 15.11 43.18 14.246 43.18C12.518 43.18 11.174 42.64 10.214 41.56C9.266 40.48 8.792 38.932 8.792 36.916C8.792 35.5 9.05 34.294 9.566 33.298C10.082 32.29 10.802 31.528 11.726 31.012C12.662 30.484 13.742 30.22 14.966 30.22C15.614 30.22 16.22 30.292 16.784 30.436C17.36 30.568 17.858 30.766 18.278 31.03L17.414 32.794C16.79 32.386 15.992 32.182 15.02 32.182C13.808 32.182 12.86 32.554 12.176 33.298C11.492 34.042 11.15 35.116 11.15 36.52V36.538C11.522 36.106 11.996 35.782 12.572 35.566C13.148 35.338 13.796 35.224 14.516 35.224ZM14.12 41.344C14.852 41.344 15.446 41.152 15.902 40.768C16.358 40.372 16.586 39.85 16.586 39.202C16.586 38.542 16.358 38.02 15.902 37.636C15.446 37.252 14.834 37.06 14.066 37.06C13.31 37.06 12.692 37.264 12.212 37.672C11.744 38.08 11.51 38.596 11.51 39.22C11.51 39.832 11.738 40.342 12.194 40.75C12.662 41.146 13.304 41.344 14.12 41.344Z" fill="#2F2F2F"/>
<path d="M39.2795 19.76H52.7195V22.13H39.2795V19.76ZM39.2795 26.87H52.7195V29.24H39.2795V26.87Z" fill="#2F2F2F"/>
</svg>
