<svg width="55" height="48" viewBox="0 0 55 48" fill="none" xmlns="http://www.w3.org/2000/svg">
<path d="M17.918 15.02V17H8.63V15.434L13.634 10.682C14.198 10.142 14.576 9.674 14.768 9.278C14.972 8.87 15.074 8.468 15.074 8.072C15.074 7.484 14.876 7.034 14.48 6.722C14.084 6.41 13.502 6.254 12.734 6.254C11.45 6.254 10.466 6.692 9.782 7.568L8.144 6.308C8.636 5.648 9.296 5.138 10.124 4.778C10.964 4.406 11.9 4.22 12.932 4.22C14.3 4.22 15.392 4.544 16.208 5.192C17.024 5.84 17.432 6.722 17.432 7.838C17.432 8.522 17.288 9.164 17 9.764C16.712 10.364 16.16 11.048 15.344 11.816L11.978 15.02H17.918Z" fill="#2F2F2F"/>
<line x1="0.5" y1="23.5" x2="26.5" y2="23.5" stroke="#2F2F2F" stroke-linecap="round"/>
<path d="M13.516 35.224C14.344 35.224 15.088 35.386 15.748 35.71C16.408 36.022 16.924 36.472 17.296 37.06C17.668 37.648 17.854 38.326 17.854 39.094C17.854 39.91 17.65 40.63 17.242 41.254C16.834 41.866 16.282 42.34 15.586 42.676C14.89 43.012 14.11 43.18 13.246 43.18C11.518 43.18 10.174 42.64 9.214 41.56C8.266 40.48 7.792 38.932 7.792 36.916C7.792 35.5 8.05 34.294 8.566 33.298C9.082 32.29 9.802 31.528 10.726 31.012C11.662 30.484 12.742 30.22 13.966 30.22C14.614 30.22 15.22 30.292 15.784 30.436C16.36 30.568 16.858 30.766 17.278 31.03L16.414 32.794C15.79 32.386 14.992 32.182 14.02 32.182C12.808 32.182 11.86 32.554 11.176 33.298C10.492 34.042 10.15 35.116 10.15 36.52V36.538C10.522 36.106 10.996 35.782 11.572 35.566C12.148 35.338 12.796 35.224 13.516 35.224ZM13.12 41.344C13.852 41.344 14.446 41.152 14.902 40.768C15.358 40.372 15.586 39.85 15.586 39.202C15.586 38.542 15.358 38.02 14.902 37.636C14.446 37.252 13.834 37.06 13.066 37.06C12.31 37.06 11.692 37.264 11.212 37.672C10.744 38.08 10.51 38.596 10.51 39.22C10.51 39.832 10.738 40.342 11.194 40.75C11.662 41.146 12.304 41.344 13.12 41.344Z" fill="#2F2F2F"/>
<path d="M39.2795 19.76H52.7195V22.13H39.2795V19.76ZM39.2795 26.87H52.7195V29.24H39.2795V26.87Z" fill="#2F2F2F"/>
</svg>
