<svg width="579" height="70" viewBox="0 0 579 70" fill="none" xmlns="http://www.w3.org/2000/svg">
<path d="M20.1637 8.4L15.9517 21H14.0617L10.6237 10.938L7.18568 21H5.25968L1.04768 8.4H2.90168L6.30368 18.642L9.84968 8.4H11.5057L14.9797 18.696L18.4537 8.4H20.1637ZM27.4713 11.37C28.6833 11.37 29.6433 11.724 30.3513 12.432C31.0713 13.128 31.4313 14.154 31.4313 15.51V21H29.7033V15.708C29.7033 14.784 29.4813 14.088 29.0373 13.62C28.5933 13.152 27.9573 12.918 27.1293 12.918C26.1933 12.918 25.4553 13.194 24.9153 13.746C24.3753 14.286 24.1053 15.066 24.1053 16.086V21H22.3773V7.644H24.1053V12.81C24.4653 12.354 24.9333 12 25.5093 11.748C26.0973 11.496 26.7513 11.37 27.4713 11.37ZM38.1032 11.37C39.4232 11.37 40.4312 11.694 41.1272 12.342C41.8352 12.99 42.1892 13.956 42.1892 15.24V21H40.5512V19.74C40.2632 20.184 39.8492 20.526 39.3092 20.766C38.7812 20.994 38.1512 21.108 37.4192 21.108C36.3512 21.108 35.4932 20.85 34.8452 20.334C34.2092 19.818 33.8912 19.14 33.8912 18.3C33.8912 17.46 34.1972 16.788 34.8092 16.284C35.4212 15.768 36.3932 15.51 37.7252 15.51H40.4612V15.168C40.4612 14.424 40.2452 13.854 39.8132 13.458C39.3812 13.062 38.7452 12.864 37.9052 12.864C37.3412 12.864 36.7892 12.96 36.2492 13.152C35.7092 13.332 35.2532 13.578 34.8812 13.89L34.1612 12.594C34.6532 12.198 35.2412 11.898 35.9252 11.694C36.6092 11.478 37.3352 11.37 38.1032 11.37ZM37.7072 19.776C38.3672 19.776 38.9372 19.632 39.4172 19.344C39.8972 19.044 40.2452 18.624 40.4612 18.084V16.752H37.7972C36.3332 16.752 35.6012 17.244 35.6012 18.228C35.6012 18.708 35.7872 19.086 36.1592 19.362C36.5312 19.638 37.0472 19.776 37.7072 19.776ZM50.751 20.442C50.499 20.658 50.187 20.826 49.815 20.946C49.443 21.054 49.059 21.108 48.663 21.108C47.703 21.108 46.959 20.85 46.431 20.334C45.903 19.818 45.639 19.08 45.639 18.12V12.882H44.019V11.46H45.639V9.372H47.367V11.46H50.103V12.882H47.367V18.048C47.367 18.564 47.493 18.96 47.745 19.236C48.009 19.512 48.381 19.65 48.861 19.65C49.389 19.65 49.839 19.5 50.211 19.2L50.751 20.442ZM61.1481 11.37C62.4681 11.37 63.4761 11.694 64.1721 12.342C64.8801 12.99 65.2341 13.956 65.2341 15.24V21H63.5961V19.74C63.3081 20.184 62.8941 20.526 62.3541 20.766C61.8261 20.994 61.1961 21.108 60.4641 21.108C59.3961 21.108 58.5381 20.85 57.8901 20.334C57.2541 19.818 56.9361 19.14 56.9361 18.3C56.9361 17.46 57.2421 16.788 57.8541 16.284C58.4661 15.768 59.4381 15.51 60.7701 15.51H63.5061V15.168C63.5061 14.424 63.2901 13.854 62.8581 13.458C62.4261 13.062 61.7901 12.864 60.9501 12.864C60.3861 12.864 59.8341 12.96 59.2941 13.152C58.7541 13.332 58.2981 13.578 57.9261 13.89L57.2061 12.594C57.6981 12.198 58.2861 11.898 58.9701 11.694C59.6541 11.478 60.3801 11.37 61.1481 11.37ZM60.7521 19.776C61.4121 19.776 61.9821 19.632 62.4621 19.344C62.9421 19.044 63.2901 18.624 63.5061 18.084V16.752H60.8421C59.3781 16.752 58.6461 17.244 58.6461 18.228C58.6461 18.708 58.8321 19.086 59.2041 19.362C59.5761 19.638 60.0921 19.776 60.7521 19.776ZM70.0879 13.062C70.3879 12.51 70.8319 12.09 71.4199 11.802C72.0079 11.514 72.7219 11.37 73.5619 11.37V13.044C73.4659 13.032 73.3339 13.026 73.1659 13.026C72.2299 13.026 71.4919 13.308 70.9519 13.872C70.4239 14.424 70.1599 15.216 70.1599 16.248V21H68.4319V11.46H70.0879V13.062ZM84.2258 16.284C84.2258 16.416 84.2138 16.59 84.1898 16.806H76.4498C76.5578 17.646 76.9238 18.324 77.5478 18.84C78.1838 19.344 78.9698 19.596 79.9058 19.596C81.0458 19.596 81.9638 19.212 82.6598 18.444L83.6138 19.56C83.1818 20.064 82.6418 20.448 81.9938 20.712C81.3578 20.976 80.6438 21.108 79.8518 21.108C78.8438 21.108 77.9498 20.904 77.1698 20.496C76.3898 20.076 75.7838 19.494 75.3518 18.75C74.9318 18.006 74.7218 17.166 74.7218 16.23C74.7218 15.306 74.9258 14.472 75.3338 13.728C75.7538 12.984 76.3238 12.408 77.0438 12C77.7758 11.58 78.5978 11.37 79.5098 11.37C80.4218 11.37 81.2318 11.58 81.9398 12C82.6598 12.408 83.2178 12.984 83.6138 13.728C84.0218 14.472 84.2258 15.324 84.2258 16.284ZM79.5098 12.828C78.6818 12.828 77.9858 13.08 77.4218 13.584C76.8698 14.088 76.5458 14.748 76.4498 15.564H82.5698C82.4738 14.76 82.1438 14.106 81.5798 13.602C81.0278 13.086 80.3378 12.828 79.5098 12.828ZM96.8233 20.442C96.5713 20.658 96.2593 20.826 95.8873 20.946C95.5153 21.054 95.1313 21.108 94.7353 21.108C93.7753 21.108 93.0313 20.85 92.5033 20.334C91.9753 19.818 91.7113 19.08 91.7113 18.12V12.882H90.0913V11.46H91.7113V9.372H93.4393V11.46H96.1753V12.882H93.4393V18.048C93.4393 18.564 93.5653 18.96 93.8173 19.236C94.0813 19.512 94.4533 19.65 94.9333 19.65C95.4613 19.65 95.9113 19.5 96.2833 19.2L96.8233 20.442ZM104.006 11.37C105.218 11.37 106.178 11.724 106.886 12.432C107.606 13.128 107.966 14.154 107.966 15.51V21H106.238V15.708C106.238 14.784 106.016 14.088 105.572 13.62C105.128 13.152 104.492 12.918 103.664 12.918C102.728 12.918 101.99 13.194 101.45 13.746C100.91 14.286 100.64 15.066 100.64 16.086V21H98.9124V7.644H100.64V12.81C101 12.354 101.468 12 102.044 11.748C102.632 11.496 103.286 11.37 104.006 11.37ZM119.839 16.284C119.839 16.416 119.827 16.59 119.803 16.806H112.063C112.171 17.646 112.537 18.324 113.161 18.84C113.797 19.344 114.583 19.596 115.519 19.596C116.659 19.596 117.577 19.212 118.273 18.444L119.227 19.56C118.795 20.064 118.255 20.448 117.607 20.712C116.971 20.976 116.257 21.108 115.465 21.108C114.457 21.108 113.563 20.904 112.783 20.496C112.003 20.076 111.397 19.494 110.965 18.75C110.545 18.006 110.335 17.166 110.335 16.23C110.335 15.306 110.539 14.472 110.947 13.728C111.367 12.984 111.937 12.408 112.657 12C113.389 11.58 114.211 11.37 115.123 11.37C116.035 11.37 116.845 11.58 117.553 12C118.273 12.408 118.831 12.984 119.227 13.728C119.635 14.472 119.839 15.324 119.839 16.284ZM115.123 12.828C114.295 12.828 113.599 13.08 113.035 13.584C112.483 14.088 112.159 14.748 112.063 15.564H118.183C118.087 14.76 117.757 14.106 117.193 13.602C116.641 13.086 115.951 12.828 115.123 12.828ZM131.231 21.108C130.259 21.108 129.389 20.898 128.621 20.478C127.865 20.058 127.271 19.482 126.839 18.75C126.407 18.006 126.191 17.166 126.191 16.23C126.191 15.294 126.407 14.46 126.839 13.728C127.271 12.984 127.865 12.408 128.621 12C129.389 11.58 130.259 11.37 131.231 11.37C132.095 11.37 132.863 11.544 133.535 11.892C134.219 12.24 134.747 12.744 135.119 13.404L133.805 14.25C133.505 13.794 133.133 13.452 132.689 13.224C132.245 12.996 131.753 12.882 131.213 12.882C130.589 12.882 130.025 13.02 129.521 13.296C129.029 13.572 128.639 13.968 128.351 14.484C128.075 14.988 127.937 15.57 127.937 16.23C127.937 16.902 128.075 17.496 128.351 18.012C128.639 18.516 129.029 18.906 129.521 19.182C130.025 19.458 130.589 19.596 131.213 19.596C131.753 19.596 132.245 19.482 132.689 19.254C133.133 19.026 133.505 18.684 133.805 18.228L135.119 19.056C134.747 19.716 134.219 20.226 133.535 20.586C132.863 20.934 132.095 21.108 131.231 21.108ZM141.301 21.108C140.353 21.108 139.501 20.898 138.745 20.478C137.989 20.058 137.395 19.482 136.963 18.75C136.543 18.006 136.333 17.166 136.333 16.23C136.333 15.294 136.543 14.46 136.963 13.728C137.395 12.984 137.989 12.408 138.745 12C139.501 11.58 140.353 11.37 141.301 11.37C142.249 11.37 143.095 11.58 143.839 12C144.595 12.408 145.183 12.984 145.603 13.728C146.035 14.46 146.251 15.294 146.251 16.23C146.251 17.166 146.035 18.006 145.603 18.75C145.183 19.482 144.595 20.058 143.839 20.478C143.095 20.898 142.249 21.108 141.301 21.108ZM141.301 19.596C141.913 19.596 142.459 19.458 142.939 19.182C143.431 18.894 143.815 18.498 144.091 17.994C144.367 17.478 144.505 16.89 144.505 16.23C144.505 15.57 144.367 14.988 144.091 14.484C143.815 13.968 143.431 13.572 142.939 13.296C142.459 13.02 141.913 12.882 141.301 12.882C140.689 12.882 140.137 13.02 139.645 13.296C139.165 13.572 138.781 13.968 138.493 14.484C138.217 14.988 138.079 15.57 138.079 16.23C138.079 16.89 138.217 17.478 138.493 17.994C138.781 18.498 139.165 18.894 139.645 19.182C140.137 19.458 140.689 19.596 141.301 19.596ZM152.727 21.108C151.779 21.108 150.927 20.898 150.171 20.478C149.415 20.058 148.821 19.482 148.389 18.75C147.969 18.006 147.759 17.166 147.759 16.23C147.759 15.294 147.969 14.46 148.389 13.728C148.821 12.984 149.415 12.408 150.171 12C150.927 11.58 151.779 11.37 152.727 11.37C153.675 11.37 154.521 11.58 155.265 12C156.021 12.408 156.609 12.984 157.029 13.728C157.461 14.46 157.677 15.294 157.677 16.23C157.677 17.166 157.461 18.006 157.029 18.75C156.609 19.482 156.021 20.058 155.265 20.478C154.521 20.898 153.675 21.108 152.727 21.108ZM152.727 19.596C153.339 19.596 153.885 19.458 154.365 19.182C154.857 18.894 155.241 18.498 155.517 17.994C155.793 17.478 155.931 16.89 155.931 16.23C155.931 15.57 155.793 14.988 155.517 14.484C155.241 13.968 154.857 13.572 154.365 13.296C153.885 13.02 153.339 12.882 152.727 12.882C152.115 12.882 151.563 13.02 151.071 13.296C150.591 13.572 150.207 13.968 149.919 14.484C149.643 14.988 149.505 15.57 149.505 16.23C149.505 16.89 149.643 17.478 149.919 17.994C150.207 18.498 150.591 18.894 151.071 19.182C151.563 19.458 152.115 19.596 152.727 19.596ZM161.723 13.062C162.023 12.51 162.467 12.09 163.055 11.802C163.643 11.514 164.357 11.37 165.197 11.37V13.044C165.101 13.032 164.969 13.026 164.801 13.026C163.865 13.026 163.127 13.308 162.587 13.872C162.059 14.424 161.795 15.216 161.795 16.248V21H160.067V11.46H161.723V13.062ZM176.239 7.644V21H174.583V19.488C174.199 20.016 173.713 20.418 173.125 20.694C172.537 20.97 171.889 21.108 171.181 21.108C170.257 21.108 169.429 20.904 168.697 20.496C167.965 20.088 167.389 19.518 166.969 18.786C166.561 18.042 166.357 17.19 166.357 16.23C166.357 15.27 166.561 14.424 166.969 13.692C167.389 12.96 167.965 12.39 168.697 11.982C169.429 11.574 170.257 11.37 171.181 11.37C171.865 11.37 172.495 11.502 173.071 11.766C173.647 12.018 174.127 12.396 174.511 12.9V7.644H176.239ZM171.325 19.596C171.925 19.596 172.471 19.458 172.963 19.182C173.455 18.894 173.839 18.498 174.115 17.994C174.391 17.478 174.529 16.89 174.529 16.23C174.529 15.57 174.391 14.988 174.115 14.484C173.839 13.968 173.455 13.572 172.963 13.296C172.471 13.02 171.925 12.882 171.325 12.882C170.713 12.882 170.161 13.02 169.669 13.296C169.189 13.572 168.805 13.968 168.517 14.484C168.241 14.988 168.103 15.57 168.103 16.23C168.103 16.89 168.241 17.478 168.517 17.994C168.805 18.498 169.189 18.894 169.669 19.182C170.161 19.458 170.713 19.596 171.325 19.596ZM179.508 11.46H181.236V21H179.508V11.46ZM180.372 9.624C180.036 9.624 179.754 9.516 179.526 9.3C179.31 9.084 179.202 8.82 179.202 8.508C179.202 8.196 179.31 7.932 179.526 7.716C179.754 7.488 180.036 7.374 180.372 7.374C180.708 7.374 180.984 7.482 181.2 7.698C181.428 7.902 181.542 8.16 181.542 8.472C181.542 8.796 181.428 9.072 181.2 9.3C180.984 9.516 180.708 9.624 180.372 9.624ZM189.629 11.37C190.841 11.37 191.801 11.724 192.509 12.432C193.229 13.128 193.589 14.154 193.589 15.51V21H191.861V15.708C191.861 14.784 191.639 14.088 191.195 13.62C190.751 13.152 190.115 12.918 189.287 12.918C188.351 12.918 187.613 13.194 187.073 13.746C186.533 14.286 186.263 15.066 186.263 16.086V21H184.535V11.46H186.191V12.9C186.539 12.408 187.007 12.03 187.595 11.766C188.195 11.502 188.873 11.37 189.629 11.37ZM200.261 11.37C201.581 11.37 202.589 11.694 203.285 12.342C203.993 12.99 204.347 13.956 204.347 15.24V21H202.709V19.74C202.421 20.184 202.007 20.526 201.467 20.766C200.939 20.994 200.309 21.108 199.577 21.108C198.509 21.108 197.651 20.85 197.003 20.334C196.367 19.818 196.049 19.14 196.049 18.3C196.049 17.46 196.355 16.788 196.967 16.284C197.579 15.768 198.551 15.51 199.883 15.51H202.619V15.168C202.619 14.424 202.403 13.854 201.971 13.458C201.539 13.062 200.903 12.864 200.063 12.864C199.499 12.864 198.947 12.96 198.407 13.152C197.867 13.332 197.411 13.578 197.039 13.89L196.319 12.594C196.811 12.198 197.399 11.898 198.083 11.694C198.767 11.478 199.493 11.37 200.261 11.37ZM199.865 19.776C200.525 19.776 201.095 19.632 201.575 19.344C202.055 19.044 202.403 18.624 202.619 18.084V16.752H199.955C198.491 16.752 197.759 17.244 197.759 18.228C197.759 18.708 197.945 19.086 198.317 19.362C198.689 19.638 199.205 19.776 199.865 19.776ZM212.909 20.442C212.657 20.658 212.345 20.826 211.973 20.946C211.601 21.054 211.217 21.108 210.821 21.108C209.861 21.108 209.117 20.85 208.589 20.334C208.061 19.818 207.797 19.08 207.797 18.12V12.882H206.177V11.46H207.797V9.372H209.525V11.46H212.261V12.882H209.525V18.048C209.525 18.564 209.651 18.96 209.903 19.236C210.167 19.512 210.539 19.65 211.019 19.65C211.547 19.65 211.997 19.5 212.369 19.2L212.909 20.442ZM223.304 16.284C223.304 16.416 223.292 16.59 223.268 16.806H215.528C215.636 17.646 216.002 18.324 216.626 18.84C217.262 19.344 218.048 19.596 218.984 19.596C220.124 19.596 221.042 19.212 221.738 18.444L222.692 19.56C222.26 20.064 221.72 20.448 221.072 20.712C220.436 20.976 219.722 21.108 218.93 21.108C217.922 21.108 217.028 20.904 216.248 20.496C215.468 20.076 214.862 19.494 214.43 18.75C214.01 18.006 213.8 17.166 213.8 16.23C213.8 15.306 214.004 14.472 214.412 13.728C214.832 12.984 215.402 12.408 216.122 12C216.854 11.58 217.676 11.37 218.588 11.37C219.5 11.37 220.31 11.58 221.018 12C221.738 12.408 222.296 12.984 222.692 13.728C223.1 14.472 223.304 15.324 223.304 16.284ZM218.588 12.828C217.76 12.828 217.064 13.08 216.5 13.584C215.948 14.088 215.624 14.748 215.528 15.564H221.648C221.552 14.76 221.222 14.106 220.658 13.602C220.106 13.086 219.416 12.828 218.588 12.828ZM228.439 21.108C227.659 21.108 226.909 21.006 226.189 20.802C225.469 20.586 224.905 20.316 224.497 19.992L225.217 18.624C225.637 18.924 226.147 19.164 226.747 19.344C227.347 19.524 227.953 19.614 228.565 19.614C230.077 19.614 230.833 19.182 230.833 18.318C230.833 18.03 230.731 17.802 230.527 17.634C230.323 17.466 230.065 17.346 229.753 17.274C229.453 17.19 229.021 17.1 228.457 17.004C227.689 16.884 227.059 16.746 226.567 16.59C226.087 16.434 225.673 16.17 225.325 15.798C224.977 15.426 224.803 14.904 224.803 14.232C224.803 13.368 225.163 12.678 225.883 12.162C226.603 11.634 227.569 11.37 228.781 11.37C229.417 11.37 230.053 11.448 230.689 11.604C231.325 11.76 231.847 11.97 232.255 12.234L231.517 13.602C230.737 13.098 229.819 12.846 228.763 12.846C228.031 12.846 227.473 12.966 227.089 13.206C226.705 13.446 226.513 13.764 226.513 14.16C226.513 14.472 226.621 14.718 226.837 14.898C227.053 15.078 227.317 15.21 227.629 15.294C227.953 15.378 228.403 15.474 228.979 15.582C229.747 15.714 230.365 15.858 230.833 16.014C231.313 16.158 231.721 16.41 232.057 16.77C232.393 17.13 232.561 17.634 232.561 18.282C232.561 19.146 232.189 19.836 231.445 20.352C230.713 20.856 229.711 21.108 228.439 21.108ZM243.641 21.108C242.693 21.108 241.841 20.898 241.085 20.478C240.329 20.058 239.735 19.482 239.303 18.75C238.883 18.006 238.673 17.166 238.673 16.23C238.673 15.294 238.883 14.46 239.303 13.728C239.735 12.984 240.329 12.408 241.085 12C241.841 11.58 242.693 11.37 243.641 11.37C244.589 11.37 245.435 11.58 246.179 12C246.935 12.408 247.523 12.984 247.943 13.728C248.375 14.46 248.591 15.294 248.591 16.23C248.591 17.166 248.375 18.006 247.943 18.75C247.523 19.482 246.935 20.058 246.179 20.478C245.435 20.898 244.589 21.108 243.641 21.108ZM243.641 19.596C244.253 19.596 244.799 19.458 245.279 19.182C245.771 18.894 246.155 18.498 246.431 17.994C246.707 17.478 246.845 16.89 246.845 16.23C246.845 15.57 246.707 14.988 246.431 14.484C246.155 13.968 245.771 13.572 245.279 13.296C244.799 13.02 244.253 12.882 243.641 12.882C243.029 12.882 242.477 13.02 241.985 13.296C241.505 13.572 241.121 13.968 240.833 14.484C240.557 14.988 240.419 15.57 240.419 16.23C240.419 16.89 240.557 17.478 240.833 17.994C241.121 18.498 241.505 18.894 241.985 19.182C242.477 19.458 243.029 19.596 243.641 19.596ZM254.473 8.958C253.441 8.958 252.925 9.516 252.925 10.632V11.46H255.697V12.882H252.961V21H251.233V12.882H249.613V11.46H251.233V10.614C251.233 9.666 251.509 8.916 252.061 8.364C252.613 7.812 253.387 7.536 254.383 7.536C254.767 7.536 255.127 7.584 255.463 7.68C255.799 7.776 256.087 7.914 256.327 8.094L255.805 9.408C255.409 9.108 254.965 8.958 254.473 8.958ZM274.094 21L274.076 11.82L269.522 19.47H268.694L264.14 11.874V21H262.412V8.4H263.888L269.144 17.256L274.328 8.4H275.804L275.822 21H274.094ZM282.826 11.37C284.146 11.37 285.154 11.694 285.85 12.342C286.558 12.99 286.912 13.956 286.912 15.24V21H285.274V19.74C284.986 20.184 284.572 20.526 284.032 20.766C283.504 20.994 282.874 21.108 282.142 21.108C281.074 21.108 280.216 20.85 279.568 20.334C278.932 19.818 278.614 19.14 278.614 18.3C278.614 17.46 278.92 16.788 279.532 16.284C280.144 15.768 281.116 15.51 282.448 15.51H285.184V15.168C285.184 14.424 284.968 13.854 284.536 13.458C284.104 13.062 283.468 12.864 282.628 12.864C282.064 12.864 281.512 12.96 280.972 13.152C280.432 13.332 279.976 13.578 279.604 13.89L278.884 12.594C279.376 12.198 279.964 11.898 280.648 11.694C281.332 11.478 282.058 11.37 282.826 11.37ZM282.43 19.776C283.09 19.776 283.66 19.632 284.14 19.344C284.62 19.044 284.968 18.624 285.184 18.084V16.752H282.52C281.056 16.752 280.324 17.244 280.324 18.228C280.324 18.708 280.51 19.086 280.882 19.362C281.254 19.638 281.77 19.776 282.43 19.776ZM291.766 13.062C292.066 12.51 292.51 12.09 293.098 11.802C293.686 11.514 294.4 11.37 295.24 11.37V13.044C295.144 13.032 295.012 13.026 294.844 13.026C293.908 13.026 293.17 13.308 292.63 13.872C292.102 14.424 291.838 15.216 291.838 16.248V21H290.11V11.46H291.766V13.062ZM306.198 11.46L301.572 21.954C301.164 22.926 300.684 23.61 300.132 24.006C299.592 24.402 298.938 24.6 298.17 24.6C297.702 24.6 297.246 24.522 296.802 24.366C296.37 24.222 296.01 24.006 295.722 23.718L296.46 22.422C296.952 22.89 297.522 23.124 298.17 23.124C298.59 23.124 298.938 23.01 299.214 22.782C299.502 22.566 299.76 22.188 299.988 21.648L300.294 20.982L296.082 11.46H297.882L301.212 19.092L304.506 11.46H306.198ZM308.542 7.536C308.878 7.536 309.154 7.656 309.37 7.896C309.598 8.124 309.712 8.412 309.712 8.76C309.712 8.94 309.694 9.12 309.658 9.3C309.622 9.468 309.544 9.714 309.424 10.038L308.56 12.558H307.426L308.092 9.876C307.864 9.792 307.678 9.654 307.534 9.462C307.402 9.258 307.336 9.024 307.336 8.76C307.336 8.4 307.45 8.106 307.678 7.878C307.906 7.65 308.194 7.536 308.542 7.536ZM314.625 21.108C313.845 21.108 313.095 21.006 312.375 20.802C311.655 20.586 311.091 20.316 310.683 19.992L311.403 18.624C311.823 18.924 312.333 19.164 312.933 19.344C313.533 19.524 314.139 19.614 314.751 19.614C316.263 19.614 317.019 19.182 317.019 18.318C317.019 18.03 316.917 17.802 316.713 17.634C316.509 17.466 316.251 17.346 315.939 17.274C315.639 17.19 315.207 17.1 314.643 17.004C313.875 16.884 313.245 16.746 312.753 16.59C312.273 16.434 311.859 16.17 311.511 15.798C311.163 15.426 310.989 14.904 310.989 14.232C310.989 13.368 311.349 12.678 312.069 12.162C312.789 11.634 313.755 11.37 314.967 11.37C315.603 11.37 316.239 11.448 316.875 11.604C317.511 11.76 318.033 11.97 318.441 12.234L317.703 13.602C316.923 13.098 316.005 12.846 314.949 12.846C314.217 12.846 313.659 12.966 313.275 13.206C312.891 13.446 312.699 13.764 312.699 14.16C312.699 14.472 312.807 14.718 313.023 14.898C313.239 15.078 313.503 15.21 313.815 15.294C314.139 15.378 314.589 15.474 315.165 15.582C315.933 15.714 316.551 15.858 317.019 16.014C317.499 16.158 317.907 16.41 318.243 16.77C318.579 17.13 318.747 17.634 318.747 18.282C318.747 19.146 318.375 19.836 317.631 20.352C316.899 20.856 315.897 21.108 314.625 21.108ZM330.835 11.37C332.047 11.37 333.007 11.724 333.715 12.432C334.435 13.128 334.795 14.154 334.795 15.51V21H333.067V15.708C333.067 14.784 332.845 14.088 332.401 13.62C331.957 13.152 331.321 12.918 330.493 12.918C329.557 12.918 328.819 13.194 328.279 13.746C327.739 14.286 327.469 15.066 327.469 16.086V21H325.741V7.644H327.469V12.81C327.829 12.354 328.297 12 328.873 11.748C329.461 11.496 330.115 11.37 330.835 11.37ZM342.131 21.108C341.183 21.108 340.331 20.898 339.575 20.478C338.819 20.058 338.225 19.482 337.793 18.75C337.373 18.006 337.163 17.166 337.163 16.23C337.163 15.294 337.373 14.46 337.793 13.728C338.225 12.984 338.819 12.408 339.575 12C340.331 11.58 341.183 11.37 342.131 11.37C343.079 11.37 343.925 11.58 344.669 12C345.425 12.408 346.013 12.984 346.433 13.728C346.865 14.46 347.081 15.294 347.081 16.23C347.081 17.166 346.865 18.006 346.433 18.75C346.013 19.482 345.425 20.058 344.669 20.478C343.925 20.898 343.079 21.108 342.131 21.108ZM342.131 19.596C342.743 19.596 343.289 19.458 343.769 19.182C344.261 18.894 344.645 18.498 344.921 17.994C345.197 17.478 345.335 16.89 345.335 16.23C345.335 15.57 345.197 14.988 344.921 14.484C344.645 13.968 344.261 13.572 343.769 13.296C343.289 13.02 342.743 12.882 342.131 12.882C341.519 12.882 340.967 13.02 340.475 13.296C339.995 13.572 339.611 13.968 339.323 14.484C339.047 14.988 338.909 15.57 338.909 16.23C338.909 16.89 339.047 17.478 339.323 17.994C339.611 18.498 339.995 18.894 340.475 19.182C340.967 19.458 341.519 19.596 342.131 19.596ZM358.363 11.46V21H356.725V19.56C356.377 20.052 355.915 20.436 355.339 20.712C354.775 20.976 354.157 21.108 353.485 21.108C352.213 21.108 351.211 20.76 350.479 20.064C349.747 19.356 349.381 18.318 349.381 16.95V11.46H351.109V16.752C351.109 17.676 351.331 18.378 351.775 18.858C352.219 19.326 352.855 19.56 353.683 19.56C354.595 19.56 355.315 19.284 355.843 18.732C356.371 18.18 356.635 17.4 356.635 16.392V11.46H358.363ZM364.389 21.108C363.609 21.108 362.859 21.006 362.139 20.802C361.419 20.586 360.855 20.316 360.447 19.992L361.167 18.624C361.587 18.924 362.097 19.164 362.697 19.344C363.297 19.524 363.903 19.614 364.515 19.614C366.027 19.614 366.783 19.182 366.783 18.318C366.783 18.03 366.681 17.802 366.477 17.634C366.273 17.466 366.015 17.346 365.703 17.274C365.403 17.19 364.971 17.1 364.407 17.004C363.639 16.884 363.009 16.746 362.517 16.59C362.037 16.434 361.623 16.17 361.275 15.798C360.927 15.426 360.753 14.904 360.753 14.232C360.753 13.368 361.113 12.678 361.833 12.162C362.553 11.634 363.519 11.37 364.731 11.37C365.367 11.37 366.003 11.448 366.639 11.604C367.275 11.76 367.797 11.97 368.205 12.234L367.467 13.602C366.687 13.098 365.769 12.846 364.713 12.846C363.981 12.846 363.423 12.966 363.039 13.206C362.655 13.446 362.463 13.764 362.463 14.16C362.463 14.472 362.571 14.718 362.787 14.898C363.003 15.078 363.267 15.21 363.579 15.294C363.903 15.378 364.353 15.474 364.929 15.582C365.697 15.714 366.315 15.858 366.783 16.014C367.263 16.158 367.671 16.41 368.007 16.77C368.343 17.13 368.511 17.634 368.511 18.282C368.511 19.146 368.139 19.836 367.395 20.352C366.663 20.856 365.661 21.108 364.389 21.108ZM379.292 16.284C379.292 16.416 379.28 16.59 379.256 16.806H371.516C371.624 17.646 371.99 18.324 372.614 18.84C373.25 19.344 374.036 19.596 374.972 19.596C376.112 19.596 377.03 19.212 377.726 18.444L378.68 19.56C378.248 20.064 377.708 20.448 377.06 20.712C376.424 20.976 375.71 21.108 374.918 21.108C373.91 21.108 373.016 20.904 372.236 20.496C371.456 20.076 370.85 19.494 370.418 18.75C369.998 18.006 369.788 17.166 369.788 16.23C369.788 15.306 369.992 14.472 370.4 13.728C370.82 12.984 371.39 12.408 372.11 12C372.842 11.58 373.664 11.37 374.576 11.37C375.488 11.37 376.298 11.58 377.006 12C377.726 12.408 378.284 12.984 378.68 13.728C379.088 14.472 379.292 15.324 379.292 16.284ZM374.576 12.828C373.748 12.828 373.052 13.08 372.488 13.584C371.936 14.088 371.612 14.748 371.516 15.564H377.636C377.54 14.76 377.21 14.106 376.646 13.602C376.094 13.086 375.404 12.828 374.576 12.828ZM383.314 17.022C383.314 16.542 383.392 16.122 383.548 15.762C383.716 15.39 383.914 15.078 384.142 14.826C384.382 14.574 384.694 14.274 385.078 13.926C385.558 13.506 385.912 13.146 386.14 12.846C386.368 12.534 386.482 12.162 386.482 11.73C386.482 11.142 386.254 10.674 385.798 10.326C385.342 9.966 384.712 9.786 383.908 9.786C382.504 9.786 381.43 10.26 380.686 11.208L379.372 10.272C379.876 9.624 380.518 9.126 381.298 8.778C382.09 8.43 383.002 8.256 384.034 8.256C385.342 8.256 386.38 8.544 387.148 9.12C387.916 9.684 388.3 10.464 388.3 11.46C388.3 11.952 388.216 12.39 388.048 12.774C387.892 13.146 387.7 13.458 387.472 13.71C387.244 13.962 386.938 14.262 386.554 14.61C386.062 15.054 385.696 15.444 385.456 15.78C385.228 16.116 385.114 16.53 385.114 17.022H383.314ZM384.232 21.108C383.896 21.108 383.614 21 383.386 20.784C383.17 20.556 383.062 20.28 383.062 19.956C383.062 19.632 383.17 19.362 383.386 19.146C383.614 18.918 383.896 18.804 384.232 18.804C384.568 18.804 384.844 18.918 385.06 19.146C385.276 19.362 385.384 19.632 385.384 19.956C385.384 20.28 385.27 20.556 385.042 20.784C384.826 21 384.556 21.108 384.232 21.108Z" fill="#2F2F2F"/>
<path d="M404.32 24.492C403.636 23.388 403.108 22.122 402.736 20.694C402.364 19.254 402.178 17.712 402.178 16.068C402.178 14.424 402.364 12.882 402.736 11.442C403.108 9.99 403.636 8.724 404.32 7.644H405.958C405.238 8.904 404.71 10.224 404.374 11.604C404.038 12.984 403.87 14.472 403.87 16.068C403.87 17.664 404.038 19.152 404.374 20.532C404.71 21.912 405.238 23.232 405.958 24.492H404.32Z" fill="#2F2F2F"/>
<path d="M422 1H452V-1H422V1ZM456 5V25H458V5H456ZM452 29H422V31H452V29ZM418 25V5H416V25H418ZM422 29C419.791 29 418 27.2091 418 25H416C416 28.3137 418.686 31 422 31V29ZM456 25C456 27.2091 454.209 29 452 29V31C455.314 31 458 28.3137 458 25H456ZM452 1C454.209 1 456 2.79086 456 5H458C458 1.68629 455.314 -1 452 -1V1ZM422 -1C418.686 -1 416 1.68629 416 5H418C418 2.79086 419.791 1 422 1V-1Z" fill="#2F2F2F"/>
<path d="M469.531 18.642C469.867 18.642 470.143 18.762 470.359 19.002C470.587 19.23 470.701 19.518 470.701 19.866C470.701 20.046 470.677 20.22 470.629 20.388C470.593 20.556 470.515 20.814 470.395 21.162L469.549 23.664H468.415L469.081 20.982C468.853 20.898 468.667 20.76 468.523 20.568C468.391 20.364 468.325 20.13 468.325 19.866C468.325 19.506 468.439 19.212 468.667 18.984C468.895 18.756 469.183 18.642 469.531 18.642Z" fill="#2F2F2F"/>
<path d="M487 1H517V-1H487V1ZM521 5V25H523V5H521ZM517 29H487V31H517V29ZM483 25V5H481V25H483ZM487 29C484.791 29 483 27.2091 483 25H481C481 28.3137 483.686 31 487 31V29ZM521 25C521 27.2091 519.209 29 517 29V31C520.314 31 523 28.3137 523 25H521ZM517 1C519.209 1 521 2.79086 521 5H523C523 1.68629 520.314 -1 517 -1V1ZM487 -1C483.686 -1 481 1.68629 481 5H483C483 2.79086 484.791 1 487 1V-1Z" fill="#2F2F2F"/>
<path d="M533.035 24.492C533.755 23.232 534.283 21.912 534.619 20.532C534.967 19.152 535.141 17.664 535.141 16.068C535.141 14.472 534.967 12.984 534.619 11.604C534.283 10.224 533.755 8.904 533.035 7.644H534.673C535.369 8.724 535.903 9.984 536.275 11.424C536.647 12.864 536.833 14.412 536.833 16.068C536.833 17.712 536.647 19.254 536.275 20.694C535.903 22.134 535.369 23.4 534.673 24.492H533.035Z" fill="#2F2F2F"/>
<path d="M19.7906 48.4L15.5786 61H13.6886L10.2506 50.938L6.81263 61H4.88663L0.674633 48.4H2.52863L5.93063 58.642L9.47663 48.4H11.1326L14.6066 58.696L18.0806 48.4H19.7906ZM27.0982 51.37C28.3102 51.37 29.2702 51.724 29.9782 52.432C30.6982 53.128 31.0582 54.154 31.0582 55.51V61H29.3302V55.708C29.3302 54.784 29.1082 54.088 28.6642 53.62C28.2202 53.152 27.5842 52.918 26.7562 52.918C25.8202 52.918 25.0822 53.194 24.5422 53.746C24.0022 54.286 23.7322 55.066 23.7322 56.086V61H22.0042V47.644H23.7322V52.81C24.0922 52.354 24.5602 52 25.1362 51.748C25.7242 51.496 26.3782 51.37 27.0982 51.37ZM37.7302 51.37C39.0502 51.37 40.0582 51.694 40.7542 52.342C41.4622 52.99 41.8162 53.956 41.8162 55.24V61H40.1782V59.74C39.8902 60.184 39.4762 60.526 38.9362 60.766C38.4082 60.994 37.7782 61.108 37.0462 61.108C35.9782 61.108 35.1202 60.85 34.4722 60.334C33.8362 59.818 33.5182 59.14 33.5182 58.3C33.5182 57.46 33.8242 56.788 34.4362 56.284C35.0482 55.768 36.0202 55.51 37.3522 55.51H40.0882V55.168C40.0882 54.424 39.8722 53.854 39.4402 53.458C39.0082 53.062 38.3722 52.864 37.5322 52.864C36.9682 52.864 36.4162 52.96 35.8762 53.152C35.3362 53.332 34.8802 53.578 34.5082 53.89L33.7882 52.594C34.2802 52.198 34.8682 51.898 35.5522 51.694C36.2362 51.478 36.9622 51.37 37.7302 51.37ZM37.3342 59.776C37.9942 59.776 38.5642 59.632 39.0442 59.344C39.5242 59.044 39.8722 58.624 40.0882 58.084V56.752H37.4242C35.9602 56.752 35.2282 57.244 35.2282 58.228C35.2282 58.708 35.4142 59.086 35.7862 59.362C36.1582 59.638 36.6742 59.776 37.3342 59.776ZM50.378 60.442C50.126 60.658 49.814 60.826 49.442 60.946C49.07 61.054 48.686 61.108 48.29 61.108C47.33 61.108 46.586 60.85 46.058 60.334C45.53 59.818 45.266 59.08 45.266 58.12V52.882H43.646V51.46H45.266V49.372H46.994V51.46H49.73V52.882H46.994V58.048C46.994 58.564 47.12 58.96 47.372 59.236C47.636 59.512 48.008 59.65 48.488 59.65C49.016 59.65 49.466 59.5 49.838 59.2L50.378 60.442ZM57.3011 51.46H59.0291V61H57.3011V51.46ZM58.1651 49.624C57.8291 49.624 57.5471 49.516 57.3191 49.3C57.1031 49.084 56.9951 48.82 56.9951 48.508C56.9951 48.196 57.1031 47.932 57.3191 47.716C57.5471 47.488 57.8291 47.374 58.1651 47.374C58.5011 47.374 58.7771 47.482 58.9931 47.698C59.2211 47.902 59.3351 48.16 59.3351 48.472C59.3351 48.796 59.2211 49.072 58.9931 49.3C58.7771 49.516 58.5011 49.624 58.1651 49.624ZM65.0644 61.108C64.2844 61.108 63.5344 61.006 62.8144 60.802C62.0944 60.586 61.5304 60.316 61.1224 59.992L61.8424 58.624C62.2624 58.924 62.7724 59.164 63.3724 59.344C63.9724 59.524 64.5784 59.614 65.1904 59.614C66.7024 59.614 67.4584 59.182 67.4584 58.318C67.4584 58.03 67.3564 57.802 67.1524 57.634C66.9484 57.466 66.6904 57.346 66.3784 57.274C66.0784 57.19 65.6464 57.1 65.0824 57.004C64.3144 56.884 63.6844 56.746 63.1924 56.59C62.7124 56.434 62.2984 56.17 61.9504 55.798C61.6024 55.426 61.4284 54.904 61.4284 54.232C61.4284 53.368 61.7884 52.678 62.5084 52.162C63.2284 51.634 64.1944 51.37 65.4064 51.37C66.0424 51.37 66.6784 51.448 67.3144 51.604C67.9504 51.76 68.4724 51.97 68.8804 52.234L68.1424 53.602C67.3624 53.098 66.4444 52.846 65.3884 52.846C64.6564 52.846 64.0984 52.966 63.7144 53.206C63.3304 53.446 63.1384 53.764 63.1384 54.16C63.1384 54.472 63.2464 54.718 63.4624 54.898C63.6784 55.078 63.9424 55.21 64.2544 55.294C64.5784 55.378 65.0284 55.474 65.6044 55.582C66.3724 55.714 66.9904 55.858 67.4584 56.014C67.9384 56.158 68.3464 56.41 68.6824 56.77C69.0184 57.13 69.1864 57.634 69.1864 58.282C69.1864 59.146 68.8144 59.836 68.0704 60.352C67.3384 60.856 66.3364 61.108 65.0644 61.108ZM81.544 60.442C81.292 60.658 80.98 60.826 80.608 60.946C80.236 61.054 79.852 61.108 79.456 61.108C78.496 61.108 77.752 60.85 77.224 60.334C76.696 59.818 76.432 59.08 76.432 58.12V52.882H74.812V51.46H76.432V49.372H78.16V51.46H80.896V52.882H78.16V58.048C78.16 58.564 78.286 58.96 78.538 59.236C78.802 59.512 79.174 59.65 79.654 59.65C80.182 59.65 80.632 59.5 81.004 59.2L81.544 60.442ZM88.7271 51.37C89.9391 51.37 90.8991 51.724 91.6071 52.432C92.3271 53.128 92.6871 54.154 92.6871 55.51V61H90.9591V55.708C90.9591 54.784 90.7371 54.088 90.2931 53.62C89.8491 53.152 89.2131 52.918 88.3851 52.918C87.4491 52.918 86.7111 53.194 86.1711 53.746C85.6311 54.286 85.3611 55.066 85.3611 56.086V61H83.6331V47.644H85.3611V52.81C85.7211 52.354 86.1891 52 86.7651 51.748C87.3531 51.496 88.0071 51.37 88.7271 51.37ZM104.56 56.284C104.56 56.416 104.548 56.59 104.524 56.806H96.7838C96.8918 57.646 97.2578 58.324 97.8818 58.84C98.5178 59.344 99.3038 59.596 100.24 59.596C101.38 59.596 102.298 59.212 102.994 58.444L103.948 59.56C103.516 60.064 102.976 60.448 102.328 60.712C101.692 60.976 100.978 61.108 100.186 61.108C99.1778 61.108 98.2838 60.904 97.5038 60.496C96.7238 60.076 96.1178 59.494 95.6858 58.75C95.2658 58.006 95.0558 57.166 95.0558 56.23C95.0558 55.306 95.2598 54.472 95.6678 53.728C96.0878 52.984 96.6578 52.408 97.3778 52C98.1098 51.58 98.9318 51.37 99.8438 51.37C100.756 51.37 101.566 51.58 102.274 52C102.994 52.408 103.552 52.984 103.948 53.728C104.356 54.472 104.56 55.324 104.56 56.284ZM99.8438 52.828C99.0158 52.828 98.3198 53.08 97.7558 53.584C97.2038 54.088 96.8798 54.748 96.7838 55.564H102.904C102.808 54.76 102.478 54.106 101.914 53.602C101.362 53.086 100.672 52.828 99.8438 52.828ZM120.793 47.644V61H119.137V59.488C118.753 60.016 118.267 60.418 117.679 60.694C117.091 60.97 116.443 61.108 115.735 61.108C114.811 61.108 113.983 60.904 113.251 60.496C112.519 60.088 111.943 59.518 111.523 58.786C111.115 58.042 110.911 57.19 110.911 56.23C110.911 55.27 111.115 54.424 111.523 53.692C111.943 52.96 112.519 52.39 113.251 51.982C113.983 51.574 114.811 51.37 115.735 51.37C116.419 51.37 117.049 51.502 117.625 51.766C118.201 52.018 118.681 52.396 119.065 52.9V47.644H120.793ZM115.879 59.596C116.479 59.596 117.025 59.458 117.517 59.182C118.009 58.894 118.393 58.498 118.669 57.994C118.945 57.478 119.083 56.89 119.083 56.23C119.083 55.57 118.945 54.988 118.669 54.484C118.393 53.968 118.009 53.572 117.517 53.296C117.025 53.02 116.479 52.882 115.879 52.882C115.267 52.882 114.715 53.02 114.223 53.296C113.743 53.572 113.359 53.968 113.071 54.484C112.795 54.988 112.657 55.57 112.657 56.23C112.657 56.89 112.795 57.478 113.071 57.994C113.359 58.498 113.743 58.894 114.223 59.182C114.715 59.458 115.267 59.596 115.879 59.596ZM124.063 51.46H125.791V61H124.063V51.46ZM124.927 49.624C124.591 49.624 124.309 49.516 124.081 49.3C123.865 49.084 123.757 48.82 123.757 48.508C123.757 48.196 123.865 47.932 124.081 47.716C124.309 47.488 124.591 47.374 124.927 47.374C125.263 47.374 125.539 47.482 125.755 47.698C125.983 47.902 126.097 48.16 126.097 48.472C126.097 48.796 125.983 49.072 125.755 49.3C125.539 49.516 125.263 49.624 124.927 49.624ZM131.826 61.108C131.046 61.108 130.296 61.006 129.576 60.802C128.856 60.586 128.292 60.316 127.884 59.992L128.604 58.624C129.024 58.924 129.534 59.164 130.134 59.344C130.734 59.524 131.34 59.614 131.952 59.614C133.464 59.614 134.22 59.182 134.22 58.318C134.22 58.03 134.118 57.802 133.914 57.634C133.71 57.466 133.452 57.346 133.14 57.274C132.84 57.19 132.408 57.1 131.844 57.004C131.076 56.884 130.446 56.746 129.954 56.59C129.474 56.434 129.06 56.17 128.712 55.798C128.364 55.426 128.19 54.904 128.19 54.232C128.19 53.368 128.55 52.678 129.27 52.162C129.99 51.634 130.956 51.37 132.168 51.37C132.804 51.37 133.44 51.448 134.076 51.604C134.712 51.76 135.234 51.97 135.642 52.234L134.904 53.602C134.124 53.098 133.206 52.846 132.15 52.846C131.418 52.846 130.86 52.966 130.476 53.206C130.092 53.446 129.9 53.764 129.9 54.16C129.9 54.472 130.008 54.718 130.224 54.898C130.44 55.078 130.704 55.21 131.016 55.294C131.34 55.378 131.79 55.474 132.366 55.582C133.134 55.714 133.752 55.858 134.22 56.014C134.7 56.158 135.108 56.41 135.444 56.77C135.78 57.13 135.948 57.634 135.948 58.282C135.948 59.146 135.576 59.836 134.832 60.352C134.1 60.856 133.098 61.108 131.826 61.108ZM143.472 60.442C143.22 60.658 142.908 60.826 142.536 60.946C142.164 61.054 141.78 61.108 141.384 61.108C140.424 61.108 139.68 60.85 139.152 60.334C138.624 59.818 138.36 59.08 138.36 58.12V52.882H136.74V51.46H138.36V49.372H140.088V51.46H142.824V52.882H140.088V58.048C140.088 58.564 140.214 58.96 140.466 59.236C140.73 59.512 141.102 59.65 141.582 59.65C142.11 59.65 142.56 59.5 142.932 59.2L143.472 60.442ZM149.035 51.37C150.355 51.37 151.363 51.694 152.059 52.342C152.767 52.99 153.121 53.956 153.121 55.24V61H151.483V59.74C151.195 60.184 150.781 60.526 150.241 60.766C149.713 60.994 149.083 61.108 148.351 61.108C147.283 61.108 146.425 60.85 145.777 60.334C145.141 59.818 144.823 59.14 144.823 58.3C144.823 57.46 145.129 56.788 145.741 56.284C146.353 55.768 147.325 55.51 148.657 55.51H151.393V55.168C151.393 54.424 151.177 53.854 150.745 53.458C150.313 53.062 149.677 52.864 148.837 52.864C148.273 52.864 147.721 52.96 147.181 53.152C146.641 53.332 146.185 53.578 145.813 53.89L145.093 52.594C145.585 52.198 146.173 51.898 146.857 51.694C147.541 51.478 148.267 51.37 149.035 51.37ZM148.639 59.776C149.299 59.776 149.869 59.632 150.349 59.344C150.829 59.044 151.177 58.624 151.393 58.084V56.752H148.729C147.265 56.752 146.533 57.244 146.533 58.228C146.533 58.708 146.719 59.086 147.091 59.362C147.463 59.638 147.979 59.776 148.639 59.776ZM161.413 51.37C162.625 51.37 163.585 51.724 164.293 52.432C165.013 53.128 165.373 54.154 165.373 55.51V61H163.645V55.708C163.645 54.784 163.423 54.088 162.979 53.62C162.535 53.152 161.899 52.918 161.071 52.918C160.135 52.918 159.397 53.194 158.857 53.746C158.317 54.286 158.047 55.066 158.047 56.086V61H156.319V51.46H157.975V52.9C158.323 52.408 158.791 52.03 159.379 51.766C159.979 51.502 160.657 51.37 161.413 51.37ZM172.781 61.108C171.809 61.108 170.939 60.898 170.171 60.478C169.415 60.058 168.821 59.482 168.389 58.75C167.957 58.006 167.741 57.166 167.741 56.23C167.741 55.294 167.957 54.46 168.389 53.728C168.821 52.984 169.415 52.408 170.171 52C170.939 51.58 171.809 51.37 172.781 51.37C173.645 51.37 174.413 51.544 175.085 51.892C175.769 52.24 176.297 52.744 176.669 53.404L175.355 54.25C175.055 53.794 174.683 53.452 174.239 53.224C173.795 52.996 173.303 52.882 172.763 52.882C172.139 52.882 171.575 53.02 171.071 53.296C170.579 53.572 170.189 53.968 169.901 54.484C169.625 54.988 169.487 55.57 169.487 56.23C169.487 56.902 169.625 57.496 169.901 58.012C170.189 58.516 170.579 58.906 171.071 59.182C171.575 59.458 172.139 59.596 172.763 59.596C173.303 59.596 173.795 59.482 174.239 59.254C174.683 59.026 175.055 58.684 175.355 58.228L176.669 59.056C176.297 59.716 175.769 60.226 175.085 60.586C174.413 60.934 173.645 61.108 172.781 61.108ZM187.388 56.284C187.388 56.416 187.376 56.59 187.352 56.806H179.612C179.72 57.646 180.086 58.324 180.71 58.84C181.346 59.344 182.132 59.596 183.068 59.596C184.208 59.596 185.126 59.212 185.822 58.444L186.776 59.56C186.344 60.064 185.804 60.448 185.156 60.712C184.52 60.976 183.806 61.108 183.014 61.108C182.006 61.108 181.112 60.904 180.332 60.496C179.552 60.076 178.946 59.494 178.514 58.75C178.094 58.006 177.884 57.166 177.884 56.23C177.884 55.306 178.088 54.472 178.496 53.728C178.916 52.984 179.486 52.408 180.206 52C180.938 51.58 181.76 51.37 182.672 51.37C183.584 51.37 184.394 51.58 185.102 52C185.822 52.408 186.38 52.984 186.776 53.728C187.184 54.472 187.388 55.324 187.388 56.284ZM182.672 52.828C181.844 52.828 181.148 53.08 180.584 53.584C180.032 54.088 179.708 54.748 179.612 55.564H185.732C185.636 54.76 185.306 54.106 184.742 53.602C184.19 53.086 183.5 52.828 182.672 52.828ZM199.679 51.37C200.603 51.37 201.431 51.574 202.163 51.982C202.895 52.39 203.465 52.96 203.873 53.692C204.293 54.424 204.503 55.27 204.503 56.23C204.503 57.19 204.293 58.042 203.873 58.786C203.465 59.518 202.895 60.088 202.163 60.496C201.431 60.904 200.603 61.108 199.679 61.108C198.971 61.108 198.323 60.97 197.735 60.694C197.147 60.418 196.661 60.016 196.277 59.488V61H194.621V47.644H196.349V52.9C196.733 52.396 197.213 52.018 197.789 51.766C198.365 51.502 198.995 51.37 199.679 51.37ZM199.535 59.596C200.147 59.596 200.693 59.458 201.173 59.182C201.665 58.894 202.049 58.498 202.325 57.994C202.613 57.478 202.757 56.89 202.757 56.23C202.757 55.57 202.613 54.988 202.325 54.484C202.049 53.968 201.665 53.572 201.173 53.296C200.693 53.02 200.147 52.882 199.535 52.882C198.935 52.882 198.389 53.02 197.897 53.296C197.405 53.572 197.021 53.968 196.745 54.484C196.469 54.988 196.331 55.57 196.331 56.23C196.331 56.89 196.469 57.478 196.745 57.994C197.021 58.498 197.405 58.894 197.897 59.182C198.389 59.458 198.935 59.596 199.535 59.596ZM215.513 56.284C215.513 56.416 215.501 56.59 215.477 56.806H207.737C207.845 57.646 208.211 58.324 208.835 58.84C209.471 59.344 210.257 59.596 211.193 59.596C212.333 59.596 213.251 59.212 213.947 58.444L214.901 59.56C214.469 60.064 213.929 60.448 213.281 60.712C212.645 60.976 211.931 61.108 211.139 61.108C210.131 61.108 209.237 60.904 208.457 60.496C207.677 60.076 207.071 59.494 206.639 58.75C206.219 58.006 206.009 57.166 206.009 56.23C206.009 55.306 206.213 54.472 206.621 53.728C207.041 52.984 207.611 52.408 208.331 52C209.063 51.58 209.885 51.37 210.797 51.37C211.709 51.37 212.519 51.58 213.227 52C213.947 52.408 214.505 52.984 214.901 53.728C215.309 54.472 215.513 55.324 215.513 56.284ZM210.797 52.828C209.969 52.828 209.273 53.08 208.709 53.584C208.157 54.088 207.833 54.748 207.737 55.564H213.857C213.761 54.76 213.431 54.106 212.867 53.602C212.315 53.086 211.625 52.828 210.797 52.828ZM223.276 60.442C223.024 60.658 222.712 60.826 222.34 60.946C221.968 61.054 221.584 61.108 221.188 61.108C220.228 61.108 219.484 60.85 218.956 60.334C218.428 59.818 218.164 59.08 218.164 58.12V52.882H216.544V51.46H218.164V49.372H219.892V51.46H222.628V52.882H219.892V58.048C219.892 58.564 220.018 58.96 220.27 59.236C220.534 59.512 220.906 59.65 221.386 59.65C221.914 59.65 222.364 59.5 222.736 59.2L223.276 60.442ZM239.626 51.46L236.062 61H234.406L231.652 53.764L228.862 61H227.206L223.66 51.46H225.298L228.07 59.056L230.95 51.46H232.408L235.234 59.092L238.078 51.46H239.626ZM249.738 56.284C249.738 56.416 249.726 56.59 249.702 56.806H241.962C242.07 57.646 242.436 58.324 243.06 58.84C243.696 59.344 244.482 59.596 245.418 59.596C246.558 59.596 247.476 59.212 248.172 58.444L249.126 59.56C248.694 60.064 248.154 60.448 247.506 60.712C246.87 60.976 246.156 61.108 245.364 61.108C244.356 61.108 243.462 60.904 242.682 60.496C241.902 60.076 241.296 59.494 240.864 58.75C240.444 58.006 240.234 57.166 240.234 56.23C240.234 55.306 240.438 54.472 240.846 53.728C241.266 52.984 241.836 52.408 242.556 52C243.288 51.58 244.11 51.37 245.022 51.37C245.934 51.37 246.744 51.58 247.452 52C248.172 52.408 248.73 52.984 249.126 53.728C249.534 54.472 249.738 55.324 249.738 56.284ZM245.022 52.828C244.194 52.828 243.498 53.08 242.934 53.584C242.382 54.088 242.058 54.748 241.962 55.564H248.082C247.986 54.76 247.656 54.106 247.092 53.602C246.54 53.086 245.85 52.828 245.022 52.828ZM260.759 56.284C260.759 56.416 260.747 56.59 260.723 56.806H252.983C253.091 57.646 253.457 58.324 254.081 58.84C254.717 59.344 255.503 59.596 256.439 59.596C257.579 59.596 258.497 59.212 259.193 58.444L260.147 59.56C259.715 60.064 259.175 60.448 258.527 60.712C257.891 60.976 257.177 61.108 256.385 61.108C255.377 61.108 254.483 60.904 253.703 60.496C252.923 60.076 252.317 59.494 251.885 58.75C251.465 58.006 251.255 57.166 251.255 56.23C251.255 55.306 251.459 54.472 251.867 53.728C252.287 52.984 252.857 52.408 253.577 52C254.309 51.58 255.131 51.37 256.043 51.37C256.955 51.37 257.765 51.58 258.473 52C259.193 52.408 259.751 52.984 260.147 53.728C260.555 54.472 260.759 55.324 260.759 56.284ZM256.043 52.828C255.215 52.828 254.519 53.08 253.955 53.584C253.403 54.088 253.079 54.748 252.983 55.564H259.103C259.007 54.76 258.677 54.106 258.113 53.602C257.561 53.086 256.871 52.828 256.043 52.828ZM268.253 51.37C269.465 51.37 270.425 51.724 271.133 52.432C271.853 53.128 272.213 54.154 272.213 55.51V61H270.485V55.708C270.485 54.784 270.263 54.088 269.819 53.62C269.375 53.152 268.739 52.918 267.911 52.918C266.975 52.918 266.237 53.194 265.697 53.746C265.157 54.286 264.887 55.066 264.887 56.086V61H263.159V51.46H264.815V52.9C265.163 52.408 265.631 52.03 266.219 51.766C266.819 51.502 267.497 51.37 268.253 51.37ZM292.178 61L292.16 51.82L287.606 59.47H286.778L282.224 51.874V61H280.496V48.4H281.972L287.228 57.256L292.412 48.4H293.888L293.906 61H292.178ZM300.91 51.37C302.23 51.37 303.238 51.694 303.934 52.342C304.642 52.99 304.996 53.956 304.996 55.24V61H303.358V59.74C303.07 60.184 302.656 60.526 302.116 60.766C301.588 60.994 300.958 61.108 300.226 61.108C299.158 61.108 298.3 60.85 297.652 60.334C297.016 59.818 296.698 59.14 296.698 58.3C296.698 57.46 297.004 56.788 297.616 56.284C298.228 55.768 299.2 55.51 300.532 55.51H303.268V55.168C303.268 54.424 303.052 53.854 302.62 53.458C302.188 53.062 301.552 52.864 300.712 52.864C300.148 52.864 299.596 52.96 299.056 53.152C298.516 53.332 298.06 53.578 297.688 53.89L296.968 52.594C297.46 52.198 298.048 51.898 298.732 51.694C299.416 51.478 300.142 51.37 300.91 51.37ZM300.514 59.776C301.174 59.776 301.744 59.632 302.224 59.344C302.704 59.044 303.052 58.624 303.268 58.084V56.752H300.604C299.14 56.752 298.408 57.244 298.408 58.228C298.408 58.708 298.594 59.086 298.966 59.362C299.338 59.638 299.854 59.776 300.514 59.776ZM309.85 53.062C310.15 52.51 310.594 52.09 311.182 51.802C311.77 51.514 312.484 51.37 313.324 51.37V53.044C313.228 53.032 313.096 53.026 312.928 53.026C311.992 53.026 311.254 53.308 310.714 53.872C310.186 54.424 309.922 55.216 309.922 56.248V61H308.194V51.46H309.85V53.062ZM324.282 51.46L319.656 61.954C319.248 62.926 318.768 63.61 318.216 64.006C317.676 64.402 317.022 64.6 316.254 64.6C315.786 64.6 315.33 64.522 314.886 64.366C314.454 64.222 314.094 64.006 313.806 63.718L314.544 62.422C315.036 62.89 315.606 63.124 316.254 63.124C316.674 63.124 317.022 63.01 317.298 62.782C317.586 62.566 317.844 62.188 318.072 61.648L318.378 60.982L314.166 51.46H315.966L319.296 59.092L322.59 51.46H324.282ZM326.626 47.536C326.962 47.536 327.238 47.656 327.454 47.896C327.682 48.124 327.796 48.412 327.796 48.76C327.796 48.94 327.778 49.12 327.742 49.3C327.706 49.468 327.628 49.714 327.508 50.038L326.644 52.558H325.51L326.176 49.876C325.948 49.792 325.762 49.654 325.618 49.462C325.486 49.258 325.42 49.024 325.42 48.76C325.42 48.4 325.534 48.106 325.762 47.878C325.99 47.65 326.278 47.536 326.626 47.536ZM332.709 61.108C331.929 61.108 331.179 61.006 330.459 60.802C329.739 60.586 329.175 60.316 328.767 59.992L329.487 58.624C329.907 58.924 330.417 59.164 331.017 59.344C331.617 59.524 332.223 59.614 332.835 59.614C334.347 59.614 335.103 59.182 335.103 58.318C335.103 58.03 335.001 57.802 334.797 57.634C334.593 57.466 334.335 57.346 334.023 57.274C333.723 57.19 333.291 57.1 332.727 57.004C331.959 56.884 331.329 56.746 330.837 56.59C330.357 56.434 329.943 56.17 329.595 55.798C329.247 55.426 329.073 54.904 329.073 54.232C329.073 53.368 329.433 52.678 330.153 52.162C330.873 51.634 331.839 51.37 333.051 51.37C333.687 51.37 334.323 51.448 334.959 51.604C335.595 51.76 336.117 51.97 336.525 52.234L335.787 53.602C335.007 53.098 334.089 52.846 333.033 52.846C332.301 52.846 331.743 52.966 331.359 53.206C330.975 53.446 330.783 53.764 330.783 54.16C330.783 54.472 330.891 54.718 331.107 54.898C331.323 55.078 331.587 55.21 331.899 55.294C332.223 55.378 332.673 55.474 333.249 55.582C334.017 55.714 334.635 55.858 335.103 56.014C335.583 56.158 335.991 56.41 336.327 56.77C336.663 57.13 336.831 57.634 336.831 58.282C336.831 59.146 336.459 59.836 335.715 60.352C334.983 60.856 333.981 61.108 332.709 61.108ZM348.919 51.37C350.131 51.37 351.091 51.724 351.799 52.432C352.519 53.128 352.879 54.154 352.879 55.51V61H351.151V55.708C351.151 54.784 350.929 54.088 350.485 53.62C350.041 53.152 349.405 52.918 348.577 52.918C347.641 52.918 346.903 53.194 346.363 53.746C345.823 54.286 345.553 55.066 345.553 56.086V61H343.825V47.644H345.553V52.81C345.913 52.354 346.381 52 346.957 51.748C347.545 51.496 348.199 51.37 348.919 51.37ZM360.215 61.108C359.267 61.108 358.415 60.898 357.659 60.478C356.903 60.058 356.309 59.482 355.877 58.75C355.457 58.006 355.247 57.166 355.247 56.23C355.247 55.294 355.457 54.46 355.877 53.728C356.309 52.984 356.903 52.408 357.659 52C358.415 51.58 359.267 51.37 360.215 51.37C361.163 51.37 362.009 51.58 362.753 52C363.509 52.408 364.097 52.984 364.517 53.728C364.949 54.46 365.165 55.294 365.165 56.23C365.165 57.166 364.949 58.006 364.517 58.75C364.097 59.482 363.509 60.058 362.753 60.478C362.009 60.898 361.163 61.108 360.215 61.108ZM360.215 59.596C360.827 59.596 361.373 59.458 361.853 59.182C362.345 58.894 362.729 58.498 363.005 57.994C363.281 57.478 363.419 56.89 363.419 56.23C363.419 55.57 363.281 54.988 363.005 54.484C362.729 53.968 362.345 53.572 361.853 53.296C361.373 53.02 360.827 52.882 360.215 52.882C359.603 52.882 359.051 53.02 358.559 53.296C358.079 53.572 357.695 53.968 357.407 54.484C357.131 54.988 356.993 55.57 356.993 56.23C356.993 56.89 357.131 57.478 357.407 57.994C357.695 58.498 358.079 58.894 358.559 59.182C359.051 59.458 359.603 59.596 360.215 59.596ZM376.447 51.46V61H374.809V59.56C374.461 60.052 373.999 60.436 373.423 60.712C372.859 60.976 372.241 61.108 371.569 61.108C370.297 61.108 369.295 60.76 368.563 60.064C367.831 59.356 367.465 58.318 367.465 56.95V51.46H369.193V56.752C369.193 57.676 369.415 58.378 369.859 58.858C370.303 59.326 370.939 59.56 371.767 59.56C372.679 59.56 373.399 59.284 373.927 58.732C374.455 58.18 374.719 57.4 374.719 56.392V51.46H376.447ZM382.473 61.108C381.693 61.108 380.943 61.006 380.223 60.802C379.503 60.586 378.939 60.316 378.531 59.992L379.251 58.624C379.671 58.924 380.181 59.164 380.781 59.344C381.381 59.524 381.987 59.614 382.599 59.614C384.111 59.614 384.867 59.182 384.867 58.318C384.867 58.03 384.765 57.802 384.561 57.634C384.357 57.466 384.099 57.346 383.787 57.274C383.487 57.19 383.055 57.1 382.491 57.004C381.723 56.884 381.093 56.746 380.601 56.59C380.121 56.434 379.707 56.17 379.359 55.798C379.011 55.426 378.837 54.904 378.837 54.232C378.837 53.368 379.197 52.678 379.917 52.162C380.637 51.634 381.603 51.37 382.815 51.37C383.451 51.37 384.087 51.448 384.723 51.604C385.359 51.76 385.881 51.97 386.289 52.234L385.551 53.602C384.771 53.098 383.853 52.846 382.797 52.846C382.065 52.846 381.507 52.966 381.123 53.206C380.739 53.446 380.547 53.764 380.547 54.16C380.547 54.472 380.655 54.718 380.871 54.898C381.087 55.078 381.351 55.21 381.663 55.294C381.987 55.378 382.437 55.474 383.013 55.582C383.781 55.714 384.399 55.858 384.867 56.014C385.347 56.158 385.755 56.41 386.091 56.77C386.427 57.13 386.595 57.634 386.595 58.282C386.595 59.146 386.223 59.836 385.479 60.352C384.747 60.856 383.745 61.108 382.473 61.108ZM397.376 56.284C397.376 56.416 397.364 56.59 397.34 56.806H389.6C389.708 57.646 390.074 58.324 390.698 58.84C391.334 59.344 392.12 59.596 393.056 59.596C394.196 59.596 395.114 59.212 395.81 58.444L396.764 59.56C396.332 60.064 395.792 60.448 395.144 60.712C394.508 60.976 393.794 61.108 393.002 61.108C391.994 61.108 391.1 60.904 390.32 60.496C389.54 60.076 388.934 59.494 388.502 58.75C388.082 58.006 387.872 57.166 387.872 56.23C387.872 55.306 388.076 54.472 388.484 53.728C388.904 52.984 389.474 52.408 390.194 52C390.926 51.58 391.748 51.37 392.66 51.37C393.572 51.37 394.382 51.58 395.09 52C395.81 52.408 396.368 52.984 396.764 53.728C397.172 54.472 397.376 55.324 397.376 56.284ZM392.66 52.828C391.832 52.828 391.136 53.08 390.572 53.584C390.02 54.088 389.696 54.748 389.6 55.564H395.72C395.624 54.76 395.294 54.106 394.73 53.602C394.178 53.086 393.488 52.828 392.66 52.828ZM408.084 51.37C409.404 51.37 410.412 51.694 411.108 52.342C411.816 52.99 412.17 53.956 412.17 55.24V61H410.532V59.74C410.244 60.184 409.83 60.526 409.29 60.766C408.762 60.994 408.132 61.108 407.4 61.108C406.332 61.108 405.474 60.85 404.826 60.334C404.19 59.818 403.872 59.14 403.872 58.3C403.872 57.46 404.178 56.788 404.79 56.284C405.402 55.768 406.374 55.51 407.706 55.51H410.442V55.168C410.442 54.424 410.226 53.854 409.794 53.458C409.362 53.062 408.726 52.864 407.886 52.864C407.322 52.864 406.77 52.96 406.23 53.152C405.69 53.332 405.234 53.578 404.862 53.89L404.142 52.594C404.634 52.198 405.222 51.898 405.906 51.694C406.59 51.478 407.316 51.37 408.084 51.37ZM407.688 59.776C408.348 59.776 408.918 59.632 409.398 59.344C409.878 59.044 410.226 58.624 410.442 58.084V56.752H407.778C406.314 56.752 405.582 57.244 405.582 58.228C405.582 58.708 405.768 59.086 406.14 59.362C406.512 59.638 407.028 59.776 407.688 59.776ZM420.461 51.37C421.673 51.37 422.633 51.724 423.341 52.432C424.061 53.128 424.421 54.154 424.421 55.51V61H422.693V55.708C422.693 54.784 422.471 54.088 422.027 53.62C421.583 53.152 420.947 52.918 420.119 52.918C419.183 52.918 418.445 53.194 417.905 53.746C417.365 54.286 417.095 55.066 417.095 56.086V61H415.367V51.46H417.023V52.9C417.371 52.408 417.839 52.03 418.427 51.766C419.027 51.502 419.705 51.37 420.461 51.37ZM436.672 47.644V61H435.016V59.488C434.632 60.016 434.146 60.418 433.558 60.694C432.97 60.97 432.322 61.108 431.614 61.108C430.69 61.108 429.862 60.904 429.13 60.496C428.398 60.088 427.822 59.518 427.402 58.786C426.994 58.042 426.79 57.19 426.79 56.23C426.79 55.27 426.994 54.424 427.402 53.692C427.822 52.96 428.398 52.39 429.13 51.982C429.862 51.574 430.69 51.37 431.614 51.37C432.298 51.37 432.928 51.502 433.504 51.766C434.08 52.018 434.56 52.396 434.944 52.9V47.644H436.672ZM431.758 59.596C432.358 59.596 432.904 59.458 433.396 59.182C433.888 58.894 434.272 58.498 434.548 57.994C434.824 57.478 434.962 56.89 434.962 56.23C434.962 55.57 434.824 54.988 434.548 54.484C434.272 53.968 433.888 53.572 433.396 53.296C432.904 53.02 432.358 52.882 431.758 52.882C431.146 52.882 430.594 53.02 430.102 53.296C429.622 53.572 429.238 53.968 428.95 54.484C428.674 54.988 428.536 55.57 428.536 56.23C428.536 56.89 428.674 57.478 428.95 57.994C429.238 58.498 429.622 58.894 430.102 59.182C430.594 59.458 431.146 59.596 431.758 59.596ZM450.14 60.442C449.888 60.658 449.576 60.826 449.204 60.946C448.832 61.054 448.448 61.108 448.052 61.108C447.092 61.108 446.348 60.85 445.82 60.334C445.292 59.818 445.028 59.08 445.028 58.12V52.882H443.408V51.46H445.028V49.372H446.756V51.46H449.492V52.882H446.756V58.048C446.756 58.564 446.882 58.96 447.134 59.236C447.398 59.512 447.77 59.65 448.25 59.65C448.778 59.65 449.228 59.5 449.6 59.2L450.14 60.442ZM457.323 51.37C458.535 51.37 459.495 51.724 460.203 52.432C460.923 53.128 461.283 54.154 461.283 55.51V61H459.555V55.708C459.555 54.784 459.333 54.088 458.889 53.62C458.445 53.152 457.809 52.918 456.981 52.918C456.045 52.918 455.307 53.194 454.767 53.746C454.227 54.286 453.957 55.066 453.957 56.086V61H452.229V47.644H453.957V52.81C454.317 52.354 454.785 52 455.361 51.748C455.949 51.496 456.603 51.37 457.323 51.37ZM473.156 56.284C473.156 56.416 473.144 56.59 473.12 56.806H465.38C465.488 57.646 465.854 58.324 466.478 58.84C467.114 59.344 467.9 59.596 468.836 59.596C469.976 59.596 470.894 59.212 471.59 58.444L472.544 59.56C472.112 60.064 471.572 60.448 470.924 60.712C470.288 60.976 469.574 61.108 468.782 61.108C467.774 61.108 466.88 60.904 466.1 60.496C465.32 60.076 464.714 59.494 464.282 58.75C463.862 58.006 463.652 57.166 463.652 56.23C463.652 55.306 463.856 54.472 464.264 53.728C464.684 52.984 465.254 52.408 465.974 52C466.706 51.58 467.528 51.37 468.44 51.37C469.352 51.37 470.162 51.58 470.87 52C471.59 52.408 472.148 52.984 472.544 53.728C472.952 54.472 473.156 55.324 473.156 56.284ZM468.44 52.828C467.612 52.828 466.916 53.08 466.352 53.584C465.8 54.088 465.476 54.748 465.38 55.564H471.5C471.404 54.76 471.074 54.106 470.51 53.602C469.958 53.086 469.268 52.828 468.44 52.828ZM492.323 51.37C493.523 51.37 494.471 51.718 495.167 52.414C495.875 53.11 496.229 54.142 496.229 55.51V61H494.501V55.708C494.501 54.784 494.285 54.088 493.853 53.62C493.433 53.152 492.827 52.918 492.035 52.918C491.159 52.918 490.463 53.194 489.947 53.746C489.431 54.286 489.173 55.066 489.173 56.086V61H487.445V55.708C487.445 54.784 487.229 54.088 486.797 53.62C486.377 53.152 485.771 52.918 484.979 52.918C484.103 52.918 483.407 53.194 482.891 53.746C482.375 54.286 482.117 55.066 482.117 56.086V61H480.389V51.46H482.045V52.882C482.393 52.39 482.849 52.018 483.413 51.766C483.977 51.502 484.619 51.37 485.339 51.37C486.083 51.37 486.743 51.52 487.319 51.82C487.895 52.12 488.339 52.558 488.651 53.134C489.011 52.582 489.509 52.15 490.145 51.838C490.793 51.526 491.519 51.37 492.323 51.37ZM502.883 51.37C504.203 51.37 505.211 51.694 505.907 52.342C506.615 52.99 506.969 53.956 506.969 55.24V61H505.331V59.74C505.043 60.184 504.629 60.526 504.089 60.766C503.561 60.994 502.931 61.108 502.199 61.108C501.131 61.108 500.273 60.85 499.625 60.334C498.989 59.818 498.671 59.14 498.671 58.3C498.671 57.46 498.977 56.788 499.589 56.284C500.201 55.768 501.173 55.51 502.505 55.51H505.241V55.168C505.241 54.424 505.025 53.854 504.593 53.458C504.161 53.062 503.525 52.864 502.685 52.864C502.121 52.864 501.569 52.96 501.029 53.152C500.489 53.332 500.033 53.578 499.661 53.89L498.941 52.594C499.433 52.198 500.021 51.898 500.705 51.694C501.389 51.478 502.115 51.37 502.883 51.37ZM502.487 59.776C503.147 59.776 503.717 59.632 504.197 59.344C504.677 59.044 505.025 58.624 505.241 58.084V56.752H502.577C501.113 56.752 500.381 57.244 500.381 58.228C500.381 58.708 500.567 59.086 500.939 59.362C501.311 59.638 501.827 59.776 502.487 59.776ZM510.166 47.644H511.894V61H510.166V47.644ZM515.194 47.644H516.922V61H515.194V47.644ZM522.687 57.022C522.687 56.542 522.765 56.122 522.921 55.762C523.089 55.39 523.287 55.078 523.515 54.826C523.755 54.574 524.067 54.274 524.451 53.926C524.931 53.506 525.285 53.146 525.513 52.846C525.741 52.534 525.855 52.162 525.855 51.73C525.855 51.142 525.627 50.674 525.171 50.326C524.715 49.966 524.085 49.786 523.281 49.786C521.877 49.786 520.803 50.26 520.059 51.208L518.745 50.272C519.249 49.624 519.891 49.126 520.671 48.778C521.463 48.43 522.375 48.256 523.407 48.256C524.715 48.256 525.753 48.544 526.521 49.12C527.289 49.684 527.673 50.464 527.673 51.46C527.673 51.952 527.589 52.39 527.421 52.774C527.265 53.146 527.073 53.458 526.845 53.71C526.617 53.962 526.311 54.262 525.927 54.61C525.435 55.054 525.069 55.444 524.829 55.78C524.601 56.116 524.487 56.53 524.487 57.022H522.687ZM523.605 61.108C523.269 61.108 522.987 61 522.759 60.784C522.543 60.556 522.435 60.28 522.435 59.956C522.435 59.632 522.543 59.362 522.759 59.146C522.987 58.918 523.269 58.804 523.605 58.804C523.941 58.804 524.217 58.918 524.433 59.146C524.649 59.362 524.757 59.632 524.757 59.956C524.757 60.28 524.643 60.556 524.415 60.784C524.199 61 523.929 61.108 523.605 61.108Z" fill="#2F2F2F"/>
<path d="M544 41H574V39H544V41ZM578 45V65H580V45H578ZM574 69H544V71H574V69ZM540 65V45H538V65H540ZM544 69C541.791 69 540 67.2091 540 65H538C538 68.3137 540.686 71 544 71V69ZM578 65C578 67.2091 576.209 69 574 69V71C577.314 71 580 68.3137 580 65H578ZM574 41C576.209 41 578 42.7909 578 45H580C580 41.6863 577.314 39 574 39V41ZM544 39C540.686 39 538 41.6863 538 45H540C540 42.7909 541.791 41 544 41V39Z" fill="#2F2F2F"/>
<path d="M429.465 15.06H434.415V16.932H429.465V15.06ZM441.205 13.602C442.369 13.746 443.257 14.142 443.869 14.79C444.481 15.438 444.787 16.248 444.787 17.22C444.787 17.952 444.601 18.618 444.229 19.218C443.857 19.818 443.293 20.298 442.537 20.658C441.793 21.006 440.881 21.18 439.801 21.18C438.901 21.18 438.031 21.054 437.191 20.802C436.363 20.538 435.655 20.178 435.067 19.722L436.075 17.904C436.531 18.288 437.083 18.594 437.731 18.822C438.391 19.038 439.069 19.146 439.765 19.146C440.593 19.146 441.241 18.978 441.709 18.642C442.189 18.294 442.429 17.826 442.429 17.238C442.429 16.65 442.201 16.194 441.745 15.87C441.301 15.534 440.617 15.366 439.693 15.366H438.541V13.764L441.403 10.362H435.679V8.4H444.265V9.966L441.205 13.602Z" fill="#2F2F2F"/>
<path d="M501.978 14.278C503.754 14.278 505.068 14.626 505.92 15.322C506.772 16.006 507.198 16.942 507.198 18.13C507.198 18.886 507.012 19.57 506.64 20.182C506.268 20.794 505.71 21.28 504.966 21.64C504.222 22 503.304 22.18 502.212 22.18C501.312 22.18 500.442 22.054 499.602 21.802C498.762 21.538 498.054 21.178 497.478 20.722L498.468 18.904C498.936 19.288 499.494 19.594 500.142 19.822C500.802 20.038 501.48 20.146 502.176 20.146C503.004 20.146 503.652 19.978 504.12 19.642C504.6 19.294 504.84 18.82 504.84 18.22C504.84 17.572 504.582 17.086 504.066 16.762C503.562 16.426 502.692 16.258 501.456 16.258H498.414L499.062 9.4H506.46V11.362H501.042L500.772 14.278H501.978Z" fill="#2F2F2F"/>
<path d="M562.093 54.376C562.753 54.676 563.257 55.084 563.605 55.6C563.965 56.104 564.145 56.698 564.145 57.382C564.145 58.15 563.929 58.822 563.497 59.398C563.077 59.974 562.477 60.418 561.697 60.73C560.917 61.03 560.011 61.18 558.979 61.18C557.947 61.18 557.041 61.03 556.261 60.73C555.493 60.418 554.899 59.974 554.479 59.398C554.059 58.822 553.849 58.15 553.849 57.382C553.849 56.698 554.023 56.104 554.371 55.6C554.719 55.084 555.217 54.676 555.865 54.376C555.361 54.1 554.971 53.74 554.695 53.296C554.431 52.84 554.299 52.318 554.299 51.73C554.299 51.022 554.491 50.404 554.875 49.876C555.271 49.348 555.823 48.94 556.531 48.652C557.239 48.364 558.055 48.22 558.979 48.22C559.915 48.22 560.737 48.364 561.445 48.652C562.153 48.94 562.705 49.348 563.101 49.876C563.497 50.404 563.695 51.022 563.695 51.73C563.695 52.318 563.557 52.834 563.281 53.278C563.005 53.722 562.609 54.088 562.093 54.376ZM558.979 50.056C558.247 50.056 557.665 50.212 557.233 50.524C556.813 50.836 556.603 51.274 556.603 51.838C556.603 52.378 556.813 52.81 557.233 53.134C557.665 53.446 558.247 53.602 558.979 53.602C559.723 53.602 560.311 53.446 560.743 53.134C561.175 52.81 561.391 52.378 561.391 51.838C561.391 51.274 561.169 50.836 560.725 50.524C560.293 50.212 559.711 50.056 558.979 50.056ZM558.979 59.344C559.843 59.344 560.527 59.164 561.031 58.804C561.535 58.444 561.787 57.946 561.787 57.31C561.787 56.686 561.535 56.194 561.031 55.834C560.527 55.474 559.843 55.294 558.979 55.294C558.115 55.294 557.437 55.474 556.945 55.834C556.453 56.194 556.207 56.686 556.207 57.31C556.207 57.946 556.453 58.444 556.945 58.804C557.437 59.164 558.115 59.344 558.979 59.344Z" fill="#2F2F2F"/>
</svg>
