<svg width="520" height="57" viewBox="0 0 520 57" fill="none" xmlns="http://www.w3.org/2000/svg">
<path d="M0 5C0 2.23858 2.23858 0 5 0H65C67.7614 0 70 2.23858 70 5V52C70 54.7614 67.7614 57 65 57H5C2.23858 57 0 54.7614 0 52V5Z" fill="#369CB7"/>
<path d="M27.5744 34.68C26.5664 34.68 25.6664 34.428 24.8744 33.924C24.0824 33.408 23.4584 32.664 23.0024 31.692C22.5464 30.708 22.3184 29.544 22.3184 28.2C22.3184 26.856 22.5464 25.698 23.0024 24.726C23.4584 23.742 24.0824 22.998 24.8744 22.494C25.6664 21.978 26.5664 21.72 27.5744 21.72C28.5824 21.72 29.4824 21.978 30.2744 22.494C31.0784 22.998 31.7084 23.742 32.1644 24.726C32.6204 25.698 32.8484 26.856 32.8484 28.2C32.8484 29.544 32.6204 30.708 32.1644 31.692C31.7084 32.664 31.0784 33.408 30.2744 33.924C29.4824 34.428 28.5824 34.68 27.5744 34.68ZM27.5744 32.646C28.4744 32.646 29.1824 32.274 29.6984 31.53C30.2264 30.786 30.4904 29.676 30.4904 28.2C30.4904 26.724 30.2264 25.614 29.6984 24.87C29.1824 24.126 28.4744 23.754 27.5744 23.754C26.6864 23.754 25.9784 24.126 25.4504 24.87C24.9344 25.614 24.6764 26.724 24.6764 28.2C24.6764 29.676 24.9344 30.786 25.4504 31.53C25.9784 32.274 26.6864 32.646 27.5744 32.646ZM35.6228 34.626C35.2148 34.626 34.8668 34.488 34.5788 34.212C34.2908 33.924 34.1468 33.564 34.1468 33.132C34.1468 32.688 34.2848 32.328 34.5608 32.052C34.8488 31.776 35.2028 31.638 35.6228 31.638C36.0428 31.638 36.3908 31.776 36.6668 32.052C36.9548 32.328 37.0988 32.688 37.0988 33.132C37.0988 33.564 36.9548 33.924 36.6668 34.212C36.3788 34.488 36.0308 34.626 35.6228 34.626ZM44.1531 27.102C45.3171 27.246 46.2051 27.642 46.8171 28.29C47.4291 28.938 47.7351 29.748 47.7351 30.72C47.7351 31.452 47.5491 32.118 47.1771 32.718C46.8051 33.318 46.2411 33.798 45.4851 34.158C44.7411 34.506 43.8291 34.68 42.7491 34.68C41.8491 34.68 40.9791 34.554 40.1391 34.302C39.3111 34.038 38.6031 33.678 38.0151 33.222L39.0231 31.404C39.4791 31.788 40.0311 32.094 40.6791 32.322C41.3391 32.538 42.0171 32.646 42.7131 32.646C43.5411 32.646 44.1891 32.478 44.6571 32.142C45.1371 31.794 45.3771 31.326 45.3771 30.738C45.3771 30.15 45.1491 29.694 44.6931 29.37C44.2491 29.034 43.5651 28.866 42.6411 28.866H41.4891V27.264L44.3511 23.862H38.6271V21.9H47.2131V23.466L44.1531 27.102Z" fill="white"/>
<path d="M5 1H65V-1H5V1ZM69 5V52H71V5H69ZM65 56H5V58H65V56ZM1 52V5H-1V52H1ZM5 56C2.79086 56 1 54.2091 1 52H-1C-1 55.3137 1.68629 58 5 58V56ZM69 52C69 54.2091 67.2091 56 65 56V58C68.3137 58 71 55.3137 71 52H69ZM65 1C67.2091 1 69 2.79086 69 5H71C71 1.68629 68.3137 -1 65 -1V1ZM5 -1C1.68629 -1 -1 1.68629 -1 5H1C1 2.79086 2.79086 1 5 1V-1Z" fill="#369CB7"/>
<path d="M90 5C90 2.23858 92.2386 0 95 0H155C157.761 0 160 2.23858 160 5V52C160 54.7614 157.761 57 155 57H95C92.2386 57 90 54.7614 90 52V5Z" fill="#369CB7"/>
<path d="M111.466 34.68C110.458 34.68 109.558 34.428 108.766 33.924C107.974 33.408 107.35 32.664 106.894 31.692C106.438 30.708 106.21 29.544 106.21 28.2C106.21 26.856 106.438 25.698 106.894 24.726C107.35 23.742 107.974 22.998 108.766 22.494C109.558 21.978 110.458 21.72 111.466 21.72C112.474 21.72 113.374 21.978 114.166 22.494C114.97 22.998 115.6 23.742 116.056 24.726C116.512 25.698 116.74 26.856 116.74 28.2C116.74 29.544 116.512 30.708 116.056 31.692C115.6 32.664 114.97 33.408 114.166 33.924C113.374 34.428 112.474 34.68 111.466 34.68ZM111.466 32.646C112.366 32.646 113.074 32.274 113.59 31.53C114.118 30.786 114.382 29.676 114.382 28.2C114.382 26.724 114.118 25.614 113.59 24.87C113.074 24.126 112.366 23.754 111.466 23.754C110.578 23.754 109.87 24.126 109.342 24.87C108.826 25.614 108.568 26.724 108.568 28.2C108.568 29.676 108.826 30.786 109.342 31.53C109.87 32.274 110.578 32.646 111.466 32.646ZM119.514 34.626C119.106 34.626 118.758 34.488 118.47 34.212C118.182 33.924 118.038 33.564 118.038 33.132C118.038 32.688 118.176 32.328 118.452 32.052C118.74 31.776 119.094 31.638 119.514 31.638C119.934 31.638 120.282 31.776 120.558 32.052C120.846 32.328 120.99 32.688 120.99 33.132C120.99 33.564 120.846 33.924 120.558 34.212C120.27 34.488 119.922 34.626 119.514 34.626ZM130.853 27.876C131.513 28.176 132.017 28.584 132.365 29.1C132.725 29.604 132.905 30.198 132.905 30.882C132.905 31.65 132.689 32.322 132.257 32.898C131.837 33.474 131.237 33.918 130.457 34.23C129.677 34.53 128.771 34.68 127.739 34.68C126.707 34.68 125.801 34.53 125.021 34.23C124.253 33.918 123.659 33.474 123.239 32.898C122.819 32.322 122.609 31.65 122.609 30.882C122.609 30.198 122.783 29.604 123.131 29.1C123.479 28.584 123.977 28.176 124.625 27.876C124.121 27.6 123.731 27.24 123.455 26.796C123.191 26.34 123.059 25.818 123.059 25.23C123.059 24.522 123.251 23.904 123.635 23.376C124.031 22.848 124.583 22.44 125.291 22.152C125.999 21.864 126.815 21.72 127.739 21.72C128.675 21.72 129.497 21.864 130.205 22.152C130.913 22.44 131.465 22.848 131.861 23.376C132.257 23.904 132.455 24.522 132.455 25.23C132.455 25.818 132.317 26.334 132.041 26.778C131.765 27.222 131.369 27.588 130.853 27.876ZM127.739 23.556C127.007 23.556 126.425 23.712 125.993 24.024C125.573 24.336 125.363 24.774 125.363 25.338C125.363 25.878 125.573 26.31 125.993 26.634C126.425 26.946 127.007 27.102 127.739 27.102C128.483 27.102 129.071 26.946 129.503 26.634C129.935 26.31 130.151 25.878 130.151 25.338C130.151 24.774 129.929 24.336 129.485 24.024C129.053 23.712 128.471 23.556 127.739 23.556ZM127.739 32.844C128.603 32.844 129.287 32.664 129.791 32.304C130.295 31.944 130.547 31.446 130.547 30.81C130.547 30.186 130.295 29.694 129.791 29.334C129.287 28.974 128.603 28.794 127.739 28.794C126.875 28.794 126.197 28.974 125.705 29.334C125.213 29.694 124.967 30.186 124.967 30.81C124.967 31.446 125.213 31.944 125.705 32.304C126.197 32.664 126.875 32.844 127.739 32.844ZM143.927 21.9V23.466L139.031 34.5H136.529L141.263 23.88H136.313V26.022H134.135V21.9H143.927Z" fill="white"/>
<path d="M95 1H155V-1H95V1ZM159 5V52H161V5H159ZM155 56H95V58H155V56ZM91 52V5H89V52H91ZM95 56C92.7909 56 91 54.2091 91 52H89C89 55.3137 91.6863 58 95 58V56ZM159 52C159 54.2091 157.209 56 155 56V58C158.314 58 161 55.3137 161 52H159ZM155 1C157.209 1 159 2.79086 159 5H161C161 1.68629 158.314 -1 155 -1V1ZM95 -1C91.6863 -1 89 1.68629 89 5H91C91 2.79086 92.7909 1 95 1V-1Z" fill="#369CB7"/>
<rect x="180.5" y="0.5" width="69" height="56" rx="4.5" fill="#369CB7"/>
<path d="M218.293 9.525V22.125H215.953V11.487H213.289V9.525H218.293Z" fill="white"/>
<path d="M220.441 44.895V46.875H211.153V45.309L216.157 40.557C216.721 40.017 217.099 39.549 217.291 39.153C217.495 38.745 217.597 38.343 217.597 37.947C217.597 37.359 217.399 36.909 217.003 36.597C216.607 36.285 216.025 36.129 215.257 36.129C213.973 36.129 212.989 36.567 212.305 37.443L210.667 36.183C211.159 35.523 211.819 35.013 212.647 34.653C213.487 34.281 214.423 34.095 215.455 34.095C216.823 34.095 217.915 34.419 218.731 35.067C219.547 35.715 219.955 36.597 219.955 37.713C219.955 38.397 219.811 39.039 219.523 39.639C219.235 40.239 218.683 40.923 217.867 41.691L214.501 44.895H220.441Z" fill="white"/>
<line x1="203" y1="28.375" x2="227" y2="28.375" stroke="white" stroke-width="1.5"/>
<rect x="180.5" y="0.5" width="69" height="56" rx="4.5" stroke="#369CB7"/>
<rect x="270.5" y="0.5" width="69" height="56" rx="4.5" fill="#369CB7"/>
<path d="M308.293 9.525V22.125H305.953V11.487H303.289V9.525H308.293Z" fill="white"/>
<path d="M308.222 40.251C308.882 40.551 309.386 40.959 309.734 41.475C310.094 41.979 310.274 42.573 310.274 43.257C310.274 44.025 310.058 44.697 309.626 45.273C309.206 45.849 308.606 46.293 307.826 46.605C307.046 46.905 306.14 47.055 305.108 47.055C304.076 47.055 303.17 46.905 302.39 46.605C301.622 46.293 301.028 45.849 300.608 45.273C300.188 44.697 299.978 44.025 299.978 43.257C299.978 42.573 300.152 41.979 300.5 41.475C300.848 40.959 301.346 40.551 301.994 40.251C301.49 39.975 301.1 39.615 300.824 39.171C300.56 38.715 300.428 38.193 300.428 37.605C300.428 36.897 300.62 36.279 301.004 35.751C301.4 35.223 301.952 34.815 302.66 34.527C303.368 34.239 304.184 34.095 305.108 34.095C306.044 34.095 306.866 34.239 307.574 34.527C308.282 34.815 308.834 35.223 309.23 35.751C309.626 36.279 309.824 36.897 309.824 37.605C309.824 38.193 309.686 38.709 309.41 39.153C309.134 39.597 308.738 39.963 308.222 40.251ZM305.108 35.931C304.376 35.931 303.794 36.087 303.362 36.399C302.942 36.711 302.732 37.149 302.732 37.713C302.732 38.253 302.942 38.685 303.362 39.009C303.794 39.321 304.376 39.477 305.108 39.477C305.852 39.477 306.44 39.321 306.872 39.009C307.304 38.685 307.52 38.253 307.52 37.713C307.52 37.149 307.298 36.711 306.854 36.399C306.422 36.087 305.84 35.931 305.108 35.931ZM305.108 45.219C305.972 45.219 306.656 45.039 307.16 44.679C307.664 44.319 307.916 43.821 307.916 43.185C307.916 42.561 307.664 42.069 307.16 41.709C306.656 41.349 305.972 41.169 305.108 41.169C304.244 41.169 303.566 41.349 303.074 41.709C302.582 42.069 302.336 42.561 302.336 43.185C302.336 43.821 302.582 44.319 303.074 44.679C303.566 45.039 304.244 45.219 305.108 45.219Z" fill="white"/>
<line x1="293" y1="28.375" x2="317" y2="28.375" stroke="white" stroke-width="1.5"/>
<rect x="270.5" y="0.5" width="69" height="56" rx="4.5" stroke="#369CB7"/>
<rect x="360.5" y="0.5" width="69" height="56" rx="4.5" fill="#369CB7"/>
<path d="M399.441 20.145V22.125H390.153V20.559L395.157 15.807C395.721 15.267 396.099 14.799 396.291 14.403C396.495 13.995 396.597 13.593 396.597 13.197C396.597 12.609 396.399 12.159 396.003 11.847C395.607 11.535 395.025 11.379 394.257 11.379C392.973 11.379 391.989 11.817 391.305 12.693L389.667 11.433C390.159 10.773 390.819 10.263 391.647 9.903C392.487 9.531 393.423 9.345 394.455 9.345C395.823 9.345 396.915 9.669 397.731 10.317C398.547 10.965 398.955 11.847 398.955 12.963C398.955 13.647 398.811 14.289 398.523 14.889C398.235 15.489 397.683 16.173 396.867 16.941L393.501 20.145H399.441Z" fill="white"/>
<path d="M400.807 44.013H398.575V46.875H396.307V44.013H389.395V42.393L395.605 34.275H398.107L392.257 42.033H396.379V39.495H398.575V42.033H400.807V44.013Z" fill="white"/>
<line x1="383" y1="28.375" x2="407" y2="28.375" stroke="white" stroke-width="1.5"/>
<rect x="360.5" y="0.5" width="69" height="56" rx="4.5" stroke="#369CB7"/>
<rect x="450.5" y="0.5" width="69" height="56" rx="4.5" fill="#369CB7"/>
<path d="M489.441 20.145V22.125H480.153V20.559L485.157 15.807C485.721 15.267 486.099 14.799 486.291 14.403C486.495 13.995 486.597 13.593 486.597 13.197C486.597 12.609 486.399 12.159 486.003 11.847C485.607 11.535 485.025 11.379 484.257 11.379C482.973 11.379 481.989 11.817 481.305 12.693L479.667 11.433C480.159 10.773 480.819 10.263 481.647 9.903C482.487 9.531 483.423 9.345 484.455 9.345C485.823 9.345 486.915 9.669 487.731 10.317C488.547 10.965 488.955 11.847 488.955 12.963C488.955 13.647 488.811 14.289 488.523 14.889C488.235 15.489 487.683 16.173 486.867 16.941L483.501 20.145H489.441Z" fill="white"/>
<path d="M488.222 40.251C488.882 40.551 489.386 40.959 489.734 41.475C490.094 41.979 490.274 42.573 490.274 43.257C490.274 44.025 490.058 44.697 489.626 45.273C489.206 45.849 488.606 46.293 487.826 46.605C487.046 46.905 486.14 47.055 485.108 47.055C484.076 47.055 483.17 46.905 482.39 46.605C481.622 46.293 481.028 45.849 480.608 45.273C480.188 44.697 479.978 44.025 479.978 43.257C479.978 42.573 480.152 41.979 480.5 41.475C480.848 40.959 481.346 40.551 481.994 40.251C481.49 39.975 481.1 39.615 480.824 39.171C480.56 38.715 480.428 38.193 480.428 37.605C480.428 36.897 480.62 36.279 481.004 35.751C481.4 35.223 481.952 34.815 482.66 34.527C483.368 34.239 484.184 34.095 485.108 34.095C486.044 34.095 486.866 34.239 487.574 34.527C488.282 34.815 488.834 35.223 489.23 35.751C489.626 36.279 489.824 36.897 489.824 37.605C489.824 38.193 489.686 38.709 489.41 39.153C489.134 39.597 488.738 39.963 488.222 40.251ZM485.108 35.931C484.376 35.931 483.794 36.087 483.362 36.399C482.942 36.711 482.732 37.149 482.732 37.713C482.732 38.253 482.942 38.685 483.362 39.009C483.794 39.321 484.376 39.477 485.108 39.477C485.852 39.477 486.44 39.321 486.872 39.009C487.304 38.685 487.52 38.253 487.52 37.713C487.52 37.149 487.298 36.711 486.854 36.399C486.422 36.087 485.84 35.931 485.108 35.931ZM485.108 45.219C485.972 45.219 486.656 45.039 487.16 44.679C487.664 44.319 487.916 43.821 487.916 43.185C487.916 42.561 487.664 42.069 487.16 41.709C486.656 41.349 485.972 41.169 485.108 41.169C484.244 41.169 483.566 41.349 483.074 41.709C482.582 42.069 482.336 42.561 482.336 43.185C482.336 43.821 482.582 44.319 483.074 44.679C483.566 45.039 484.244 45.219 485.108 45.219Z" fill="white"/>
<line x1="473" y1="28.375" x2="497" y2="28.375" stroke="white" stroke-width="1.5"/>
<rect x="450.5" y="0.5" width="69" height="56" rx="4.5" stroke="#369CB7"/>
</svg>
