<svg width="70" height="57" viewBox="0 0 70 57" fill="none" xmlns="http://www.w3.org/2000/svg">
<rect x="0.5" y="0.5" width="69" height="56" rx="4.5" fill="#369CB7"/>
<path d="M38.2925 9.525V22.125H35.9525V11.487H33.2885V9.525H38.2925Z" fill="white"/>
<path d="M40.4414 44.895V46.875H31.1534V45.309L36.1574 40.557C36.7214 40.017 37.0994 39.549 37.2914 39.153C37.4954 38.745 37.5974 38.343 37.5974 37.947C37.5974 37.359 37.3994 36.909 37.0034 36.597C36.6074 36.285 36.0254 36.129 35.2574 36.129C33.9734 36.129 32.9894 36.567 32.3054 37.443L30.6674 36.183C31.1594 35.523 31.8194 35.013 32.6474 34.653C33.4874 34.281 34.4234 34.095 35.4554 34.095C36.8234 34.095 37.9154 34.419 38.7314 35.067C39.5474 35.715 39.9554 36.597 39.9554 37.713C39.9554 38.397 39.8114 39.039 39.5234 39.639C39.2354 40.239 38.6834 40.923 37.8674 41.691L34.5014 44.895H40.4414Z" fill="white"/>
<line x1="23" y1="28.375" x2="47" y2="28.375" stroke="white" stroke-width="1.5"/>
<rect x="0.5" y="0.5" width="69" height="56" rx="4.5" stroke="#369CB7"/>
</svg>
