<svg width="70" height="57" viewBox="0 0 70 57" fill="none" xmlns="http://www.w3.org/2000/svg">
<rect x="0.5" y="0.5" width="69" height="56" rx="4.5" fill="#369CB7"/>
<path d="M39.4414 20.145V22.125H30.1534V20.559L35.1574 15.807C35.7214 15.267 36.0994 14.799 36.2914 14.403C36.4954 13.995 36.5974 13.593 36.5974 13.197C36.5974 12.609 36.3994 12.159 36.0034 11.847C35.6074 11.535 35.0254 11.379 34.2574 11.379C32.9734 11.379 31.9894 11.817 31.3054 12.693L29.6674 11.433C30.1594 10.773 30.8194 10.263 31.6474 9.903C32.4874 9.531 33.4234 9.345 34.4554 9.345C35.8234 9.345 36.9154 9.669 37.7314 10.317C38.5474 10.965 38.9554 11.847 38.9554 12.963C38.9554 13.647 38.8114 14.289 38.5234 14.889C38.2354 15.489 37.6834 16.173 36.8674 16.941L33.5014 20.145H39.4414Z" fill="white"/>
<path d="M40.8072 44.013H38.5752V46.875H36.3072V44.013H29.3952V42.393L35.6052 34.275H38.1072L32.2572 42.033H36.3792V39.495H38.5752V42.033H40.8072V44.013Z" fill="white"/>
<line x1="23" y1="28.375" x2="47" y2="28.375" stroke="white" stroke-width="1.5"/>
<rect x="0.5" y="0.5" width="69" height="56" rx="4.5" stroke="#369CB7"/>
</svg>
