<svg width="70" height="57" viewBox="0 0 70 57" fill="none" xmlns="http://www.w3.org/2000/svg">
<path d="M0 5C0 2.23858 2.23858 0 5 0H65C67.7614 0 70 2.23858 70 5V52C70 54.7614 67.7614 57 65 57H5C2.23858 57 0 54.7614 0 52V5Z" fill="#369CB7"/>
<path d="M27.5744 34.68C26.5664 34.68 25.6664 34.428 24.8744 33.924C24.0824 33.408 23.4584 32.664 23.0024 31.692C22.5464 30.708 22.3184 29.544 22.3184 28.2C22.3184 26.856 22.5464 25.698 23.0024 24.726C23.4584 23.742 24.0824 22.998 24.8744 22.494C25.6664 21.978 26.5664 21.72 27.5744 21.72C28.5824 21.72 29.4824 21.978 30.2744 22.494C31.0784 22.998 31.7084 23.742 32.1644 24.726C32.6204 25.698 32.8484 26.856 32.8484 28.2C32.8484 29.544 32.6204 30.708 32.1644 31.692C31.7084 32.664 31.0784 33.408 30.2744 33.924C29.4824 34.428 28.5824 34.68 27.5744 34.68ZM27.5744 32.646C28.4744 32.646 29.1824 32.274 29.6984 31.53C30.2264 30.786 30.4904 29.676 30.4904 28.2C30.4904 26.724 30.2264 25.614 29.6984 24.87C29.1824 24.126 28.4744 23.754 27.5744 23.754C26.6864 23.754 25.9784 24.126 25.4504 24.87C24.9344 25.614 24.6764 26.724 24.6764 28.2C24.6764 29.676 24.9344 30.786 25.4504 31.53C25.9784 32.274 26.6864 32.646 27.5744 32.646ZM35.6228 34.626C35.2148 34.626 34.8668 34.488 34.5788 34.212C34.2908 33.924 34.1468 33.564 34.1468 33.132C34.1468 32.688 34.2848 32.328 34.5608 32.052C34.8488 31.776 35.2028 31.638 35.6228 31.638C36.0428 31.638 36.3908 31.776 36.6668 32.052C36.9548 32.328 37.0988 32.688 37.0988 33.132C37.0988 33.564 36.9548 33.924 36.6668 34.212C36.3788 34.488 36.0308 34.626 35.6228 34.626ZM44.1531 27.102C45.3171 27.246 46.2051 27.642 46.8171 28.29C47.4291 28.938 47.7351 29.748 47.7351 30.72C47.7351 31.452 47.5491 32.118 47.1771 32.718C46.8051 33.318 46.2411 33.798 45.4851 34.158C44.7411 34.506 43.8291 34.68 42.7491 34.68C41.8491 34.68 40.9791 34.554 40.1391 34.302C39.3111 34.038 38.6031 33.678 38.0151 33.222L39.0231 31.404C39.4791 31.788 40.0311 32.094 40.6791 32.322C41.3391 32.538 42.0171 32.646 42.7131 32.646C43.5411 32.646 44.1891 32.478 44.6571 32.142C45.1371 31.794 45.3771 31.326 45.3771 30.738C45.3771 30.15 45.1491 29.694 44.6931 29.37C44.2491 29.034 43.5651 28.866 42.6411 28.866H41.4891V27.264L44.3511 23.862H38.6271V21.9H47.2131V23.466L44.1531 27.102Z" fill="white"/>
<path d="M5 1H65V-1H5V1ZM69 5V52H71V5H69ZM65 56H5V58H65V56ZM1 52V5H-1V52H1ZM5 56C2.79086 56 1 54.2091 1 52H-1C-1 55.3137 1.68629 58 5 58V56ZM69 52C69 54.2091 67.2091 56 65 56V58C68.3137 58 71 55.3137 71 52H69ZM65 1C67.2091 1 69 2.79086 69 5H71C71 1.68629 68.3137 -1 65 -1V1ZM5 -1C1.68629 -1 -1 1.68629 -1 5H1C1 2.79086 2.79086 1 5 1V-1Z" fill="#369CB7"/>
</svg>
