<svg width="70" height="57" viewBox="0 0 70 57" fill="none" xmlns="http://www.w3.org/2000/svg">
<path d="M0 5C0 2.23858 2.23858 0 5 0H65C67.7614 0 70 2.23858 70 5V52C70 54.7614 67.7614 57 65 57H5C2.23858 57 0 54.7614 0 52V5Z" fill="#369CB7"/>
<path d="M21.466 34.68C20.458 34.68 19.558 34.428 18.766 33.924C17.974 33.408 17.35 32.664 16.894 31.692C16.438 30.708 16.21 29.544 16.21 28.2C16.21 26.856 16.438 25.698 16.894 24.726C17.35 23.742 17.974 22.998 18.766 22.494C19.558 21.978 20.458 21.72 21.466 21.72C22.474 21.72 23.374 21.978 24.166 22.494C24.97 22.998 25.6 23.742 26.056 24.726C26.512 25.698 26.74 26.856 26.74 28.2C26.74 29.544 26.512 30.708 26.056 31.692C25.6 32.664 24.97 33.408 24.166 33.924C23.374 34.428 22.474 34.68 21.466 34.68ZM21.466 32.646C22.366 32.646 23.074 32.274 23.59 31.53C24.118 30.786 24.382 29.676 24.382 28.2C24.382 26.724 24.118 25.614 23.59 24.87C23.074 24.126 22.366 23.754 21.466 23.754C20.578 23.754 19.87 24.126 19.342 24.87C18.826 25.614 18.568 26.724 18.568 28.2C18.568 29.676 18.826 30.786 19.342 31.53C19.87 32.274 20.578 32.646 21.466 32.646ZM29.5144 34.626C29.1064 34.626 28.7584 34.488 28.4704 34.212C28.1824 33.924 28.0384 33.564 28.0384 33.132C28.0384 32.688 28.1764 32.328 28.4524 32.052C28.7404 31.776 29.0944 31.638 29.5144 31.638C29.9344 31.638 30.2824 31.776 30.5584 32.052C30.8464 32.328 30.9904 32.688 30.9904 33.132C30.9904 33.564 30.8464 33.924 30.5584 34.212C30.2704 34.488 29.9224 34.626 29.5144 34.626ZM40.8527 27.876C41.5127 28.176 42.0167 28.584 42.3647 29.1C42.7247 29.604 42.9047 30.198 42.9047 30.882C42.9047 31.65 42.6887 32.322 42.2567 32.898C41.8367 33.474 41.2367 33.918 40.4567 34.23C39.6767 34.53 38.7707 34.68 37.7387 34.68C36.7067 34.68 35.8007 34.53 35.0207 34.23C34.2527 33.918 33.6587 33.474 33.2387 32.898C32.8187 32.322 32.6087 31.65 32.6087 30.882C32.6087 30.198 32.7827 29.604 33.1307 29.1C33.4787 28.584 33.9767 28.176 34.6247 27.876C34.1207 27.6 33.7307 27.24 33.4547 26.796C33.1907 26.34 33.0587 25.818 33.0587 25.23C33.0587 24.522 33.2507 23.904 33.6347 23.376C34.0307 22.848 34.5827 22.44 35.2907 22.152C35.9987 21.864 36.8147 21.72 37.7387 21.72C38.6747 21.72 39.4967 21.864 40.2047 22.152C40.9127 22.44 41.4647 22.848 41.8607 23.376C42.2567 23.904 42.4547 24.522 42.4547 25.23C42.4547 25.818 42.3167 26.334 42.0407 26.778C41.7647 27.222 41.3687 27.588 40.8527 27.876ZM37.7387 23.556C37.0067 23.556 36.4247 23.712 35.9927 24.024C35.5727 24.336 35.3627 24.774 35.3627 25.338C35.3627 25.878 35.5727 26.31 35.9927 26.634C36.4247 26.946 37.0067 27.102 37.7387 27.102C38.4827 27.102 39.0707 26.946 39.5027 26.634C39.9347 26.31 40.1507 25.878 40.1507 25.338C40.1507 24.774 39.9287 24.336 39.4847 24.024C39.0527 23.712 38.4707 23.556 37.7387 23.556ZM37.7387 32.844C38.6027 32.844 39.2867 32.664 39.7907 32.304C40.2947 31.944 40.5467 31.446 40.5467 30.81C40.5467 30.186 40.2947 29.694 39.7907 29.334C39.2867 28.974 38.6027 28.794 37.7387 28.794C36.8747 28.794 36.1967 28.974 35.7047 29.334C35.2127 29.694 34.9667 30.186 34.9667 30.81C34.9667 31.446 35.2127 31.944 35.7047 32.304C36.1967 32.664 36.8747 32.844 37.7387 32.844ZM53.9269 21.9V23.466L49.0309 34.5H46.5289L51.2629 23.88H46.3129V26.022H44.1349V21.9H53.9269Z" fill="white"/>
<path d="M5 1H65V-1H5V1ZM69 5V52H71V5H69ZM65 56H5V58H65V56ZM1 52V5H-1V52H1ZM5 56C2.79086 56 1 54.2091 1 52H-1C-1 55.3137 1.68629 58 5 58V56ZM69 52C69 54.2091 67.2091 56 65 56V58C68.3137 58 71 55.3137 71 52H69ZM65 1C67.2091 1 69 2.79086 69 5H71C71 1.68629 68.3137 -1 65 -1V1ZM5 -1C1.68629 -1 -1 1.68629 -1 5H1C1 2.79086 2.79086 1 5 1V-1Z" fill="#369CB7"/>
</svg>
