<svg width="70" height="57" viewBox="0 0 70 57" fill="none" xmlns="http://www.w3.org/2000/svg">
<rect x="0.5" y="0.5" width="69" height="56" rx="4.5" fill="#369CB7"/>
<path d="M39.4414 20.145V22.125H30.1534V20.559L35.1574 15.807C35.7214 15.267 36.0994 14.799 36.2914 14.403C36.4954 13.995 36.5974 13.593 36.5974 13.197C36.5974 12.609 36.3994 12.159 36.0034 11.847C35.6074 11.535 35.0254 11.379 34.2574 11.379C32.9734 11.379 31.9894 11.817 31.3054 12.693L29.6674 11.433C30.1594 10.773 30.8194 10.263 31.6474 9.903C32.4874 9.531 33.4234 9.345 34.4554 9.345C35.8234 9.345 36.9154 9.669 37.7314 10.317C38.5474 10.965 38.9554 11.847 38.9554 12.963C38.9554 13.647 38.8114 14.289 38.5234 14.889C38.2354 15.489 37.6834 16.173 36.8674 16.941L33.5014 20.145H39.4414Z" fill="white"/>
<path d="M38.2218 40.251C38.8818 40.551 39.3858 40.959 39.7338 41.475C40.0938 41.979 40.2738 42.573 40.2738 43.257C40.2738 44.025 40.0578 44.697 39.6258 45.273C39.2058 45.849 38.6058 46.293 37.8258 46.605C37.0458 46.905 36.1398 47.055 35.1078 47.055C34.0758 47.055 33.1698 46.905 32.3898 46.605C31.6218 46.293 31.0278 45.849 30.6078 45.273C30.1878 44.697 29.9778 44.025 29.9778 43.257C29.9778 42.573 30.1518 41.979 30.4998 41.475C30.8478 40.959 31.3458 40.551 31.9938 40.251C31.4898 39.975 31.0998 39.615 30.8238 39.171C30.5598 38.715 30.4278 38.193 30.4278 37.605C30.4278 36.897 30.6198 36.279 31.0038 35.751C31.3998 35.223 31.9518 34.815 32.6598 34.527C33.3678 34.239 34.1838 34.095 35.1078 34.095C36.0438 34.095 36.8658 34.239 37.5738 34.527C38.2818 34.815 38.8338 35.223 39.2298 35.751C39.6258 36.279 39.8238 36.897 39.8238 37.605C39.8238 38.193 39.6858 38.709 39.4098 39.153C39.1338 39.597 38.7378 39.963 38.2218 40.251ZM35.1078 35.931C34.3758 35.931 33.7938 36.087 33.3618 36.399C32.9418 36.711 32.7318 37.149 32.7318 37.713C32.7318 38.253 32.9418 38.685 33.3618 39.009C33.7938 39.321 34.3758 39.477 35.1078 39.477C35.8518 39.477 36.4398 39.321 36.8718 39.009C37.3038 38.685 37.5198 38.253 37.5198 37.713C37.5198 37.149 37.2978 36.711 36.8538 36.399C36.4218 36.087 35.8398 35.931 35.1078 35.931ZM35.1078 45.219C35.9718 45.219 36.6558 45.039 37.1598 44.679C37.6638 44.319 37.9158 43.821 37.9158 43.185C37.9158 42.561 37.6638 42.069 37.1598 41.709C36.6558 41.349 35.9718 41.169 35.1078 41.169C34.2438 41.169 33.5658 41.349 33.0738 41.709C32.5818 42.069 32.3358 42.561 32.3358 43.185C32.3358 43.821 32.5818 44.319 33.0738 44.679C33.5658 45.039 34.2438 45.219 35.1078 45.219Z" fill="white"/>
<line x1="23" y1="28.375" x2="47" y2="28.375" stroke="white" stroke-width="1.5"/>
<rect x="0.5" y="0.5" width="69" height="56" rx="4.5" stroke="#369CB7"/>
</svg>
