<svg width="157" height="30" viewBox="0 0 157 30" fill="none" xmlns="http://www.w3.org/2000/svg">
<path d="M55 1H115V-1H55V1ZM119 5V25H121V5H119ZM115 29H55V31H115V29ZM51 25V5H49V25H51ZM55 29C52.7909 29 51 27.2091 51 25H49C49 28.3137 51.6863 31 55 31V29ZM119 25C119 27.2091 117.209 29 115 29V31C118.314 31 121 28.3137 121 25H119ZM115 1C117.209 1 119 2.79086 119 5H121C121 1.68629 118.314 -1 115 -1V1ZM55 -1C51.6863 -1 49 1.68629 49 5H51C51 2.79086 52.7909 1 55 1V-1Z" fill="#2F2F2F"/>
<path d="M145.202 11.2C146.549 11.2 147.615 11.5933 148.402 12.38C149.189 13.1533 149.582 14.32 149.582 15.88V22H147.082V16.2C147.082 15.2667 146.875 14.5667 146.462 14.1C146.049 13.62 145.455 13.38 144.682 13.38C143.842 13.38 143.169 13.66 142.662 14.22C142.155 14.7667 141.902 15.5533 141.902 16.58V22H139.402V16.2C139.402 15.2667 139.195 14.5667 138.782 14.1C138.369 13.62 137.775 13.38 137.002 13.38C136.149 13.38 135.469 13.6533 134.962 14.2C134.469 14.7467 134.222 15.54 134.222 16.58V22H131.722V11.32H134.102V12.68C134.502 12.2 135.002 11.8333 135.602 11.58C136.202 11.3267 136.869 11.2 137.602 11.2C138.402 11.2 139.109 11.3533 139.722 11.66C140.349 11.9533 140.842 12.3933 141.202 12.98C141.642 12.42 142.209 11.9867 142.902 11.68C143.595 11.36 144.362 11.2 145.202 11.2ZM152.777 11.32H155.277V22H152.777V11.32ZM154.037 9.56C153.583 9.56 153.203 9.42 152.897 9.14C152.59 8.84667 152.437 8.48667 152.437 8.06C152.437 7.63333 152.59 7.28 152.897 7C153.203 6.70667 153.583 6.56 154.037 6.56C154.49 6.56 154.87 6.7 155.177 6.98C155.483 7.24667 155.637 7.58667 155.637 8C155.637 8.44 155.483 8.81333 155.177 9.12C154.883 9.41333 154.503 9.56 154.037 9.56Z" fill="#2F2F2F"/>
<path d="M12.2648 14.72C13.0382 14.9733 13.6515 15.4 14.1048 16C14.5582 16.5867 14.7848 17.32 14.7848 18.2C14.7848 19.4133 14.3182 20.3533 13.3848 21.02C12.4515 21.6733 11.0915 22 9.30484 22H2.34484V8H8.90484C10.5582 8 11.8315 8.32667 12.7248 8.98C13.6182 9.62 14.0648 10.5067 14.0648 11.64C14.0648 12.3333 13.9048 12.9467 13.5848 13.48C13.2648 14.0133 12.8248 14.4267 12.2648 14.72ZM4.94484 10.04V13.9H8.62484C9.53151 13.9 10.2248 13.74 10.7048 13.42C11.1982 13.0867 11.4448 12.6067 11.4448 11.98C11.4448 11.34 11.1982 10.86 10.7048 10.54C10.2248 10.2067 9.53151 10.04 8.62484 10.04H4.94484ZM9.14484 19.96C11.1582 19.96 12.1648 19.2867 12.1648 17.94C12.1648 16.5933 11.1582 15.92 9.14484 15.92H4.94484V19.96H9.14484ZM24.0397 22.2C22.6264 22.2 21.3464 21.8933 20.1997 21.28C19.0664 20.6533 18.173 19.7933 17.5197 18.7C16.8797 17.6067 16.5597 16.3733 16.5597 15C16.5597 13.6267 16.8864 12.3933 17.5397 11.3C18.193 10.2067 19.0864 9.35333 20.2197 8.74C21.3664 8.11333 22.6464 7.8 24.0597 7.8C25.2064 7.8 26.253 8 27.1997 8.4C28.1464 8.8 28.9464 9.38 29.5997 10.14L27.9197 11.72C26.9064 10.6267 25.6597 10.08 24.1797 10.08C23.2197 10.08 22.3597 10.2933 21.5997 10.72C20.8397 11.1333 20.2464 11.7133 19.8197 12.46C19.393 13.2067 19.1797 14.0533 19.1797 15C19.1797 15.9467 19.393 16.7933 19.8197 17.54C20.2464 18.2867 20.8397 18.8733 21.5997 19.3C22.3597 19.7133 23.2197 19.92 24.1797 19.92C25.6597 19.92 26.9064 19.3667 27.9197 18.26L29.5997 19.86C28.9464 20.62 28.1397 21.2 27.1797 21.6C26.233 22 25.1864 22.2 24.0397 22.2ZM37.0383 11.58H46.2583V13.58H37.0383V11.58ZM37.0383 16.42H46.2583V18.42H37.0383V16.42Z" fill="#2F2F2F"/>
<path d="M82.1497 19.434V21H73.0957V19.776L78.2257 14.826C78.8497 14.226 79.2697 13.71 79.4857 13.278C79.7017 12.834 79.8097 12.39 79.8097 11.946C79.8097 11.286 79.5757 10.776 79.1077 10.416C78.6517 10.044 77.9917 9.858 77.1277 9.858C75.7357 9.858 74.6617 10.314 73.9057 11.226L72.6817 10.164C73.1737 9.564 73.8157 9.096 74.6077 8.76C75.4117 8.424 76.3057 8.256 77.2897 8.256C78.6097 8.256 79.6597 8.574 80.4397 9.21C81.2197 9.834 81.6097 10.686 81.6097 11.766C81.6097 12.438 81.4657 13.074 81.1777 13.674C80.8897 14.274 80.3437 14.958 79.5397 15.726L75.6877 19.434H82.1497ZM88.3774 5.844H89.9434L84.0034 22.8H82.4374L88.3774 5.844ZM94.9575 13.692C96.1935 13.812 97.1355 14.196 97.7835 14.844C98.4315 15.48 98.7555 16.296 98.7555 17.292C98.7555 18.012 98.5755 18.666 98.2155 19.254C97.8555 19.83 97.3155 20.292 96.5955 20.64C95.8875 20.976 95.0175 21.144 93.9855 21.144C93.0855 21.144 92.2215 21.012 91.3935 20.748C90.5655 20.472 89.8875 20.094 89.3595 19.614L90.1875 18.192C90.6195 18.6 91.1715 18.93 91.8435 19.182C92.5155 19.422 93.2295 19.542 93.9855 19.542C94.9215 19.542 95.6475 19.344 96.1635 18.948C96.6915 18.552 96.9555 18.006 96.9555 17.31C96.9555 16.614 96.6975 16.074 96.1815 15.69C95.6655 15.306 94.8855 15.114 93.8415 15.114H92.8335V13.854L96.0015 9.966H89.9355V8.4H98.2515V9.624L94.9575 13.692Z" fill="#2F2F2F"/>
</svg>
