<svg width="303" height="210" viewBox="0 0 303 210" fill="none" xmlns="http://www.w3.org/2000/svg">
<rect x="27.5" y="26.7244" width="227" height="132.582" fill="#F9D095" stroke="#CC913A" stroke-width="3"/>
<path d="M160.032 182.749C161.244 182.749 162.204 183.103 162.912 183.811C163.62 184.507 163.974 185.557 163.974 186.961V192.469H161.724V187.249C161.724 186.409 161.538 185.779 161.166 185.359C160.794 184.927 160.26 184.711 159.564 184.711C158.808 184.711 158.202 184.963 157.746 185.467C157.29 185.959 157.062 186.667 157.062 187.591V192.469H154.812V187.249C154.812 186.409 154.626 185.779 154.254 185.359C153.882 184.927 153.348 184.711 152.652 184.711C151.884 184.711 151.272 184.957 150.816 185.449C150.372 185.941 150.15 186.655 150.15 187.591V192.469H147.9V182.857H150.042V184.081C150.402 183.649 150.852 183.319 151.392 183.091C151.932 182.863 152.532 182.749 153.192 182.749C153.912 182.749 154.548 182.887 155.1 183.163C155.664 183.427 156.108 183.823 156.432 184.351C156.828 183.847 157.338 183.457 157.962 183.181C158.586 182.893 159.276 182.749 160.032 182.749ZM166.849 182.857H169.099V192.469H166.849V182.857ZM167.983 181.273C167.575 181.273 167.233 181.147 166.957 180.895C166.681 180.631 166.543 180.307 166.543 179.923C166.543 179.539 166.681 179.221 166.957 178.969C167.233 178.705 167.575 178.573 167.983 178.573C168.391 178.573 168.733 178.699 169.009 178.951C169.285 179.191 169.423 179.497 169.423 179.869C169.423 180.265 169.285 180.601 169.009 180.877C168.745 181.141 168.403 181.273 167.983 181.273Z" fill="#2F2F2F"/>
<path d="M267.203 95.8036C267.203 95.1556 267.347 94.6216 267.635 94.2016C267.935 93.7696 268.367 93.3016 268.931 92.7976C269.363 92.4136 269.681 92.0836 269.885 91.8076C270.101 91.5196 270.209 91.1956 270.209 90.8356C270.209 90.3316 270.005 89.9236 269.597 89.6116C269.189 89.2996 268.643 89.1436 267.959 89.1436C266.663 89.1436 265.685 89.6056 265.025 90.5296L263.279 89.3956C263.795 88.6876 264.461 88.1476 265.277 87.7756C266.093 87.3916 267.053 87.1996 268.157 87.1996C269.501 87.1996 270.569 87.4936 271.361 88.0816C272.165 88.6576 272.567 89.4556 272.567 90.4756C272.567 90.9676 272.483 91.3996 272.315 91.7716C272.159 92.1436 271.967 92.4616 271.739 92.7256C271.511 92.9776 271.211 93.2716 270.839 93.6076C270.383 94.0156 270.041 94.3756 269.813 94.6876C269.597 94.9996 269.489 95.3716 269.489 95.8036H267.203ZM268.355 100.106C267.935 100.106 267.587 99.9736 267.311 99.7096C267.047 99.4336 266.915 99.0976 266.915 98.7016C266.915 98.3056 267.047 97.9756 267.311 97.7116C267.587 97.4476 267.935 97.3156 268.355 97.3156C268.763 97.3156 269.099 97.4476 269.363 97.7116C269.639 97.9756 269.777 98.3056 269.777 98.7016C269.777 99.0976 269.639 99.4336 269.363 99.7096C269.099 99.9736 268.763 100.106 268.355 100.106Z" fill="#369CB7"/>
<path d="M292.249 90.2596C293.461 90.2596 294.421 90.6136 295.129 91.3216C295.837 92.0176 296.191 93.0676 296.191 94.4716V99.9796H293.941V94.7596C293.941 93.9196 293.755 93.2896 293.383 92.8696C293.011 92.4376 292.477 92.2216 291.781 92.2216C291.025 92.2216 290.419 92.4736 289.963 92.9776C289.507 93.4696 289.279 94.1776 289.279 95.1016V99.9796H287.029V94.7596C287.029 93.9196 286.843 93.2896 286.471 92.8696C286.099 92.4376 285.565 92.2216 284.869 92.2216C284.101 92.2216 283.489 92.4676 283.033 92.9596C282.589 93.4516 282.367 94.1656 282.367 95.1016V99.9796H280.117V90.3676H282.259V91.5916C282.619 91.1596 283.069 90.8296 283.609 90.6016C284.149 90.3736 284.749 90.2596 285.409 90.2596C286.129 90.2596 286.765 90.3976 287.317 90.6736C287.881 90.9376 288.325 91.3336 288.649 91.8616C289.045 91.3576 289.555 90.9676 290.179 90.6916C290.803 90.4036 291.493 90.2596 292.249 90.2596ZM299.066 90.3676H301.316V99.9796H299.066V90.3676ZM300.2 88.7836C299.792 88.7836 299.45 88.6576 299.174 88.4056C298.898 88.1416 298.76 87.8176 298.76 87.4336C298.76 87.0496 298.898 86.7316 299.174 86.4796C299.45 86.2156 299.792 86.0836 300.2 86.0836C300.608 86.0836 300.95 86.2096 301.226 86.4616C301.502 86.7016 301.64 87.0076 301.64 87.3796C301.64 87.7756 301.502 88.1116 301.226 88.3876C300.962 88.6516 300.62 88.7836 300.2 88.7836Z" fill="#2F2F2F"/>
<path d="M13.3167 18.436H5.61674L4.09874 22H1.15074L8.08074 6.6H10.8967L17.8487 22H14.8567L13.3167 18.436ZM12.3707 16.192L9.46674 9.46L6.58474 16.192H12.3707Z" fill="#FF0000"/>
<path d="M2.48011 156.896H9.21211C10.8548 156.896 12.3141 157.219 13.5901 157.864C14.8661 158.495 15.8561 159.397 16.5601 160.57C17.2641 161.729 17.6161 163.071 17.6161 164.596C17.6161 166.121 17.2641 167.471 16.5601 168.644C15.8561 169.803 14.8661 170.705 13.5901 171.35C12.3141 171.981 10.8548 172.296 9.21211 172.296H2.48011V156.896ZM9.08011 169.876C10.2094 169.876 11.1994 169.663 12.0501 169.238C12.9154 168.798 13.5754 168.182 14.0301 167.39C14.4994 166.583 14.7341 165.652 14.7341 164.596C14.7341 163.54 14.4994 162.616 14.0301 161.824C13.5754 161.017 12.9154 160.401 12.0501 159.976C11.1994 159.536 10.2094 159.316 9.08011 159.316H5.34011V169.876H9.08011Z" fill="#FF0000"/>
<path d="M275.112 13.992C275.963 14.2707 276.637 14.74 277.136 15.4C277.635 16.0453 277.884 16.852 277.884 17.82C277.884 19.1547 277.371 20.1887 276.344 20.922C275.317 21.6407 273.821 22 271.856 22H264.2V6.6H271.416C273.235 6.6 274.635 6.95933 275.618 7.678C276.601 8.382 277.092 9.35733 277.092 10.604C277.092 11.3667 276.916 12.0413 276.564 12.628C276.212 13.2147 275.728 13.6693 275.112 13.992ZM267.06 8.844V13.09H271.108C272.105 13.09 272.868 12.914 273.396 12.562C273.939 12.1953 274.21 11.6673 274.21 10.978C274.21 10.274 273.939 9.746 273.396 9.394C272.868 9.02733 272.105 8.844 271.108 8.844H267.06ZM271.68 19.756C273.895 19.756 275.002 19.0153 275.002 17.534C275.002 16.0527 273.895 15.312 271.68 15.312H267.06V19.756H271.68Z" fill="#FF0000"/>
<path d="M271.204 172.516C269.649 172.516 268.241 172.179 266.98 171.504C265.733 170.815 264.75 169.869 264.032 168.666C263.328 167.463 262.976 166.107 262.976 164.596C262.976 163.085 263.335 161.729 264.054 160.526C264.772 159.323 265.755 158.385 267.002 157.71C268.263 157.021 269.671 156.676 271.226 156.676C272.487 156.676 273.638 156.896 274.68 157.336C275.721 157.776 276.601 158.414 277.32 159.25L275.472 160.988C274.357 159.785 272.986 159.184 271.358 159.184C270.302 159.184 269.356 159.419 268.52 159.888C267.684 160.343 267.031 160.981 266.562 161.802C266.092 162.623 265.858 163.555 265.858 164.596C265.858 165.637 266.092 166.569 266.562 167.39C267.031 168.211 267.684 168.857 268.52 169.326C269.356 169.781 270.302 170.008 271.358 170.008C272.986 170.008 274.357 169.399 275.472 168.182L277.32 169.942C276.601 170.778 275.714 171.416 274.658 171.856C273.616 172.296 272.465 172.516 271.204 172.516Z" fill="#FF0000"/>
<path d="M161.12 91.2308C162.467 91.2308 163.533 91.6241 164.32 92.4108C165.107 93.1841 165.5 94.3508 165.5 95.9108V102.031H163V96.2308C163 95.2974 162.793 94.5974 162.38 94.1308C161.967 93.6508 161.373 93.4108 160.6 93.4108C159.76 93.4108 159.087 93.6908 158.58 94.2508C158.073 94.7974 157.82 95.5841 157.82 96.6108V102.031H155.32V96.2308C155.32 95.2974 155.113 94.5974 154.7 94.1308C154.287 93.6508 153.693 93.4108 152.92 93.4108C152.067 93.4108 151.387 93.6841 150.88 94.2308C150.387 94.7774 150.14 95.5708 150.14 96.6108V102.031H147.64V91.3508H150.02V92.7108C150.42 92.2308 150.92 91.8641 151.52 91.6108C152.12 91.3574 152.787 91.2308 153.52 91.2308C154.32 91.2308 155.027 91.3841 155.64 91.6908C156.267 91.9841 156.76 92.4241 157.12 93.0108C157.56 92.4508 158.127 92.0174 158.82 91.7108C159.513 91.3908 160.28 91.2308 161.12 91.2308ZM168.695 91.3508H171.195V102.031H168.695V91.3508ZM169.955 89.5908C169.501 89.5908 169.121 89.4508 168.815 89.1708C168.508 88.8774 168.355 88.5174 168.355 88.0908C168.355 87.6641 168.508 87.3108 168.815 87.0308C169.121 86.7374 169.501 86.5908 169.955 86.5908C170.408 86.5908 170.788 86.7308 171.095 87.0108C171.401 87.2774 171.555 87.6174 171.555 88.0308C171.555 88.4708 171.401 88.8441 171.095 89.1508C170.801 89.4441 170.421 89.5908 169.955 89.5908ZM180.516 94.0708V95.4908H173.716V94.3708L177.296 91.2508C177.709 90.8774 177.989 90.5774 178.136 90.3508C178.296 90.1108 178.376 89.8708 178.376 89.6308C178.376 89.3108 178.229 89.0508 177.936 88.8508C177.656 88.6508 177.229 88.5508 176.656 88.5508C176.203 88.5508 175.796 88.6241 175.436 88.7708C175.076 88.9174 174.789 89.1374 174.576 89.4308L173.316 88.5308C173.663 88.0641 174.129 87.7041 174.716 87.4508C175.303 87.1841 175.996 87.0508 176.796 87.0508C177.849 87.0508 178.676 87.2774 179.276 87.7308C179.876 88.1841 180.176 88.7774 180.176 89.5108C180.176 89.9374 180.069 90.3374 179.856 90.7108C179.656 91.0841 179.249 91.5374 178.636 92.0708L176.356 94.0708H180.516Z" fill="#2F2F2F"/>
<path d="M131.293 75.9712V88.5712H128.953V77.9332H126.289V75.9712H131.293Z" fill="#2F2F2F"/>
<path d="M134.441 111.816V113.796H125.153V112.23L130.157 107.478C130.721 106.938 131.099 106.47 131.291 106.074C131.495 105.666 131.597 105.264 131.597 104.868C131.597 104.28 131.399 103.83 131.003 103.518C130.607 103.206 130.025 103.05 129.257 103.05C127.973 103.05 126.989 103.488 126.305 104.364L124.667 103.104C125.159 102.444 125.819 101.934 126.647 101.574C127.487 101.202 128.423 101.016 129.455 101.016C130.823 101.016 131.915 101.34 132.731 101.988C133.547 102.636 133.955 103.518 133.955 104.634C133.955 105.318 133.811 105.96 133.523 106.56C133.235 107.16 132.683 107.844 131.867 108.612L128.501 111.816H134.441Z" fill="#2F2F2F"/>
<line x1="117" y1="95.1429" x2="141" y2="95.1429" stroke="#3C3C3C"/>
<path d="M128.679 172.612C129.843 172.756 130.731 173.152 131.343 173.8C131.955 174.448 132.261 175.258 132.261 176.23C132.261 176.962 132.075 177.628 131.703 178.228C131.331 178.828 130.767 179.308 130.011 179.668C129.267 180.016 128.355 180.19 127.275 180.19C126.375 180.19 125.505 180.064 124.665 179.812C123.837 179.548 123.129 179.188 122.541 178.732L123.549 176.914C124.005 177.298 124.557 177.604 125.205 177.832C125.865 178.048 126.543 178.156 127.239 178.156C128.067 178.156 128.715 177.988 129.183 177.652C129.663 177.304 129.903 176.836 129.903 176.248C129.903 175.66 129.675 175.204 129.219 174.88C128.775 174.544 128.091 174.376 127.167 174.376H126.015V172.774L128.877 169.372H123.153V167.41H131.739V168.976L128.679 172.612Z" fill="#2F2F2F"/>
<path d="M134.807 202.372H132.575V205.234H130.307V202.372H123.395V200.752L129.605 192.634H132.107L126.257 200.392H130.379V197.854H132.575V200.392H134.807V202.372Z" fill="#2F2F2F"/>
<line x1="117" y1="186.582" x2="141" y2="186.582" stroke="#3C3C3C"/>
</svg>
