<svg width="21" height="18" viewBox="0 0 21 18" fill="none" xmlns="http://www.w3.org/2000/svg">
<path d="M3.86454 8.286C3.30054 8.286 2.78454 8.154 2.31654 7.89C1.84854 7.614 1.47654 7.248 1.20054 6.792C0.936539 6.336 0.804539 5.832 0.804539 5.28C0.804539 4.728 0.936539 4.224 1.20054 3.768C1.47654 3.3 1.84854 2.934 2.31654 2.67C2.78454 2.394 3.30054 2.256 3.86454 2.256C4.42854 2.256 4.94454 2.394 5.41254 2.67C5.88054 2.934 6.24654 3.3 6.51054 3.768C6.78654 4.224 6.92454 4.728 6.92454 5.28C6.92454 5.832 6.78654 6.336 6.51054 6.792C6.24654 7.248 5.88054 7.614 5.41254 7.89C4.94454 8.154 4.42854 8.286 3.86454 8.286ZM3.86454 7.098C4.38054 7.098 4.80654 6.924 5.14254 6.576C5.49054 6.228 5.66454 5.796 5.66454 5.28C5.66454 4.752 5.49054 4.314 5.14254 3.966C4.80654 3.618 4.38054 3.444 3.86454 3.444C3.34854 3.444 2.91654 3.618 2.56854 3.966C2.22054 4.314 2.04654 4.752 2.04654 5.28C2.04654 5.796 2.22054 6.228 2.56854 6.576C2.91654 6.924 3.34854 7.098 3.86454 7.098ZM15.3433 15.18C14.0713 15.18 12.9193 14.904 11.8873 14.352C10.8673 13.788 10.0633 13.014 9.47534 12.03C8.89934 11.046 8.61134 9.936 8.61134 8.7C8.61134 7.464 8.90534 6.354 9.49334 5.37C10.0813 4.386 10.8853 3.618 11.9053 3.066C12.9373 2.502 14.0893 2.22 15.3613 2.22C16.3933 2.22 17.3353 2.4 18.1873 2.76C19.0393 3.12 19.7593 3.642 20.3473 4.326L18.8353 5.748C17.9233 4.764 16.8013 4.272 15.4693 4.272C14.6053 4.272 13.8313 4.464 13.1473 4.848C12.4633 5.22 11.9293 5.742 11.5453 6.414C11.1613 7.086 10.9693 7.848 10.9693 8.7C10.9693 9.552 11.1613 10.314 11.5453 10.986C11.9293 11.658 12.4633 12.186 13.1473 12.57C13.8313 12.942 14.6053 13.128 15.4693 13.128C16.8013 13.128 17.9233 12.63 18.8353 11.634L20.3473 13.074C19.7593 13.758 19.0333 14.28 18.1693 14.64C17.3173 15 16.3753 15.18 15.3433 15.18Z" fill="#2F2F2F"/>
</svg>
