<svg width="29" height="22" viewBox="0 0 29 22" fill="none" xmlns="http://www.w3.org/2000/svg">
<g filter="url(#filter0_d_2_1955)">
<path d="M7.86454 6.36254C7.30054 6.36254 6.78454 6.23054 6.31654 5.96654C5.84854 5.69054 5.47654 5.32454 5.20054 4.86854C4.93654 4.41254 4.80454 3.90854 4.80454 3.35654C4.80454 2.80454 4.93654 2.30054 5.20054 1.84454C5.47654 1.37654 5.84854 1.01054 6.31654 0.746537C6.78454 0.470538 7.30054 0.332538 7.86454 0.332538C8.42854 0.332538 8.94454 0.470538 9.41254 0.746537C9.88054 1.01054 10.2465 1.37654 10.5105 1.84454C10.7865 2.30054 10.9245 2.80454 10.9245 3.35654C10.9245 3.90854 10.7865 4.41254 10.5105 4.86854C10.2465 5.32454 9.88054 5.69054 9.41254 5.96654C8.94454 6.23054 8.42854 6.36254 7.86454 6.36254ZM7.86454 5.17454C8.38054 5.17454 8.80654 5.00054 9.14254 4.65254C9.49054 4.30454 9.66454 3.87254 9.66454 3.35654C9.66454 2.82854 9.49054 2.39054 9.14254 2.04254C8.80654 1.69454 8.38054 1.52054 7.86454 1.52054C7.34854 1.52054 6.91654 1.69454 6.56854 2.04254C6.22054 2.39054 6.04654 2.82854 6.04654 3.35654C6.04654 3.87254 6.22054 4.30454 6.56854 4.65254C6.91654 5.00054 7.34854 5.17454 7.86454 5.17454ZM19.3433 13.2565C18.0713 13.2565 16.9193 12.9805 15.8873 12.4285C14.8673 11.8645 14.0633 11.0905 13.4753 10.1065C12.8993 9.12254 12.6113 8.01254 12.6113 6.77654C12.6113 5.54054 12.9053 4.43054 13.4933 3.44654C14.0813 2.46254 14.8853 1.69454 15.9053 1.14254C16.9373 0.578537 18.0893 0.296537 19.3613 0.296537C20.3933 0.296537 21.3353 0.476538 22.1873 0.836538C23.0393 1.19654 23.7593 1.71854 24.3473 2.40254L22.8353 3.82454C21.9233 2.84054 20.8013 2.34854 19.4693 2.34854C18.6053 2.34854 17.8313 2.54054 17.1473 2.92454C16.4633 3.29654 15.9293 3.81854 15.5453 4.49054C15.1613 5.16254 14.9693 5.92454 14.9693 6.77654C14.9693 7.62854 15.1613 8.39054 15.5453 9.06254C15.9293 9.73454 16.4633 10.2625 17.1473 10.6465C17.8313 11.0185 18.6053 11.2045 19.4693 11.2045C20.8013 11.2045 21.9233 10.7065 22.8353 9.71054L24.3473 11.1505C23.7593 11.8345 23.0333 12.3565 22.1693 12.7165C21.3173 13.0765 20.3753 13.2565 19.3433 13.2565Z" fill="#2F2F2F"/>
</g>
<defs>
<filter id="filter0_d_2_1955" x="0.804535" y="0.296539" width="27.5428" height="20.96" filterUnits="userSpaceOnUse" color-interpolation-filters="sRGB">
<feFlood flood-opacity="0" result="BackgroundImageFix"/>
<feColorMatrix in="SourceAlpha" type="matrix" values="0 0 0 0 0 0 0 0 0 0 0 0 0 0 0 0 0 0 127 0" result="hardAlpha"/>
<feOffset dy="4"/>
<feGaussianBlur stdDeviation="2"/>
<feComposite in2="hardAlpha" operator="out"/>
<feColorMatrix type="matrix" values="0 0 0 0 0 0 0 0 0 0 0 0 0 0 0 0 0 0 0.25 0"/>
<feBlend mode="normal" in2="BackgroundImageFix" result="effect1_dropShadow_2_1955"/>
<feBlend mode="normal" in="SourceGraphic" in2="effect1_dropShadow_2_1955" result="shape"/>
</filter>
</defs>
</svg>
