<svg width="156" height="131" viewBox="0 0 156 131" fill="none" xmlns="http://www.w3.org/2000/svg">
<path d="M6.70545 13.3007C7.53345 13.3007 8.27745 13.4627 8.93745 13.7867C9.59745 14.0987 10.1135 14.5487 10.4855 15.1367C10.8575 15.7247 11.0435 16.4027 11.0435 17.1707C11.0435 17.9867 10.8395 18.7067 10.4315 19.3307C10.0235 19.9427 9.47145 20.4167 8.77545 20.7527C8.07945 21.0887 7.29945 21.2567 6.43545 21.2567C4.70745 21.2567 3.36345 20.7167 2.40345 19.6367C1.45545 18.5567 0.981453 17.0087 0.981453 14.9927C0.981453 13.5767 1.23945 12.3707 1.75545 11.3747C2.27145 10.3667 2.99145 9.60466 3.91545 9.08866C4.85145 8.56066 5.93145 8.29666 7.15545 8.29666C7.80345 8.29666 8.40945 8.36866 8.97345 8.51266C9.54945 8.64466 10.0475 8.84266 10.4675 9.10666L9.60345 10.8707C8.97945 10.4627 8.18145 10.2587 7.20945 10.2587C5.99745 10.2587 5.04945 10.6307 4.36545 11.3747C3.68145 12.1187 3.33945 13.1927 3.33945 14.5967V14.6147C3.71145 14.1827 4.18545 13.8587 4.76145 13.6427C5.33745 13.4147 5.98545 13.3007 6.70545 13.3007ZM6.30945 19.4207C7.04145 19.4207 7.63545 19.2287 8.09145 18.8447C8.54745 18.4487 8.77545 17.9267 8.77545 17.2787C8.77545 16.6187 8.54745 16.0967 8.09145 15.7127C7.63545 15.3287 7.02345 15.1367 6.25545 15.1367C5.49945 15.1367 4.88145 15.3407 4.40145 15.7487C3.93345 16.1567 3.69945 16.6727 3.69945 17.2967C3.69945 17.9087 3.92745 18.4187 4.38345 18.8267C4.85145 19.2227 5.49345 19.4207 6.30945 19.4207ZM20.4386 14.4527C21.0986 14.7527 21.6026 15.1607 21.9506 15.6767C22.3106 16.1807 22.4906 16.7747 22.4906 17.4587C22.4906 18.2267 22.2746 18.8987 21.8426 19.4747C21.4226 20.0507 20.8226 20.4947 20.0426 20.8067C19.2626 21.1067 18.3566 21.2567 17.3246 21.2567C16.2926 21.2567 15.3866 21.1067 14.6066 20.8067C13.8386 20.4947 13.2446 20.0507 12.8246 19.4747C12.4046 18.8987 12.1946 18.2267 12.1946 17.4587C12.1946 16.7747 12.3686 16.1807 12.7166 15.6767C13.0646 15.1607 13.5626 14.7527 14.2106 14.4527C13.7066 14.1767 13.3166 13.8167 13.0406 13.3727C12.7766 12.9167 12.6446 12.3947 12.6446 11.8067C12.6446 11.0987 12.8366 10.4807 13.2206 9.95266C13.6166 9.42466 14.1686 9.01666 14.8766 8.72866C15.5846 8.44066 16.4006 8.29666 17.3246 8.29666C18.2606 8.29666 19.0826 8.44066 19.7906 8.72866C20.4986 9.01666 21.0506 9.42466 21.4466 9.95266C21.8426 10.4807 22.0406 11.0987 22.0406 11.8067C22.0406 12.3947 21.9026 12.9107 21.6266 13.3547C21.3506 13.7987 20.9546 14.1647 20.4386 14.4527ZM17.3246 10.1327C16.5926 10.1327 16.0106 10.2887 15.5786 10.6007C15.1586 10.9127 14.9486 11.3507 14.9486 11.9147C14.9486 12.4547 15.1586 12.8867 15.5786 13.2107C16.0106 13.5227 16.5926 13.6787 17.3246 13.6787C18.0686 13.6787 18.6566 13.5227 19.0886 13.2107C19.5206 12.8867 19.7366 12.4547 19.7366 11.9147C19.7366 11.3507 19.5146 10.9127 19.0706 10.6007C18.6386 10.2887 18.0566 10.1327 17.3246 10.1327ZM17.3246 19.4207C18.1886 19.4207 18.8726 19.2407 19.3766 18.8807C19.8806 18.5207 20.1326 18.0227 20.1326 17.3867C20.1326 16.7627 19.8806 16.2707 19.3766 15.9107C18.8726 15.5507 18.1886 15.3707 17.3246 15.3707C16.4606 15.3707 15.7826 15.5507 15.2906 15.9107C14.7986 16.2707 14.5526 16.7627 14.5526 17.3867C14.5526 18.0227 14.7986 18.5207 15.2906 18.8807C15.7826 19.2407 16.4606 19.4207 17.3246 19.4207ZM26.9788 14.3627C26.4148 14.3627 25.8988 14.2307 25.4308 13.9667C24.9628 13.6907 24.5908 13.3247 24.3148 12.8687C24.0508 12.4127 23.9188 11.9087 23.9188 11.3567C23.9188 10.8047 24.0508 10.3007 24.3148 9.84466C24.5908 9.37666 24.9628 9.01066 25.4308 8.74666C25.8988 8.47066 26.4148 8.33266 26.9788 8.33266C27.5428 8.33266 28.0588 8.47066 28.5268 8.74666C28.9948 9.01066 29.3608 9.37666 29.6248 9.84466C29.9008 10.3007 30.0388 10.8047 30.0388 11.3567C30.0388 11.9087 29.9008 12.4127 29.6248 12.8687C29.3608 13.3247 28.9948 13.6907 28.5268 13.9667C28.0588 14.2307 27.5428 14.3627 26.9788 14.3627ZM26.9788 13.1747C27.4948 13.1747 27.9208 13.0007 28.2568 12.6527C28.6048 12.3047 28.7788 11.8727 28.7788 11.3567C28.7788 10.8287 28.6048 10.3907 28.2568 10.0427C27.9208 9.69466 27.4948 9.52066 26.9788 9.52066C26.4628 9.52066 26.0308 9.69466 25.6828 10.0427C25.3348 10.3907 25.1608 10.8287 25.1608 11.3567C25.1608 11.8727 25.3348 12.3047 25.6828 12.6527C26.0308 13.0007 26.4628 13.1747 26.9788 13.1747ZM34.7898 10.4387V14.2727H40.8738V16.2527H34.7898V21.0767H32.4498V8.47666H41.6478V10.4387H34.7898ZM48.3634 11.6987H56.6614V13.4987H48.3634V11.6987ZM48.3634 16.0547H56.6614V17.8547H48.3634V16.0547Z" fill="#2F2F2F"/>
<path d="M73.0051 1.13983L119.851 1.01351L119.841 -0.986463L72.9948 -0.860148L73.0051 1.13983ZM123.872 5.00267L123.974 25.0026L125.974 24.9972L125.872 4.99728L123.872 5.00267ZM119.995 29.0133L73.149 29.1396L73.1593 31.1396L120.005 31.0133L119.995 29.0133ZM69.1285 25.1505L69.0257 5.15056L67.0257 5.15595L67.1285 25.1559L69.1285 25.1505ZM73.149 29.1396C70.9399 29.1456 69.1398 27.3596 69.1285 25.1505L67.1285 25.1559C67.1455 28.4695 69.8456 31.1486 73.1593 31.1396L73.149 29.1396ZM123.974 25.0026C123.986 27.2117 122.204 29.0074 119.995 29.0133L120.005 31.0133C123.319 31.0044 125.991 28.3109 125.974 24.9972L123.974 25.0026ZM119.851 1.01351C122.06 1.00755 123.86 2.79356 123.872 5.00267L125.872 4.99728C125.854 1.68361 123.154 -0.995398 119.841 -0.986463L119.851 1.01351ZM72.9948 -0.860148C69.6811 -0.851213 67.0087 1.84229 67.0257 5.15595L69.0257 5.15056C69.0143 2.94145 70.796 1.14578 73.0051 1.13983L72.9948 -0.860148Z" fill="#2F2F2F"/>
<path d="M138.865 14.3627C138.301 14.3627 137.785 14.2307 137.317 13.9667C136.849 13.6907 136.477 13.3247 136.201 12.8687C135.937 12.4127 135.805 11.9087 135.805 11.3567C135.805 10.8047 135.937 10.3007 136.201 9.84466C136.477 9.37666 136.849 9.01066 137.317 8.74666C137.785 8.47066 138.301 8.33266 138.865 8.33266C139.429 8.33266 139.945 8.47066 140.413 8.74666C140.881 9.01066 141.247 9.37666 141.511 9.84466C141.787 10.3007 141.925 10.8047 141.925 11.3567C141.925 11.9087 141.787 12.4127 141.511 12.8687C141.247 13.3247 140.881 13.6907 140.413 13.9667C139.945 14.2307 139.429 14.3627 138.865 14.3627ZM138.865 13.1747C139.381 13.1747 139.807 13.0007 140.143 12.6527C140.491 12.3047 140.665 11.8727 140.665 11.3567C140.665 10.8287 140.491 10.3907 140.143 10.0427C139.807 9.69466 139.381 9.52066 138.865 9.52066C138.349 9.52066 137.917 9.69466 137.569 10.0427C137.221 10.3907 137.047 10.8287 137.047 11.3567C137.047 11.8727 137.221 12.3047 137.569 12.6527C137.917 13.0007 138.349 13.1747 138.865 13.1747ZM150.343 21.2567C149.071 21.2567 147.919 20.9807 146.887 20.4287C145.867 19.8647 145.063 19.0907 144.475 18.1067C143.899 17.1227 143.611 16.0127 143.611 14.7767C143.611 13.5407 143.905 12.4307 144.493 11.4467C145.081 10.4627 145.885 9.69466 146.905 9.14266C147.937 8.57866 149.089 8.29666 150.361 8.29666C151.393 8.29666 152.335 8.47666 153.187 8.83666C154.039 9.19666 154.759 9.71866 155.347 10.4027L153.835 11.8247C152.923 10.8407 151.801 10.3487 150.469 10.3487C149.605 10.3487 148.831 10.5407 148.147 10.9247C147.463 11.2967 146.929 11.8187 146.545 12.4907C146.161 13.1627 145.969 13.9247 145.969 14.7767C145.969 15.6287 146.161 16.3907 146.545 17.0627C146.929 17.7347 147.463 18.2627 148.147 18.6467C148.831 19.0187 149.605 19.2047 150.469 19.2047C151.801 19.2047 152.923 18.7067 153.835 17.7107L155.347 19.1507C154.759 19.8347 154.033 20.3567 153.169 20.7167C152.317 21.0767 151.375 21.2567 150.343 21.2567Z" fill="#2F2F2F"/>
<path d="M10.3184 69.2495V71.2295H1.03039V69.6635L6.03439 64.9115C6.59839 64.3715 6.97639 63.9035 7.16839 63.5075C7.37239 63.0995 7.47439 62.6975 7.47439 62.3015C7.47439 61.7135 7.27639 61.2635 6.88039 60.9515C6.48439 60.6395 5.90239 60.4835 5.13439 60.4835C3.85039 60.4835 2.86639 60.9215 2.18239 61.7975L0.544391 60.5375C1.03639 59.8775 1.69639 59.3675 2.52439 59.0075C3.36439 58.6355 4.30039 58.4495 5.33239 58.4495C6.70039 58.4495 7.79239 58.7735 8.60839 59.4215C9.42439 60.0695 9.83239 60.9515 9.83239 62.0675C9.83239 62.7515 9.68839 63.3935 9.40039 63.9935C9.11239 64.5935 8.56039 65.2775 7.74439 66.0455L4.37839 69.2495H10.3184ZM15.611 63.5075C17.387 63.5075 18.701 63.8555 19.553 64.5515C20.405 65.2355 20.831 66.1715 20.831 67.3595C20.831 68.1155 20.645 68.7995 20.273 69.4115C19.901 70.0235 19.343 70.5095 18.599 70.8695C17.855 71.2295 16.937 71.4095 15.845 71.4095C14.945 71.4095 14.075 71.2835 13.235 71.0315C12.395 70.7675 11.687 70.4075 11.111 69.9515L12.101 68.1335C12.569 68.5175 13.127 68.8235 13.775 69.0515C14.435 69.2675 15.113 69.3755 15.809 69.3755C16.637 69.3755 17.285 69.2075 17.753 68.8715C18.233 68.5235 18.473 68.0495 18.473 67.4495C18.473 66.8015 18.215 66.3155 17.699 65.9915C17.195 65.6555 16.325 65.4875 15.089 65.4875H12.047L12.695 58.6295H20.093V60.5915H14.675L14.405 63.5075H15.611ZM24.9749 64.5155C24.4109 64.5155 23.8949 64.3835 23.4269 64.1195C22.9589 63.8435 22.5869 63.4775 22.3109 63.0215C22.0469 62.5655 21.9149 62.0615 21.9149 61.5095C21.9149 60.9575 22.0469 60.4535 22.3109 59.9975C22.5869 59.5295 22.9589 59.1635 23.4269 58.8995C23.8949 58.6235 24.4109 58.4855 24.9749 58.4855C25.5389 58.4855 26.0549 58.6235 26.5229 58.8995C26.9909 59.1635 27.3569 59.5295 27.6209 59.9975C27.8969 60.4535 28.0349 60.9575 28.0349 61.5095C28.0349 62.0615 27.8969 62.5655 27.6209 63.0215C27.3569 63.4775 26.9909 63.8435 26.5229 64.1195C26.0549 64.3835 25.5389 64.5155 24.9749 64.5155ZM24.9749 63.3275C25.4909 63.3275 25.9169 63.1535 26.2529 62.8055C26.6009 62.4575 26.7749 62.0255 26.7749 61.5095C26.7749 60.9815 26.6009 60.5435 26.2529 60.1955C25.9169 59.8475 25.4909 59.6735 24.9749 59.6735C24.4589 59.6735 24.0269 59.8475 23.6789 60.1955C23.3309 60.5435 23.1569 60.9815 23.1569 61.5095C23.1569 62.0255 23.3309 62.4575 23.6789 62.8055C24.0269 63.1535 24.4589 63.3275 24.9749 63.3275ZM36.4537 71.4095C35.1817 71.4095 34.0297 71.1335 32.9977 70.5815C31.9777 70.0175 31.1737 69.2435 30.5857 68.2595C30.0097 67.2755 29.7217 66.1655 29.7217 64.9295C29.7217 63.6935 30.0157 62.5835 30.6037 61.5995C31.1917 60.6155 31.9957 59.8475 33.0157 59.2955C34.0477 58.7315 35.1997 58.4495 36.4717 58.4495C37.5037 58.4495 38.4457 58.6295 39.2977 58.9895C40.1497 59.3495 40.8697 59.8715 41.4577 60.5555L39.9457 61.9775C39.0337 60.9935 37.9117 60.5015 36.5797 60.5015C35.7157 60.5015 34.9417 60.6935 34.2577 61.0775C33.5737 61.4495 33.0397 61.9715 32.6557 62.6435C32.2717 63.3155 32.0797 64.0775 32.0797 64.9295C32.0797 65.7815 32.2717 66.5435 32.6557 67.2155C33.0397 67.8875 33.5737 68.4155 34.2577 68.7995C34.9417 69.1715 35.7157 69.3575 36.5797 69.3575C37.9117 69.3575 39.0337 68.8595 39.9457 67.8635L41.4577 69.3035C40.8697 69.9875 40.1437 70.5095 39.2797 70.8695C38.4277 71.2295 37.4857 71.4095 36.4537 71.4095ZM48.1524 61.8515H56.4504V63.6515H48.1524V61.8515ZM48.1524 66.2075H56.4504V68.0075H48.1524V66.2075Z" fill="#2F2F2F"/>
<path d="M73.0051 51.2927L119.851 51.1663L119.841 49.1664L72.9948 49.2927L73.0051 51.2927ZM123.872 55.1555L123.974 75.1554L125.974 75.15L125.872 55.1501L123.872 55.1555ZM119.995 79.1662L73.149 79.2925L73.1593 81.2925L120.005 81.1661L119.995 79.1662ZM69.1285 75.3033L69.0257 55.3034L67.0257 55.3088L67.1285 75.3087L69.1285 75.3033ZM73.149 79.2925C70.9399 79.2984 69.1398 77.5124 69.1285 75.3033L67.1285 75.3087C67.1455 78.6224 69.8456 81.3014 73.1593 81.2925L73.149 79.2925ZM123.974 75.1554C123.986 77.3645 122.204 79.1602 119.995 79.1662L120.005 81.1661C123.319 81.1572 125.991 78.4637 125.974 75.15L123.974 75.1554ZM119.851 51.1663C122.06 51.1604 123.86 52.9464 123.872 55.1555L125.872 55.1501C125.854 51.8364 123.154 49.1574 119.841 49.1664L119.851 51.1663ZM72.9948 49.2927C69.6811 49.3016 67.0087 51.9951 67.0257 55.3088L69.0257 55.3034C69.0143 53.0943 70.796 51.2986 73.0051 51.2927L72.9948 49.2927Z" fill="#2F2F2F"/>
<path d="M139.261 64.5155C138.697 64.5155 138.181 64.3835 137.713 64.1195C137.245 63.8435 136.873 63.4775 136.597 63.0215C136.333 62.5655 136.201 62.0615 136.201 61.5095C136.201 60.9575 136.333 60.4535 136.597 59.9975C136.873 59.5295 137.245 59.1635 137.713 58.8995C138.181 58.6235 138.697 58.4855 139.261 58.4855C139.825 58.4855 140.341 58.6235 140.809 58.8995C141.277 59.1635 141.643 59.5295 141.907 59.9975C142.183 60.4535 142.321 60.9575 142.321 61.5095C142.321 62.0615 142.183 62.5655 141.907 63.0215C141.643 63.4775 141.277 63.8435 140.809 64.1195C140.341 64.3835 139.825 64.5155 139.261 64.5155ZM139.261 63.3275C139.777 63.3275 140.203 63.1535 140.539 62.8055C140.887 62.4575 141.061 62.0255 141.061 61.5095C141.061 60.9815 140.887 60.5435 140.539 60.1955C140.203 59.8475 139.777 59.6735 139.261 59.6735C138.745 59.6735 138.313 59.8475 137.965 60.1955C137.617 60.5435 137.443 60.9815 137.443 61.5095C137.443 62.0255 137.617 62.4575 137.965 62.8055C138.313 63.1535 138.745 63.3275 139.261 63.3275ZM147.072 60.5915V64.4255H153.156V66.4055H147.072V71.2295H144.732V58.6295H153.93V60.5915H147.072Z" fill="#2F2F2F"/>
<path d="M5.01232 113.661C6.78832 113.661 8.10232 114.009 8.95432 114.705C9.80632 115.389 10.2323 116.325 10.2323 117.513C10.2323 118.269 10.0463 118.953 9.67432 119.565C9.30232 120.177 8.74432 120.663 8.00032 121.023C7.25632 121.383 6.33832 121.563 5.24632 121.563C4.34632 121.563 3.47632 121.437 2.63632 121.185C1.79632 120.921 1.08832 120.561 0.51232 120.105L1.50232 118.287C1.97032 118.671 2.52832 118.977 3.17632 119.205C3.83632 119.421 4.51432 119.529 5.21032 119.529C6.03832 119.529 6.68632 119.361 7.15432 119.025C7.63432 118.677 7.87432 118.203 7.87432 117.603C7.87432 116.955 7.61632 116.469 7.10032 116.145C6.59632 115.809 5.72632 115.641 4.49032 115.641H1.44832L2.09632 108.783H9.49432V110.745H4.07632L3.80632 113.661H5.01232ZM15.83 108.603C17.558 108.603 18.896 109.143 19.844 110.223C20.804 111.303 21.284 112.851 21.284 114.867C21.284 116.283 21.026 117.495 20.51 118.503C19.994 119.499 19.268 120.261 18.332 120.789C17.408 121.305 16.334 121.563 15.11 121.563C14.462 121.563 13.85 121.497 13.274 121.365C12.71 121.221 12.218 121.017 11.798 120.753L12.662 118.989C13.286 119.397 14.084 119.601 15.056 119.601C16.268 119.601 17.216 119.229 17.9 118.485C18.584 117.741 18.926 116.667 18.926 115.263V115.245C18.554 115.677 18.08 116.007 17.504 116.235C16.928 116.451 16.28 116.559 15.56 116.559C14.732 116.559 13.988 116.403 13.328 116.091C12.668 115.767 12.152 115.311 11.78 114.723C11.408 114.135 11.222 113.457 11.222 112.689C11.222 111.873 11.426 111.159 11.834 110.547C12.242 109.923 12.794 109.443 13.49 109.107C14.186 108.771 14.966 108.603 15.83 108.603ZM16.01 114.723C16.766 114.723 17.378 114.519 17.846 114.111C18.326 113.703 18.566 113.187 18.566 112.563C18.566 111.951 18.332 111.447 17.864 111.051C17.408 110.643 16.772 110.439 15.956 110.439C15.224 110.439 14.63 110.637 14.174 111.033C13.718 111.417 13.49 111.933 13.49 112.581C13.49 113.241 13.718 113.763 14.174 114.147C14.63 114.531 15.242 114.723 16.01 114.723ZM25.8899 114.669C25.3259 114.669 24.8099 114.537 24.3419 114.273C23.8739 113.997 23.5019 113.631 23.2259 113.175C22.9619 112.719 22.8299 112.215 22.8299 111.663C22.8299 111.111 22.9619 110.607 23.2259 110.151C23.5019 109.683 23.8739 109.317 24.3419 109.053C24.8099 108.777 25.3259 108.639 25.8899 108.639C26.4539 108.639 26.9699 108.777 27.4379 109.053C27.9059 109.317 28.2719 109.683 28.5359 110.151C28.8119 110.607 28.9499 111.111 28.9499 111.663C28.9499 112.215 28.8119 112.719 28.5359 113.175C28.2719 113.631 27.9059 113.997 27.4379 114.273C26.9699 114.537 26.4539 114.669 25.8899 114.669ZM25.8899 113.481C26.4059 113.481 26.8319 113.307 27.1679 112.959C27.5159 112.611 27.6899 112.179 27.6899 111.663C27.6899 111.135 27.5159 110.697 27.1679 110.349C26.8319 110.001 26.4059 109.827 25.8899 109.827C25.3739 109.827 24.9419 110.001 24.5939 110.349C24.2459 110.697 24.0719 111.135 24.0719 111.663C24.0719 112.179 24.2459 112.611 24.5939 112.959C24.9419 113.307 25.3739 113.481 25.8899 113.481ZM33.7009 110.745V114.579H39.7849V116.559H33.7009V121.383H31.3609V108.783H40.5589V110.745H33.7009ZM47.2745 112.005H55.5725V113.805H47.2745V112.005ZM47.2745 116.361H55.5725V118.161H47.2745V116.361Z" fill="#2F2F2F"/>
<path d="M72.0051 101.446L118.851 101.32L118.841 99.3197L71.9948 99.446L72.0051 101.446ZM122.872 105.309L122.974 125.309L124.974 125.303L124.872 105.303L122.872 105.309ZM118.995 129.319L72.149 129.446L72.1593 131.446L119.005 131.319L118.995 129.319ZM68.1285 125.457L68.0257 105.457L66.0257 105.462L66.1285 125.462L68.1285 125.457ZM72.149 129.446C69.9399 129.452 68.1398 127.666 68.1285 125.457L66.1285 125.462C66.1455 128.776 68.8456 131.455 72.1593 131.446L72.149 129.446ZM122.974 125.309C122.986 127.518 121.204 129.314 118.995 129.319L119.005 131.319C122.319 131.311 124.991 128.617 124.974 125.303L122.974 125.309ZM118.851 101.32C121.06 101.314 122.86 103.1 122.872 105.309L124.872 105.303C124.854 101.99 122.154 99.3108 118.841 99.3197L118.851 101.32ZM71.9948 99.446C68.6811 99.4549 66.0087 102.148 66.0257 105.462L68.0257 105.457C68.0143 103.248 69.796 101.452 72.0051 101.446L71.9948 99.446Z" fill="#2F2F2F"/>
<path d="M137.865 114.669C137.301 114.669 136.785 114.537 136.317 114.273C135.849 113.997 135.477 113.631 135.201 113.175C134.937 112.719 134.805 112.215 134.805 111.663C134.805 111.111 134.937 110.607 135.201 110.151C135.477 109.683 135.849 109.317 136.317 109.053C136.785 108.777 137.301 108.639 137.865 108.639C138.429 108.639 138.945 108.777 139.413 109.053C139.881 109.317 140.247 109.683 140.511 110.151C140.787 110.607 140.925 111.111 140.925 111.663C140.925 112.215 140.787 112.719 140.511 113.175C140.247 113.631 139.881 113.997 139.413 114.273C138.945 114.537 138.429 114.669 137.865 114.669ZM137.865 113.481C138.381 113.481 138.807 113.307 139.143 112.959C139.491 112.611 139.665 112.179 139.665 111.663C139.665 111.135 139.491 110.697 139.143 110.349C138.807 110.001 138.381 109.827 137.865 109.827C137.349 109.827 136.917 110.001 136.569 110.349C136.221 110.697 136.047 111.135 136.047 111.663C136.047 112.179 136.221 112.611 136.569 112.959C136.917 113.307 137.349 113.481 137.865 113.481ZM149.343 121.563C148.071 121.563 146.919 121.287 145.887 120.735C144.867 120.171 144.063 119.397 143.475 118.413C142.899 117.429 142.611 116.319 142.611 115.083C142.611 113.847 142.905 112.737 143.493 111.753C144.081 110.769 144.885 110.001 145.905 109.449C146.937 108.885 148.089 108.603 149.361 108.603C150.393 108.603 151.335 108.783 152.187 109.143C153.039 109.503 153.759 110.025 154.347 110.709L152.835 112.131C151.923 111.147 150.801 110.655 149.469 110.655C148.605 110.655 147.831 110.847 147.147 111.231C146.463 111.603 145.929 112.125 145.545 112.797C145.161 113.469 144.969 114.231 144.969 115.083C144.969 115.935 145.161 116.697 145.545 117.369C145.929 118.041 146.463 118.569 147.147 118.953C147.831 119.325 148.605 119.511 149.469 119.511C150.801 119.511 151.923 119.013 152.835 118.017L154.347 119.457C153.759 120.141 153.033 120.663 152.169 121.023C151.317 121.383 150.375 121.563 149.343 121.563Z" fill="#2F2F2F"/>
<path d="M95.1504 19.02V21H85.8624V19.434L90.8664 14.682C91.4304 14.142 91.8084 13.674 92.0004 13.278C92.2044 12.87 92.3064 12.468 92.3064 12.072C92.3064 11.484 92.1084 11.034 91.7124 10.722C91.3164 10.41 90.7344 10.254 89.9664 10.254C88.6824 10.254 87.6984 10.692 87.0144 11.568L85.3764 10.308C85.8684 9.648 86.5284 9.138 87.3564 8.778C88.1964 8.406 89.1324 8.22 90.1644 8.22C91.5324 8.22 92.6244 8.544 93.4404 9.192C94.2564 9.84 94.6644 10.722 94.6644 11.838C94.6644 12.522 94.5204 13.164 94.2324 13.764C93.9444 14.364 93.3924 15.048 92.5764 15.816L89.2104 19.02H95.1504ZM101.704 21.18C100.696 21.18 99.7963 20.928 99.0043 20.424C98.2123 19.908 97.5883 19.164 97.1323 18.192C96.6763 17.208 96.4483 16.044 96.4483 14.7C96.4483 13.356 96.6763 12.198 97.1323 11.226C97.5883 10.242 98.2123 9.498 99.0043 8.994C99.7963 8.478 100.696 8.22 101.704 8.22C102.712 8.22 103.612 8.478 104.404 8.994C105.208 9.498 105.838 10.242 106.294 11.226C106.75 12.198 106.978 13.356 106.978 14.7C106.978 16.044 106.75 17.208 106.294 18.192C105.838 19.164 105.208 19.908 104.404 20.424C103.612 20.928 102.712 21.18 101.704 21.18ZM101.704 19.146C102.604 19.146 103.312 18.774 103.828 18.03C104.356 17.286 104.62 16.176 104.62 14.7C104.62 13.224 104.356 12.114 103.828 11.37C103.312 10.626 102.604 10.254 101.704 10.254C100.816 10.254 100.108 10.626 99.5803 11.37C99.0643 12.114 98.8063 13.224 98.8063 14.7C98.8063 16.176 99.0643 17.286 99.5803 18.03C100.108 18.774 100.816 19.146 101.704 19.146Z" fill="#2F2F2F"/>
<path d="M95.3448 59.4V60.966L90.4488 72H87.9468L92.6808 61.38H87.7308V63.522H85.5528V59.4H95.3448ZM106.296 59.4V60.966L101.4 72H98.898L103.632 61.38H98.682V63.522H96.504V59.4H106.296Z" fill="#2F2F2F"/>
<path d="M92.4644 109.4V122H90.1244V111.362H87.4604V109.4H92.4644ZM98.9059 114.278C100.682 114.278 101.996 114.626 102.848 115.322C103.7 116.006 104.126 116.942 104.126 118.13C104.126 118.886 103.94 119.57 103.568 120.182C103.196 120.794 102.638 121.28 101.894 121.64C101.15 122 100.232 122.18 99.1399 122.18C98.2399 122.18 97.3699 122.054 96.5299 121.802C95.6899 121.538 94.9819 121.178 94.4059 120.722L95.3959 118.904C95.8639 119.288 96.4219 119.594 97.0699 119.822C97.7299 120.038 98.4079 120.146 99.1039 120.146C99.9319 120.146 100.58 119.978 101.048 119.642C101.528 119.294 101.768 118.82 101.768 118.22C101.768 117.572 101.51 117.086 100.994 116.762C100.49 116.426 99.6199 116.258 98.3839 116.258H95.3419L95.9899 109.4H103.388V111.362H97.9699L97.6999 114.278H98.9059Z" fill="#2F2F2F"/>
</svg>
