<svg width="18" height="14" viewBox="0 0 18 14" fill="none" xmlns="http://www.w3.org/2000/svg">
<path d="M3.26102 6.51537C2.69702 6.51537 2.18102 6.38337 1.71302 6.11937C1.24502 5.84337 0.873024 5.47737 0.597024 5.02137C0.333023 4.56537 0.201023 4.06137 0.201023 3.50937C0.201023 2.95737 0.333023 2.45337 0.597024 1.99737C0.873024 1.52937 1.24502 1.16337 1.71302 0.899369C2.18102 0.62337 2.69702 0.48537 3.26102 0.48537C3.82502 0.48537 4.34102 0.62337 4.80902 0.899369C5.27702 1.16337 5.64302 1.52937 5.90702 1.99737C6.18302 2.45337 6.32102 2.95737 6.32102 3.50937C6.32102 4.06137 6.18302 4.56537 5.90702 5.02137C5.64302 5.47737 5.27702 5.84337 4.80902 6.11937C4.34102 6.38337 3.82502 6.51537 3.26102 6.51537ZM3.26102 5.32737C3.77702 5.32737 4.20302 5.15337 4.53902 4.80537C4.88702 4.45737 5.06102 4.02537 5.06102 3.50937C5.06102 2.98137 4.88702 2.54337 4.53902 2.19537C4.20302 1.84737 3.77702 1.67337 3.26102 1.67337C2.74502 1.67337 2.31302 1.84737 1.96502 2.19537C1.61702 2.54337 1.44302 2.98137 1.44302 3.50937C1.44302 4.02537 1.61702 4.45737 1.96502 4.80537C2.31302 5.15337 2.74502 5.32737 3.26102 5.32737ZM11.072 2.59137V6.42537H17.156V8.40537H11.072V13.2294H8.73204V0.629369H17.93V2.59137H11.072Z" fill="#2F2F2F"/>
</svg>
