<svg width="57" height="14" viewBox="0 0 57 14" fill="none" xmlns="http://www.w3.org/2000/svg">
<path d="M6.70545 5.30054C7.53345 5.30054 8.27745 5.46254 8.93745 5.78654C9.59745 6.09854 10.1135 6.54854 10.4855 7.13654C10.8575 7.72454 11.0435 8.40254 11.0435 9.17054C11.0435 9.98654 10.8395 10.7065 10.4315 11.3305C10.0235 11.9425 9.47145 12.4165 8.77545 12.7525C8.07945 13.0885 7.29945 13.2565 6.43545 13.2565C4.70745 13.2565 3.36345 12.7165 2.40345 11.6365C1.45545 10.5565 0.981453 9.00854 0.981453 6.99254C0.981453 5.57654 1.23945 4.37054 1.75545 3.37454C2.27145 2.36654 2.99145 1.60454 3.91545 1.08854C4.85145 0.560538 5.93145 0.296537 7.15545 0.296537C7.80345 0.296537 8.40945 0.368538 8.97345 0.512538C9.54945 0.644538 10.0475 0.842538 10.4675 1.10654L9.60345 2.87054C8.97945 2.46254 8.18145 2.25854 7.20945 2.25854C5.99745 2.25854 5.04945 2.63054 4.36545 3.37454C3.68145 4.11854 3.33945 5.19254 3.33945 6.59654V6.61454C3.71145 6.18254 4.18545 5.85854 4.76145 5.64254C5.33745 5.41454 5.98545 5.30054 6.70545 5.30054ZM6.30945 11.4205C7.04145 11.4205 7.63545 11.2285 8.09145 10.8445C8.54745 10.4485 8.77545 9.92654 8.77545 9.27854C8.77545 8.61854 8.54745 8.09654 8.09145 7.71254C7.63545 7.32854 7.02345 7.13654 6.25545 7.13654C5.49945 7.13654 4.88145 7.34054 4.40145 7.74854C3.93345 8.15654 3.69945 8.67254 3.69945 9.29654C3.69945 9.90854 3.92745 10.4185 4.38345 10.8265C4.85145 11.2225 5.49345 11.4205 6.30945 11.4205ZM20.4386 6.45254C21.0986 6.75254 21.6026 7.16054 21.9506 7.67654C22.3106 8.18054 22.4906 8.77454 22.4906 9.45854C22.4906 10.2265 22.2746 10.8985 21.8426 11.4745C21.4226 12.0505 20.8226 12.4945 20.0426 12.8065C19.2626 13.1065 18.3566 13.2565 17.3246 13.2565C16.2926 13.2565 15.3866 13.1065 14.6066 12.8065C13.8386 12.4945 13.2446 12.0505 12.8246 11.4745C12.4046 10.8985 12.1946 10.2265 12.1946 9.45854C12.1946 8.77454 12.3686 8.18054 12.7166 7.67654C13.0646 7.16054 13.5626 6.75254 14.2106 6.45254C13.7066 6.17654 13.3166 5.81654 13.0406 5.37254C12.7766 4.91654 12.6446 4.39454 12.6446 3.80654C12.6446 3.09854 12.8366 2.48054 13.2206 1.95254C13.6166 1.42454 14.1686 1.01654 14.8766 0.728537C15.5846 0.440537 16.4006 0.296537 17.3246 0.296537C18.2606 0.296537 19.0826 0.440537 19.7906 0.728537C20.4986 1.01654 21.0506 1.42454 21.4466 1.95254C21.8426 2.48054 22.0406 3.09854 22.0406 3.80654C22.0406 4.39454 21.9026 4.91054 21.6266 5.35454C21.3506 5.79854 20.9546 6.16454 20.4386 6.45254ZM17.3246 2.13254C16.5926 2.13254 16.0106 2.28854 15.5786 2.60054C15.1586 2.91254 14.9486 3.35054 14.9486 3.91454C14.9486 4.45454 15.1586 4.88654 15.5786 5.21054C16.0106 5.52254 16.5926 5.67854 17.3246 5.67854C18.0686 5.67854 18.6566 5.52254 19.0886 5.21054C19.5206 4.88654 19.7366 4.45454 19.7366 3.91454C19.7366 3.35054 19.5146 2.91254 19.0706 2.60054C18.6386 2.28854 18.0566 2.13254 17.3246 2.13254ZM17.3246 11.4205C18.1886 11.4205 18.8726 11.2405 19.3766 10.8805C19.8806 10.5205 20.1326 10.0225 20.1326 9.38654C20.1326 8.76254 19.8806 8.27054 19.3766 7.91054C18.8726 7.55054 18.1886 7.37054 17.3246 7.37054C16.4606 7.37054 15.7826 7.55054 15.2906 7.91054C14.7986 8.27054 14.5526 8.76254 14.5526 9.38654C14.5526 10.0225 14.7986 10.5205 15.2906 10.8805C15.7826 11.2405 16.4606 11.4205 17.3246 11.4205ZM26.9788 6.36254C26.4148 6.36254 25.8988 6.23054 25.4308 5.96654C24.9628 5.69054 24.5908 5.32454 24.3148 4.86854C24.0508 4.41254 23.9188 3.90854 23.9188 3.35654C23.9188 2.80454 24.0508 2.30054 24.3148 1.84454C24.5908 1.37654 24.9628 1.01054 25.4308 0.746537C25.8988 0.470538 26.4148 0.332538 26.9788 0.332538C27.5428 0.332538 28.0588 0.470538 28.5268 0.746537C28.9948 1.01054 29.3608 1.37654 29.6248 1.84454C29.9008 2.30054 30.0388 2.80454 30.0388 3.35654C30.0388 3.90854 29.9008 4.41254 29.6248 4.86854C29.3608 5.32454 28.9948 5.69054 28.5268 5.96654C28.0588 6.23054 27.5428 6.36254 26.9788 6.36254ZM26.9788 5.17454C27.4948 5.17454 27.9208 5.00054 28.2568 4.65254C28.6048 4.30454 28.7788 3.87254 28.7788 3.35654C28.7788 2.82854 28.6048 2.39054 28.2568 2.04254C27.9208 1.69454 27.4948 1.52054 26.9788 1.52054C26.4628 1.52054 26.0308 1.69454 25.6828 2.04254C25.3348 2.39054 25.1608 2.82854 25.1608 3.35654C25.1608 3.87254 25.3348 4.30454 25.6828 4.65254C26.0308 5.00054 26.4628 5.17454 26.9788 5.17454ZM34.7898 2.43854V6.27254H40.8738V8.25254H34.7898V13.0765H32.4498V0.476537H41.6478V2.43854H34.7898ZM48.3634 3.69854H56.6614V5.49854H48.3634V3.69854ZM48.3634 8.05454H56.6614V9.85454H48.3634V8.05454Z" fill="#2F2F2F"/>
</svg>
