<svg width="56" height="14" viewBox="0 0 56 14" fill="none" xmlns="http://www.w3.org/2000/svg">
<path d="M5.01232 5.66069C6.78832 5.66069 8.10232 6.00869 8.95432 6.70469C9.80632 7.38869 10.2323 8.32469 10.2323 9.51269C10.2323 10.2687 10.0463 10.9527 9.67432 11.5647C9.30232 12.1767 8.74432 12.6627 8.00032 13.0227C7.25632 13.3827 6.33832 13.5627 5.24632 13.5627C4.34632 13.5627 3.47632 13.4367 2.63632 13.1847C1.79632 12.9207 1.08832 12.5607 0.51232 12.1047L1.50232 10.2867C1.97032 10.6707 2.52832 10.9767 3.17632 11.2047C3.83632 11.4207 4.51432 11.5287 5.21032 11.5287C6.03832 11.5287 6.68632 11.3607 7.15432 11.0247C7.63432 10.6767 7.87432 10.2027 7.87432 9.60269C7.87432 8.95469 7.61632 8.46869 7.10032 8.14469C6.59632 7.80869 5.72632 7.64069 4.49032 7.64069H1.44832L2.09632 0.78269H9.49432V2.74469H4.07632L3.80632 5.66069H5.01232ZM15.83 0.60269C17.558 0.60269 18.896 1.14269 19.844 2.22269C20.804 3.30269 21.284 4.85069 21.284 6.86669C21.284 8.28269 21.026 9.49469 20.51 10.5027C19.994 11.4987 19.268 12.2607 18.332 12.7887C17.408 13.3047 16.334 13.5627 15.11 13.5627C14.462 13.5627 13.85 13.4967 13.274 13.3647C12.71 13.2207 12.218 13.0167 11.798 12.7527L12.662 10.9887C13.286 11.3967 14.084 11.6007 15.056 11.6007C16.268 11.6007 17.216 11.2287 17.9 10.4847C18.584 9.74069 18.926 8.66669 18.926 7.26269V7.24469C18.554 7.67669 18.08 8.00669 17.504 8.23469C16.928 8.45069 16.28 8.55869 15.56 8.55869C14.732 8.55869 13.988 8.40269 13.328 8.09069C12.668 7.76669 12.152 7.31069 11.78 6.72269C11.408 6.13469 11.222 5.45669 11.222 4.68869C11.222 3.87269 11.426 3.15869 11.834 2.54669C12.242 1.92269 12.794 1.44269 13.49 1.10669C14.186 0.77069 14.966 0.60269 15.83 0.60269ZM16.01 6.72269C16.766 6.72269 17.378 6.51869 17.846 6.11069C18.326 5.70269 18.566 5.18669 18.566 4.56269C18.566 3.95069 18.332 3.44669 17.864 3.05069C17.408 2.64269 16.772 2.43869 15.956 2.43869C15.224 2.43869 14.63 2.63669 14.174 3.03269C13.718 3.41669 13.49 3.93269 13.49 4.58069C13.49 5.24069 13.718 5.76269 14.174 6.14669C14.63 6.53069 15.242 6.72269 16.01 6.72269ZM25.8899 6.66869C25.3259 6.66869 24.8099 6.53669 24.3419 6.27269C23.8739 5.99669 23.5019 5.63069 23.2259 5.17469C22.9619 4.71869 22.8299 4.21469 22.8299 3.66269C22.8299 3.11069 22.9619 2.60669 23.2259 2.15069C23.5019 1.68269 23.8739 1.31669 24.3419 1.05269C24.8099 0.77669 25.3259 0.63869 25.8899 0.63869C26.4539 0.63869 26.9699 0.77669 27.4379 1.05269C27.9059 1.31669 28.2719 1.68269 28.5359 2.15069C28.8119 2.60669 28.9499 3.11069 28.9499 3.66269C28.9499 4.21469 28.8119 4.71869 28.5359 5.17469C28.2719 5.63069 27.9059 5.99669 27.4379 6.27269C26.9699 6.53669 26.4539 6.66869 25.8899 6.66869ZM25.8899 5.48069C26.4059 5.48069 26.8319 5.30669 27.1679 4.95869C27.5159 4.61069 27.6899 4.17869 27.6899 3.66269C27.6899 3.13469 27.5159 2.69669 27.1679 2.34869C26.8319 2.00069 26.4059 1.82669 25.8899 1.82669C25.3739 1.82669 24.9419 2.00069 24.5939 2.34869C24.2459 2.69669 24.0719 3.13469 24.0719 3.66269C24.0719 4.17869 24.2459 4.61069 24.5939 4.95869C24.9419 5.30669 25.3739 5.48069 25.8899 5.48069ZM33.7009 2.74469V6.57869H39.7849V8.55869H33.7009V13.3827H31.3609V0.78269H40.5589V2.74469H33.7009ZM47.2745 4.00469H55.5725V5.80469H47.2745V4.00469ZM47.2745 8.36069H55.5725V10.1607H47.2745V8.36069Z" fill="#2F2F2F"/>
</svg>
