<svg width="57" height="14" viewBox="0 0 57 14" fill="none" xmlns="http://www.w3.org/2000/svg">
<path d="M10.3184 11.2494V13.2294H1.03039V11.6634L6.03439 6.91137C6.59839 6.37137 6.97639 5.90337 7.16839 5.50737C7.37239 5.09937 7.47439 4.69737 7.47439 4.30137C7.47439 3.71337 7.27639 3.26337 6.88039 2.95137C6.48439 2.63937 5.90239 2.48337 5.13439 2.48337C3.85039 2.48337 2.86639 2.92137 2.18239 3.79737L0.544391 2.53737C1.03639 1.87737 1.69639 1.36737 2.52439 1.00737C3.36439 0.63537 4.30039 0.449369 5.33239 0.449369C6.70039 0.449369 7.79239 0.77337 8.60839 1.42137C9.42439 2.06937 9.83239 2.95137 9.83239 4.06737C9.83239 4.75137 9.68839 5.39337 9.40039 5.99337C9.11239 6.59337 8.56039 7.27737 7.74439 8.04537L4.37839 11.2494H10.3184ZM15.611 5.50737C17.387 5.50737 18.701 5.85537 19.553 6.55137C20.405 7.23537 20.831 8.17137 20.831 9.35937C20.831 10.1154 20.645 10.7994 20.273 11.4114C19.901 12.0234 19.343 12.5094 18.599 12.8694C17.855 13.2294 16.937 13.4094 15.845 13.4094C14.945 13.4094 14.075 13.2834 13.235 13.0314C12.395 12.7674 11.687 12.4074 11.111 11.9514L12.101 10.1334C12.569 10.5174 13.127 10.8234 13.775 11.0514C14.435 11.2674 15.113 11.3754 15.809 11.3754C16.637 11.3754 17.285 11.2074 17.753 10.8714C18.233 10.5234 18.473 10.0494 18.473 9.44937C18.473 8.80137 18.215 8.31537 17.699 7.99137C17.195 7.65537 16.325 7.48737 15.089 7.48737H12.047L12.695 0.629369H20.093V2.59137H14.675L14.405 5.50737H15.611ZM24.9749 6.51537C24.4109 6.51537 23.8949 6.38337 23.4269 6.11937C22.9589 5.84337 22.5869 5.47737 22.3109 5.02137C22.0469 4.56537 21.9149 4.06137 21.9149 3.50937C21.9149 2.95737 22.0469 2.45337 22.3109 1.99737C22.5869 1.52937 22.9589 1.16337 23.4269 0.899369C23.8949 0.62337 24.4109 0.48537 24.9749 0.48537C25.5389 0.48537 26.0549 0.62337 26.5229 0.899369C26.9909 1.16337 27.3569 1.52937 27.6209 1.99737C27.8969 2.45337 28.0349 2.95737 28.0349 3.50937C28.0349 4.06137 27.8969 4.56537 27.6209 5.02137C27.3569 5.47737 26.9909 5.84337 26.5229 6.11937C26.0549 6.38337 25.5389 6.51537 24.9749 6.51537ZM24.9749 5.32737C25.4909 5.32737 25.9169 5.15337 26.2529 4.80537C26.6009 4.45737 26.7749 4.02537 26.7749 3.50937C26.7749 2.98137 26.6009 2.54337 26.2529 2.19537C25.9169 1.84737 25.4909 1.67337 24.9749 1.67337C24.4589 1.67337 24.0269 1.84737 23.6789 2.19537C23.3309 2.54337 23.1569 2.98137 23.1569 3.50937C23.1569 4.02537 23.3309 4.45737 23.6789 4.80537C24.0269 5.15337 24.4589 5.32737 24.9749 5.32737ZM36.4537 13.4094C35.1817 13.4094 34.0297 13.1334 32.9977 12.5814C31.9777 12.0174 31.1737 11.2434 30.5857 10.2594C30.0097 9.27537 29.7217 8.16537 29.7217 6.92937C29.7217 5.69337 30.0157 4.58337 30.6037 3.59937C31.1917 2.61537 31.9957 1.84737 33.0157 1.29537C34.0477 0.731369 35.1997 0.449369 36.4717 0.449369C37.5037 0.449369 38.4457 0.62937 39.2977 0.98937C40.1497 1.34937 40.8697 1.87137 41.4577 2.55537L39.9457 3.97737C39.0337 2.99337 37.9117 2.50137 36.5797 2.50137C35.7157 2.50137 34.9417 2.69337 34.2577 3.07737C33.5737 3.44937 33.0397 3.97137 32.6557 4.64337C32.2717 5.31537 32.0797 6.07737 32.0797 6.92937C32.0797 7.78137 32.2717 8.54337 32.6557 9.21537C33.0397 9.88737 33.5737 10.4154 34.2577 10.7994C34.9417 11.1714 35.7157 11.3574 36.5797 11.3574C37.9117 11.3574 39.0337 10.8594 39.9457 9.86337L41.4577 11.3034C40.8697 11.9874 40.1437 12.5094 39.2797 12.8694C38.4277 13.2294 37.4857 13.4094 36.4537 13.4094ZM48.1524 3.85137H56.4504V5.65137H48.1524V3.85137ZM48.1524 8.20737H56.4504V10.0074H48.1524V8.20737Z" fill="#2F2F2F"/>
</svg>
