<svg width="375" height="59" viewBox="0 0 375 59" fill="none" xmlns="http://www.w3.org/2000/svg">
<path d="M255.864 8.2V25H252.744V10.816H249.192V8.2H255.864Z" fill="#2F2F2F"/>
<line x1="239.5" y1="27.5" x2="268.5" y2="27.5" stroke="#2F2F2F" stroke-linecap="round"/>
<path d="M260.224 50.36V53H247.84V50.912L254.512 44.576C255.264 43.856 255.768 43.232 256.024 42.704C256.296 42.16 256.432 41.624 256.432 41.096C256.432 40.312 256.168 39.712 255.64 39.296C255.112 38.88 254.336 38.672 253.312 38.672C251.6 38.672 250.288 39.256 249.376 40.424L247.192 38.744C247.848 37.864 248.728 37.184 249.832 36.704C250.952 36.208 252.2 35.96 253.576 35.96C255.4 35.96 256.856 36.392 257.944 37.256C259.032 38.12 259.576 39.296 259.576 40.784C259.576 41.696 259.384 42.552 259 43.352C258.616 44.152 257.88 45.064 256.792 46.088L252.304 50.36H260.224Z" fill="#2F2F2F"/>
<path d="M269.528 43.656C270.504 41.928 271.224 40.144 271.688 38.304C272.152 36.464 272.384 34.504 272.384 32.424C272.384 30.344 272.152 28.384 271.688 26.544C271.224 24.704 270.504 22.92 269.528 21.192H272.384C273.328 22.616 274.048 24.296 274.544 26.232C275.056 28.152 275.312 30.216 275.312 32.424C275.312 34.632 275.056 36.696 274.544 38.616C274.048 40.52 273.328 42.2 272.384 43.656H269.528Z" fill="#2F2F2F"/>
<path d="M294.56 26.496H305.624V28.896H294.56V26.496ZM294.56 32.304H305.624V34.704H294.56V32.304Z" fill="#2F2F2F"/>
<path d="M279.734 10.278C281.51 10.278 282.824 10.626 283.676 11.322C284.528 12.006 284.954 12.942 284.954 14.13C284.954 14.886 284.768 15.57 284.396 16.182C284.024 16.794 283.466 17.28 282.722 17.64C281.978 18 281.06 18.18 279.968 18.18C279.068 18.18 278.198 18.054 277.358 17.802C276.518 17.538 275.81 17.178 275.234 16.722L276.224 14.904C276.692 15.288 277.25 15.594 277.898 15.822C278.558 16.038 279.236 16.146 279.932 16.146C280.76 16.146 281.408 15.978 281.876 15.642C282.356 15.294 282.596 14.82 282.596 14.22C282.596 13.572 282.338 13.086 281.822 12.762C281.318 12.426 280.448 12.258 279.212 12.258H276.17L276.818 5.4H284.216V7.362H278.798L278.528 10.278H279.734Z" fill="#2F2F2F"/>
<path d="M237.472 43.656C236.496 41.928 235.776 40.144 235.312 38.304C234.848 36.464 234.616 34.504 234.616 32.424C234.616 30.344 234.848 28.384 235.312 26.544C235.776 24.704 236.496 22.92 237.472 21.192H234.616C233.672 22.616 232.952 24.296 232.456 26.232C231.944 28.152 231.688 30.216 231.688 32.424C231.688 34.632 231.944 36.696 232.456 38.616C232.952 40.52 233.672 42.2 234.616 43.656H237.472Z" fill="#2F2F2F"/>
<path d="M323.005 16.0637L369.851 15.9373L369.841 13.9374L322.995 14.0637L323.005 16.0637ZM373.872 19.9265L373.974 39.9264L375.974 39.921L375.872 19.9211L373.872 19.9265ZM369.995 43.9372L323.149 44.0635L323.159 46.0634L370.005 45.9371L369.995 43.9372ZM319.128 40.0743L319.026 20.0744L317.026 20.0798L317.128 40.0797L319.128 40.0743ZM323.149 44.0635C320.94 44.0694 319.14 42.2834 319.128 40.0743L317.128 40.0797C317.146 43.3934 319.846 46.0724 323.159 46.0634L323.149 44.0635ZM373.974 39.9264C373.986 42.1355 372.204 43.9312 369.995 43.9372L370.005 45.9371C373.319 45.9282 375.991 43.2347 375.974 39.921L373.974 39.9264ZM369.851 15.9373C372.06 15.9314 373.86 17.7174 373.872 19.9265L375.872 19.9211C375.854 16.6074 373.154 13.9284 369.841 13.9374L369.851 15.9373ZM322.995 14.0637C319.681 14.0726 317.009 16.7661 317.026 20.0798L319.026 20.0744C319.014 17.8653 320.796 16.0696 323.005 16.0637L322.995 14.0637Z" fill="#2F2F2F"/>
<path d="M31.224 20.36V23H18.84V20.912L25.512 14.576C26.264 13.856 26.768 13.232 27.024 12.704C27.296 12.16 27.432 11.624 27.432 11.096C27.432 10.312 27.168 9.712 26.64 9.296C26.112 8.88 25.336 8.672 24.312 8.672C22.6 8.672 21.288 9.256 20.376 10.424L18.192 8.744C18.848 7.864 19.728 7.184 20.832 6.704C21.952 6.208 23.2 5.96 24.576 5.96C26.4 5.96 27.856 6.392 28.944 7.256C30.032 8.12 30.576 9.296 30.576 10.784C30.576 11.696 30.384 12.552 30 13.352C29.616 14.152 28.88 15.064 27.792 16.088L23.304 20.36H31.224Z" fill="#2F2F2F"/>
<line x1="10.5" y1="27.5" x2="39.5" y2="27.5" stroke="#2F2F2F" stroke-linecap="round"/>
<path d="M26.208 43.136C27.76 43.328 28.944 43.856 29.76 44.72C30.576 45.584 30.984 46.664 30.984 47.96C30.984 48.936 30.736 49.824 30.24 50.624C29.744 51.424 28.992 52.064 27.984 52.544C26.992 53.008 25.776 53.24 24.336 53.24C23.136 53.24 21.976 53.072 20.856 52.736C19.752 52.384 18.808 51.904 18.024 51.296L19.368 48.872C19.976 49.384 20.712 49.792 21.576 50.096C22.456 50.384 23.36 50.528 24.288 50.528C25.392 50.528 26.256 50.304 26.88 49.856C27.52 49.392 27.84 48.768 27.84 47.984C27.84 47.2 27.536 46.592 26.928 46.16C26.336 45.712 25.424 45.488 24.192 45.488H22.656V43.352L26.472 38.816H18.84V36.2H30.288V38.288L26.208 43.136Z" fill="#2F2F2F"/>
<path d="M40.528 43.656C41.504 41.928 42.224 40.144 42.688 38.304C43.152 36.464 43.384 34.504 43.384 32.424C43.384 30.344 43.152 28.384 42.688 26.544C42.224 24.704 41.504 22.92 40.528 21.192H43.384C44.328 22.616 45.048 24.296 45.544 26.232C46.056 28.152 46.312 30.216 46.312 32.424C46.312 34.632 46.056 36.696 45.544 38.616C45.048 40.52 44.328 42.2 43.384 43.656H40.528Z" fill="#2F2F2F"/>
<path d="M65.56 26.496H76.624V28.896H65.56V26.496ZM65.56 32.304H76.624V34.704H65.56V32.304Z" fill="#2F2F2F"/>
<path d="M52.156 10.602C53.32 10.746 54.208 11.142 54.82 11.79C55.432 12.438 55.738 13.248 55.738 14.22C55.738 14.952 55.552 15.618 55.18 16.218C54.808 16.818 54.244 17.298 53.488 17.658C52.744 18.006 51.832 18.18 50.752 18.18C49.852 18.18 48.982 18.054 48.142 17.802C47.314 17.538 46.606 17.178 46.018 16.722L47.026 14.904C47.482 15.288 48.034 15.594 48.682 15.822C49.342 16.038 50.02 16.146 50.716 16.146C51.544 16.146 52.192 15.978 52.66 15.642C53.14 15.294 53.38 14.826 53.38 14.238C53.38 13.65 53.152 13.194 52.696 12.87C52.252 12.534 51.568 12.366 50.644 12.366H49.492V10.764L52.354 7.362H46.63V5.4H55.216V6.966L52.156 10.602Z" fill="#2F2F2F"/>
<path d="M8.472 43.656C7.496 41.928 6.776 40.144 6.312 38.304C5.848 36.464 5.616 34.504 5.616 32.424C5.616 30.344 5.848 28.384 6.312 26.544C6.776 24.704 7.496 22.92 8.472 21.192H5.616C4.672 22.616 3.952 24.296 3.456 26.232C2.944 28.152 2.688 30.216 2.688 32.424C2.688 34.632 2.944 36.696 3.456 38.616C3.952 40.52 4.672 42.2 5.616 43.656H8.472Z" fill="#2F2F2F"/>
<path d="M94.0051 15.5637L140.851 15.4373L140.841 13.4374L93.9948 13.5637L94.0051 15.5637ZM144.872 19.4265L144.974 39.4264L146.974 39.421L146.872 19.4211L144.872 19.4265ZM140.995 43.4372L94.149 43.5635L94.1593 45.5634L141.005 45.4371L140.995 43.4372ZM90.1285 39.5743L90.0257 19.5744L88.0257 19.5798L88.1285 39.5797L90.1285 39.5743ZM94.149 43.5635C91.9399 43.5694 90.1398 41.7834 90.1285 39.5743L88.1285 39.5797C88.1455 42.8934 90.8456 45.5724 94.1593 45.5634L94.149 43.5635ZM144.974 39.4264C144.986 41.6355 143.204 43.4312 140.995 43.4372L141.005 45.4371C144.319 45.4282 146.991 42.7347 146.974 39.421L144.974 39.4264ZM140.851 15.4373C143.06 15.4314 144.86 17.2174 144.872 19.4265L146.872 19.4211C146.854 16.1074 144.154 13.4284 140.841 13.4374L140.851 15.4373ZM93.9948 13.5637C90.6811 13.5726 88.0087 16.2661 88.0257 19.5798L90.0257 19.5744C90.0143 17.3653 91.796 15.5696 94.0051 15.5637L93.9948 13.5637Z" fill="#2F2F2F"/>
<path d="M106.066 29.376C106.726 29.676 107.23 30.084 107.578 30.6C107.938 31.104 108.118 31.698 108.118 32.382C108.118 33.15 107.902 33.822 107.47 34.398C107.05 34.974 106.45 35.418 105.67 35.73C104.89 36.03 103.984 36.18 102.952 36.18C101.92 36.18 101.014 36.03 100.234 35.73C99.4656 35.418 98.8716 34.974 98.4516 34.398C98.0316 33.822 97.8216 33.15 97.8216 32.382C97.8216 31.698 97.9956 31.104 98.3436 30.6C98.6916 30.084 99.1896 29.676 99.8376 29.376C99.3336 29.1 98.9436 28.74 98.6676 28.296C98.4036 27.84 98.2716 27.318 98.2716 26.73C98.2716 26.022 98.4636 25.404 98.8476 24.876C99.2436 24.348 99.7956 23.94 100.504 23.652C101.212 23.364 102.028 23.22 102.952 23.22C103.888 23.22 104.71 23.364 105.418 23.652C106.126 23.94 106.678 24.348 107.074 24.876C107.47 25.404 107.668 26.022 107.668 26.73C107.668 27.318 107.53 27.834 107.254 28.278C106.978 28.722 106.582 29.088 106.066 29.376ZM102.952 25.056C102.22 25.056 101.638 25.212 101.206 25.524C100.786 25.836 100.576 26.274 100.576 26.838C100.576 27.378 100.786 27.81 101.206 28.134C101.638 28.446 102.22 28.602 102.952 28.602C103.696 28.602 104.284 28.446 104.716 28.134C105.148 27.81 105.364 27.378 105.364 26.838C105.364 26.274 105.142 25.836 104.698 25.524C104.266 25.212 103.684 25.056 102.952 25.056ZM102.952 34.344C103.816 34.344 104.5 34.164 105.004 33.804C105.508 33.444 105.76 32.946 105.76 32.31C105.76 31.686 105.508 31.194 105.004 30.834C104.5 30.474 103.816 30.294 102.952 30.294C102.088 30.294 101.41 30.474 100.918 30.834C100.426 31.194 100.18 31.686 100.18 32.31C100.18 32.946 100.426 33.444 100.918 33.804C101.41 34.164 102.088 34.344 102.952 34.344ZM114.244 20.844H116.26L110.32 37.8H108.304L114.244 20.844ZM125.441 34.02V36H116.153V34.434L121.157 29.682C121.721 29.142 122.099 28.674 122.291 28.278C122.495 27.87 122.597 27.468 122.597 27.072C122.597 26.484 122.399 26.034 122.003 25.722C121.607 25.41 121.025 25.254 120.257 25.254C118.973 25.254 117.989 25.692 117.305 26.568L115.667 25.308C116.159 24.648 116.819 24.138 117.647 23.778C118.487 23.406 119.423 23.22 120.455 23.22C121.823 23.22 122.915 23.544 123.731 24.192C124.547 24.84 124.955 25.722 124.955 26.838C124.955 27.522 124.811 28.164 124.523 28.764C124.235 29.364 123.683 30.048 122.867 30.816L119.501 34.02H125.441ZM136.243 23.4V24.966L131.347 36H128.845L133.579 25.38H128.629V27.522H126.451V23.4H136.243Z" fill="#2F2F2F"/>
<path d="M334.448 25.4V38H332.108V27.362H329.444V25.4H334.448ZM341.555 22.844H343.571L337.631 39.8H335.615L341.555 22.844ZM348.991 30.602C350.155 30.746 351.043 31.142 351.655 31.79C352.267 32.438 352.573 33.248 352.573 34.22C352.573 34.952 352.387 35.618 352.015 36.218C351.643 36.818 351.079 37.298 350.323 37.658C349.579 38.006 348.667 38.18 347.587 38.18C346.687 38.18 345.817 38.054 344.977 37.802C344.149 37.538 343.441 37.178 342.853 36.722L343.861 34.904C344.317 35.288 344.869 35.594 345.517 35.822C346.177 36.038 346.855 36.146 347.551 36.146C348.379 36.146 349.027 35.978 349.495 35.642C349.975 35.294 350.215 34.826 350.215 34.238C350.215 33.65 349.987 33.194 349.531 32.87C349.087 32.534 348.403 32.366 347.479 32.366H346.327V30.764L349.189 27.362H343.465V25.4H352.051V26.966L348.991 30.602ZM363.142 36.02V38H353.854V36.434L358.858 31.682C359.422 31.142 359.8 30.674 359.992 30.278C360.196 29.87 360.298 29.468 360.298 29.072C360.298 28.484 360.1 28.034 359.704 27.722C359.308 27.41 358.726 27.254 357.958 27.254C356.674 27.254 355.69 27.692 355.006 28.568L353.368 27.308C353.86 26.648 354.52 26.138 355.348 25.778C356.188 25.406 357.124 25.22 358.156 25.22C359.524 25.22 360.616 25.544 361.432 26.192C362.248 26.84 362.656 27.722 362.656 28.838C362.656 29.522 362.512 30.164 362.224 30.764C361.936 31.364 361.384 32.048 360.568 32.816L357.202 36.02H363.142Z" fill="#2F2F2F"/>
</svg>
