<svg width="79" height="59" viewBox="0 0 79 59" fill="none" xmlns="http://www.w3.org/2000/svg">
<path d="M31.224 20.36V23H18.84V20.912L25.512 14.576C26.264 13.856 26.768 13.232 27.024 12.704C27.296 12.16 27.432 11.624 27.432 11.096C27.432 10.312 27.168 9.712 26.64 9.296C26.112 8.88 25.336 8.672 24.312 8.672C22.6 8.672 21.288 9.256 20.376 10.424L18.192 8.744C18.848 7.864 19.728 7.184 20.832 6.704C21.952 6.208 23.2 5.96 24.576 5.96C26.4 5.96 27.856 6.392 28.944 7.256C30.032 8.12 30.576 9.296 30.576 10.784C30.576 11.696 30.384 12.552 30 13.352C29.616 14.152 28.88 15.064 27.792 16.088L23.304 20.36H31.224Z" fill="#2F2F2F"/>
<line x1="10.5" y1="27.5" x2="39.5" y2="27.5" stroke="#2F2F2F" stroke-linecap="round"/>
<path d="M26.208 43.136C27.76 43.328 28.944 43.856 29.76 44.72C30.576 45.584 30.984 46.664 30.984 47.96C30.984 48.936 30.736 49.824 30.24 50.624C29.744 51.424 28.992 52.064 27.984 52.544C26.992 53.008 25.776 53.24 24.336 53.24C23.136 53.24 21.976 53.072 20.856 52.736C19.752 52.384 18.808 51.904 18.024 51.296L19.368 48.872C19.976 49.384 20.712 49.792 21.576 50.096C22.456 50.384 23.36 50.528 24.288 50.528C25.392 50.528 26.256 50.304 26.88 49.856C27.52 49.392 27.84 48.768 27.84 47.984C27.84 47.2 27.536 46.592 26.928 46.16C26.336 45.712 25.424 45.488 24.192 45.488H22.656V43.352L26.472 38.816H18.84V36.2H30.288V38.288L26.208 43.136Z" fill="#2F2F2F"/>
<path d="M40.528 43.656C41.504 41.928 42.224 40.144 42.688 38.304C43.152 36.464 43.384 34.504 43.384 32.424C43.384 30.344 43.152 28.384 42.688 26.544C42.224 24.704 41.504 22.92 40.528 21.192H43.384C44.328 22.616 45.048 24.296 45.544 26.232C46.056 28.152 46.312 30.216 46.312 32.424C46.312 34.632 46.056 36.696 45.544 38.616C45.048 40.52 44.328 42.2 43.384 43.656H40.528Z" fill="#2F2F2F"/>
<path d="M65.56 26.496H76.624V28.896H65.56V26.496ZM65.56 32.304H76.624V34.704H65.56V32.304Z" fill="#2F2F2F"/>
<path d="M52.156 10.602C53.32 10.746 54.208 11.142 54.82 11.79C55.432 12.438 55.738 13.248 55.738 14.22C55.738 14.952 55.552 15.618 55.18 16.218C54.808 16.818 54.244 17.298 53.488 17.658C52.744 18.006 51.832 18.18 50.752 18.18C49.852 18.18 48.982 18.054 48.142 17.802C47.314 17.538 46.606 17.178 46.018 16.722L47.026 14.904C47.482 15.288 48.034 15.594 48.682 15.822C49.342 16.038 50.02 16.146 50.716 16.146C51.544 16.146 52.192 15.978 52.66 15.642C53.14 15.294 53.38 14.826 53.38 14.238C53.38 13.65 53.152 13.194 52.696 12.87C52.252 12.534 51.568 12.366 50.644 12.366H49.492V10.764L52.354 7.362H46.63V5.4H55.216V6.966L52.156 10.602Z" fill="#2F2F2F"/>
<path d="M8.472 43.656C7.496 41.928 6.776 40.144 6.312 38.304C5.848 36.464 5.616 34.504 5.616 32.424C5.616 30.344 5.848 28.384 6.312 26.544C6.776 24.704 7.496 22.92 8.472 21.192H5.616C4.672 22.616 3.952 24.296 3.456 26.232C2.944 28.152 2.688 30.216 2.688 32.424C2.688 34.632 2.944 36.696 3.456 38.616C3.952 40.52 4.672 42.2 5.616 43.656H8.472Z" fill="#2F2F2F"/>
</svg>
