<svg width="79" height="58" viewBox="0 0 79 58" fill="none" xmlns="http://www.w3.org/2000/svg">
<path d="M26.864 7.2V24H23.744V9.816H20.192V7.2H26.864Z" fill="#2F2F2F"/>
<line x1="10.5" y1="26.5" x2="39.5" y2="26.5" stroke="#2F2F2F" stroke-linecap="round"/>
<path d="M31.224 49.36V52H18.84V49.912L25.512 43.576C26.264 42.856 26.768 42.232 27.024 41.704C27.296 41.16 27.432 40.624 27.432 40.096C27.432 39.312 27.168 38.712 26.64 38.296C26.112 37.88 25.336 37.672 24.312 37.672C22.6 37.672 21.288 38.256 20.376 39.424L18.192 37.744C18.848 36.864 19.728 36.184 20.832 35.704C21.952 35.208 23.2 34.96 24.576 34.96C26.4 34.96 27.856 35.392 28.944 36.256C30.032 37.12 30.576 38.296 30.576 39.784C30.576 40.696 30.384 41.552 30 42.352C29.616 43.152 28.88 44.064 27.792 45.088L23.304 49.36H31.224Z" fill="#2F2F2F"/>
<path d="M40.528 42.656C41.504 40.928 42.224 39.144 42.688 37.304C43.152 35.464 43.384 33.504 43.384 31.424C43.384 29.344 43.152 27.384 42.688 25.544C42.224 23.704 41.504 21.92 40.528 20.192H43.384C44.328 21.616 45.048 23.296 45.544 25.232C46.056 27.152 46.312 29.216 46.312 31.424C46.312 33.632 46.056 35.696 45.544 37.616C45.048 39.52 44.328 41.2 43.384 42.656H40.528Z" fill="#2F2F2F"/>
<path d="M65.56 25.496H76.624V27.896H65.56V25.496ZM65.56 31.304H76.624V33.704H65.56V31.304Z" fill="#2F2F2F"/>
<path d="M50.734 9.278C52.51 9.278 53.824 9.626 54.676 10.322C55.528 11.006 55.954 11.942 55.954 13.13C55.954 13.886 55.768 14.57 55.396 15.182C55.024 15.794 54.466 16.28 53.722 16.64C52.978 17 52.06 17.18 50.968 17.18C50.068 17.18 49.198 17.054 48.358 16.802C47.518 16.538 46.81 16.178 46.234 15.722L47.224 13.904C47.692 14.288 48.25 14.594 48.898 14.822C49.558 15.038 50.236 15.146 50.932 15.146C51.76 15.146 52.408 14.978 52.876 14.642C53.356 14.294 53.596 13.82 53.596 13.22C53.596 12.572 53.338 12.086 52.822 11.762C52.318 11.426 51.448 11.258 50.212 11.258H47.17L47.818 4.4H55.216V6.362H49.798L49.528 9.278H50.734Z" fill="#2F2F2F"/>
<path d="M8.472 42.656C7.496 40.928 6.776 39.144 6.312 37.304C5.848 35.464 5.616 33.504 5.616 31.424C5.616 29.344 5.848 27.384 6.312 25.544C6.776 23.704 7.496 21.92 8.472 20.192H5.616C4.672 21.616 3.952 23.296 3.456 25.232C2.944 27.152 2.688 29.216 2.688 31.424C2.688 33.632 2.944 35.696 3.456 37.616C3.952 39.52 4.672 41.2 5.616 42.656H8.472Z" fill="#2F2F2F"/>
</svg>
