<svg width="107" height="31" viewBox="0 0 107 31" fill="none" xmlns="http://www.w3.org/2000/svg">
<path d="M5.00512 1.15643L51.851 1.03011L51.8407 -0.969862L4.99484 -0.843547L5.00512 1.15643ZM55.8715 5.01927L55.9743 25.0192L57.9743 25.0138L57.8715 5.01388L55.8715 5.01927ZM51.9949 29.0299L5.14902 29.1562L5.1593 31.1562L52.0052 31.0299L51.9949 29.0299ZM1.12848 25.1671L1.02569 5.16716L-0.9743 5.17255L-0.871515 25.1725L1.12848 25.1671ZM5.14902 29.1562C2.93989 29.1622 1.13983 27.3762 1.12848 25.1671L-0.871515 25.1725C-0.854486 28.4861 1.8456 31.1652 5.1593 31.1562L5.14902 29.1562ZM55.9743 25.0192C55.9857 27.2283 54.204 29.024 51.9949 29.0299L52.0052 31.0299C55.3189 31.021 57.9913 28.3275 57.9743 25.0138L55.9743 25.0192ZM51.851 1.03011C54.0601 1.02416 55.8602 2.81016 55.8715 5.01927L57.8715 5.01388C57.8545 1.70022 55.1544 -0.978797 51.8407 -0.969862L51.851 1.03011ZM4.99484 -0.843547C1.68115 -0.834612 -0.99133 1.85889 -0.9743 5.17255L1.02569 5.16716C1.01434 2.95805 2.79599 1.16238 5.00512 1.15643L4.99484 -0.843547Z" fill="#2F2F2F"/>
<path d="M78.1967 11.4808V19.6348C78.1967 23.0188 76.4687 24.7108 73.0127 24.7108C72.0887 24.7108 71.2127 24.5908 70.3847 24.3508C69.5567 24.1228 68.8727 23.7868 68.3327 23.3428L69.3407 21.6508C69.7607 21.9988 70.2887 22.2748 70.9247 22.4788C71.5727 22.6948 72.2267 22.8028 72.8867 22.8028C73.9427 22.8028 74.7167 22.5628 75.2087 22.0828C75.7007 21.6028 75.9467 20.8708 75.9467 19.8868V19.3828C75.5627 19.8028 75.0947 20.1208 74.5427 20.3368C73.9907 20.5528 73.3847 20.6608 72.7247 20.6608C71.8127 20.6608 70.9847 20.4688 70.2407 20.0848C69.5087 19.6888 68.9267 19.1368 68.4947 18.4288C68.0747 17.7208 67.8647 16.9108 67.8647 15.9988C67.8647 15.0868 68.0747 14.2828 68.4947 13.5868C68.9267 12.8788 69.5087 12.3328 70.2407 11.9488C70.9847 11.5648 71.8127 11.3728 72.7247 11.3728C73.4207 11.3728 74.0507 11.4868 74.6147 11.7148C75.1907 11.9428 75.6707 12.2908 76.0547 12.7588V11.4808H78.1967ZM73.0667 18.7528C73.9187 18.7528 74.6147 18.5008 75.1547 17.9968C75.7067 17.4808 75.9827 16.8148 75.9827 15.9988C75.9827 15.1948 75.7067 14.5408 75.1547 14.0368C74.6147 13.5328 73.9187 13.2808 73.0667 13.2808C72.2027 13.2808 71.4947 13.5328 70.9427 14.0368C70.4027 14.5408 70.1327 15.1948 70.1327 15.9988C70.1327 16.8148 70.4027 17.4808 70.9427 17.9968C71.4947 18.5008 72.2027 18.7528 73.0667 18.7528ZM81.1547 11.4808H83.4047V21.0928H81.1547V11.4808ZM82.2887 9.89677C81.8807 9.89677 81.5387 9.77077 81.2627 9.51877C80.9867 9.25477 80.8487 8.93077 80.8487 8.54677C80.8487 8.16277 80.9867 7.84477 81.2627 7.59277C81.5387 7.32877 81.8807 7.19677 82.2887 7.19677C82.6967 7.19677 83.0387 7.32277 83.3147 7.57477C83.5907 7.81477 83.7287 8.12077 83.7287 8.49277C83.7287 8.88877 83.5907 9.22477 83.3147 9.50077C83.0507 9.76477 82.7087 9.89677 82.2887 9.89677ZM88.4998 12.8848C89.1478 11.8768 90.2878 11.3728 91.9198 11.3728V13.5148C91.7278 13.4788 91.5538 13.4608 91.3978 13.4608C90.5218 13.4608 89.8378 13.7188 89.3458 14.2348C88.8538 14.7388 88.6078 15.4708 88.6078 16.4308V21.0928H86.3578V11.4808H88.4998V12.8848ZM93.8285 7.73677H96.0785V21.0928H93.8285V7.73677ZM102.002 21.2188C101.222 21.2188 100.46 21.1168 99.7157 20.9128C98.9717 20.7088 98.3777 20.4508 97.9337 20.1388L98.7977 18.4288C99.2297 18.7168 99.7457 18.9508 100.346 19.1308C100.958 19.2988 101.558 19.3828 102.146 19.3828C103.49 19.3828 104.162 19.0288 104.162 18.3208C104.162 17.9848 103.988 17.7508 103.64 17.6188C103.304 17.4868 102.758 17.3608 102.002 17.2408C101.21 17.1208 100.562 16.9828 100.058 16.8268C99.5657 16.6708 99.1337 16.4008 98.7617 16.0168C98.4017 15.6208 98.2217 15.0748 98.2217 14.3788C98.2217 13.4668 98.5997 12.7408 99.3557 12.2008C100.124 11.6488 101.156 11.3728 102.452 11.3728C103.112 11.3728 103.772 11.4508 104.432 11.6068C105.092 11.7508 105.632 11.9488 106.052 12.2008L105.188 13.9108C104.372 13.4308 103.454 13.1908 102.434 13.1908C101.774 13.1908 101.27 13.2928 100.922 13.4968C100.586 13.6888 100.418 13.9468 100.418 14.2708C100.418 14.6308 100.598 14.8888 100.958 15.0448C101.33 15.1888 101.9 15.3268 102.668 15.4588C103.436 15.5788 104.066 15.7168 104.558 15.8728C105.05 16.0288 105.47 16.2928 105.818 16.6648C106.178 17.0368 106.358 17.5648 106.358 18.2488C106.358 19.1488 105.968 19.8688 105.188 20.4088C104.408 20.9488 103.346 21.2188 102.002 21.2188Z" fill="#2F2F2F"/>
<path d="M31.918 20.02V22H22.63V20.434L27.634 15.682C28.198 15.142 28.576 14.674 28.768 14.278C28.972 13.87 29.074 13.468 29.074 13.072C29.074 12.484 28.876 12.034 28.48 11.722C28.084 11.41 27.502 11.254 26.734 11.254C25.45 11.254 24.466 11.692 23.782 12.568L22.144 11.308C22.636 10.648 23.296 10.138 24.124 9.778C24.964 9.406 25.9 9.22 26.932 9.22C28.3 9.22 29.392 9.544 30.208 10.192C31.024 10.84 31.432 11.722 31.432 12.838C31.432 13.522 31.288 14.164 31 14.764C30.712 15.364 30.16 16.048 29.344 16.816L25.978 20.02H31.918ZM37.6246 9.4V22H35.2846V11.362H32.6206V9.4H37.6246Z" fill="#2F2F2F"/>
</svg>
