<svg width="183" height="31" viewBox="0 0 183 31" fill="none" xmlns="http://www.w3.org/2000/svg">
<path d="M5.00512 1.13983L51.851 1.01351L51.8407 -0.986463L4.99484 -0.860148L5.00512 1.13983ZM55.8715 5.00267L55.9743 25.0026L57.9743 24.9972L57.8715 4.99728L55.8715 5.00267ZM51.9949 29.0133L5.14902 29.1396L5.1593 31.1396L52.0052 31.0133L51.9949 29.0133ZM1.12848 25.1505L1.02569 5.15056L-0.9743 5.15595L-0.871515 25.1559L1.12848 25.1505ZM5.14902 29.1396C2.93989 29.1456 1.13983 27.3596 1.12848 25.1505L-0.871515 25.1559C-0.854486 28.4695 1.8456 31.1486 5.1593 31.1396L5.14902 29.1396ZM55.9743 25.0026C55.9857 27.2117 54.204 29.0074 51.9949 29.0133L52.0052 31.0133C55.3189 31.0044 57.9913 28.3109 57.9743 24.9972L55.9743 25.0026ZM51.851 1.01351C54.0601 1.00755 55.8602 2.79356 55.8715 5.00267L57.8715 4.99728C57.8545 1.68361 55.1544 -0.995398 51.8407 -0.986463L51.851 1.01351ZM4.99484 -0.860148C1.68115 -0.851213 -0.99133 1.84229 -0.9743 5.15595L1.02569 5.15056C1.01434 2.94145 2.79599 1.14578 5.00512 1.13983L4.99484 -0.860148Z" fill="#2F2F2F"/>
<path d="M71.57 21.2022C70.79 21.2022 70.028 21.1002 69.284 20.8962C68.54 20.6922 67.946 20.4342 67.502 20.1222L68.366 18.4122C68.798 18.7002 69.314 18.9342 69.914 19.1142C70.526 19.2822 71.126 19.3662 71.714 19.3662C73.058 19.3662 73.73 19.0122 73.73 18.3042C73.73 17.9682 73.556 17.7342 73.208 17.6022C72.872 17.4702 72.326 17.3442 71.57 17.2242C70.778 17.1042 70.13 16.9662 69.626 16.8102C69.134 16.6542 68.702 16.3842 68.33 16.0002C67.97 15.6042 67.79 15.0582 67.79 14.3622C67.79 13.4502 68.168 12.7242 68.924 12.1842C69.692 11.6322 70.724 11.3562 72.02 11.3562C72.68 11.3562 73.34 11.4342 74 11.5902C74.66 11.7342 75.2 11.9322 75.62 12.1842L74.756 13.8942C73.94 13.4142 73.022 13.1742 72.002 13.1742C71.342 13.1742 70.838 13.2762 70.49 13.4802C70.154 13.6722 69.986 13.9302 69.986 14.2542C69.986 14.6142 70.166 14.8722 70.526 15.0282C70.898 15.1722 71.468 15.3102 72.236 15.4422C73.004 15.5622 73.634 15.7002 74.126 15.8562C74.618 16.0122 75.038 16.2762 75.386 16.6482C75.746 17.0202 75.926 17.5482 75.926 18.2322C75.926 19.1322 75.536 19.8522 74.756 20.3922C73.976 20.9322 72.914 21.2022 71.57 21.2022ZM83.6417 20.5542C83.3777 20.7702 83.0537 20.9322 82.6697 21.0402C82.2977 21.1482 81.9017 21.2022 81.4817 21.2022C80.4257 21.2022 79.6097 20.9262 79.0337 20.3742C78.4577 19.8222 78.1697 19.0182 78.1697 17.9622V13.3362H76.5857V11.5362H78.1697V9.34017H80.4197V11.5362H82.9937V13.3362H80.4197V17.9082C80.4197 18.3762 80.5337 18.7362 80.7617 18.9882C80.9897 19.2282 81.3197 19.3482 81.7517 19.3482C82.2557 19.3482 82.6757 19.2162 83.0117 18.9522L83.6417 20.5542ZM87.6346 12.8682C88.2826 11.8602 89.4226 11.3562 91.0546 11.3562V13.4982C90.8626 13.4622 90.6886 13.4442 90.5326 13.4442C89.6566 13.4442 88.9726 13.7022 88.4806 14.2182C87.9886 14.7222 87.7426 15.4542 87.7426 16.4142V21.0762H85.4926V11.4642H87.6346V12.8682ZM96.5826 11.3562C97.9986 11.3562 99.0786 11.6982 99.8226 12.3822C100.579 13.0542 100.957 14.0742 100.957 15.4422V21.0762H98.8326V19.9062C98.5566 20.3262 98.1606 20.6502 97.6446 20.8782C97.1406 21.0942 96.5286 21.2022 95.8086 21.2022C95.0886 21.2022 94.4586 21.0822 93.9186 20.8422C93.3786 20.5902 92.9586 20.2482 92.6586 19.8162C92.3706 19.3722 92.2266 18.8742 92.2266 18.3222C92.2266 17.4582 92.5446 16.7682 93.1806 16.2522C93.8286 15.7242 94.8426 15.4602 96.2226 15.4602H98.7066V15.3162C98.7066 14.6442 98.5026 14.1282 98.0946 13.7682C97.6986 13.4082 97.1046 13.2282 96.3126 13.2282C95.7726 13.2282 95.2386 13.3122 94.7106 13.4802C94.1946 13.6482 93.7566 13.8822 93.3966 14.1822L92.5146 12.5442C93.0186 12.1602 93.6246 11.8662 94.3326 11.6622C95.0406 11.4582 95.7906 11.3562 96.5826 11.3562ZM96.2766 19.5642C96.8406 19.5642 97.3386 19.4382 97.7706 19.1862C98.2146 18.9222 98.5266 18.5502 98.7066 18.0702V16.9542H96.3846C95.0886 16.9542 94.4406 17.3802 94.4406 18.2322C94.4406 18.6402 94.6026 18.9642 94.9266 19.2042C95.2506 19.4442 95.7006 19.5642 96.2766 19.5642ZM118.662 11.4642L115.116 21.0762H112.956L110.472 14.4522L107.952 21.0762H105.792L102.264 11.4642H104.388L106.926 18.5562L109.572 11.4642H111.462L114.054 18.5922L116.664 11.4642H118.662ZM125.537 11.3562C126.473 11.3562 127.307 11.5602 128.039 11.9682C128.783 12.3762 129.365 12.9522 129.785 13.6962C130.205 14.4402 130.415 15.2982 130.415 16.2702C130.415 17.2422 130.205 18.1062 129.785 18.8622C129.365 19.6062 128.783 20.1822 128.039 20.5902C127.307 20.9982 126.473 21.2022 125.537 21.2022C124.877 21.2022 124.271 21.0882 123.719 20.8602C123.179 20.6322 122.723 20.2902 122.351 19.8342V21.0762H120.209V7.72017H122.459V12.6342C122.843 12.2142 123.293 11.8962 123.809 11.6802C124.337 11.4642 124.913 11.3562 125.537 11.3562ZM125.285 19.2762C126.113 19.2762 126.791 19.0002 127.319 18.4482C127.859 17.8962 128.129 17.1702 128.129 16.2702C128.129 15.3702 127.859 14.6442 127.319 14.0922C126.791 13.5402 126.113 13.2642 125.285 13.2642C124.745 13.2642 124.259 13.3902 123.827 13.6422C123.395 13.8822 123.053 14.2302 122.801 14.6862C122.549 15.1422 122.423 15.6702 122.423 16.2702C122.423 16.8702 122.549 17.3982 122.801 17.8542C123.053 18.3102 123.395 18.6642 123.827 18.9162C124.259 19.1562 124.745 19.2762 125.285 19.2762ZM141.585 16.3242C141.585 16.4802 141.573 16.7022 141.549 16.9902H134.007C134.139 17.6982 134.481 18.2622 135.033 18.6822C135.597 19.0902 136.293 19.2942 137.121 19.2942C138.177 19.2942 139.047 18.9462 139.731 18.2502L140.937 19.6362C140.505 20.1522 139.959 20.5422 139.299 20.8062C138.639 21.0702 137.895 21.2022 137.067 21.2022C136.011 21.2022 135.081 20.9922 134.277 20.5722C133.473 20.1522 132.849 19.5702 132.405 18.8262C131.973 18.0702 131.757 17.2182 131.757 16.2702C131.757 15.3342 131.967 14.4942 132.387 13.7502C132.819 12.9942 133.413 12.4062 134.169 11.9862C134.925 11.5662 135.777 11.3562 136.725 11.3562C137.661 11.3562 138.495 11.5662 139.227 11.9862C139.971 12.3942 140.547 12.9762 140.955 13.7322C141.375 14.4762 141.585 15.3402 141.585 16.3242ZM136.725 13.1562C136.005 13.1562 135.393 13.3722 134.889 13.8042C134.397 14.2242 134.097 14.7882 133.989 15.4962H139.443C139.347 14.8002 139.053 14.2362 138.561 13.8042C138.069 13.3722 137.457 13.1562 136.725 13.1562ZM145.889 12.8682C146.537 11.8602 147.677 11.3562 149.309 11.3562V13.4982C149.117 13.4622 148.943 13.4442 148.787 13.4442C147.911 13.4442 147.227 13.7022 146.735 14.2182C146.243 14.7222 145.997 15.4542 145.997 16.4142V21.0762H143.747V11.4642H145.889V12.8682ZM153.359 12.8682C154.007 11.8602 155.147 11.3562 156.779 11.3562V13.4982C156.587 13.4622 156.413 13.4442 156.257 13.4442C155.381 13.4442 154.697 13.7022 154.205 14.2182C153.713 14.7222 153.467 15.4542 153.467 16.4142V21.0762H151.217V11.4642H153.359V12.8682ZM158.688 11.4642H160.938V21.0762H158.688V11.4642ZM159.822 9.88017C159.414 9.88017 159.072 9.75417 158.796 9.50217C158.52 9.23817 158.382 8.91417 158.382 8.53017C158.382 8.14617 158.52 7.82817 158.796 7.57617C159.072 7.31217 159.414 7.18017 159.822 7.18017C160.23 7.18017 160.572 7.30617 160.848 7.55817C161.124 7.79817 161.262 8.10417 161.262 8.47617C161.262 8.87217 161.124 9.20817 160.848 9.48417C160.584 9.74817 160.242 9.88017 159.822 9.88017ZM172.927 16.3242C172.927 16.4802 172.915 16.7022 172.891 16.9902H165.349C165.481 17.6982 165.823 18.2622 166.375 18.6822C166.939 19.0902 167.635 19.2942 168.463 19.2942C169.519 19.2942 170.389 18.9462 171.073 18.2502L172.279 19.6362C171.847 20.1522 171.301 20.5422 170.641 20.8062C169.981 21.0702 169.237 21.2022 168.409 21.2022C167.353 21.2022 166.423 20.9922 165.619 20.5722C164.815 20.1522 164.191 19.5702 163.747 18.8262C163.315 18.0702 163.099 17.2182 163.099 16.2702C163.099 15.3342 163.309 14.4942 163.729 13.7502C164.161 12.9942 164.755 12.4062 165.511 11.9862C166.267 11.5662 167.119 11.3562 168.067 11.3562C169.003 11.3562 169.837 11.5662 170.569 11.9862C171.313 12.3942 171.889 12.9762 172.297 13.7322C172.717 14.4762 172.927 15.3402 172.927 16.3242ZM168.067 13.1562C167.347 13.1562 166.735 13.3722 166.231 13.8042C165.739 14.2242 165.439 14.7882 165.331 15.4962H170.785C170.689 14.8002 170.395 14.2362 169.903 13.8042C169.411 13.3722 168.799 13.1562 168.067 13.1562ZM178.058 21.2022C177.278 21.2022 176.516 21.1002 175.772 20.8962C175.028 20.6922 174.434 20.4342 173.99 20.1222L174.854 18.4122C175.286 18.7002 175.802 18.9342 176.402 19.1142C177.014 19.2822 177.614 19.3662 178.202 19.3662C179.546 19.3662 180.218 19.0122 180.218 18.3042C180.218 17.9682 180.044 17.7342 179.696 17.6022C179.36 17.4702 178.814 17.3442 178.058 17.2242C177.266 17.1042 176.618 16.9662 176.114 16.8102C175.622 16.6542 175.19 16.3842 174.818 16.0002C174.458 15.6042 174.278 15.0582 174.278 14.3622C174.278 13.4502 174.656 12.7242 175.412 12.1842C176.18 11.6322 177.212 11.3562 178.508 11.3562C179.168 11.3562 179.828 11.4342 180.488 11.5902C181.148 11.7342 181.688 11.9322 182.108 12.1842L181.244 13.8942C180.428 13.4142 179.51 13.1742 178.49 13.1742C177.83 13.1742 177.326 13.2762 176.978 13.4802C176.642 13.6722 176.474 13.9302 176.474 14.2542C176.474 14.6142 176.654 14.8722 177.014 15.0282C177.386 15.1722 177.956 15.3102 178.724 15.4422C179.492 15.5622 180.122 15.7002 180.614 15.8562C181.106 16.0122 181.526 16.2762 181.874 16.6482C182.234 17.0202 182.414 17.5482 182.414 18.2322C182.414 19.1322 182.024 19.8522 181.244 20.3922C180.464 20.9322 179.402 21.2022 178.058 21.2022Z" fill="#2F2F2F"/>
<path d="M22.95 8.256C24.642 8.256 25.944 8.802 26.856 9.894C27.78 10.986 28.242 12.534 28.242 14.538C28.242 15.942 27.99 17.142 27.486 18.138C26.994 19.122 26.298 19.872 25.398 20.388C24.51 20.892 23.472 21.144 22.284 21.144C21.672 21.144 21.096 21.084 20.556 20.964C20.016 20.832 19.548 20.646 19.152 20.406L19.836 19.002C20.448 19.398 21.258 19.596 22.266 19.596C23.574 19.596 24.594 19.194 25.326 18.39C26.07 17.574 26.442 16.392 26.442 14.844V14.394C26.082 14.934 25.584 15.348 24.948 15.636C24.312 15.912 23.598 16.05 22.806 16.05C21.978 16.05 21.234 15.894 20.574 15.582C19.926 15.27 19.416 14.826 19.044 14.25C18.684 13.662 18.504 12.99 18.504 12.234C18.504 11.442 18.696 10.746 19.08 10.146C19.476 9.546 20.01 9.084 20.682 8.76C21.354 8.424 22.11 8.256 22.95 8.256ZM23.112 14.592C23.676 14.592 24.18 14.484 24.624 14.268C25.068 14.052 25.41 13.758 25.65 13.386C25.902 13.014 26.028 12.6 26.028 12.144C26.028 11.7 25.908 11.298 25.668 10.938C25.44 10.566 25.098 10.272 24.642 10.056C24.198 9.828 23.658 9.714 23.022 9.714C22.194 9.714 21.522 9.936 21.006 10.38C20.502 10.824 20.25 11.418 20.25 12.162C20.25 12.906 20.508 13.5 21.024 13.944C21.54 14.376 22.236 14.592 23.112 14.592ZM36.6514 21.144C35.6554 21.144 34.7674 20.892 33.9874 20.388C33.2194 19.872 32.6134 19.128 32.1694 18.156C31.7254 17.184 31.5034 16.032 31.5034 14.7C31.5034 13.368 31.7254 12.216 32.1694 11.244C32.6134 10.272 33.2194 9.534 33.9874 9.03C34.7674 8.514 35.6554 8.256 36.6514 8.256C37.6354 8.256 38.5114 8.514 39.2794 9.03C40.0594 9.534 40.6714 10.272 41.1154 11.244C41.5594 12.216 41.7814 13.368 41.7814 14.7C41.7814 16.032 41.5594 17.184 41.1154 18.156C40.6714 19.128 40.0594 19.872 39.2794 20.388C38.5114 20.892 37.6354 21.144 36.6514 21.144ZM36.6514 19.542C37.6594 19.542 38.4634 19.128 39.0634 18.3C39.6754 17.472 39.9814 16.272 39.9814 14.7C39.9814 13.128 39.6754 11.928 39.0634 11.1C38.4634 10.272 37.6594 9.858 36.6514 9.858C35.6314 9.858 34.8154 10.272 34.2034 11.1C33.6034 11.928 33.3034 13.128 33.3034 14.7C33.3034 16.272 33.6034 17.472 34.2034 18.3C34.8154 19.128 35.6314 19.542 36.6514 19.542Z" fill="#2F2F2F"/>
</svg>
